<?xml version="1.0" standalone="no"?>
<!DOCTYPE svg PUBLIC "-//W3C//DTD SVG 1.1//EN" "http://www.w3.org/Graphics/SVG/1.1/DTD/svg11.dtd" >
<svg>
<metadata>
Created by FontForge 20090914 at Tue Dec 13 00:34:24 2016
 By www-data
Copyright &#194;&#169; 2015 IcoMoon.io. All Rights Reserved.
</metadata>
<defs>
<font id="IcoMoon-Ultimate" horiz-adv-x="1024" >
  <font-face 
    font-family="IcoMoon-Ultimate"
    font-weight="400"
    font-stretch="normal"
    units-per-em="1024"
    panose-1="0 0 0 0 0 0 0 0 0 0"
    ascent="960"
    descent="-64"
    x-height="638"
    cap-height="832"
    bbox="-64.1011 -71.0029 2568.41 1024"
    underline-thickness="0"
    underline-position="0"
    unicode-range="U+0001-U+FFFD"
  />
<missing-glyph 
 />
    <glyph glyph-name="uniE900" unicode="house" 
d="M1024 370l-512 397l-512 -397v162l512 397l512 -397v-162zM896 384v-384h-768v384l384 288z" />
    <glyph glyph-name="uniE901" unicode="house&#x32;" 
d="M1024 370l-512 397l-512 -397v162l512 397l512 -397v-162zM896 384v-384h-256v256h-256v-256h-256v384l384 288z" />
    <glyph glyph-name="uniE902" unicode="house&#x33;" 
d="M512 928l-512 -512l96 -96l96 96v-416h256v192h128v-192h256v416l96 -96l96 96l-512 512v0zM512 512c-18 0 -33.167 6.16699 -45.5 18.5s-18.5 27.5 -18.5 45.5s6.16699 33.167 18.5 45.5s27.5 18.5 45.5 18.5s33.167 -6.16699 45.5 -18.5s18.5 -27.5 18.5 -45.5
s-6.16699 -33.167 -18.5 -45.5s-27.5 -18.5 -45.5 -18.5v0z" />
    <glyph glyph-name="uniE903" unicode="house&#x34;" 
d="M512 928l-512 -512l96 -96l96 96v-416h640v416l96 -96l96 96l-512 512v0zM512 512c-18 0 -33.167 6.16699 -45.5 18.5s-18.5 27.5 -18.5 45.5s6.16699 33.167 18.5 45.5s27.5 18.5 45.5 18.5s33.167 -6.16699 45.5 -18.5s18.5 -27.5 18.5 -45.5
s-6.16699 -33.167 -18.5 -45.5s-27.5 -18.5 -45.5 -18.5v0z" />
    <glyph glyph-name="uniE904" unicode="house&#x35;" 
d="M1024 352l-192 192v288h-128v-160l-192 192l-512 -512v-32h128v-320h320v192h128v-192h320v320h128v32z" />
    <glyph glyph-name="uniE905" unicode="house&#x36;" 
d="M512 960l-512 -384v-192l128 96v-480c0 -17.333 6.33301 -32.333 19 -45s27.667 -19 45 -19h640c17.333 0 32.333 6.33301 45 19s19 27.667 19 45v480l128 -96v192l-512 384v0zM832 0v0h-320v320h-192v-320h-128v0v0v528l320 240l320 -240v-528v0zM576 512h128v-128h-128
v128z" />
    <glyph glyph-name="uniE906" unicode="house&#x37;" 
d="M294 576l282 256h-288l-282 -256h288zM0 512h256v-512h-256v512v0zM672 832l-352 -320v-512h256v256h192v-256h256v512z" />
    <glyph glyph-name="uniE907" unicode="house&#x38;" 
d="M1024 416l-512 512l-512 -512l96 -96l96 96v-480h256v192h128v-192h256v480l96 -96l96 96v0zM768 0h-128v192h-256v-192h-128v480l256 256l256 -256v-480v0z" />
    <glyph glyph-name="uniE908" unicode="house&#x39;" 
d="M512 928l-512 -512l96 -96l96 96v-480h256v192h128v-192h256v480l96 -96l96 96l-512 512v0zM264 0h-8v480l8 8v-488v0zM296 0h-16v504l16 16v-520v0zM328 0h-16v536l16 16v-552v0zM360 0h-16v568l16 16v-584v0zM392 192h-8v-192h-8v600l16 16v-424v0zM424 192h-16v440
l16 16v-456v0zM456 192h-16v472l16 16v-488v0zM488 192h-16v504l16 16v-520v0zM520 192h-16v536l8 8l8 -8v-536v0zM552 192h-16v520l16 -16v-504v0zM584 192h-16v488l16 -16v-472v0zM616 192h-16v456l16 -16v-440v0zM648 0h-8v192h-8v424l16 -16v-600v0zM680 0h-16v584
l16 -16v-568v0zM712 0h-16v552l16 -16v-536v0zM744 0h-16v520l16 -16v-504v0zM768 0h-8v488l8 -8v-480v0z" />
    <glyph glyph-name="uniE909" unicode="buildings" 
d="M0 -64h512v1024h-512v-1024v0zM320 832h128v-128h-128v128v0zM320 576h128v-128h-128v128v0zM320 320h128v-128h-128v128v0zM64 832h128v-128h-128v128v0zM64 576h128v-128h-128v128v0zM64 320h128v-128h-128v128v0zM576 640h448v-64h-448v64zM576 -64h128v256h192v-256
h128v576h-448v-576z" />
    <glyph glyph-name="uniE90A" unicode="buildings&#x32;" 
d="M992 704h-32v96c0 8.66699 -3.16699 16.167 -9.5 22.5s-13.833 9.5 -22.5 9.5h-96v96c0 8.66699 -3.16699 16.167 -9.5 22.5s-13.833 9.5 -22.5 9.5s-16.167 -3.16699 -22.5 -9.5s-9.5 -13.833 -9.5 -22.5v-96h-96c-8.66699 0 -16.167 -3.16699 -22.5 -9.5
s-9.5 -13.833 -9.5 -22.5v-96h-32c-8.66699 0 -16.167 -3.16699 -22.5 -9.5s-9.5 -13.833 -9.5 -22.5v-160h192c18 0 33.167 -6.16699 45.5 -18.5s18.5 -27.5 18.5 -45.5v-448h-64v416c0 8.66699 -3.16699 16.167 -9.5 22.5s-13.833 9.5 -22.5 9.5h-384
c-8.66699 0 -16.167 -3.16699 -22.5 -9.5s-9.5 -13.833 -9.5 -22.5v-416h-64v448c0 18 6.16699 33.167 18.5 45.5s27.5 18.5 45.5 18.5h128v288c0 8.66699 -3.16699 16.167 -9.5 22.5s-13.833 9.5 -22.5 9.5h-384c-8.66699 0 -16.167 -3.16699 -22.5 -9.5
s-9.5 -13.833 -9.5 -22.5v-832c0 -8.66699 3.16699 -16.167 9.5 -22.5s13.833 -9.5 22.5 -9.5h960c8.66699 0 16.167 3.16699 22.5 9.5s9.5 13.833 9.5 22.5v704c0 8.66699 -3.16699 16.167 -9.5 22.5s-13.833 9.5 -22.5 9.5v0zM704 576h-64v64h64v-64v0zM320 768h64v-64
h-64v64v0zM320 640h64v-64h-64v64v0zM192 768h64v-64h-64v64v0zM128 192h-64v64h64v-64v0zM128 320h-64v64h64v-64v0zM128 448h-64v64h64v-64v0zM128 576h-64v64h64v-64v0zM128 704h-64v64h64v-64v0zM192 640h64v-64h-64v64v0zM704 0h-320v384h320v-384v0zM832 576h-64v64
h64v-64v0zM960 192h-64v128h64v-128v0zM960 384h-64v128h64v-128v0zM960 576h-64v64h64v-64v0zM448 320h64v-64h-64v64v0zM576 320h64v-64h-64v64v0zM448 192h64v-64h-64v64v0zM576 192h64v-64h-64v64v0z" />
    <glyph glyph-name="uniE90B" unicode="newspaper" 
d="M896 704l-0.000976562 127.999h-896v-704c0 -18 6.16699 -33.167 18.5 -45.5s27.5 -18.5 45.5 -18.5h864c26.667 0 49.334 9.33301 68.001 28s28 41.334 28 68.001v544h-128v0zM831.999 127.999h-768v640h768v-640v0zM127.999 639.999h640v-64h-640v64zM511.999 511.999
h256v-64h-256v64zM511.999 383.999h256v-64h-256v64zM511.999 255.999h192v-64h-192v64zM127.999 511.999h320v-320h-320v320z" />
    <glyph glyph-name="uniE90C" unicode="maga&#x7a;ine" 
d="M672 576h128c8.66699 0 16.167 3.16699 22.5 9.5s9.5 13.833 9.5 22.5s-3.16699 16.167 -9.5 22.5s-13.833 9.5 -22.5 9.5h-128c-8.66699 0 -16.167 -3.16699 -22.5 -9.5s-9.5 -13.833 -9.5 -22.5s3.16699 -16.167 9.5 -22.5s13.833 -9.5 22.5 -9.5v0zM672 704h128
c8.66699 0 16.167 3.16699 22.5 9.5s9.5 13.833 9.5 22.5s-3.16699 16.167 -9.5 22.5s-13.833 9.5 -22.5 9.5h-128c-8.66699 0 -16.167 -3.16699 -22.5 -9.5s-9.5 -13.833 -9.5 -22.5s3.16699 -16.167 9.5 -22.5s13.833 -9.5 22.5 -9.5v0zM672 448h128
c8.66699 0 16.167 3.16699 22.5 9.5s9.5 13.833 9.5 22.5s-3.16699 16.167 -9.5 22.5s-13.833 9.5 -22.5 9.5h-128c-8.66699 0 -16.167 -3.16699 -22.5 -9.5s-9.5 -13.833 -9.5 -22.5s3.16699 -16.167 9.5 -22.5s13.833 -9.5 22.5 -9.5v0zM224 192h576
c8.66699 0 16.167 3.16699 22.5 9.5s9.5 13.833 9.5 22.5s-3.16699 16.167 -9.5 22.5s-13.833 9.5 -22.5 9.5h-576c-8.66699 0 -16.167 -3.16699 -22.5 -9.5s-9.5 -13.833 -9.5 -22.5s3.16699 -16.167 9.5 -22.5s13.833 -9.5 22.5 -9.5v0zM224 320h576
c8.66699 0 16.167 3.16699 22.5 9.5s9.5 13.833 9.5 22.5s-3.16699 16.167 -9.5 22.5s-13.833 9.5 -22.5 9.5h-576c-8.66699 0 -16.167 -3.16699 -22.5 -9.5s-9.5 -13.833 -9.5 -22.5s3.16699 -16.167 9.5 -22.5s13.833 -9.5 22.5 -9.5v0zM928 960h-736
c-20.667 0 -38.834 -2.83301 -54.501 -8.5s-29.167 -14.167 -40.5 -25.5c-11.333 -10.667 -19.666 -24 -24.999 -40s-8 -34 -8 -54v-864c0 -8.66699 3.16699 -16.167 9.5 -22.5s13.833 -9.5 22.5 -9.5h704c8.66699 0 16.167 3.16699 22.5 9.5s9.5 13.833 9.5 22.5v32h96
c8.66699 0 16.167 3.16699 22.5 9.5s9.5 13.833 9.5 22.5v896c0 8.66699 -3.16699 16.167 -9.5 22.5s-13.833 9.5 -22.5 9.5v0zM896 64l-767.998 0.00195312v768c0 11.333 1.16699 21.166 3.5 29.499s5.83301 14.833 10.5 19.5
c5.33301 5.33301 12.166 9.16602 20.499 11.499s18.166 3.5 29.499 3.5h704v-832v0zM544.002 832.002h-320c-8.66699 0 -16.167 -3.16699 -22.5 -9.5s-9.5 -13.833 -9.5 -22.5v-320c0 -8.66699 3.16699 -16.167 9.5 -22.5s13.833 -9.5 22.5 -9.5h320
c8.66699 0 16.167 3.16699 22.5 9.5s9.5 13.833 9.5 22.5v320c0 8.66699 -3.16699 16.167 -9.5 22.5s-13.833 9.5 -22.5 9.5v0zM512.002 512.002h-256v64c0 18 6.16699 33.167 18.5 45.5s27.5 18.5 45.5 18.5h64c-18 0 -33.167 6.16699 -45.5 18.5s-18.5 27.5 -18.5 45.5
s6.16699 33.167 18.5 45.5s27.5 18.5 45.5 18.5s33.167 -6.16699 45.5 -18.5s18.5 -27.5 18.5 -45.5s-6.16699 -33.167 -18.5 -45.5s-27.5 -18.5 -45.5 -18.5h64c18 0 33.167 -6.16699 45.5 -18.5s18.5 -27.5 18.5 -45.5v-64v0z" />
    <glyph glyph-name="uniE90D" unicode="design" 
d="M1024 672v256l-992 -992h256v64h32v-64h96v128h32v-128h96v64h32v-64h96v128h32v-128h96v64h32v-64h192v192h-64v32h64v96h-128v32h128v96h-64v32h64v96h-128v32h128v96h-64v32h64v0zM832 128h-352l352 352v-352v0zM608 960l-512 -512l-96 -256l256 96l512 512
c0 48 -14.667 86.667 -44 116s-68 44 -116 44v0zM224 384l-64 64l448 448l64 -64l-448 -448v0z" />
    <glyph glyph-name="uniE90E" unicode="pencil" 
d="M864 960c44 0 81.668 -15.668 113.001 -47.001s47 -69 47 -113c0 -18 -2.83301 -35.167 -8.5 -51.5s-13.5 -31.166 -23.5 -44.499l-64 -64l-224 224l64 64c13.333 10 28.166 17.833 44.499 23.5s33.5 8.5 51.5 8.5v0zM64.001 223.999l-64 -288l288 64l592 592l-224 224
l-592 -592v0zM716.001 595.999l-448 -448l-56 56l448 448l56 -56v0z" />
    <glyph glyph-name="uniE90F" unicode="pencil&#x32;" 
d="M732 956l-572 -572l-160 -448l448 160l572 572c8 32 3.5 66.5 -13.5 103.5s-40.5 70.5 -70.5 100.5s-63.5 53.5 -100.5 70.5s-71.5 21.5 -103.5 13.5v0zM288 256l-64 64l544 544l64 -64l-544 -544v0z" />
    <glyph glyph-name="uniE910" unicode="pencil&#x33;" 
d="M762 960c-4.66699 0 -9.50098 -0.333008 -14.501 -1s-10.167 -1.66699 -15.5 -3l-572 -572l-160 -448l448 160l572 572c8 30 4.83301 62 -9.5 96s-34.666 65.5 -60.999 94.5s-56.333 53.167 -90 72.5s-66.167 29 -97.5 29v0zM417.999 190l-164 164l480 480l164 -164
l-480 -480v0z" />
    <glyph glyph-name="uniE911" unicode="pencil&#x34;" 
d="M732 956l-572 -572h96v-64h64v-64h64v-64h64v-96l572 572c8 32 3.5 66.5 -13.5 103.5s-40.5 70.5 -70.5 100.5s-63.5 53.5 -100.5 70.5s-71.5 21.5 -103.5 13.5v0zM384 128h-64v64h-64v64h-64v64h-55l-137 -384l384 137v55z" />
    <glyph glyph-name="uniE912" unicode="pencil&#x35;" 
d="M768 416l-0.000976562 -351.999h-640v640h352l128 128h-512c-26.667 0 -49.334 -9.33301 -68.001 -28s-28 -41.334 -28 -68.001v-704c0 -26.667 9.33301 -49.334 28 -68.001s41.334 -28 68.001 -28h704c26.667 0 49.334 9.33301 68.001 28s28 41.334 28 68.001v512
l-128 -128v0zM863.999 960.001l-608 -608v-160h160l608 608c0 48 -14.667 86.667 -44 116s-68 44 -116 44v0z" />
    <glyph glyph-name="uniE913" unicode="pencil&#x36;" 
d="M384 320l128 64l448 448l-64 64l-448 -448l-64 -128v0zM289 93c-15.333 33.333 -32.833 59.833 -52.5 79.5s-46.167 37.167 -79.5 52.5l99 273l128 78l384 384h-192l-384 -384l-192 -640l640 192l384 384v192l-384 -384l-78 -128z" />
    <glyph glyph-name="uniE914" unicode="pencil&#x37;" 
d="M768 416l-0.000976562 -351.999h-640v640h352l128 128h-512c-26.667 0 -49.334 -9.33301 -68.001 -28s-28 -41.334 -28 -68.001v-704c0 -26.667 9.33301 -49.334 28 -68.001s41.334 -28 68.001 -28h704c26.667 0 49.334 9.33301 68.001 28s28 41.334 28 68.001v512
l-128 -128v0zM863.999 960.001l-608 -608v-160h160l608 608c0 48 -14.667 86.667 -44 116s-68 44 -116 44v0zM415.999 320.001l-48 48l480 480l48 -48l-480 -480v0z" />
    <glyph glyph-name="uniE915" unicode="eraser" 
d="M960 681c-2 28 -11.002 50.835 -27.002 68.502s-32 30.167 -48 37.5l-1.5 1c-1 0.666992 -2.16699 1 -3.5 1l-201 81c-6 2.66699 -12.667 4.66699 -20 6s-14.666 2 -21.999 2c-18.667 0 -36.5 -3.66699 -53.5 -11s-30.833 -17.333 -41.5 -30l-67.5 -75.5l-148 -166
l-148 -166.5c-45 -50.667 -67.5 -76.334 -67.5 -77.001h-1v0c-14 -16 -25.167 -33.333 -33.5 -52s-12.5 -44 -12.5 -76v-64c0 -24 7.66699 -47.333 23 -70s34.333 -38.334 57 -47.001l189 -76c14.667 -6 33.667 -11.5 57 -16.5s50 5.5 80 31.5l6 6c2 2 4 4.33301 6 7l5 5v0
v0v0l422 475c14.667 16 26.834 36.833 36.501 62.5s14.5 49.167 14.5 70.5v64v5v4v0zM161.998 315.002l427 480c5.33301 5.33301 12.333 9.83301 21 13.5s17.667 5.5 27 5.5c3.33301 0 6.66602 -0.333008 9.99902 -1s6.33301 -1.33398 9 -2.00098l201 -81
c2.66699 -1.33301 4.83398 -2.66602 6.50098 -3.99902s2.83398 -2.66602 3.50098 -3.99902c0 -2 -0.333008 -4 -1 -6s-2 -4.33301 -4 -7l-427 -480c-5.33301 -5.33301 -12.333 -9.83301 -21 -13.5s-17.667 -5.5 -27 -5.5c-3.33301 0 -6.66602 0.333008 -9.99902 1
s-6.33301 1.33398 -9 2.00098l-201 81c-2.66699 1.33301 -4.83398 2.66602 -6.50098 3.99902s-2.83398 2.66602 -3.50098 3.99902c0 2 0.333008 4 1 6s2 4.33301 4 7v0zM127.998 160.002v64c0 6 0.833008 9.5 2.5 10.5s3.16699 1.5 4.5 1.5h3
c1.33301 0 3.33301 -0.333008 6 -1l201 -81c10 -4 19 -11.833 27 -23.5s12 -23.167 12 -34.5v-64c0 -6 -0.833008 -9.5 -2.5 -10.5s-3.16699 -1.5 -4.5 -1.5h-3c-1.33301 0 -3.33301 0.333008 -6 1l-201 81c-10 4 -19 11.833 -27 23.5s-12 23.167 -12 34.5v0z
M895.998 608.002c0 -13.333 -3.5 -29.166 -10.5 -47.499s-14.833 -32.833 -23.5 -43.5l-414 -465v44c0 13.333 3.5 29.166 10.5 47.499s14.833 32.833 23.5 43.5l414 465v-44v0z" />
    <glyph glyph-name="uniE916" unicode="eraser&#x32;" 
d="M960 677v2.50098v1.5c-2 28 -11 50.833 -27 68.5s-32 30.167 -48 37.5l-1.5 1c-1 0.666992 -2.16699 1 -3.5 1l-201 81c-6 2.66699 -12.667 4.66699 -20 6s-14.666 2 -21.999 2c-18.667 0 -36.5 -3.66699 -53.5 -11s-30.833 -17.333 -41.5 -30l-427 -480
c-0.666992 -0.666992 -1.33398 -1.5 -2.00098 -2.5s-1.33398 -1.83301 -2.00098 -2.5h-1v0c-14 -16 -25.167 -33.333 -33.5 -52s-12.5 -44 -12.5 -76v-64c0 -24 7.66699 -47.333 23 -70s34.333 -38.334 57 -47.001l189 -76c14.667 -6 33.667 -11.5 57 -16.5s50 5.5 80 31.5
l6 6c2 2 4 4.33301 6 7l5 5v0v0l422 475c14.667 16 26.834 36.833 36.501 62.5s14.5 49.167 14.5 70.5v64v2.5v2.5v0zM589 795.001c5.33301 5.33301 12.332 9.83203 20.999 13.499s17.667 5.5 27 5.5c3.33301 0 6.66602 -0.333008 9.99902 -1s6.33301 -1.33398 9 -2.00098
l201 -81c2.66699 -1.33301 4.83398 -2.66602 6.50098 -3.99902s2.83398 -2.66602 3.50098 -3.99902c0 -2 -0.333008 -4 -1 -6s-2 -4.33301 -4 -7l-251 -281l-257 102l235 265v0zM895.999 608c0 -13.333 -3.5 -29.167 -10.5 -47.5s-14.833 -32.833 -23.5 -43.5l-222 -249v96
l256 288v-44v0z" />
    <glyph glyph-name="uniE917" unicode="eraser&#x33;" 
d="M960 681c-2 28 -11.002 50.835 -27.002 68.502s-32 30.167 -48 37.5l-1.5 1c-1 0.666992 -2.16699 1 -3.5 1l-201 81c-6 2.66699 -12.667 4.66699 -20 6s-14.666 2 -21.999 2c-18.667 0 -36.5 -3.66699 -53.5 -11s-30.833 -17.333 -41.5 -30l-67.5 -75.5l-148 -166
l-148 -166.5c-45 -50.667 -67.5 -76.334 -67.5 -77.001h-1v0c-14 -16 -25.167 -33.333 -33.5 -52s-12.5 -44 -12.5 -76v-64c0 -24 7.66699 -47.333 23 -70s34.333 -38.334 57 -47.001l189 -76c14.667 -6 33.667 -11.5 57 -16.5s50 5.5 80 31.5l6 6c2 2 4 4.33301 6 7l5 5v0
v0v0l422 475c14.667 16 26.834 36.833 36.501 62.5s14.5 49.167 14.5 70.5v64v5v4v0zM161.998 315.002l427 480c5.33301 5.33301 12.333 9.83301 21 13.5s17.667 5.5 27 5.5c3.33301 0 6.66602 -0.333008 9.99902 -1s6.33301 -1.33398 9 -2.00098l201 -81
c2.66699 -1.33301 4.83398 -2.66602 6.50098 -3.99902s2.83398 -2.66602 3.50098 -3.99902c0 -2 -0.333008 -4 -1 -6s-2 -4.33301 -4 -7l-427 -480c-5.33301 -5.33301 -12.333 -9.83301 -21 -13.5s-17.667 -5.5 -27 -5.5c-3.33301 0 -6.66602 0.333008 -9.99902 1
s-6.33301 1.33398 -9 2.00098l-201 81c-2.66699 1.33301 -4.83398 2.66602 -6.50098 3.99902s-2.83398 2.66602 -3.50098 3.99902c0 2 0.333008 4 1 6s2 4.33301 4 7v0z" />
    <glyph glyph-name="uniE918" unicode="feather" 
d="M0 -64c32 96 77 203.334 135 322.001s129.5 230 214.5 334s183.667 191.333 296 262s238.5 106 378.5 106c-66 -52.667 -124 -119 -174 -199l-140.5 -232c-43.667 -74.667 -86.167 -138.834 -127.5 -192.501s-86 -80.5 -134 -80.5h-168h-24l-192 -320h-64v0z" />
    <glyph glyph-name="uniE919" unicode="feather&#x32;" 
d="M0 -64l64 -0.000976562l192 320h24h168c48 0 92.667 26.833 134 80.5s83.833 117.834 127.5 192.501l140.5 232c50 80 108 146.333 174 199c-140 0 -266.167 -35.333 -378.5 -106s-211 -158 -296 -262s-156.5 -215.333 -214.5 -334s-103 -226 -135 -322v0zM392 383.999
l-72 0.000976562l32 52c21.333 34.667 51.5 76 90.5 124s86 97.333 141 148s116.5 92 184.5 124l-40 -37c-26.667 -24.667 -59.334 -57.834 -98.001 -99.501s-79.667 -89.5 -123 -143.5s-81.666 -110 -114.999 -168v0z" />
    <glyph glyph-name="uniE91A" unicode="feather&#x33;" 
d="M1018 946c-2.66699 4.66699 -6.33887 8.16797 -11.0059 10.501s-9.66699 3.5 -15 3.5c-34.667 0 -69 -1.33301 -103 -4s-67.167 -6.83398 -99.5 -12.501s-64.333 -12.667 -96 -21s-62.5 -17.833 -92.5 -28.5c-30 -11.333 -59.167 -23.833 -87.5 -37.5
s-55.666 -28.667 -81.999 -45s-51.666 -33.833 -75.999 -52.5s-47.5 -38.667 -69.5 -60c-46.667 -44.667 -87.834 -94.5 -123.501 -149.5s-65.5 -114.667 -89.5 -179s-42.167 -132.833 -54.5 -205.5s-18.5 -149 -18.5 -229h96c0 14.667 2.83301 36.334 8.5 65.001
s14 57.167 25 85.5s24.5 53 40.5 74s34 31.5 54 31.5c24.667 0 59.5 2.16699 104.5 6.5s92.167 14.833 141.5 31.5c52.667 17.333 98.334 40.166 137.001 68.499s69.334 62.166 92.001 101.499c2.66699 4 4.33398 8.33301 5.00098 13s0 9.33398 -2 14.001
s-4.66699 8.66699 -8 12s-7.33301 5.66602 -12 6.99902c-0.666992 0.666992 -5.83398 2.33398 -15.501 5.00098s-23.834 5 -42.501 7c26 11.333 52.167 24 78.5 38s51.333 29.333 75 46s45.334 34.5 65.001 53.5s35.834 39.167 48.501 60.5c2.66699 4 4.16699 8.5 4.5 13.5
s-0.166992 9.83301 -1.5 14.5c-2 4.66699 -5 8.66699 -9 12s-8.33301 5.66602 -13 6.99902c-1.33301 0 -8.66602 1.5 -21.999 4.5s-31 5.5 -53 7.5c60 30.667 108.833 62.834 146.5 96.501s63.834 68.5 78.501 104.5c2 5.33301 2.66699 10.5 2 15.5
s-2.66699 9.83301 -6 14.5v0zM762.995 769.001c-42.667 -21.333 -80.667 -37.6641 -114 -48.9971l-50 -17c-8.66699 -2.66699 -15 -7.83398 -19 -15.501s-5 -15.5 -3 -23.5c2.66699 -8.66699 7.66699 -15.167 15 -19.5s15.333 -5.5 24 -3.5
c17.333 4.66699 35.666 8 54.999 10s39.333 3 60 3c14.667 0 28.334 -0.5 41.001 -1.5s24 -2.16699 34 -3.5c-22 -23.333 -51 -46.333 -87 -69s-78.333 -44.667 -127 -66s-91.5 -37.833 -128.5 -49.5l-55.5 -17.5c-8.66699 -2.66699 -15.167 -7.66699 -19.5 -15
s-5.5 -15 -3.5 -23c2 -8.66699 6.66699 -15.334 14 -20.001s15 -6 23 -4c22.667 4 45 7.16699 67 9.5s43.333 3.5 64 3.5c12.667 0 24.334 -0.333008 35.001 -1s20.334 -1.66699 29.001 -3c-28 -31.333 -61 -56.333 -99 -75s-76 -32.667 -114 -42
s-73.333 -15.166 -106 -17.499s-57.334 -3.5 -74.001 -3.5c-38 0 -69 -13.5 -93 -40.5s-43 -56.167 -57 -87.5c7.33301 53.333 18.166 104.333 32.499 153s32.333 95 54 139s46.667 85.5 75 124.5s59.833 75.167 94.5 108.5c20.667 19.333 42.334 37.666 65.001 54.999
s46.167 33.666 70.5 48.999s49.666 29.333 75.999 42s53.833 24 82.5 34c48 18 98 32.167 150 42.5s105.667 16.833 161 19.5c-17.333 -22 -40.5 -43.5 -69.5 -64.5s-63.167 -41.5 -102.5 -61.5v0z" />
    <glyph glyph-name="uniE91B" unicode="feather&#x34;" 
d="M0 -64c0 36.667 1.50195 73.6709 4.50195 111.004s7.5 74 13.5 110s13.5 71.333 22.5 106s19.5 67.667 31.5 99c11.333 30.667 24 60.334 38 89.001s29.333 56.334 46 83.001s34.5 52.167 53.5 76.5s39.167 47.833 60.5 70.5c21.333 22 43.666 43 66.999 63
s47.5 38.5 72.5 55.5s50.833 32.833 77.5 47.5s54.334 28 83.001 40s58.167 22.667 88.5 32s61.166 17 92.499 23s63 10.5 95 13.5s64.667 4.5 98 4.5c2.66699 0 5.16699 -0.666992 7.5 -2s4.16602 -3 5.49902 -5c2 -2.66699 3 -5.33398 3 -8.00098
s-0.333008 -5.33398 -1 -8.00098c-8.66699 -18 -20.334 -35.833 -35.001 -53.5s-32.667 -35 -54 -52s-45.666 -33.5 -72.999 -49.5s-57.666 -31.667 -90.999 -47l-29 -12l-28 -12c6.66699 0 13.167 0.166992 19.5 0.5s12.5 0.5 18.5 0.5c38 0 69.167 -1.33301 93.5 -4
s36.833 -4 37.5 -4c2.66699 -0.666992 5.16699 -1.83398 7.5 -3.50098s4.16602 -3.5 5.49902 -5.5c0.666992 -2.66699 1 -5.33398 1 -8.00098s-0.666992 -5.33398 -2 -8.00098c-12.667 -18.667 -28.5 -37.167 -47.5 -55.5s-41.667 -36.166 -68 -53.499s-56 -34.333 -89 -51
s-69.5 -32.667 -109.5 -48c-6.66699 -2.66699 -13.334 -5.16699 -20.001 -7.5l-19 -6.5h14h14c37.333 0 66.833 -1.5 88.5 -4.5s32.834 -4.5 33.501 -4.5c2.66699 -0.666992 5.16699 -2 7.5 -4s3.83301 -4.33301 4.5 -7s0.833984 -5.33398 0.500977 -8.00098
s-1.5 -5 -3.5 -7c-36 -44.667 -70.167 -81.834 -102.5 -111.501s-65.5 -53.167 -99.5 -70.5s-70.333 -29.666 -109 -36.999s-83 -11 -133 -11c-22.667 0 -42.834 -9.83301 -60.501 -29.5s-32.5 -48.834 -44.5 -87.501c-9.33301 -30.667 -15.5 -61.5 -18.5 -92.5l-4.5 -46.5
h-64z" />
    <glyph glyph-name="uniE91C" unicode="pen" 
d="M928 576l-288 288l96 96l288 -288l-96 -96v0zM624 784l224 -224l-144 -368l-576 -256l-41 41l344 345c2.66699 -0.666992 5.5 -1.16699 8.5 -1.5s5.83301 -0.5 8.5 -0.5c18 0 33.167 6.16699 45.5 18.5s18.5 27.5 18.5 45.5s-6.16699 33.167 -18.5 45.5
s-27.5 18.5 -45.5 18.5s-33.167 -6.16699 -45.5 -18.5s-18.5 -27.5 -18.5 -45.5c0 -2.66699 0.166992 -5.5 0.5 -8.5s0.833008 -5.83301 1.5 -8.5l-345 -344l-41 41l256 576l368 144v0z" />
    <glyph glyph-name="uniE91D" unicode="pen&#x2d;plus" horiz-adv-x="1216" 
d="M1120 576l-288 288l96 96l288 -288l-96 -96v0zM816 784l224 -224l-144 -368l-576 -256l-41 41l344 345c2.66699 -0.666992 5.5 -1.16699 8.5 -1.5s5.83301 -0.5 8.5 -0.5c18 0 33.167 6.16699 45.5 18.5s18.5 27.5 18.5 45.5s-6.16699 33.167 -18.5 45.5
s-27.5 18.5 -45.5 18.5s-33.167 -6.16699 -45.5 -18.5s-18.5 -27.5 -18.5 -45.5c0 -2.66699 0.166992 -5.5 0.5 -8.5s0.833008 -5.83301 1.5 -8.5l-345 -344l-41 41l256 576l368 144v0zM384 832h-128v128h-128v-128h-128v-128h128v-128h128v128h128v128z" />
    <glyph glyph-name="uniE91E" unicode="pen&#x2d;remove" horiz-adv-x="1216" 
d="M1120 576l-288 288l96 96l288 -288l-96 -96v0zM816 784l224 -224l-144 -368l-576 -256l-41 41l344 345c2.66699 -0.666992 5.5 -1.16699 8.5 -1.5s5.83301 -0.5 8.5 -0.5c18 0 33.167 6.16699 45.5 18.5s18.5 27.5 18.5 45.5s-6.16699 33.167 -18.5 45.5
s-27.5 18.5 -45.5 18.5s-33.167 -6.16699 -45.5 -18.5s-18.5 -27.5 -18.5 -45.5c0 -2.66699 0.166992 -5.5 0.5 -8.5s0.833008 -5.83301 1.5 -8.5l-345 -344l-41 41l256 576l368 144v0zM0 832h384v-128h-384v128v0z" />
    <glyph glyph-name="uniE91F" unicode="pen&#x32;" 
d="M1018 668l-286 286c-4.66699 4.66699 -9.66699 6.5 -15 5.5s-9.33301 -4.16699 -12 -9.5l-39 -80l268 -268l80 39c5.33301 2.66699 8.5 6.66699 9.5 12s-0.833008 10.333 -5.5 15v0zM615 825l-262.994 -22.0059c-8.66699 -1.33301 -16.334 -3.66602 -23.001 -6.99902
s-11.334 -10.666 -14.001 -21.999v0v0c-18 -86 -44.5 -169.667 -79.5 -251s-70 -153.666 -105 -216.999s-65.5 -114.166 -91.5 -152.499l-39 -57.5l57 -57l272 272c-2.66699 6 -4.83398 12.5 -6.50098 19.5s-2.5 14.167 -2.5 21.5c0 26.667 9.33301 49.334 28 68.001
s41.334 28 68.001 28s49.334 -9.33301 68.001 -28s28 -41.334 28 -68.001s-9.33301 -49.334 -28 -68.001s-41.334 -28 -68.001 -28c-7.33301 0 -14.5 0.833008 -21.5 2.5s-13.5 3.83398 -19.5 6.50098l-272 -272l57 -57l57.5 39c38.333 26 89.166 56.5 152.499 91.5
s135.666 70 216.999 105s165 61.5 251 79.5v0v0c11.333 2.66699 18.666 7.33398 21.999 14.001s5.66602 14.334 6.99902 23.001l22 263l-274 274v0z" />
    <glyph glyph-name="uniE920" unicode="pen&#x33;" 
d="M768 832h-448l-32 128h512zM768 768h-448.002l-128 -288l256 -544h64v517c-18.667 6.66699 -34 18.334 -46 35.001s-18 35.334 -18 56.001c0 26.667 9.33301 49.334 28 68.001s41.334 28 68.001 28s49.334 -9.33301 68.001 -28s28 -41.334 28 -68.001
c0 -20.667 -6 -39.334 -18 -56.001s-27.333 -28.334 -46 -35.001v-517h64l256 544l-128 288v0z" />
    <glyph glyph-name="uniE921" unicode="pen&#x34;" 
d="M652 804l52 156h-448l52 -156l-148 -356l256 -512h128l256 512l-148 356v0zM615 896l-21 -64h-228l-21 64h270v0zM512 15l0.00195312 374c18.667 6.66699 34 18.334 46 35.001s18 35.334 18 56.001c0 26.667 -9.33301 49.334 -28 68.001s-41.334 28 -68.001 28
s-49.334 -9.33301 -68.001 -28s-28 -41.334 -28 -68.001c0 -20.667 6 -39.334 18 -56.001s27.333 -28.334 46 -35.001v-374l-218 435l133 318h234l133 -318l-218 -435v0z" />
    <glyph glyph-name="uniE922" unicode="pen&#x35;" 
d="M532 716l-81.998 -80.502l-61 -60.5c-29.333 -30 -66.333 -71 -111 -123s-87.834 -108.167 -129.501 -168.5s-77.167 -121.166 -106.5 -182.499s-43.333 -116.333 -42 -165c48.667 -1.33301 103.667 12.667 165 42s122.166 64.833 182.499 106.5
s116.5 84.834 168.5 129.501s93 81.667 123 111l60.5 61l80.5 82l-248 248v0zM945.002 755.998l-17.999 18.002l97 80l-106 106l-80 -97l-18 18c-28 1.33301 -63 -9.83398 -105 -33.501s-85.333 -53.167 -130 -88.5l238 -238c13.333 16.667 26 33.334 38 50.001
s22.667 33 32 49c15.333 -12 23.333 -29.833 24 -53.5s-7.66602 -52 -24.999 -85s-45 -70 -83 -111s-88.333 -85.167 -151 -132.5l46 -46c56 40 106 81.667 150 125s77.667 86.666 101 129.999s34.166 86.166 32.499 128.499s-19.834 82.5 -54.501 120.5c4 11.333 7 22 9 32
s3 19.333 3 28v0z" />
    <glyph glyph-name="uniE923" unicode="marker" 
d="M1006 749c-10.667 26.667 -26.002 52.668 -46.002 78.001s-42.667 48 -68 68c-26.667 21.333 -53.667 37.5 -81 48.5s-53.666 16.5 -78.999 16.5c-19.333 0 -37.333 -3.33301 -54 -10s-31.667 -16.667 -45 -30l-459 -459l-6 -8c-2 -2.66699 -3.33301 -5.66699 -4 -9
l-161 -425c-3.33301 -8 -4 -16.333 -2 -25s6 -16 12 -22l23 -23c4 -4 8.83301 -7.16699 14.5 -9.5s11.5 -3.5 17.5 -3.5c2 0 4.33301 0.166992 7 0.5s5.33398 1.16602 8.00098 2.49902l425 161c3.33301 0.666992 6.33301 2 9 4l8 6l459 459c22 22 35 48.5 39 79.5
s-1.66699 64.5 -17 100.5v0zM479.998 192.001l-224 224l384 384l224 -224l-384 -384v0z" />
    <glyph glyph-name="uniE924" unicode="marker&#x32;" 
d="M1006 749c-10.667 26.667 -26.002 52.668 -46.002 78.001s-42.667 48 -68 68c-26.667 21.333 -53.667 37.5 -81 48.5s-53.666 16.5 -78.999 16.5c-19.333 0 -37.333 -3.33301 -54 -10s-31.667 -16.667 -45 -30l-459 -459l-6 -8c-2 -2.66699 -3.33301 -5.66699 -4 -9
l-161 -425c-3.33301 -8 -4 -16.333 -2 -25s6 -16 12 -22l23 -23c4 -4 8.83301 -7.16699 14.5 -9.5s11.5 -3.5 17.5 -3.5c2 0 4.33301 0.166992 7 0.5s5.33398 1.16602 8.00098 2.49902l425 161c3.33301 0.666992 6.33301 2 9 4l8 6l459 459c22 22 35 48.5 39 79.5
s-1.66699 64.5 -17 100.5v0zM479.998 192.001l-224 224l384 384l224 -224l-384 -384v0zM551.998 8.00098h472v16h-456zM519.998 -23.999h504v16h-488zM487.998 -55.999h536v16h-520zM615.998 72.001h408v16h-392zM583.998 40.001h440v16h-424zM647.998 104.001h376v16h-360z
" />
    <glyph glyph-name="uniE925" unicode="blog" 
d="M384 960l0.00195312 -96.002c36.667 0 72.667 -3.5 108 -10.5s70 -17.833 104 -32.5c32 -13.333 62.5 -29.833 91.5 -49.5s56.167 -41.834 81.5 -66.501c24.667 -25.333 46.834 -52.5 66.501 -81.5s36.167 -59.5 49.5 -91.5c14.667 -34 25.5 -68.667 32.5 -104
s10.5 -71.333 10.5 -108h96c0 88.667 -16.833 171.834 -50.5 249.501s-79.334 145.334 -137.001 203.001s-125.334 103.334 -203.001 137.001s-160.834 50.5 -249.501 50.5v0zM384.002 767.998v-96c47.333 0 92.333 -8.83301 135 -26.5s80.667 -43.167 114 -76.5
s58.833 -71.333 76.5 -114s26.5 -87.667 26.5 -135h96c0 62 -11.667 120.167 -35 174.5s-55.333 101.833 -96 142.5s-88.167 72.667 -142.5 96s-112.5 35 -174.5 35v0zM480.002 575.998l-64 -64l-224 -64l-192 -416l25 -25l233 232c-0.666992 2.66699 -1.16699 5.5 -1.5 8.5
s-0.5 5.83301 -0.5 8.5c0 18 6.16699 33.167 18.5 45.5s27.5 18.5 45.5 18.5s33.167 -6.16699 45.5 -18.5s18.5 -27.5 18.5 -45.5s-6.16699 -33.167 -18.5 -45.5s-27.5 -18.5 -45.5 -18.5c-2.66699 0 -5.5 0.166992 -8.5 0.5s-5.83301 0.833008 -8.5 1.5l-232 -233l25 -25
l416 192l64 224l64 64l-160 160v0z" />
    <glyph glyph-name="uniE926" unicode="blog&#x32;" 
d="M384 768v-96c47.333 0 92.333 -8.83301 135 -26.5s80.667 -43.167 114 -76.5s58.833 -71.333 76.5 -114s26.5 -87.667 26.5 -135h96c0 62 -11.667 120.167 -35 174.5s-55.333 101.833 -96 142.5s-88.167 72.667 -142.5 96s-112.5 35 -174.5 35v0zM384 960
l0.00195312 -96.002c36.667 0 72.667 -3.5 108 -10.5s70 -17.833 104 -32.5c32 -13.333 62.5 -29.833 91.5 -49.5s56.167 -41.834 81.5 -66.501c24.667 -25.333 46.834 -52.5 66.501 -81.5s36.167 -59.5 49.5 -91.5c14.667 -34 25.5 -68.667 32.5 -104
s10.5 -71.333 10.5 -108h96c0 88.667 -16.833 171.834 -50.5 249.501s-79.334 145.334 -137.001 203.001s-125.334 103.334 -203.001 137.001s-160.834 50.5 -249.501 50.5v0zM539.002 474.998c-25.333 24.667 -55.668 37.002 -91.001 37.002s-65.666 -12.333 -90.999 -37
l-357 -358v-181h181l358 357c24.667 25.333 37 55.666 37 90.999s-12.333 65.666 -37 90.999v0zM128 32l-64 64l320 320l64 -64l-320 -320v0z" />
    <glyph glyph-name="uniE927" unicode="pen&#x37;" 
d="M1024 800c0 44 -15.667 81.667 -47 113s-69 47 -113 47c-26 0 -50.167 -5.83301 -72.5 -17.5s-40.833 -27.167 -55.5 -46.5l-576 -576l224 -224l576 576c19.333 14.667 34.833 33.167 46.5 55.5s17.5 46.5 17.5 72.5v0zM0 -64l96 320l224 -224z" />
    <glyph glyph-name="uniE928" unicode="brush" 
d="M221 -63l0.000976562 -0.00488281c-59.333 0 -108.5 11.333 -147.5 34s-59.5 34.667 -61.5 36c-5.33301 4 -9 9.33301 -11 16s-1.66699 13.334 1 20.001c2 6 5.83301 11 11.5 15s11.834 6 18.501 6c48 0 80.833 11.167 98.5 33.5s33.5 49.833 47.5 82.5
c13.333 31.333 31.5 62.5 54.5 93.5s62.833 46.5 119.5 46.5c21.333 0 41.666 -4 60.999 -12s36.666 -19.667 51.999 -35s27 -32.666 35 -51.999s12 -39.666 12 -60.999s-4 -41.666 -12 -60.999s-19.667 -36.666 -35 -51.999c-36.667 -36.667 -75.5 -64.167 -116.5 -82.5
s-83.5 -27.5 -127.5 -27.5v0zM1002 943.995c-13.333 12 -28.832 17.3291 -46.499 15.9961s-32.167 -8.66602 -43.5 -21.999l-484 -548c-1.33301 -1.33301 -2.83301 -3 -4.5 -5s-3.16699 -3.66699 -4.5 -5c-2 -3.33301 -3.83301 -6.66602 -5.5 -9.99902
s-3.16699 -6.66602 -4.5 -9.99902c16.667 -4.66699 32.667 -11.5 48 -20.5s29.333 -19.833 42 -32.5s23.5 -26.667 32.5 -42s15.833 -31.666 20.5 -48.999c10 4 19.167 9.33301 27.5 16s15.5 14.667 21.5 24l412 604c8.66699 12.667 12.167 27.167 10.5 43.5
s-8.83398 29.833 -21.501 40.5v0z" />
    <glyph glyph-name="uniE929" unicode="paint&#x32;" 
d="M512 736c0 -8.66699 -3.16699 -16.167 -9.5 -22.5s-13.833 -9.5 -22.5 -9.5s-16.167 3.16699 -22.5 9.5s-9.5 13.833 -9.5 22.5s3.16699 16.167 9.5 22.5s13.833 9.5 22.5 9.5s16.167 -3.16699 22.5 -9.5s9.5 -13.833 9.5 -22.5v0zM384 736
c0 -8.66699 -3.16699 -16.167 -9.5 -22.5s-13.833 -9.5 -22.5 -9.5s-16.167 3.16699 -22.5 9.5s-9.5 13.833 -9.5 22.5s3.16699 16.167 9.5 22.5s13.833 9.5 22.5 9.5s16.167 -3.16699 22.5 -9.5s9.5 -13.833 9.5 -22.5v0zM384 864c0 -8.66699 -3.16699 -16.167 -9.5 -22.5
s-13.833 -9.5 -22.5 -9.5s-16.167 3.16699 -22.5 9.5s-9.5 13.833 -9.5 22.5s3.16699 16.167 9.5 22.5s13.833 9.5 22.5 9.5s16.167 -3.16699 22.5 -9.5s9.5 -13.833 9.5 -22.5v0zM256 736c0 -8.66699 -3.16699 -16.167 -9.5 -22.5s-13.833 -9.5 -22.5 -9.5
s-16.167 3.16699 -22.5 9.5s-9.5 13.833 -9.5 22.5s3.16699 16.167 9.5 22.5s13.833 9.5 22.5 9.5s16.167 -3.16699 22.5 -9.5s9.5 -13.833 9.5 -22.5v0zM128 736c0 -8.66699 -3.16699 -16.167 -9.5 -22.5s-13.833 -9.5 -22.5 -9.5s-16.167 3.16699 -22.5 9.5
s-9.5 13.833 -9.5 22.5s3.16699 16.167 9.5 22.5s13.833 9.5 22.5 9.5s16.167 -3.16699 22.5 -9.5s9.5 -13.833 9.5 -22.5v0zM64 672c0 -8.66699 -3.16699 -16.167 -9.5 -22.5s-13.833 -9.5 -22.5 -9.5s-16.167 3.16699 -22.5 9.5s-9.5 13.833 -9.5 22.5
s3.16699 16.167 9.5 22.5s13.833 9.5 22.5 9.5s16.167 -3.16699 22.5 -9.5s9.5 -13.833 9.5 -22.5v0zM192 800c0 -8.66699 -3.16699 -16.167 -9.5 -22.5s-13.833 -9.5 -22.5 -9.5s-16.167 3.16699 -22.5 9.5s-9.5 13.833 -9.5 22.5s3.16699 16.167 9.5 22.5
s13.833 9.5 22.5 9.5s16.167 -3.16699 22.5 -9.5s9.5 -13.833 9.5 -22.5v0zM128 864c0 -8.66699 -3.16699 -16.167 -9.5 -22.5s-13.833 -9.5 -22.5 -9.5s-16.167 3.16699 -22.5 9.5s-9.5 13.833 -9.5 22.5s3.16699 16.167 9.5 22.5s13.833 9.5 22.5 9.5
s16.167 -3.16699 22.5 -9.5s9.5 -13.833 9.5 -22.5v0zM64 800c0 -8.66699 -3.16699 -16.167 -9.5 -22.5s-13.833 -9.5 -22.5 -9.5s-16.167 3.16699 -22.5 9.5s-9.5 13.833 -9.5 22.5s3.16699 16.167 9.5 22.5s13.833 9.5 22.5 9.5s16.167 -3.16699 22.5 -9.5
s9.5 -13.833 9.5 -22.5v0zM64 928c0 -8.66699 -3.16699 -16.167 -9.5 -22.5s-13.833 -9.5 -22.5 -9.5s-16.167 3.16699 -22.5 9.5s-9.5 13.833 -9.5 22.5s3.16699 16.167 9.5 22.5s13.833 9.5 22.5 9.5s16.167 -3.16699 22.5 -9.5s9.5 -13.833 9.5 -22.5v0zM320 800
c0 -8.66699 -3.16699 -16.167 -9.5 -22.5s-13.833 -9.5 -22.5 -9.5s-16.167 3.16699 -22.5 9.5s-9.5 13.833 -9.5 22.5s3.16699 16.167 9.5 22.5s13.833 9.5 22.5 9.5s16.167 -3.16699 22.5 -9.5s9.5 -13.833 9.5 -22.5v0zM256 864c0 -8.66699 -3.16699 -16.167 -9.5 -22.5
s-13.833 -9.5 -22.5 -9.5s-16.167 3.16699 -22.5 9.5s-9.5 13.833 -9.5 22.5s3.16699 16.167 9.5 22.5s13.833 9.5 22.5 9.5s16.167 -3.16699 22.5 -9.5s9.5 -13.833 9.5 -22.5v0zM192 928c0 -8.66699 -3.16699 -16.167 -9.5 -22.5s-13.833 -9.5 -22.5 -9.5
s-16.167 3.16699 -22.5 9.5s-9.5 13.833 -9.5 22.5s3.16699 16.167 9.5 22.5s13.833 9.5 22.5 9.5s16.167 -3.16699 22.5 -9.5s9.5 -13.833 9.5 -22.5v0zM320 672c0 -8.66699 -3.16699 -16.167 -9.5 -22.5s-13.833 -9.5 -22.5 -9.5s-16.167 3.16699 -22.5 9.5
s-9.5 13.833 -9.5 22.5s3.16699 16.167 9.5 22.5s13.833 9.5 22.5 9.5s16.167 -3.16699 22.5 -9.5s9.5 -13.833 9.5 -22.5v0zM192 672c0 -8.66699 -3.16699 -16.167 -9.5 -22.5s-13.833 -9.5 -22.5 -9.5s-16.167 3.16699 -22.5 9.5s-9.5 13.833 -9.5 22.5
s3.16699 16.167 9.5 22.5s13.833 9.5 22.5 9.5s16.167 -3.16699 22.5 -9.5s9.5 -13.833 9.5 -22.5v0zM128 608c0 -8.66699 -3.16699 -16.167 -9.5 -22.5s-13.833 -9.5 -22.5 -9.5s-16.167 3.16699 -22.5 9.5s-9.5 13.833 -9.5 22.5s3.16699 16.167 9.5 22.5
s13.833 9.5 22.5 9.5s16.167 -3.16699 22.5 -9.5s9.5 -13.833 9.5 -22.5v0zM448 800c0 -8.66699 -3.16699 -16.167 -9.5 -22.5s-13.833 -9.5 -22.5 -9.5s-16.167 3.16699 -22.5 9.5s-9.5 13.833 -9.5 22.5s3.16699 16.167 9.5 22.5s13.833 9.5 22.5 9.5
s16.167 -3.16699 22.5 -9.5s9.5 -13.833 9.5 -22.5v0zM925 684c-13.333 3.33301 -27.8311 6.33301 -43.498 9s-32.167 4.66699 -49.5 6v101c0 8.66699 -9.33301 16.167 -28 22.5s-41.334 9.5 -68.001 9.5s-49.334 -3.16699 -68.001 -9.5s-28 -13.833 -28 -22.5v-32h32
c8.66699 0 16.167 -3.16699 22.5 -9.5s9.5 -13.833 9.5 -22.5s-3.16699 -16.5 -9.5 -23.5s-13.833 -10.5 -22.5 -10.5v0c-23.333 -1.33301 -45.5 -3.5 -66.5 -6.5s-40.5 -6.83301 -58.5 -11.5c-12 -2.66699 -31.5 -9.5 -58.5 -20.5s-40.5 -29.5 -40.5 -55.5v-576
c0 -26 13.5 -44.5 40.5 -55.5s46.5 -17.833 58.5 -20.5c25.333 -6.66699 54.333 -11.667 87 -15s66.667 -5 102 -5s69.333 1.66699 102 5s61.667 8.33301 87 15c12 2.66699 31.5 9.5 58.5 20.5s40.5 29.5 40.5 55.5v576c0 26 -13.5 44.5 -40.5 55.5s-46.5 17.833 -58.5 20.5
v0zM960.002 290c-7.33301 2.66699 -14 4.83496 -20 6.50195s-11 2.83398 -15 3.50098c-22 5.33301 -46.333 9.66602 -73 12.999s-54.667 5.33301 -84 6v-223c0 -8.66699 -3.16699 -16.167 -9.5 -22.5s-13.833 -9.5 -22.5 -9.5s-16.167 3.16699 -22.5 9.5
s-9.5 13.833 -9.5 22.5v223c-29.333 -0.666992 -57.333 -2.66699 -84 -6s-51 -7.66602 -73 -12.999c-4 -0.666992 -9 -1.83398 -15 -3.50098s-12.667 -3.83398 -20 -6.50098v252c7.33301 -2.66699 14 -4.83398 20 -6.50098s11 -2.83398 15 -3.50098
c22 -5.33301 46.333 -9.66602 73 -12.999s54.667 -5.33301 84 -6v-193h16h16h16h16v192c29.333 1.33301 57.333 3.66602 84 6.99902s51 7.66602 73 12.999c4 0.666992 9 1.83398 15 3.50098s12.667 3.83398 20 6.50098v-252v0z" />
    <glyph glyph-name="uniE92A" unicode="color" 
d="M515 832c-82 0 -155.005 -12.166 -219.005 -36.499s-118 -55.166 -162 -92.499s-77.333 -78.333 -100 -123s-34 -87 -34 -127c0 -60.667 12.333 -114.834 37 -162.501s56.334 -89.167 95.001 -124.5s81.667 -64.5 129 -87.5s94 -40.167 140 -51.5
c90.667 -22 154.834 -17.167 192.501 14.5s55.834 71.167 54.501 118.5c-2 58 8.16699 91.833 30.5 101.5s43.833 13.5 64.5 11.5l61 -8.5c30.667 -4.33301 62.334 -4.33301 95.001 0s61.667 16 87 35s38 51.5 38 97.5c0 57.333 -11 112.166 -33 164.499
s-54.667 98.5 -98 138.5s-96.666 72 -159.999 96s-136 36 -218 36v0zM447.995 768.001c18 0 33.167 -6.16699 45.5 -18.5s18.5 -27.5 18.5 -45.5s-6.16699 -33.167 -18.5 -45.5s-27.5 -18.5 -45.5 -18.5s-33.167 6.16699 -45.5 18.5s-18.5 27.5 -18.5 45.5
s6.16699 33.167 18.5 45.5s27.5 18.5 45.5 18.5v0zM159.995 384.001c-8.66699 0 -16.167 3.16699 -22.5 9.5s-9.5 13.833 -9.5 22.5s3.16699 16.167 9.5 22.5s13.833 9.5 22.5 9.5s16.167 -3.16699 22.5 -9.5s9.5 -13.833 9.5 -22.5s-3.16699 -16.167 -9.5 -22.5
s-13.833 -9.5 -22.5 -9.5v0zM255.995 512.001c-18 0 -33.167 6.16699 -45.5 18.5s-18.5 27.5 -18.5 45.5s6.16699 33.167 18.5 45.5s27.5 18.5 45.5 18.5s33.167 -6.16699 45.5 -18.5s18.5 -27.5 18.5 -45.5s-6.16699 -33.167 -18.5 -45.5s-27.5 -18.5 -45.5 -18.5v0z
M511.995 256.001c-35.333 0 -65.5 9.33301 -90.5 28s-37.5 41.334 -37.5 68.001s12.5 49.334 37.5 68.001s55.167 28 90.5 28s65.5 -9.33301 90.5 -28s37.5 -41.334 37.5 -68.001s-12.5 -49.334 -37.5 -68.001s-55.167 -28 -90.5 -28v0zM735.995 512.001
c-26.667 0 -49.334 9.33301 -68.001 28s-28 41.334 -28 68.001s9.33301 49.334 28 68.001s41.334 28 68.001 28s49.334 -9.33301 68.001 -28s28 -41.334 28 -68.001s-9.33301 -49.334 -28 -68.001s-41.334 -28 -68.001 -28v0z" />
    <glyph glyph-name="uniE92B" unicode="color&#x32;" 
d="M512 832c-70.667 0 -137.163 -11.667 -199.496 -35s-116.666 -55.333 -162.999 -96s-82.833 -88.167 -109.5 -142.5s-40 -112.5 -40 -174.5c0 -41.333 6.16699 -81.166 18.5 -119.499s29.666 -74.166 51.999 -107.499s49.333 -63.666 81 -90.999
s66.5 -50.666 104.5 -69.999c43.333 -21.333 78.666 -25.5 105.999 -12.5s28 37.833 2 74.5c-13.333 13.333 -24 28.833 -32 46.5s-12 36.167 -12 55.5c0 44 18.667 81.667 56 113s82.666 47 135.999 47s98.666 -15.667 135.999 -47s56 -69 56 -113
c0 -19.333 -4 -37.833 -12 -55.5s-18.667 -33.167 -32 -46.5c-26 -36.667 -25.333 -61.5 2 -74.5s62.666 -8.83301 105.999 12.5c38 19.333 72.833 42.666 104.5 69.999s58.667 57.666 81 90.999s39.666 69.166 51.999 107.499s18.5 78.166 18.5 119.499
c0 62 -13.333 120.167 -40 174.5s-63.167 101.833 -109.5 142.5s-100.666 72.667 -162.999 96s-128.833 35 -199.5 35v0zM128.004 320c-18 0 -33.167 6.16699 -45.5 18.5s-18.5 27.5 -18.5 45.5s6.16699 33.167 18.5 45.5s27.5 18.5 45.5 18.5s33.167 -6.16699 45.5 -18.5
s18.5 -27.5 18.5 -45.5s-6.16699 -33.167 -18.5 -45.5s-27.5 -18.5 -45.5 -18.5v0zM256.004 521c-22.667 -13.333 -45.334 -19.333 -68.001 -18s-38.334 9.66602 -47.001 24.999s-8 33.166 2 53.499s26.333 36.833 49 49.5c22.667 13.333 45.334 19.333 68.001 18
s38.334 -9.66602 47.001 -24.999s8 -33.166 -2 -53.499s-26.333 -36.833 -49 -49.5v0zM512.004 576c-35.333 0 -65.5 9.33301 -90.5 28s-37.5 41.334 -37.5 68.001s12.5 49.334 37.5 68.001s55.167 28 90.5 28s65.5 -9.33301 90.5 -28s37.5 -41.334 37.5 -68.001
s-12.5 -49.334 -37.5 -68.001s-55.167 -28 -90.5 -28v0zM768.004 521c-22.667 12.667 -39 29.167 -49 49.5s-10.667 38.166 -2 53.499s24.334 23.666 47.001 24.999s45.334 -4.66699 68.001 -18c22.667 -12.667 39 -29.167 49 -49.5s10.667 -38.166 2 -53.499
s-24.334 -23.666 -47.001 -24.999s-45.334 4.66699 -68.001 18v0zM896.004 320c-18 0 -33.167 6.16699 -45.5 18.5s-18.5 27.5 -18.5 45.5s6.16699 33.167 18.5 45.5s27.5 18.5 45.5 18.5s33.167 -6.16699 45.5 -18.5s18.5 -27.5 18.5 -45.5s-6.16699 -33.167 -18.5 -45.5
s-27.5 -18.5 -45.5 -18.5v0z" />
    <glyph glyph-name="uniE92C" unicode="color&#x2d;sampler" 
d="M736 256h-704c-8.66699 0 -16.167 -3.16699 -22.5 -9.5s-9.5 -13.833 -9.5 -22.5v-192c0 -8.66699 3.16699 -16.167 9.5 -22.5s13.833 -9.5 22.5 -9.5h704c8.66699 0 16.167 3.16699 22.5 9.5s9.5 13.833 9.5 22.5v192c0 8.66699 -3.16699 16.167 -9.5 22.5
s-13.833 9.5 -22.5 9.5v0zM640 64c-18 0 -33.167 6.16699 -45.5 18.5s-18.5 27.5 -18.5 45.5s6.16699 33.167 18.5 45.5s27.5 18.5 45.5 18.5s33.167 -6.16699 45.5 -18.5s18.5 -27.5 18.5 -45.5s-6.16699 -33.167 -18.5 -45.5s-27.5 -18.5 -45.5 -18.5v0zM768 283v453
c0 8.66699 -3.16699 16.167 -9.5 22.5s-13.833 9.5 -22.5 9.5h-192c-8.66699 0 -16.167 -3.16699 -22.5 -9.5s-9.5 -13.833 -9.5 -22.5v-197l256 -256v0zM1005 663l-172.999 83v-515l188 389c3.33301 8 3.66602 16.167 0.999023 24.5s-8 14.5 -16 18.5v0zM629.001 320
l-327.998 328.002c-6.66699 6.66699 -14.334 10 -23.001 10s-16.334 -3.33301 -23.001 -10l-135 -135c-6.66699 -6.66699 -10 -14.334 -10 -23.001s3.33301 -16.334 10 -23.001l147 -147h362v0z" />
    <glyph glyph-name="uniE92D" unicode="switch" 
d="M896 576v224c0 8.66699 -3.16699 16.167 -9.5 22.5s-13.833 9.5 -22.5 9.5h-224v128l-160 -160l160 -160v128h192v-192h-128l160 -160l160 160h-128v0zM720 448h-208v208c0 13.333 -4.66699 24.666 -14 33.999s-20.666 14 -33.999 14h-416
c-13.333 0 -24.666 -4.66699 -33.999 -14s-14 -20.666 -14 -33.999v-416c0 -13.333 4.66699 -24.666 14 -33.999s20.666 -14 33.999 -14h208v-208c0 -13.333 4.66699 -24.666 14 -33.999s20.666 -14 33.999 -14h416c13.333 0 24.666 4.66699 33.999 14s14 20.666 14 33.999
v416c0 13.333 -4.66699 24.666 -14 33.999s-20.666 14 -33.999 14v0zM704 0l-383.999 0.000976562v192h144c13.333 0 24.666 4.66699 33.999 14s14 20.666 14 33.999v144h192v-384v0z" />
    <glyph glyph-name="uniE92E" unicode="bucket" 
d="M849 598c-10 4.66699 -21.8271 8.83398 -35.4941 12.501s-29.167 7.16699 -46.5 10.5c-34.667 6 -73.834 10.667 -117.501 14s-89.5 5 -137.5 5s-93.833 -1.66699 -137.5 -5s-82.834 -8 -117.501 -14c-17.333 -3.33301 -32.833 -6.83301 -46.5 -10.5
s-25.5 -7.83398 -35.5 -12.501c-15.333 -6.66699 -27 -14.5 -35 -23.5s-12 -19.167 -12 -30.5v-4.5c0 -1.66699 0.333008 -3.16699 1 -4.5l63 -505c1.33301 -22.667 14.166 -39.5 38.499 -50.5s47.833 -18.833 70.5 -23.5c28.667 -6.66699 61.167 -11.667 97.5 -15
s74.166 -5 113.499 -5s77.166 1.66699 113.499 5s68.833 8.33301 97.5 15c22.667 4.66699 46.167 12.5 70.5 23.5s37.166 27.833 38.499 50.5l63 505c0.666992 1.33301 1 2.83301 1 4.5v4.5c0 11.333 -4 21.5 -12 30.5s-19.667 16.833 -35 23.5v0zM290.006 561
c31.333 4.66699 66 8.33398 104 11.001s77.333 4 118 4s80 -1.33301 118 -4s72.667 -6.33398 104 -11.001c18.667 -2.66699 34.334 -5.5 47.001 -8.5s23 -5.83301 31 -8.5c-8 -2.66699 -18.333 -5.5 -31 -8.5s-28.334 -5.83301 -47.001 -8.5
c-31.333 -4.66699 -66 -8.33398 -104 -11.001s-77.333 -4 -118 -4s-80 1.33301 -118 4s-72.667 6.33398 -104 11.001c-18.667 2.66699 -34.334 5.5 -47.001 8.5s-23 5.83301 -31 8.5c8 2.66699 18.333 5.5 31 8.5s28.334 5.83301 47.001 8.5v0zM769.006 39
c-3.33301 -2 -10.668 -5.33301 -22.001 -10s-30.333 -9.66699 -57 -15c-24.667 -4.66699 -52.334 -8.16699 -83.001 -10.5s-62.334 -3.5 -95.001 -3.5s-64.334 1.16699 -95.001 3.5s-58.334 5.83301 -83.001 10.5c-26.667 5.33301 -45.667 10.333 -57 15
s-18.666 8 -21.999 10l-55 442c8 -2.66699 16.833 -5.16699 26.5 -7.5s19.834 -4.5 30.501 -6.5c10 -1.33301 20.167 -2.83301 30.5 -4.5s21.166 -3.16699 32.499 -4.5v-138c0 -18 6.16699 -33.167 18.5 -45.5s27.5 -18.5 45.5 -18.5s33.167 6.16699 45.5 18.5
s18.5 27.5 18.5 45.5v129c10.667 0 21.334 -0.166992 32.001 -0.5s21.334 -0.5 32.001 -0.5v-288c0 -8.66699 3.16699 -16.167 9.5 -22.5s13.833 -9.5 22.5 -9.5s16.167 3.16699 22.5 9.5s9.5 13.833 9.5 22.5v289c10.667 0.666992 21.334 1.16699 32.001 1.5
s21.334 0.833008 32.001 1.5v-100c0 -8.66699 3.16699 -16.167 9.5 -22.5s13.833 -9.5 22.5 -9.5s16.167 3.16699 22.5 9.5s9.5 13.833 9.5 22.5v106c11.333 1.33301 22.166 2.83301 32.499 4.5s20.5 3.16699 30.5 4.5c10.667 2 20.834 4.16699 30.501 6.5
s18.5 4.83301 26.5 7.5l-55 -442v0zM877.004 829c-18 21.333 -38.665 40 -61.998 56s-49.333 29.333 -78 40c-30.667 12 -64.834 20.833 -102.501 26.5s-78.5 8.5 -122.5 8.5s-84.833 -2.83301 -122.5 -8.5s-71.834 -14.5 -102.501 -26.5
c-28.667 -10.667 -54.667 -24 -78 -40s-44 -34.667 -62 -56c-28 -34 -48.833 -74.167 -62.5 -120.5s-20.5 -101.166 -20.5 -164.499c0 -8.66699 3.16699 -16.167 9.5 -22.5s13.833 -9.5 22.5 -9.5s16.167 3.16699 22.5 9.5s9.5 13.833 9.5 22.5
c0 55.333 5.5 102.833 16.5 142.5s28.5 73.5 52.5 101.5c14 17.333 30.333 32.333 49 45s40 23.334 64 32.001c26.667 10.667 57 18.5 91 23.5s71 7.5 111 7.5s77 -2.5 111 -7.5s64.333 -12.833 91 -23.5c24 -8.66699 45.333 -19.334 64 -32.001s35 -27.667 49 -45
c24 -28 41.5 -61.833 52.5 -101.5s16.5 -87.167 16.5 -142.5c0 -8.66699 3.16699 -16.167 9.5 -22.5s13.833 -9.5 22.5 -9.5s16.167 3.16699 22.5 9.5s9.5 13.833 9.5 22.5c0 63.333 -6.83301 118.166 -20.5 164.499s-34.5 86.5 -62.5 120.5v0z" />
    <glyph glyph-name="uniE92F" unicode="bucket&#x32;" 
d="M877 829c-18 21.333 -38.665 40 -61.998 56s-49.333 29.333 -78 40c-30.667 12 -64.834 20.833 -102.501 26.5s-78.5 8.5 -122.5 8.5s-84.833 -2.83301 -122.5 -8.5s-71.834 -14.5 -102.501 -26.5c-28.667 -10.667 -54.667 -24 -78 -40s-44 -34.667 -62 -56
c-28 -34 -48.833 -74.167 -62.5 -120.5s-20.5 -101.166 -20.5 -164.499c0 -8.66699 3.16699 -16.167 9.5 -22.5s13.833 -9.5 22.5 -9.5s16.167 3.16699 22.5 9.5s9.5 13.833 9.5 22.5c0 55.333 5.5 102.833 16.5 142.5s28.5 73.5 52.5 101.5c14 17.333 30.333 32.333 49 45
s40 23.334 64 32.001c26.667 10.667 57 18.5 91 23.5s71 7.5 111 7.5s77 -2.5 111 -7.5s64.333 -12.833 91 -23.5c24 -8.66699 45.333 -19.334 64 -32.001s35 -27.667 49 -45c24 -28 41.5 -61.833 52.5 -101.5s16.5 -87.167 16.5 -142.5
c0 -8.66699 3.16699 -16.167 9.5 -22.5s13.833 -9.5 22.5 -9.5s16.167 3.16699 22.5 9.5s9.5 13.833 9.5 22.5c0 63.333 -6.83301 118.166 -20.5 164.499s-34.5 86.5 -62.5 120.5v0zM849.002 598c-10 4.66699 -21.8271 8.83398 -35.4941 12.501s-29.167 7.16699 -46.5 10.5
c-34.667 6 -73.834 10.667 -117.501 14s-89.5 5 -137.5 5s-93.833 -1.66699 -137.5 -5s-82.834 -8 -117.501 -14c-17.333 -3.33301 -32.833 -6.83301 -46.5 -10.5s-25.5 -7.83398 -35.5 -12.501c-15.333 -6.66699 -27 -14.5 -35 -23.5s-12 -19.167 -12 -30.5v-4.5
c0 -1.66699 0.333008 -3.16699 1 -4.5l63 -505c1.33301 -22.667 14.166 -39.5 38.499 -50.5s47.833 -18.833 70.5 -23.5c28.667 -6.66699 61.167 -11.667 97.5 -15s74.166 -5 113.499 -5s77.166 1.66699 113.499 5s68.833 8.33301 97.5 15
c22.667 4.66699 46.167 12.5 70.5 23.5s37.166 27.833 38.499 50.5l63 505c0.666992 1.33301 1 2.83301 1 4.5v4.5c0 11.333 -4 21.5 -12 30.5s-19.667 16.833 -35 23.5v0zM734.008 527c-31.333 -4.66699 -66 -8.33398 -104 -11.001s-77.333 -4 -118 -4s-80 1.33301 -118 4
s-72.667 6.33398 -104 11.001c-18.667 2.66699 -34.334 5.5 -47.001 8.5s-23 5.83301 -31 8.5c8 2.66699 18.333 5.5 31 8.5s28.334 5.83301 47.001 8.5c31.333 4.66699 66 8.33398 104 11.001s77.333 4 118 4s80 -1.33301 118 -4s72.667 -6.33398 104 -11.001
c18.667 -2.66699 34.334 -5.5 47.001 -8.5s23 -5.83301 31 -8.5c-8 -2.66699 -18.333 -5.5 -31 -8.5s-28.334 -5.83301 -47.001 -8.5v0z" />
    <glyph glyph-name="uniE930" unicode="color&#x35;" 
d="M960 960h-896c-17.333 0 -32.333 -6.33301 -45 -19s-19 -27.667 -19 -45v-896c-0 -17.333 6.33301 -32.333 19 -45s27.667 -19 45 -19h896c17.333 0 32.333 6.33301 45 19s19 27.667 19 45v896c0 17.333 -6.33301 32.333 -19 45s-27.667 19 -45 19v0zM320 896v-32h-32v32
h32v0zM288 160v32h32v-32h-32v0zM320 128v-32h-32v32h32v0zM288 224v32h32v-32h-32v0zM288 288v32h32v-32h-32v0zM288 352v32h32v-32h-32v0zM288 416v32h32v-32h-32v0zM288 480v32h32v-32h-32v0zM288 544v32h32v-32h-32v0zM288 608v32h32v-32h-32v0zM288 672v32h32v-32h-32
v0zM288 736v32h32v-32h-32v0zM288 800v32h32v-32h-32v0zM288 64h32v-32h-32v32v0zM256 896v-32h-32v32h32v0zM224 160v32h32v-32h-32v0zM256 128v-32h-32v32h32v0zM224 224v32h32v-32h-32v0zM224 288v32h32v-32h-32v0zM224 352v32h32v-32h-32v0zM224 416v32h32v-32h-32v0z
M224 480v32h32v-32h-32v0zM224 544v32h32v-32h-32v0zM224 608v32h32v-32h-32v0zM224 672v32h32v-32h-32v0zM224 736v32h32v-32h-32v0zM224 800v32h32v-32h-32v0zM224 64h32v-32h-32v32v0zM192 896v-32h-32v32h32v0zM160 160v32h32v-32h-32v0zM192 128v-32h-32v32h32v0z
M160 224v32h32v-32h-32v0zM160 288v32h32v-32h-32v0zM160 352v32h32v-32h-32v0zM160 416v32h32v-32h-32v0zM160 480v32h32v-32h-32v0zM160 544v32h32v-32h-32v0zM160 608v32h32v-32h-32v0zM160 672v32h32v-32h-32v0zM160 736v32h32v-32h-32v0zM160 800v32h32v-32h-32v0z
M160 64h32v-32h-32v32v0zM960 0h-128v32h-32v-32h-32v32h-32v-32h-32v32h-32v-32h-32v32h-32v-32h-32v32h-32v-32h-32v32h-32v-32h-32v32h-32v-32h-32v32h-32v32h32v32h-32v32h32v32h-32v32h32v32h-32v32h32v32h-32v32h32v32h-32v32h32v32h-32v32h32v32h-32v32h32v32h-32v32
h32v32h-32v32h32v32h-32v32h32v32h-32v32h32v32h-32v32h32v32h-32v32h32v-32h32v32h32v-32h32v32h32v-32h32v32h32v-32h32v32h352v-896v0zM480 864h32v-32h-32v32v0zM544 864h32v-32h-32v32v0zM608 864h32v-32h-32v32v0zM672 864h32v-32h-32v32v0zM512 832h32v-32h-32v32v0z
M480 800h32v-32h-32v32v0zM576 832h32v-32h-32v32v0zM544 800h32v-32h-32v32v0zM416 864h32v-32h-32v32v0zM384 832h32v-32h-32v32v0zM448 832h32v-32h-32v32v0zM416 800h32v-32h-32v32v0zM608 800h32v-32h-32v32v0zM672 800h32v-32h-32v32v0zM736 864h32v-32h-32v32v0z
M800 864h32v-32h-32v32v0zM736 800h32v-32h-32v32v0zM800 800h32v-32h-32v32v0zM512 768h32v-32h-32v32v0zM480 736h32v-32h-32v32v0zM576 768h32v-32h-32v32v0zM544 736h32v-32h-32v32v0zM608 736h32v-32h-32v32v0zM672 736h32v-32h-32v32v0zM512 704h32v-32h-32v32v0z
M480 672h32v-32h-32v32v0zM576 704h32v-32h-32v32v0zM544 672h32v-32h-32v32v0zM384 768h32v-32h-32v32v0zM448 768h32v-32h-32v32v0zM416 736h32v-32h-32v32v0zM384 704h32v-32h-32v32v0zM448 704h32v-32h-32v32v0zM416 672h32v-32h-32v32v0zM608 672h32v-32h-32v32v0z
M672 672h32v-32h-32v32v0zM736 736h32v-32h-32v32v0zM800 736h32v-32h-32v32v0zM736 672h32v-32h-32v32v0zM800 672h32v-32h-32v32v0zM512 640h32v-32h-32v32v0zM480 608h32v-32h-32v32v0zM576 640h32v-32h-32v32v0zM544 608h32v-32h-32v32v0zM608 608h32v-32h-32v32v0z
M672 608h32v-32h-32v32v0zM512 576h32v-32h-32v32v0zM480 544h32v-32h-32v32v0zM576 576h32v-32h-32v32v0zM544 544h32v-32h-32v32v0zM384 640h32v-32h-32v32v0zM448 640h32v-32h-32v32v0zM416 608h32v-32h-32v32v0zM384 576h32v-32h-32v32v0zM448 576h32v-32h-32v32v0z
M416 544h32v-32h-32v32v0zM608 544h32v-32h-32v32v0zM672 544h32v-32h-32v32v0zM736 608h32v-32h-32v32v0zM800 608h32v-32h-32v32v0zM736 544h32v-32h-32v32v0zM800 544h32v-32h-32v32v0zM512 512h32v-32h-32v32v0zM480 480h32v-32h-32v32v0zM576 512h32v-32h-32v32v0z
M544 480h32v-32h-32v32v0zM608 480h32v-32h-32v32v0zM672 480h32v-32h-32v32v0zM512 448h32v-32h-32v32v0zM480 416h32v-32h-32v32v0zM576 448h32v-32h-32v32v0zM544 416h32v-32h-32v32v0zM384 512h32v-32h-32v32v0zM448 512h32v-32h-32v32v0zM416 480h32v-32h-32v32v0z
M384 448h32v-32h-32v32v0zM448 448h32v-32h-32v32v0zM416 416h32v-32h-32v32v0zM608 416h32v-32h-32v32v0zM672 416h32v-32h-32v32v0zM736 480h32v-32h-32v32v0zM800 480h32v-32h-32v32v0zM736 416h32v-32h-32v32v0zM800 416h32v-32h-32v32v0zM512 384h32v-32h-32v32v0z
M480 352h32v-32h-32v32v0zM576 384h32v-32h-32v32v0zM544 352h32v-32h-32v32v0zM608 352h32v-32h-32v32v0zM672 352h32v-32h-32v32v0zM512 320h32v-32h-32v32v0zM480 288h32v-32h-32v32v0zM576 320h32v-32h-32v32v0zM544 288h32v-32h-32v32v0zM384 384h32v-32h-32v32v0z
M448 384h32v-32h-32v32v0zM416 352h32v-32h-32v32v0zM384 320h32v-32h-32v32v0zM448 320h32v-32h-32v32v0zM416 288h32v-32h-32v32v0zM608 288h32v-32h-32v32v0zM672 288h32v-32h-32v32v0zM736 352h32v-32h-32v32v0zM800 352h32v-32h-32v32v0zM736 288h32v-32h-32v32v0z
M800 288h32v-32h-32v32v0zM512 256h32v-32h-32v32v0zM480 224h32v-32h-32v32v0zM576 256h32v-32h-32v32v0zM544 224h32v-32h-32v32v0zM608 224h32v-32h-32v32v0zM672 224h32v-32h-32v32v0zM512 192h32v-32h-32v32v0zM480 160h32v-32h-32v32v0zM576 192h32v-32h-32v32v0z
M544 160h32v-32h-32v32v0zM384 256h32v-32h-32v32v0zM448 256h32v-32h-32v32v0zM416 224h32v-32h-32v32v0zM384 192h32v-32h-32v32v0zM448 192h32v-32h-32v32v0zM416 160h32v-32h-32v32v0zM608 160h32v-32h-32v32v0zM672 160h32v-32h-32v32v0zM736 224h32v-32h-32v32v0z
M800 224h32v-32h-32v32v0zM736 160h32v-32h-32v32v0zM800 160h32v-32h-32v32v0zM512 128h32v-32h-32v32v0zM480 96h32v-32h-32v32v0zM576 128h32v-32h-32v32v0zM544 96h32v-32h-32v32v0zM608 96h32v-32h-32v32v0zM672 96h32v-32h-32v32v0zM512 64h32v-32h-32v32v0zM576 64
h32v-32h-32v32v0zM384 128h32v-32h-32v32v0zM448 128h32v-32h-32v32v0zM416 96h32v-32h-32v32v0zM384 64h32v-32h-32v32v0zM448 64h32v-32h-32v32v0zM736 96h32v-32h-32v32v0zM800 96h32v-32h-32v32v0z" />
    <glyph glyph-name="uniE931" unicode="color&#x36;" 
d="M987 923c-25.333 24.667 -55.667 37.002 -91 37.002s-65.666 -12.333 -90.999 -37l-172 -173l-121 122l-136 -136l107 -106l-472 -473c-4 -4 -7 -8.5 -9 -13.5s-2.66699 -10.167 -2 -15.5v0v-160c0 -8.66699 3.16699 -16.167 9.5 -22.5s13.833 -9.5 22.5 -9.5h160h1.5
h2.5c4.66699 0 9.16699 0.833008 13.5 2.5s8.16602 4.5 11.499 8.5l473 472l106 -107l136 136l-122 121l173 172c24.667 25.333 37 55.666 37 90.999s-12.333 65.666 -37 90.999v0zM172.999 0.00195312h-109v109l470 470l109 -109l-470 -470v0z" />
    <glyph glyph-name="uniE932" unicode="color&#x37;" 
d="M987 923c-25.333 24.667 -55.667 37.002 -91 37.002s-65.666 -12.333 -90.999 -37l-172 -173l-121 122l-136 -136l107 -106l-472 -473c-4 -4 -7 -8.5 -9 -13.5s-2.66699 -10.167 -2 -15.5v0v-160c0 -8.66699 3.16699 -16.167 9.5 -22.5s13.833 -9.5 22.5 -9.5h160h1.5
h2.5c4.66699 0 9.16699 0.833008 13.5 2.5s8.16602 4.5 11.499 8.5l473 472l106 -107l136 136l-122 121l173 172c24.667 25.333 37 55.666 37 90.999s-12.333 65.666 -37 90.999v0zM492.999 320.002h-218l259 259l109 -109l-150 -150v0z" />
    <glyph glyph-name="uniE933" unicode="color&#x38;" 
d="M768 640h-112c-32 0 -42.667 16 -32 48s16 80 16 144c0 7.33301 -0.5 14 -1.5 20s-2.16699 11 -3.5 15c-7.33301 26.667 -22.333 48.834 -45 66.501s-48.667 26.5 -78 26.5s-55.333 -8.83301 -78 -26.5s-37.667 -39.834 -45 -66.501c-1.33301 -4 -2.5 -9 -3.5 -15
s-1.5 -12.667 -1.5 -20c0 -64 5.33301 -112 16 -144s0 -48 -32 -48h-112v-128h128v-496c0 -4.66699 1.5 -8.5 4.5 -11.5s6.83301 -4.5 11.5 -4.5h32c4.66699 0 8.5 -1.5 11.5 -4.5s4.5 -6.83301 4.5 -11.5v-32c0 -4.66699 1.5 -8.5 4.5 -11.5s6.83301 -4.5 11.5 -4.5h96
c4.66699 0 8.5 1.5 11.5 4.5s4.5 6.83301 4.5 11.5v32c0 4.66699 1.5 8.5 4.5 11.5s6.83301 4.5 11.5 4.5h32c4.66699 0 8.5 1.5 11.5 4.5s4.5 6.83301 4.5 11.5v496h128v128v0zM576 62c-15.333 -2.66699 -28.8311 -9.83398 -40.498 -21.501s-18.834 -25.167 -21.501 -40.5
h-4c-2.66699 15.333 -9.83398 28.833 -21.501 40.5s-25.167 18.834 -40.5 21.501v450h128v-450v0z" />
    <glyph glyph-name="uniE934" unicode="color&#x39;" 
d="M865 487c-16.667 46 -37.5078 90.667 -62.5078 134s-52.833 84.833 -83.5 124.5s-63.667 77.5 -99 113.5s-71.333 69.667 -108 101c-36.667 -31.333 -72.667 -65 -108 -101s-68.333 -73.833 -99 -113.5s-58.5 -81.167 -83.5 -124.5s-45.833 -88 -62.5 -134
c-10 -28.667 -17.667 -57.667 -23 -87s-7.66602 -58.666 -6.99902 -87.999s4.33398 -58.333 11.001 -87s17.334 -56.667 32.001 -84c16.667 -30.667 37 -58.667 61 -84s50.833 -47 80.5 -65s61.334 -31.833 95.001 -41.5s68.167 -14.5 103.5 -14.5
s69.833 4.83301 103.5 14.5s65.334 23.5 95.001 41.5s56.5 39.667 80.5 65s44.333 53.333 61 84c14.667 27.333 25.334 55.333 32.001 84s10.334 57.667 11.001 87s-1.66602 58.666 -6.99902 87.999s-13 58.333 -23 87v0zM738.992 201
c-22 -41.333 -53.667 -74.5029 -95 -99.5029s-85.333 -37.5 -132 -37.5c-27.333 0 -54 4.5 -80 13.5s-50 21.5 -72 37.5c6.66699 -1.33301 13.334 -2.16602 20.001 -2.49902s13.334 -0.5 20.001 -0.5c29.333 0 58 4 86 12s54.333 19.5 79 34.5s47.167 33 67.5 54
s37.166 44.5 50.499 70.5c22.667 42.667 34.5 85.334 35.5 128.001s-2.83301 81.667 -11.5 117c7.33301 -14.667 14.166 -29 20.499 -43s11.833 -27.667 16.5 -41c11.333 -32 19 -69.667 23 -113s-5.33301 -86.666 -28 -129.999v0z" />
    <glyph glyph-name="uniE935" unicode="color&#x31;&#x30;" 
d="M512 831c24.667 -23.333 47.8301 -47 69.4971 -71s42.167 -48.333 61.5 -73c30 -38.667 56 -77.5 78 -116.5s39.667 -77.833 53 -116.5c12.667 -34 21 -75 25 -123s-6.66699 -96.333 -32 -145c-12 -23.333 -27.167 -44.5 -45.5 -63.5s-38.666 -35.167 -60.999 -48.5
s-46 -23.666 -71 -30.999s-50.833 -11 -77.5 -11s-52.5 3.66699 -77.5 11s-48.667 17.666 -71 30.999s-42.666 29.5 -60.999 48.5s-33.5 40.167 -45.5 63.5c-25.333 48.667 -36 97 -32 145s12.333 89 25 123c13.333 38.667 31 77.5 53 116.5s48 77.833 78 116.5
c19.333 24.667 39.833 49 61.5 73s44.834 47.667 69.501 71v0v0zM511.996 960c-36.667 -31.333 -72.6748 -65 -108.008 -101s-68.333 -73.833 -99 -113.5s-58.5 -81.167 -83.5 -124.5s-45.833 -88 -62.5 -134c-10 -28.667 -17.667 -57.667 -23 -87
s-7.66602 -58.666 -6.99902 -87.999s4.33398 -58.333 11.001 -87s17.334 -56.667 32.001 -84c16.667 -30.667 37 -58.667 61 -84s50.833 -47 80.5 -65s61.334 -31.833 95.001 -41.5s68.167 -14.5 103.5 -14.5s69.833 4.83301 103.5 14.5s65.334 23.5 95.001 41.5
s56.5 39.667 80.5 65s44.333 53.333 61 84c14.667 27.333 25.334 55.333 32.001 84s10.334 57.667 11.001 87s-1.66602 58.666 -6.99902 87.999s-13 58.333 -23 87c-16.667 46 -37.5 90.667 -62.5 134s-52.833 84.833 -83.5 124.5s-63.667 77.5 -99 113.5
s-71.333 69.667 -108 101v0v0z" />
    <glyph glyph-name="uniE936" unicode="droplet&#x2d;contrast" 
d="M865 487c-16.667 46 -37.5078 90.667 -62.5078 134s-52.833 84.833 -83.5 124.5s-63.667 77.5 -99 113.5s-71.333 69.667 -108 101c-36.667 -31.333 -72.667 -65 -108 -101s-68.333 -73.833 -99 -113.5s-58.5 -81.167 -83.5 -124.5s-45.833 -88 -62.5 -134
c-10 -28.667 -17.667 -57.667 -23 -87s-7.66602 -58.666 -6.99902 -87.999s4.33398 -58.333 11.001 -87s17.334 -56.667 32.001 -84c16.667 -30.667 37 -58.667 61 -84s50.833 -47 80.5 -65s61.334 -31.833 95.001 -41.5s68.167 -14.5 103.5 -14.5
s69.833 4.83301 103.5 14.5s65.334 23.5 95.001 41.5s56.5 39.667 80.5 65s44.333 53.333 61 84c14.667 27.333 25.334 55.333 32.001 84s10.334 57.667 11.001 87s-1.66602 58.666 -6.99902 87.999s-13 58.333 -23 87v0zM256.992 186
c-25.333 48.667 -36.002 97.001 -32.002 145.001s12.333 89 25 123c13.333 38.667 31 77.5 53 116.5s48 77.833 78 116.5c19.333 24.667 39.833 49 61.5 73s44.834 47.667 69.501 71v-799c-26.667 0 -52.5 3.66699 -77.5 11s-48.667 17.666 -71 30.999
s-42.666 29.5 -60.999 48.5s-33.5 40.167 -45.5 63.5v0z" />
    <glyph glyph-name="uniE937" unicode="color&#x2d;clear" 
d="M1005 45l-832.006 832l-90 -90l149 -149c-14.667 -24.667 -28.167 -49.5 -40.5 -74.5s-23.166 -50.5 -32.499 -76.5c-10 -28.667 -17.667 -57.667 -23 -87s-7.66602 -58.666 -6.99902 -87.999s4.33398 -58.333 11.001 -87s17.334 -56.667 32.001 -84
c16.667 -30.667 37 -58.667 61 -84s50.833 -47 80.5 -65s61.334 -31.833 95.001 -41.5s68.167 -14.5 103.5 -14.5c28 0 55.333 3 82 9s52.334 14.667 77.001 26s48 25.166 70 41.499s42 34.833 60 55.5l114 -113l90 90v0zM864.994 487
c-16.667 46 -37.502 90.667 -62.502 134s-52.833 84.833 -83.5 124.5s-63.667 77.5 -99 113.5s-71.333 69.667 -108 101c-26 -22 -51.5 -45 -76.5 -69s-49.167 -49.333 -72.5 -76l531 -530c2.66699 34 1.33398 68 -3.99902 102s-13.666 67.333 -24.999 100v0z" />
    <glyph glyph-name="uniE938" unicode="format" 
d="M1024 384v384h-192v64c0 17.333 -6.33301 32.333 -19 45s-27.667 19 -45 19h-704c-17.333 0 -32.333 -6.33301 -45 -19s-19 -27.667 -19 -45v-192c-0 -17.333 6.33301 -32.333 19 -45s27.667 -19 45 -19h704c17.333 0 32.333 6.33301 45 19s19 27.667 19 45v64h128v-256
h-576v-128h-32c-8.66699 0 -16.167 -3.16699 -22.5 -9.5s-9.5 -13.833 -9.5 -22.5v-320c0 -8.66699 3.16699 -16.167 9.5 -22.5s13.833 -9.5 22.5 -9.5h128c8.66699 0 16.167 3.16699 22.5 9.5s9.5 13.833 9.5 22.5v320c0 8.66699 -3.16699 16.167 -9.5 22.5
s-13.833 9.5 -22.5 9.5h-32v64h576v0zM768 768h-704v64h704v-64v0z" />
    <glyph glyph-name="uniE939" unicode="pattern" 
d="M992 256h-320c-26.667 0 -49.334 9.33301 -68.001 28s-28 41.334 -28 68.001v235c37.333 13.333 68 36.333 92 69s36 70 36 112c0 53.333 -18.667 98.666 -56 135.999s-82.666 56 -135.999 56s-98.666 -18.667 -135.999 -56s-56 -82.666 -56 -135.999
c0 -42 12 -79.333 36 -112s54.667 -55.667 92 -69v-235c0 -26.667 -9.33301 -49.334 -28 -68.001s-41.334 -28 -68.001 -28h-320c-8.66699 0 -16.167 -3.16699 -22.5 -9.5s-9.5 -13.833 -9.5 -22.5v-128c0 -8.66699 3.16699 -16.167 9.5 -22.5s13.833 -9.5 22.5 -9.5h960
c8.66699 0 16.167 3.16699 22.5 9.5s9.5 13.833 9.5 22.5v128c0 8.66699 -3.16699 16.167 -9.5 22.5s-13.833 9.5 -22.5 9.5v0zM64 32v-64c0 -8.66699 3.16699 -16.167 9.5 -22.5s13.833 -9.5 22.5 -9.5h832c8.66699 0 16.167 3.16699 22.5 9.5s9.5 13.833 9.5 22.5v64h-896
v0z" />
    <glyph glyph-name="uniE93A" unicode="images" horiz-adv-x="1152" 
d="M1088 832h-64v64c0 17.333 -6.33301 32.333 -19 45s-27.667 19 -45 19h-896c-17.333 0 -32.333 -6.33301 -45 -19s-19 -27.667 -19 -45v-768c-0 -17.333 6.33301 -32.333 19 -45s27.667 -19 45 -19h64v-64c0 -17.333 6.33301 -32.333 19 -45s27.667 -19 45 -19h896
c17.333 0 32.333 6.33301 45 19s19 27.667 19 45v768c0 17.333 -6.33301 32.333 -19 45s-27.667 19 -45 19v0zM128 768v-640h-64v768h896v-64h-768c-17.333 0 -32.333 -6.33301 -45 -19s-19 -27.667 -19 -45v0zM960 608c0 -26.667 -9.33301 -49.334 -28 -68.001
s-41.334 -28 -68.001 -28s-49.334 9.33301 -68.001 28s-28 41.334 -28 68.001s9.33301 49.334 28 68.001s41.334 28 68.001 28s49.334 -9.33301 68.001 -28s28 -41.334 28 -68.001v0zM1024 64h-768v128l224 384l256 -320h64l224 192v-384v0z" />
    <glyph glyph-name="uniE93B" unicode="image" 
d="M960 896h-896c-17.333 0 -32.333 -6.33301 -45 -19s-19 -27.667 -19 -45v-768c-0 -17.333 6.33301 -32.333 19 -45s27.667 -19 45 -19h896c17.333 -0 32.333 6.33301 45 19s19 27.667 19 45v768c0 17.333 -6.33301 32.333 -19 45s-27.667 19 -45 19v0zM736 768
c26.667 0 49.334 -9.33301 68.001 -28s28 -41.334 28 -68.001s-9.33301 -49.334 -28 -68.001s-41.334 -28 -68.001 -28s-49.334 9.33301 -68.001 28s-28 41.334 -28 68.001s9.33301 49.334 28 68.001s41.334 28 68.001 28v0zM896 128h-768v128l224 384l256 -320h64l224 192
v-384v0z" />
    <glyph glyph-name="uniE93C" unicode="image&#x32;" 
d="M960 832v0v-768v0v0h-896v0v0v768v0v0h896v0zM960 896h-896c-17.333 0 -32.333 -6.33301 -45 -19s-19 -27.667 -19 -45v-768c-0 -17.333 6.33301 -32.333 19 -45s27.667 -19 45 -19h896c17.333 -0 32.333 6.33301 45 19s19 27.667 19 45v768
c0 17.333 -6.33301 32.333 -19 45s-27.667 19 -45 19v0v0zM832 672c0 -26.667 -9.33301 -49.334 -28 -68.001s-41.334 -28 -68.001 -28s-49.334 9.33301 -68.001 28s-28 41.334 -28 68.001s9.33301 49.334 28 68.001s41.334 28 68.001 28s49.334 -9.33301 68.001 -28
s28 -41.334 28 -68.001v0zM896 128h-768v128l224 384l256 -320h64l224 192v-384z" />
    <glyph glyph-name="uniE93D" unicode="diff" 
d="M832 608c0 -26.667 -9.33301 -49.334 -28 -68.001s-41.334 -28 -68.001 -28s-49.334 9.33301 -68.001 28s-28 41.334 -28 68.001s9.33301 49.334 28 68.001s41.334 28 68.001 28s49.334 -9.33301 68.001 -28s28 -41.334 28 -68.001v0zM0 768v-640
c-0 -17.333 6.33301 -32.333 19 -45s27.667 -19 45 -19h384v64h-384v0v0v640v0v0h384v64h-384c-17.333 0 -32.333 -6.33301 -45 -19s-19 -27.667 -19 -45v0zM960 832h-384v128h-64v-1024h64v128h384c17.333 0 32.333 6.33301 45 19s19 27.667 19 45v640
c0 17.333 -6.33301 32.333 -19 45s-27.667 19 -45 19v0zM960 128v0h-384v64h320v320l-224 -192h-64l-32 40v408h384v0v0v-640v0zM128 256v-64h320v328l-96 120z" />
    <glyph glyph-name="uniE93E" unicode="images&#x32;" horiz-adv-x="1152" 
d="M1088 832h-64v64c0 17.333 -6.33301 32.333 -19 45s-27.667 19 -45 19h-896c-17.333 0 -32.333 -6.33301 -45 -19s-19 -27.667 -19 -45v-768c-0 -17.333 6.33301 -32.333 19 -45s27.667 -19 45 -19h64v-64c0 -17.333 6.33301 -32.333 19 -45s27.667 -19 45 -19h896
c17.333 0 32.333 6.33301 45 19s19 27.667 19 45v768c0 17.333 -6.33301 32.333 -19 45s-27.667 19 -45 19v0zM128 768v-640h-64v0v0v768v0v0h896v0v0v-64h-768c-17.333 0 -32.333 -6.33301 -45 -19s-19 -27.667 -19 -45v0v0zM1088 0v0h-896v0v0v768v0v0h896v0v0v-768v0z
M960 608c0 -26.667 -9.33301 -49.334 -28 -68.001s-41.334 -28 -68.001 -28s-49.334 9.33301 -68.001 28s-28 41.334 -28 68.001s9.33301 49.334 28 68.001s41.334 28 68.001 28s49.334 -9.33301 68.001 -28s28 -41.334 28 -68.001v0zM1024 64h-768v128l224 384l256 -320h64
l224 192v-384z" />
    <glyph glyph-name="uniE93F" unicode="image&#x33;" 
d="M0 896v-960h1024v960h-1024v0zM896 192h-768v576h768v-576v0zM832 384l-64 128l-128 -128l-192 320l-256 -384v-64h640v128z" />
    <glyph glyph-name="uniE940" unicode="images&#x33;" 
d="M768 896h-768v-768h768v768v0zM704 320h-640v512h640v-512v0zM512 640l-46 -91l-146 219l-192 -384h512zM832 713v-649h-711l-5 -48l764 -80l80 764z" />
    <glyph glyph-name="uniE941" unicode="image&#x34;" 
d="M864 576l-224 -224l-192 192l-320 -320v-96h768v448h-32zM928 832c8.66699 0 16.167 -3.16699 22.5 -9.5s9.5 -13.833 9.5 -22.5v-704c0 -8.66699 -3.16699 -16.167 -9.5 -22.5s-13.833 -9.5 -22.5 -9.5h-832c-8.66699 0 -16.167 3.16699 -22.5 9.5
s-9.5 13.833 -9.5 22.5v704c0 8.66699 3.16699 16.167 9.5 22.5s13.833 9.5 22.5 9.5h832v0zM928 896h-832c-26.667 0 -49.334 -9.33301 -68.001 -28s-28 -41.334 -28 -68.001v-704c0 -26.667 9.33301 -49.334 28 -68.001s41.334 -28 68.001 -28h832
c26.667 0 49.334 9.33301 68.001 28s28 41.334 28 68.001v704c0 26.667 -9.33301 49.334 -28 68.001s-41.334 28 -68.001 28v0v0z" />
    <glyph glyph-name="uniE942" unicode="image&#x35;" 
d="M896 768v-640h-768v640h768v0zM928 896h-832c-26.667 0 -49.334 -9.33301 -68.001 -28s-28 -41.334 -28 -68.001v-704c0 -26.667 9.33301 -49.334 28 -68.001s41.334 -28 68.001 -28h832c26.667 0 49.334 9.33301 68.001 28s28 41.334 28 68.001v704
c0 26.667 -9.33301 49.334 -28 68.001s-41.334 28 -68.001 28v0v0zM640 352l-192 192l-256 -256v-96h640v352z" />
    <glyph glyph-name="uniE943" unicode="image&#x36;" 
d="M1021 824h-1018c-0.666992 -2.66699 -1.16699 -5.33398 -1.5 -8.00098s-0.833008 -5.33398 -1.5 -8.00098h1024c-0.666992 2.66699 -1.16699 5.33398 -1.5 8.00098s-0.833008 5.33398 -1.5 8.00098v0zM966 888h-908.002c-4.66699 -2 -9.16699 -4.33301 -13.5 -7
s-8.16602 -5.66699 -11.499 -9h958c-3.33301 3.33301 -7.16602 6.33301 -11.499 9s-8.83301 5 -13.5 7v0zM1006 856h-988c-2 -2.66699 -3.66699 -5.33398 -5 -8.00098l-4 -8h1006l-4 8c-1.33301 2.66699 -3 5.33398 -5 8.00098v0zM57.998 8h908.002
c4.66699 2 9.16699 4.33301 13.5 7s8.16602 5.66699 11.499 9h-958c3.33301 -3.33301 7.16602 -6.33301 11.499 -9s8.83301 -5 13.5 -7v0zM18 40h988c2 2.66699 3.66699 5.33398 5 8.00098l4 8h-1006l4 -8c1.33301 -2.66699 3 -5.33398 5 -8.00098v0zM1024 776v16h-1024v-16
h8v-656h-8v-16h1024v16h-8v656h8v0zM88 776h16v-656h-16v656v0zM72 120h-16v656h16v-656v0zM120 776h784v-656h-784v656v0zM920 776h16v-656h-16v656v0zM952 776h16v-656h-16v656v0zM24 776h16v-656h-16v656v0zM1000 120h-16v656h16v-656v0zM3 72h1018
c0.666992 2.66699 1.16699 5.33398 1.5 8.00098s0.833008 5.33398 1.5 8.00098h-1024c0.666992 -2.66699 1.16699 -5.33398 1.5 -8.00098s0.833008 -5.33398 1.5 -8.00098v0zM864 576l-224 -224l-192 192l-320 -320v-96h768v448h-32z" />
    <glyph glyph-name="uniE944" unicode="camera" 
d="M304 352c0 -28.667 5.5 -55.667 16.5 -81s25.833 -47.333 44.5 -66s40.667 -33.5 66 -44.5s52.333 -16.5 81 -16.5s55.667 5.5 81 16.5s47.333 25.833 66 44.5s33.5 40.667 44.5 66s16.5 52.333 16.5 81s-5.5 55.667 -16.5 81s-25.833 47.333 -44.5 66
s-40.667 33.5 -66 44.5s-52.333 16.5 -81 16.5s-55.667 -5.5 -81 -16.5s-47.333 -25.833 -66 -44.5s-33.5 -40.667 -44.5 -66s-16.5 -52.333 -16.5 -81v0zM960 704h-224c-8 32 -18 61.333 -30 88s-34 40 -66 40h-256c-32 0 -54 -13.333 -66 -40s-22 -56 -30 -88h-224
c-17.333 0 -32.333 -6.33301 -45 -19s-19 -27.667 -19 -45v-576c-0 -17.333 6.33301 -32.333 19 -45s27.667 -19 45 -19h896c17.333 -0 32.333 6.33301 45 19s19 27.667 19 45v576c0 17.333 -6.33301 32.333 -19 45s-27.667 19 -45 19v0zM512 68
c-39.333 0 -76.166 7.5 -110.499 22.5s-64.333 35.333 -90 61s-46 55.667 -61 90s-22.5 71.166 -22.5 110.499s7.5 76.166 22.5 110.499s35.333 64.333 61 90s55.667 46 90 61s71.166 22.5 110.499 22.5s76.166 -7.5 110.499 -22.5s64.333 -35.333 90 -61s46 -55.667 61 -90
s22.5 -71.166 22.5 -110.499s-7.5 -76.166 -22.5 -110.499s-35.333 -64.333 -61 -90s-55.667 -46 -90 -61s-71.166 -22.5 -110.499 -22.5v0zM960 512h-128v64h128v-64v0z" />
    <glyph glyph-name="uniE945" unicode="camera&#x32;" 
d="M960 640h-192c-2.66699 0 -6 1.16699 -10 3.5s-6.66699 4.83301 -8 7.5l-35 71c-6.66699 12.667 -17.167 23.5 -31.5 32.5s-28.833 13.5 -43.5 13.5h-256c-14.667 0 -29.167 -4.5 -43.5 -13.5s-24.833 -19.833 -31.5 -32.5l-35 -71
c-1.33301 -2.66699 -4 -5.16699 -8 -7.5s-7.33301 -3.5 -10 -3.5v32c0 8.66699 -3.16699 16.167 -9.5 22.5s-13.833 9.5 -22.5 9.5h-128c-8.66699 0 -16.167 -3.16699 -22.5 -9.5s-9.5 -13.833 -9.5 -22.5v-32c-17.333 0 -32.333 -6.33301 -45 -19s-19 -27.667 -19 -45v-576
c-0 -17.333 6.33301 -32.333 19 -45s27.667 -19 45 -19h896c17.333 0 32.333 6.33301 45 19s19 27.667 19 45v576c0 17.333 -6.33301 32.333 -19 45s-27.667 19 -45 19v0zM64 0v576h192c14.667 0 29.167 4.5 43.5 13.5s24.833 19.833 31.5 32.5l35 71
c1.33301 2.66699 4 5.16699 8 7.5s7.33301 3.5 10 3.5h256c2.66699 0 6 -1.16699 10 -3.5s6.66699 -4.83301 8 -7.5l35 -71c6.66699 -12.667 17.167 -23.5 31.5 -32.5s28.833 -13.5 43.5 -13.5h192v-576h-896v0zM512 584c-36.667 0 -71 -7 -103 -21
s-59.833 -32.833 -83.5 -56.5s-42.5 -51.5 -56.5 -83.5s-21 -66.333 -21 -103s7 -71 21 -103s32.833 -59.833 56.5 -83.5s51.5 -42.5 83.5 -56.5s66.333 -21 103 -21s71 7 103 21s59.833 32.833 83.5 56.5s42.5 51.5 56.5 83.5s21 66.333 21 103s-7 71 -21 103
s-32.833 59.833 -56.5 83.5s-51.5 42.5 -83.5 56.5s-66.333 21 -103 21v0zM512 122c-27.333 0 -53 5.16699 -77 15.5s-45 24.5 -63 42.5s-32.167 39 -42.5 63s-15.5 49.667 -15.5 77s5.16699 53 15.5 77s24.5 45 42.5 63s39 32.167 63 42.5s49.667 15.5 77 15.5
s53 -5.16699 77 -15.5s45 -24.5 63 -42.5s32.167 -39 42.5 -63s15.5 -49.667 15.5 -77s-5.16699 -53 -15.5 -77s-24.5 -45 -42.5 -63s-39 -32.167 -63 -42.5s-49.667 -15.5 -77 -15.5v0zM640 320c0 -35.333 -12.5 -65.5 -37.5 -90.5s-55.167 -37.5 -90.5 -37.5
s-65.5 12.5 -90.5 37.5s-37.5 55.167 -37.5 90.5s12.5 65.5 37.5 90.5s55.167 37.5 90.5 37.5s65.5 -12.5 90.5 -37.5s37.5 -55.167 37.5 -90.5v0zM832 512h64v-64h-64v64v0z" />
    <glyph glyph-name="uniE946" unicode="camera&#x33;" 
d="M832 896h-640c-35.333 0 -65.5 -12.5 -90.5 -37.5s-37.5 -55.167 -37.5 -90.5v-640c0 -35.333 12.5 -65.5 37.5 -90.5s55.167 -37.5 90.5 -37.5h640c35.333 0 65.5 12.5 90.5 37.5s37.5 55.167 37.5 90.5v640c0 35.333 -12.5 65.5 -37.5 90.5s-55.167 37.5 -90.5 37.5v0z
M672 384c0 -44 -15.667 -81.667 -47 -113s-69 -47 -113 -47s-81.667 15.667 -113 47s-47 69 -47 113c0 26 5.83301 50.167 17.5 72.5s27.167 40.833 46.5 55.5h192c19.333 -14.667 34.833 -33.167 46.5 -55.5s17.5 -46.5 17.5 -72.5v0zM320 768h64v-128h-64v128v0zM192 768
h64v-128h-64v128v0zM832 128h0.00195312h-640v0v0v384h98c-10.667 -18.667 -19 -38.834 -25 -60.501s-9 -44.167 -9 -67.5c0 -35.333 6.66699 -68.5 20 -99.5s31.666 -58.167 54.999 -81.5s50.5 -41.666 81.5 -54.999s64.167 -20 99.5 -20s68.5 6.66699 99.5 20
s58.167 31.666 81.5 54.999s41.666 50.5 54.999 81.5s20 64.167 20 99.5c0 23.333 -3 45.833 -9 67.5s-14.333 41.834 -25 60.501h98v-384v0z" />
    <glyph glyph-name="uniE947" unicode="camera&#x34;" 
d="M327 512l255.999 443.001c-11.333 1.33301 -23 2.5 -35 3.5s-24 1.5 -36 1.5c-34.667 0 -68.667 -3.33301 -102 -10s-65.166 -16.334 -95.499 -29.001s-59 -28.167 -86 -46.5s-52.167 -38.833 -75.5 -61.5l174 -301v0zM474.999 640.001h512.001
c-14.667 36.667 -33.334 71 -56.001 103s-48.5 60.833 -77.5 86.5s-60.667 48 -95 67s-70.833 33.833 -109.5 44.5l-174 -301v0zM364 320.001l-256.001 442.998c-16.667 -22 -31.667 -45.167 -45 -69.5s-24.666 -49.666 -33.999 -75.999s-16.5 -53.666 -21.5 -81.999
s-7.5 -57.5 -7.5 -87.5c-0 -22 1.33301 -43.667 4 -65s6.66699 -42.333 12 -63h348v0zM659.999 575.999l256.001 -442.998c16.667 22 31.667 45.167 45 69.5s24.666 49.666 33.999 75.999s16.5 53.666 21.5 81.999s7.5 57.5 7.5 87.5c0 22 -1.33301 43.667 -4 65
s-6.66699 42.333 -12 63h-348v0zM549 256.001h-512.001c14.667 -36.667 33.334 -71 56.001 -103s48.5 -60.833 77.5 -86.5s60.667 -48 95 -67s70.833 -33.833 109.5 -44.5l174 301v0zM696.999 384.001l-255.999 -443.001c11.333 -1.33301 23 -2.5 35 -3.5s24 -1.5 36 -1.5
c34.667 0 68.667 3.33301 102 10s65.166 16.334 95.499 29.001s59 28.167 86 46.5s52.167 38.833 75.5 61.5l-174 301v0z" />
    <glyph glyph-name="uniE948" unicode="headphones" 
d="M288 384h-64v-448h64c8.66699 0 16.167 3.16699 22.5 9.5s9.5 13.833 9.5 22.5v384c0 8.66699 -3.16699 16.167 -9.5 22.5s-13.833 9.5 -22.5 9.5v0zM736 384c-8.66699 0 -16.167 -3.16699 -22.5 -9.5s-9.5 -13.833 -9.5 -22.5v-384
c0 -8.66699 3.16699 -16.167 9.5 -22.5s13.833 -9.5 22.5 -9.5h64v448h-64v0zM1024 448c0 70.667 -13.335 137.167 -40.002 199.5s-63.167 116.666 -109.5 162.999s-100.666 82.833 -162.999 109.5s-128.833 40 -199.5 40s-137.167 -13.333 -199.5 -40
s-116.666 -63.167 -162.999 -109.5s-82.833 -100.666 -109.5 -162.999s-40 -128.833 -40 -199.5c0 -30.667 2.66699 -60.667 8 -90s13 -57.666 23 -84.999c-10 -16.667 -17.667 -34.5 -23 -53.5s-8 -38.833 -8 -59.5c-0 -28 4.83301 -54.667 14.5 -80
s23.167 -47.833 40.5 -67.5s37.666 -36 60.999 -49s48.666 -21.5 75.999 -25.5v444c-16 -2.66699 -31.333 -6.66699 -46 -12s-28.667 -12.333 -42 -21c-2.66699 13.333 -4.66699 27 -6 41s-2 28 -2 42c0 57.333 10.833 111.333 32.5 162s51.334 94.834 89.001 132.501
s81.834 67.334 132.501 89.001s104.667 32.5 162 32.5s111.333 -10.833 162 -32.5s94.834 -51.334 132.501 -89.001s67.334 -81.834 89.001 -132.501s32.5 -104.667 32.5 -162c0 -14 -0.666992 -28 -2 -42s-3.33301 -27.667 -6 -41c-13.333 8.66699 -27.333 15.667 -42 21
s-30 9.33301 -46 12v-444c27.333 4 52.666 12.5 75.999 25.5s43.666 29.333 60.999 49s30.833 42.167 40.5 67.5s14.5 52 14.5 80c0 20.667 -2.66699 40.5 -8 59.5s-13 36.833 -23 53.5c10 27.333 17.667 55.666 23 84.999s8 59.333 8 90v0z" />
    <glyph glyph-name="uniE949" unicode="headset&#x32;" 
d="M829 829c-21.333 21.333 -44.168 40.002 -68.501 56.002s-50 29.667 -77 41s-54.833 19.833 -83.5 25.5s-58 8.5 -88 8.5s-59.333 -2.83301 -88 -8.5s-56.5 -14.167 -83.5 -25.5s-52.667 -25 -77 -41s-47.166 -34.667 -68.499 -56s-40 -44.166 -56 -68.499
s-29.667 -50 -41 -77s-19.833 -54.833 -25.5 -83.5s-8.5 -58 -8.5 -88v-224c0 -26.667 9.33301 -49.334 28 -68.001s41.334 -28 68.001 -28s49.334 9.33301 68.001 28s28 41.334 28 68.001v128c0 26.667 -9.33301 49.334 -28 68.001s-41.334 28 -68.001 28
c-5.33301 0 -10.5 -0.5 -15.5 -1.5s-10.167 -2.16699 -15.5 -3.5v5c4 49.333 16.833 95.333 38.5 138s49.667 79.834 84 111.501s73.833 56.667 118.5 75s92 27.5 142 27.5s97.333 -9.16699 142 -27.5s84.167 -43.333 118.5 -75s62.333 -68.834 84 -111.501
s34.5 -88.667 38.5 -138v-5c-5.33301 1.33301 -10.5 2.5 -15.5 3.5s-10.167 1.5 -15.5 1.5c-26.667 0 -49.334 -9.33301 -68.001 -28s-28 -41.334 -28 -68.001v-128c0 -26.667 9.33301 -49.334 28 -68.001s41.334 -28 68.001 -28c5.33301 0 10.666 0.5 15.999 1.5
s10.666 2.16699 15.999 3.5v-101c0 -8.66699 -3.16699 -16.167 -9.5 -22.5s-13.833 -9.5 -22.5 -9.5h-165c-6.66699 18.667 -18.334 34 -35.001 46s-35.334 18 -56.001 18c-26.667 0 -49.334 -9.33301 -68.001 -28s-28 -41.334 -28 -68.001s9.33301 -49.334 28 -68.001
s41.334 -28 68.001 -28c20.667 0 39.334 6 56.001 18s28.334 27.333 35.001 46h165c26.667 -0 49.334 9.33301 68.001 28s28 41.334 28 68.001v416c0 30 -2.83301 59.333 -8.5 88s-14.167 56.5 -25.5 83.5s-25 52.667 -41 77s-34.667 47.166 -56 68.499v0z" />
    <glyph glyph-name="uniE94A" unicode="music" 
d="M812 666c-43.333 60.667 -70.8311 91.834 -82.498 93.501s-38.5 63.5 -80.5 185.5l-89 15l-99 -733c-56 32 -106.333 49 -151 51s-81.667 -6.5 -111 -25.5s-50.166 -45.833 -62.499 -80.5s-13.833 -72.667 -4.5 -114c4.66699 -22 16.334 -42.833 35.001 -62.5
s42 -34.834 70 -45.501s59 -15.167 93 -13.5s68.333 12.5 103 32.5c33.333 20 56.666 44.333 69.999 73s22.333 54.334 27 77.001l70 544c63.333 -56 107.666 -106.833 132.999 -152.5s39.166 -88.834 41.499 -129.501s-2.83398 -79.667 -15.501 -117l-39 -114
c27.333 10.667 56 30.667 86 60s53.167 66.333 69.5 111s21.333 96 15 154s-32.5 121.667 -78.5 191v0z" />
    <glyph glyph-name="uniE94B" unicode="music&#x32;" 
d="M320 768l0.00195312 -527.002c-14.667 4.66699 -30 8.33398 -46 11.001s-32.667 4 -50 4c-30.667 0 -59.667 -4.16699 -87 -12.5s-51.166 -19.833 -71.499 -34.5s-36.333 -31.667 -48 -51s-17.5 -40 -17.5 -62s5.83301 -42.667 17.5 -62s27.667 -36.333 48 -51
s44.166 -26.167 71.499 -34.5s56.333 -12.5 87 -12.5s59.667 4.16699 87 12.5s51.166 19.833 71.499 34.5s36.333 31.667 48 51s17.5 40 17.5 62v303l448 122v-152c-14.667 4.66699 -30 8.33398 -46 11.001s-32.667 4 -50 4c-30.667 0 -59.667 -4.16699 -87 -12.5
s-51.166 -19.833 -71.499 -34.5s-36.333 -31.667 -48 -51s-17.5 -40 -17.5 -62s5.83301 -42.667 17.5 -62s27.667 -36.333 48 -51s44.166 -26.167 71.499 -34.5s56.333 -12.5 87 -12.5s59.667 4.16699 87 12.5s51.166 19.833 71.499 34.5s36.333 31.667 48 51
s17.5 40 17.5 62v736l-704 -192v0zM448.002 498.998v97l448 122v-97l-448 -122v0z" />
    <glyph glyph-name="uniE94C" unicode="music&#x33;" 
d="M320 768l703.998 192.002v-736c0 -22 -5.83301 -42.667 -17.5 -62s-27.667 -36.333 -48 -51s-44.166 -26.167 -71.499 -34.5s-56.333 -12.5 -87 -12.5s-59.667 4.16699 -87 12.5s-51.166 19.833 -71.499 34.5s-36.333 31.667 -48 51s-17.5 40 -17.5 62
s5.83301 42.667 17.5 62s27.667 36.333 48 51s44.166 26.167 71.499 34.5s56.333 12.5 87 12.5c17.333 0 34 -1.33301 50 -4s31.333 -6.33398 46 -11.001v329l-448 -122v-480c0 -22 -5.83301 -42.667 -17.5 -62s-27.667 -36.333 -48 -51s-44.166 -26.167 -71.499 -34.5
s-56.333 -12.5 -87 -12.5s-59.667 4.16699 -87 12.5s-51.166 19.833 -71.499 34.5s-36.333 31.667 -48 51s-17.5 40 -17.5 62s5.83301 42.667 17.5 62s27.667 36.333 48 51s44.166 26.167 71.499 34.5s56.333 12.5 87 12.5c17.333 0 34 -1.33301 50 -4
s31.333 -6.33398 46 -11.001v527v0z" />
    <glyph glyph-name="uniE94D" unicode="music&#x34;" 
d="M960 960l-575.998 -128.002v-624c-20 14.667 -43.833 26.334 -71.5 35.001s-57.167 13 -88.5 13c-30.667 0 -59.667 -4.16699 -87 -12.5s-51.166 -19.833 -71.499 -34.5s-36.333 -31.667 -48 -51s-17.5 -40 -17.5 -62s5.83301 -42.667 17.5 -62s27.667 -36.333 48 -51
s44.166 -26.167 71.499 -34.5s56.333 -12.5 87 -12.5s59.667 4.16699 87 12.5s51.166 19.833 71.499 34.5s36.333 31.667 48 51s17.5 40 17.5 62v413l512 114v-287c-20 14.667 -43.833 26.334 -71.5 35.001s-57.167 13 -88.5 13c-30.667 0 -59.667 -4.16699 -87 -12.5
s-51.166 -19.833 -71.499 -34.5s-36.333 -31.667 -48 -51s-17.5 -40 -17.5 -62s5.83301 -42.667 17.5 -62s27.667 -36.333 48 -51s44.166 -26.167 71.499 -34.5s56.333 -12.5 87 -12.5s59.667 4.16699 87 12.5s51.166 19.833 71.499 34.5s36.333 31.667 48 51
s17.5 40 17.5 62v736h-64v0zM960.002 704.998l-512 -114v127l512 114v-127v0z" />
    <glyph glyph-name="uniE94E" unicode="music&#x35;" 
d="M960 960l63.998 0.00195312v-736c0 -22 -5.83301 -42.667 -17.5 -62s-27.667 -36.333 -48 -51s-44.166 -26.167 -71.499 -34.5s-56.333 -12.5 -87 -12.5s-59.667 4.16699 -87 12.5s-51.166 19.833 -71.499 34.5s-36.333 31.667 -48 51s-17.5 40 -17.5 62
s5.83301 42.667 17.5 62s27.667 36.333 48 51s44.166 26.167 71.499 34.5s56.333 12.5 87 12.5c31.333 0 60.833 -4.33301 88.5 -13s51.5 -20.334 71.5 -35.001v368l-512 -114v-494c0 -22 -5.83301 -42.667 -17.5 -62s-27.667 -36.333 -48 -51
s-44.166 -26.167 -71.499 -34.5s-56.333 -12.5 -87 -12.5s-59.667 4.16699 -87 12.5s-51.166 19.833 -71.499 34.5s-36.333 31.667 -48 51s-17.5 40 -17.5 62s5.83301 42.667 17.5 62s27.667 36.333 48 51s44.166 26.167 71.499 34.5s56.333 12.5 87 12.5
c31.333 0 60.833 -4.33301 88.5 -13s51.5 -20.334 71.5 -35.001v624l576 128v0z" />
    <glyph glyph-name="uniE94F" unicode="music&#x36;" 
d="M960 960l-575.998 -128.002v-624c-20 14.667 -43.833 26.334 -71.5 35.001s-57.167 13 -88.5 13c-30.667 0 -59.667 -4.16699 -87 -12.5s-51.166 -19.833 -71.499 -34.5s-36.333 -31.667 -48 -51s-17.5 -40 -17.5 -62s5.83301 -42.667 17.5 -62s27.667 -36.333 48 -51
s44.166 -26.167 71.499 -34.5s56.333 -12.5 87 -12.5s59.667 4.16699 87 12.5s51.166 19.833 71.499 34.5s36.333 31.667 48 51s17.5 40 17.5 62v413l512 114v-287c-20 14.667 -43.833 26.334 -71.5 35.001s-57.167 13 -88.5 13c-30.667 0 -59.667 -4.16699 -87 -12.5
s-51.166 -19.833 -71.499 -34.5s-36.333 -31.667 -48 -51s-17.5 -40 -17.5 -62s5.83301 -42.667 17.5 -62s27.667 -36.333 48 -51s44.166 -26.167 71.499 -34.5s56.333 -12.5 87 -12.5s59.667 4.16699 87 12.5s51.166 19.833 71.499 34.5s36.333 31.667 48 51
s17.5 40 17.5 62v736h-64v0zM224.002 11.998c-42.667 0 -78 9 -106 27s-42 37 -42 57s14 39 42 57s63.333 27 106 27s78 -9 106 -27s42 -37 42 -57s-14 -39 -42 -57s-63.333 -27 -106 -27v0zM800.002 139.998c-42.667 0 -78 9 -106 27s-42 37 -42 57s14 39 42 57
s63.333 27 106 27s78 -9 106 -27s42 -37 42 -57s-14 -39 -42 -57s-63.333 -27 -106 -27v0zM960.002 704.998l-512 -114v127l512 114v-127v0z" />
    <glyph glyph-name="uniE950" unicode="album" 
d="M928 704h-832c-8.66699 0 -16.167 -3.16699 -22.5 -9.5s-9.5 -13.833 -9.5 -22.5v-704c0 -8.66699 3.16699 -16.167 9.5 -22.5s13.833 -9.5 22.5 -9.5h832c8.66699 0 16.167 3.16699 22.5 9.5s9.5 13.833 9.5 22.5v704c0 8.66699 -3.16699 16.167 -9.5 22.5
s-13.833 9.5 -22.5 9.5v0zM768 160c0 -26.667 -12.5 -49.3359 -37.5 -68.0029s-55.167 -28 -90.5 -28s-65.5 9.33301 -90.5 28s-37.5 41.334 -37.5 68.001s12.5 49.334 37.5 68.001s55.167 28 90.5 28c11.333 0 22.5 -1.16699 33.5 -3.5s21.167 -5.5 30.5 -9.5v187l-256 -92
v-242c0 -26.667 -12.5 -49.334 -37.5 -68.001s-55.167 -28 -90.5 -28s-65.5 9.33301 -90.5 28s-37.5 41.334 -37.5 68.001s12.5 49.334 37.5 68.001s55.167 28 90.5 28c11.333 0 22.5 -1.16699 33.5 -3.5s21.167 -5.5 30.5 -9.5v269l384 128v-416v0zM864 767.998h-704
c-8.66699 0 -16.167 3.16699 -22.5 9.5s-9.5 13.833 -9.5 22.5s3.16699 16.167 9.5 22.5s13.833 9.5 22.5 9.5h704c8.66699 0 16.167 -3.16699 22.5 -9.5s9.5 -13.833 9.5 -22.5s-3.16699 -16.167 -9.5 -22.5s-13.833 -9.5 -22.5 -9.5v0zM800 895.998h-576
c-8.66699 0 -16.167 3.16699 -22.5 9.5s-9.5 13.833 -9.5 22.5s3.16699 16.167 9.5 22.5s13.833 9.5 22.5 9.5h576c8.66699 0 16.167 -3.16699 22.5 -9.5s9.5 -13.833 9.5 -22.5s-3.16699 -16.167 -9.5 -22.5s-13.833 -9.5 -22.5 -9.5v0z" />
    <glyph glyph-name="uniE951" unicode="cassette" 
d="M247 192l-43 -128h615l-42 128h-530zM992 768h-960.002c-8.66699 0 -16.167 -3.16699 -22.5 -9.5s-9.5 -13.833 -9.5 -22.5v-640c0 -8.66699 3.16699 -16.167 9.5 -22.5s13.833 -9.5 22.5 -9.5h105l57 170c2 6.66699 5.83301 12 11.5 16s11.834 6 18.501 6h576
c6.66699 0 12.834 -2 18.501 -6s9.5 -9.33301 11.5 -16l57 -170h105c8.66699 0 16.167 3.16699 22.5 9.5s9.5 13.833 9.5 22.5v640c0 8.66699 -3.16699 16.167 -9.5 22.5s-13.833 9.5 -22.5 9.5v0zM255.998 320c-35.333 0 -65.5 12.5 -90.5 37.5s-37.5 55.167 -37.5 90.5
s12.5 65.5 37.5 90.5s55.167 37.5 90.5 37.5s65.5 -12.5 90.5 -37.5s37.5 -55.167 37.5 -90.5s-12.5 -65.5 -37.5 -90.5s-55.167 -37.5 -90.5 -37.5v0zM767.998 320c-35.333 0 -65.5 12.5 -90.5 37.5s-37.5 55.167 -37.5 90.5s12.5 65.5 37.5 90.5s55.167 37.5 90.5 37.5
s65.5 -12.5 90.5 -37.5s37.5 -55.167 37.5 -90.5s-12.5 -65.5 -37.5 -90.5s-55.167 -37.5 -90.5 -37.5v0zM863.998 640h-704c-8.66699 0 -16.167 3.16699 -22.5 9.5s-9.5 13.833 -9.5 22.5s3.16699 16.167 9.5 22.5s13.833 9.5 22.5 9.5h704
c8.66699 0 16.167 -3.16699 22.5 -9.5s9.5 -13.833 9.5 -22.5s-3.16699 -16.167 -9.5 -22.5s-13.833 -9.5 -22.5 -9.5v0zM319.998 448c0 -18 -6.16699 -33.167 -18.5 -45.5s-27.5 -18.5 -45.5 -18.5s-33.167 6.16699 -45.5 18.5s-18.5 27.5 -18.5 45.5
s6.16699 33.167 18.5 45.5s27.5 18.5 45.5 18.5s33.167 -6.16699 45.5 -18.5s18.5 -27.5 18.5 -45.5v0zM831.998 448c0 -18 -6.16699 -33.167 -18.5 -45.5s-27.5 -18.5 -45.5 -18.5s-33.167 6.16699 -45.5 18.5s-18.5 27.5 -18.5 45.5s6.16699 33.167 18.5 45.5
s27.5 18.5 45.5 18.5s33.167 -6.16699 45.5 -18.5s18.5 -27.5 18.5 -45.5v0z" />
    <glyph glyph-name="uniE952" unicode="tape&#x32;" 
d="M800 640c-30.667 0 -59.6689 -5.83301 -87.002 -17.5s-51.166 -27.667 -71.499 -48s-36.333 -44.166 -48 -71.499s-17.5 -56.333 -17.5 -87c0 -17.333 1.83301 -34 5.5 -50s9.16699 -31.333 16.5 -46h-172c7.33301 14.667 12.833 30 16.5 46s5.5 32.667 5.5 50
c0 30.667 -5.83301 59.667 -17.5 87s-27.667 51.166 -48 71.499s-44.166 36.333 -71.499 48s-56.333 17.5 -87 17.5s-59.667 -5.83301 -87 -17.5s-51.166 -27.667 -71.499 -48s-36.333 -44.166 -48 -71.499s-17.5 -56.333 -17.5 -87s5.83301 -59.667 17.5 -87
s27.667 -51.166 48 -71.499s44.166 -36.333 71.499 -48s56.333 -17.5 87 -17.5h576c30.667 0 59.667 5.83301 87 17.5s51.166 27.667 71.499 48s36.333 44.166 48 71.499s17.5 56.333 17.5 87s-5.83301 59.667 -17.5 87s-27.667 51.166 -48 71.499
s-44.166 36.333 -71.499 48s-56.333 17.5 -87 17.5v0zM127.998 416c0 26.667 9.33301 49.334 28 68.001s41.334 28 68.001 28s49.334 -9.33301 68.001 -28s28 -41.334 28 -68.001s-9.33301 -49.334 -28 -68.001s-41.334 -28 -68.001 -28s-49.334 9.33301 -68.001 28
s-28 41.334 -28 68.001v0zM799.998 320c-26.667 0 -49.334 9.33301 -68.001 28s-28 41.334 -28 68.001s9.33301 49.334 28 68.001s41.334 28 68.001 28s49.334 -9.33301 68.001 -28s28 -41.334 28 -68.001s-9.33301 -49.334 -28 -68.001s-41.334 -28 -68.001 -28v0z" />
    <glyph glyph-name="uniE953" unicode="music&#x37;" 
d="M0 960v-1024h960v1024h-960v0zM192 0h-128v896h64v-640h64v-256v0zM448 0h-192v256h64v640h64v-640h64v-256v0zM704 0h-192v256h64v640h64v-640h64v-256v0zM896 0h-128v256h64v640h64v-896v0z" />
    <glyph glyph-name="uniE954" unicode="guitar" 
d="M880 704l143.999 128.001c-6 32.667 -20.667 60.667 -44 84s-51.333 38 -84 44l-128 -144v-34l-181 -182c-47.333 38.667 -87.5 58 -120.5 58s-60.167 -8.66699 -81.5 -26c-20.667 -16.667 -36.167 -38.5 -46.5 -65.5s-21.166 -45.5 -32.499 -55.5
c-22.667 -20 -58.667 -29.333 -108 -28s-98 -24 -146 -76c-28 -30 -44.5 -60.333 -49.5 -91s-2.33301 -61 8 -91s26 -58.833 47 -86.5s43.5 -53.5 67.5 -77.5s49.833 -46.5 77.5 -67.5s56.5 -36.667 86.5 -47s60.333 -13 91 -8s61 21.5 91 49.5c52 48 77.333 96.667 76 146
s8 85.333 28 108c10 11.333 28.5 22.166 55.5 32.499s48.833 25.833 65.5 46.5c17.333 21.333 26 48.5 26 81.5s-19.333 73.167 -58 120.5l182 181h34v0zM292.999 101.001l-128 128l54 54l128 -128l-54 -54v0zM479.999 320.001c-26.667 0 -49.334 9.33301 -68.001 28
s-28 41.334 -28 68.001s9.33301 49.334 28 68.001s41.334 28 68.001 28s49.334 -9.33301 68.001 -28s28 -41.334 28 -68.001s-9.33301 -49.334 -28 -68.001s-41.334 -28 -68.001 -28v0z" />
    <glyph glyph-name="uniE955" unicode="music&#x39;" 
d="M992 768c-8.66699 0 -16.1689 -3.16602 -22.502 -9.49902s-9.5 -13.833 -9.5 -22.5c0 -40.667 -9.5 -74.167 -28.5 -100.5s-38.5 -46.833 -58.5 -61.5c-26.667 -20 -57.5 -35.333 -92.5 -46s-71.167 -16 -108.5 -16h-32v96c0 8.66699 -3.16699 16.167 -9.5 22.5
s-13.833 9.5 -22.5 9.5s-16.167 -3.16699 -22.5 -9.5s-9.5 -13.833 -9.5 -22.5v-96h-64v96c0 8.66699 -3.16699 16.167 -9.5 22.5s-13.833 9.5 -22.5 9.5s-16.167 -3.16699 -22.5 -9.5s-9.5 -13.833 -9.5 -22.5v-96h-64v96c0 8.66699 -3.16699 16.167 -9.5 22.5
s-13.833 9.5 -22.5 9.5s-16.167 -3.16699 -22.5 -9.5s-9.5 -13.833 -9.5 -22.5v-96h-256v32c0 8.66699 -3.16699 16.167 -9.5 22.5s-13.833 9.5 -22.5 9.5s-16.167 -3.16699 -22.5 -9.5s-9.5 -13.833 -9.5 -22.5v-192c0 -8.66699 3.16699 -16.167 9.5 -22.5
s13.833 -9.5 22.5 -9.5s16.167 3.16699 22.5 9.5s9.5 13.833 9.5 22.5v32h139c-3.33301 -10 -6 -20.333 -8 -31s-3 -21.667 -3 -33c0 -52.667 18.833 -97.834 56.5 -135.501s82.834 -56.5 135.501 -56.5h192c52.667 0 97.834 18.833 135.501 56.5s56.5 82.834 56.5 135.501
c0 9.33301 -0.666992 18.5 -2 27.5s-3.33301 17.5 -6 25.5c21.333 -4.66699 41.5 -11.334 60.5 -20.001s36.5 -19 52.5 -31c20 -14.667 39.5 -35.167 58.5 -61.5s28.5 -59.833 28.5 -100.5c0 -8.66699 3.16699 -16.167 9.5 -22.5s13.833 -9.5 22.5 -9.5
s16.167 3.16699 22.5 9.5s9.5 13.833 9.5 22.5v576c0 8.66699 -3.16699 16.167 -9.5 22.5s-13.833 9.5 -22.5 9.5v0zM575.998 256.001h-192c-17.333 0 -32.333 6.33301 -45 19s-19 27.667 -19 45s6.33301 32.333 19 45s27.667 19 45 19h192c17.333 0 32.333 -6.33301 45 -19
s19 -27.667 19 -45s-6.33301 -32.333 -19 -45s-27.667 -19 -45 -19v0z" />
    <glyph glyph-name="uniE956" unicode="music&#x31;&#x30;" 
d="M800 960h-576c-26.667 0 -49.334 -9.33301 -68.001 -28s-28 -41.334 -28 -68.001v-832c0 -26.667 9.33301 -49.334 28 -68.001s41.334 -28 68.001 -28h576c26.667 0 49.334 9.33301 68.001 28s28 41.334 28 68.001v832c0 26.667 -9.33301 49.334 -28 68.001
s-41.334 28 -68.001 28v0zM512 896c35.333 0 65.5 -12.5 90.5 -37.5s37.5 -55.167 37.5 -90.5s-12.5 -65.5 -37.5 -90.5s-55.167 -37.5 -90.5 -37.5s-65.5 12.5 -90.5 37.5s-37.5 55.167 -37.5 90.5s12.5 65.5 37.5 90.5s55.167 37.5 90.5 37.5v0zM512 0
c-35.333 0 -68.5 6.66699 -99.5 20s-58.167 31.666 -81.5 54.999s-41.666 50.5 -54.999 81.5s-20 64.167 -20 99.5s6.66699 68.5 20 99.5s31.666 58.167 54.999 81.5s50.5 41.666 81.5 54.999s64.167 20 99.5 20s68.5 -6.66699 99.5 -20s58.167 -31.666 81.5 -54.999
s41.666 -50.5 54.999 -81.5s20 -64.167 20 -99.5s-6.66699 -68.5 -20 -99.5s-31.666 -58.167 -54.999 -81.5s-50.5 -41.666 -81.5 -54.999s-64.167 -20 -99.5 -20v0zM512 448c-53.333 0 -98.666 -18.667 -135.999 -56s-56 -82.666 -56 -135.999s18.667 -98.666 56 -135.999
s82.666 -56 135.999 -56s98.666 18.667 135.999 56s56 82.666 56 135.999s-18.667 98.666 -56 135.999s-82.666 56 -135.999 56v0zM512 192c-18 0 -33.167 6.16699 -45.5 18.5s-18.5 27.5 -18.5 45.5s6.16699 33.167 18.5 45.5s27.5 18.5 45.5 18.5
s33.167 -6.16699 45.5 -18.5s18.5 -27.5 18.5 -45.5s-6.16699 -33.167 -18.5 -45.5s-27.5 -18.5 -45.5 -18.5v0zM576 768c0 -18 -6.16699 -33.167 -18.5 -45.5s-27.5 -18.5 -45.5 -18.5s-33.167 6.16699 -45.5 18.5s-18.5 27.5 -18.5 45.5s6.16699 33.167 18.5 45.5
s27.5 18.5 45.5 18.5s33.167 -6.16699 45.5 -18.5s18.5 -27.5 18.5 -45.5v0z" />
    <glyph glyph-name="uniE957" unicode="play" 
d="M981 800c-36 5.33301 -72.833 10 -110.5 14s-76.167 7.33301 -115.5 10s-79.166 4.66699 -119.499 6s-81.5 2 -123.5 2s-83.167 -0.666992 -123.5 -2s-80.166 -3.33301 -119.499 -6s-77.833 -6 -115.5 -10s-74.5 -8.66699 -110.5 -14
c-7.33301 -27.333 -13.5 -55 -18.5 -83s-9.33301 -56.833 -13 -86.5s-6.5 -59.667 -8.5 -90s-3 -61.166 -3 -92.499s1 -62.166 3 -92.499s4.83301 -60.333 8.5 -90s8 -58.5 13 -86.5s11.167 -55.667 18.5 -83c36 -5.33301 72.833 -10 110.5 -14s76.167 -7.33301 115.5 -10
s79.166 -4.66699 119.499 -6s81.5 -2 123.5 -2s83.167 0.666992 123.5 2s80.166 3.33301 119.499 6s77.833 6 115.5 10s74.5 8.66699 110.5 14c7.33301 27.333 13.5 55 18.5 83s9.33301 56.833 13 86.5s6.5 59.667 8.5 90s3 61.166 3 92.499s-1 62.166 -3 92.499
s-4.83301 60.333 -8.5 90s-8 58.5 -13 86.5s-11.167 55.667 -18.5 83v0zM384 256v384l320 -192l-320 -192v0z" />
    <glyph glyph-name="uniE958" unicode="play&#x32;" 
d="M384 598v-300l260 150zM0 704v-640h1024v640h-1024v0zM960 128h-896v64h896v-64v0zM960 256h-896v384h896v-384v0z" />
    <glyph glyph-name="uniE959" unicode="clapboard&#x2d;play" 
d="M78 697l866 232l49 -185l-865 -232zM128 512v-576h896v576h-896v0zM448 64v320l256 -160l-256 -160v0z" />
    <glyph glyph-name="uniE95A" unicode="clapboard" 
d="M64 832c-18 0 -33.167 -6.16699 -45.5 -18.5s-18.5 -27.5 -18.5 -45.5v-256h1024v320h-960v0zM64 576v32l160 160h128l-192 -192h-96v0zM288 576l192 192h128l-192 -192h-128v0zM544 576l192 192h128l-192 -192h-128v0zM960 608l-32 -32h-128l160 160v-128v0zM0 448h1024
v-512h-1024v512v0z" />
    <glyph glyph-name="uniE95B" unicode="media" 
d="M1024 96c0 -26.667 -12.5 -49.3359 -37.5 -68.0029s-55.167 -28 -90.5 -28s-65.5 9.33301 -90.5 28s-37.5 41.334 -37.5 68.001s12.5 49.334 37.5 68.001s55.167 28 90.5 28c11.333 0 22.5 -1.16699 33.5 -3.5s21.167 -5.5 30.5 -9.5v187l-256 -92v-242
c0 -26.667 -12.5 -49.334 -37.5 -68.001s-55.167 -28 -90.5 -28s-65.5 9.33301 -90.5 28s-37.5 41.334 -37.5 68.001s12.5 49.334 37.5 68.001s55.167 28 90.5 28c11.333 0 22.5 -1.16699 33.5 -3.5s21.167 -5.5 30.5 -9.5v269l384 128v-416v0zM288 767.998
c-26.667 0 -49.334 -9.33301 -68.001 -28s-28 -41.334 -28 -68.001s9.33301 -49.334 28 -68.001s41.334 -28 68.001 -28s49.334 9.33301 68.001 28s28 41.334 28 68.001s-9.33301 49.334 -28 68.001s-41.334 28 -68.001 28v0zM544 895.998h-140l-23 46
c-2.66699 5.33301 -6.66699 9.66602 -12 12.999s-11 5 -17 5h-128c-6 0 -11.667 -1.66699 -17 -5s-9.33301 -7.66602 -12 -12.999l-23 -46h-140c-8.66699 0 -16.167 -3.16699 -22.5 -9.5s-9.5 -13.833 -9.5 -22.5v-384c0 -8.66699 3.16699 -16.167 9.5 -22.5
s13.833 -9.5 22.5 -9.5h512c8.66699 0 16.167 3.16699 22.5 9.5s9.5 13.833 9.5 22.5v384c0 8.66699 -3.16699 16.167 -9.5 22.5s-13.833 9.5 -22.5 9.5v0zM288 511.998c-44 0 -81.667 15.667 -113 47s-47 69 -47 113s15.667 81.667 47 113s69 47 113 47
s81.667 -15.667 113 -47s47 -69 47 -113s-15.667 -81.667 -47 -113s-69 -47 -113 -47v0z" />
    <glyph glyph-name="uniE95C" unicode="board&#x2d;play" 
d="M912 960h-863.996c-13.333 0 -24.666 -4.66699 -33.999 -14s-14 -20.666 -14 -33.999v-736c0 -13.333 4.66699 -24.666 14 -33.999s20.666 -14 33.999 -14h285l-130 -131c-7.33301 -6.66699 -11 -15 -11 -25s3.66699 -18.333 11 -25
c3.33301 -4 7.16602 -6.83301 11.499 -8.5s8.83301 -2.5 13.5 -2.5s9.16699 0.833008 13.5 2.5s8.16602 4.5 11.499 8.5l182 181h13v-160c0 -8.66699 3.16699 -16.167 9.5 -22.5s13.833 -9.5 22.5 -9.5s16.167 3.16699 22.5 9.5s9.5 13.833 9.5 22.5v160h13l182 -181
c3.33301 -4 7.16602 -6.83301 11.499 -8.5s8.83301 -2.5 13.5 -2.5s9.16699 0.833008 13.5 2.5s8.16602 4.5 11.499 8.5c7.33301 6.66699 11 15 11 25s-3.66699 18.333 -11 25l-130 131h285c13.333 0 24.666 4.66699 33.999 14s14 20.666 14 33.999v736
c0 13.333 -4.66699 24.666 -14 33.999s-20.666 14 -33.999 14v0zM384.004 768l256 -160l-256 -160v320v0zM800.004 256h-640c-8.66699 0 -16.167 3.16699 -22.5 9.5s-9.5 13.833 -9.5 22.5s3.16699 16.167 9.5 22.5s13.833 9.5 22.5 9.5h640
c8.66699 0 16.167 -3.16699 22.5 -9.5s9.5 -13.833 9.5 -22.5s-3.16699 -16.167 -9.5 -22.5s-13.833 -9.5 -22.5 -9.5v0z" />
    <glyph glyph-name="uniE95D" unicode="movie" 
d="M512 960c-70.667 0 -137.167 -13.333 -199.5 -40s-116.666 -63.167 -162.999 -109.5s-82.833 -100.666 -109.5 -162.999s-40 -128.833 -40 -199.5s13.333 -137.167 40 -199.5s63.167 -116.666 109.5 -162.999s100.666 -82.833 162.999 -109.5s128.833 -40 199.5 -40
s137.167 13.333 199.5 40s116.666 63.167 162.999 109.5s82.833 100.666 109.5 162.999s40 128.833 40 199.5s-13.333 137.167 -40 199.5s-63.167 116.666 -109.5 162.999s-100.666 82.833 -162.999 109.5s-128.833 40 -199.5 40v0zM512 846c30 0 55.667 -10.667 77 -32
s32 -47 32 -77s-10.667 -55.667 -32 -77s-47 -32 -77 -32s-55.667 10.667 -77 32s-32 47 -32 77s10.667 55.667 32 77s47 32 77 32v0zM116 545c0 30.667 10.667 56.667 32 78s47 32 77 32s55.667 -10.667 77 -32s32 -47.333 32 -78c0 -30 -10.667 -55.667 -32 -77
s-47 -32 -77 -32s-55.667 10.667 -77 32s-32 47 -32 77v0zM338 115c-30 0 -55.667 10.667 -77 32s-32 47 -32 77s10.667 55.667 32 77s47 32 77 32c30.667 0 56.667 -10.667 78 -32s32 -47 32 -77s-10.667 -55.667 -32 -77s-47.333 -32 -78 -32v0zM512 384
c-18 0 -33.167 6.16699 -45.5 18.5s-18.5 27.5 -18.5 45.5s6.16699 33.167 18.5 45.5s27.5 18.5 45.5 18.5s33.167 -6.16699 45.5 -18.5s18.5 -27.5 18.5 -45.5s-6.16699 -33.167 -18.5 -45.5s-27.5 -18.5 -45.5 -18.5v0zM686 114c-30.667 0 -56.667 10.667 -78 32
s-32 47 -32 77c0 30.667 10.667 56.667 32 78s47.333 32 78 32c30 0 55.667 -10.667 77 -32s32 -47.333 32 -78c0 -30 -10.667 -55.667 -32 -77s-47 -32 -77 -32v0zM799 435c-30 0 -55.667 10.667 -77 32s-32 47.333 -32 78c0 30 10.667 55.667 32 77s47 32 77 32
s55.667 -10.667 77 -32s32 -47 32 -77c0 -30.667 -10.667 -56.667 -32 -78s-47 -32 -77 -32v0z" />
    <glyph glyph-name="uniE95E" unicode="film" 
d="M0 960v-1024h1024v1024h-1024v0zM640 896h128v-128h-128v128v0zM448 896h128v-128h-128v128v0zM256 896h128v-128h-128v128v0zM64 896h128v-128h-128v128v0zM64 704h384v-512h-384v512v0zM192 0h-128v128h128v-128v0zM384 0h-128v128h128v-128v0zM576 0h-128v128h128
v-128v0zM768 0h-128v128h128v-128v0zM960 0h-128v128h128v-128v0zM960 192h-448v512h448v-512v0zM960 768h-128v128h128v-128v0z" />
    <glyph glyph-name="uniE95F" unicode="film&#x32;" 
d="M0 896v-896h1024v896h-1024v0zM192 64h-128v128h128v-128v0zM192 256h-128v128h128v-128v0zM192 512h-128v128h128v-128v0zM192 704h-128v128h128v-128v0zM768 64h-512v320h512v-320v0zM768 512h-512v320h512v-320v0zM960 64h-128v128h128v-128v0zM960 256h-128v128h128
v-128v0zM960 512h-128v128h128v-128v0zM960 704h-128v128h128v-128v0z" />
    <glyph glyph-name="uniE960" unicode="film&#x33;" 
d="M0 832v-768h1024v768h-1024v0zM192 128h-128v128h128v-128v0zM192 384h-128v128h128v-128v0zM192 640h-128v128h128v-128v0zM768 128h-512v640h512v-640v0zM960 128h-128v128h128v-128v0zM960 384h-128v128h128v-128v0zM960 640h-128v128h128v-128v0z" />
    <glyph glyph-name="uniE961" unicode="film&#x34;" 
d="M0 832v-768h1024v768h-1024v0zM192 128h-128v128h128v-128v0zM192 384h-128v128h128v-128v0zM192 640h-128v128h128v-128v0zM768 128h-512v640h512v-640v0zM960 128h-128v128h128v-128v0zM960 384h-128v128h128v-128v0zM960 640h-128v128h128v-128v0zM384 640v-384
l256 192z" />
    <glyph glyph-name="uniE962" unicode="video&#x2d;camera" 
d="M384 672c0 44 15.667 81.667 47 113s69 47 113 47s81.667 -15.667 113 -47s47 -69 47 -113s-15.667 -81.667 -47 -113s-69 -47 -113 -47s-81.667 15.667 -113 47s-47 69 -47 113v0zM0 672c0 44 15.667 81.667 47 113s69 47 113 47s81.667 -15.667 113 -47s47 -69 47 -113
s-15.667 -81.667 -47 -113s-69 -47 -113 -47s-81.667 15.667 -113 47s-47 69 -47 113v0zM768 352v96c0 17.333 -6.33301 32.333 -19 45s-27.667 19 -45 19h-640c-17.333 0 -32.333 -6.33301 -45 -19s-19 -27.667 -19 -45v-320c-0 -17.333 6.33301 -32.333 19 -45
s27.667 -19 45 -19h640c17.333 0 32.333 6.33301 45 19s19 27.667 19 45v96l256 -160v448l-256 -160v0zM640 192h-512v192h512v-192v0z" />
    <glyph glyph-name="uniE963" unicode="video&#x2d;camera&#x32;" 
d="M979 704c-5.33301 0 -10.667 -1 -16 -3s-10.666 -4.66699 -15.999 -8l-179 -127v106c0 26.667 -9.33301 49.334 -28 68.001s-41.334 28 -68.001 28h-576c-26.667 0 -49.334 -9.33301 -68.001 -28s-28 -41.334 -28 -68.001v-448c0 -26.667 9.33301 -49.334 28 -68.001
s41.334 -28 68.001 -28h576c26.667 0 49.334 9.33301 68.001 28s28 41.334 28 68.001v106l179 -127c5.33301 -3.33301 10.666 -6 15.999 -8s10.666 -3 15.999 -3v0v0c6.66699 0 13.167 1.66699 19.5 5s11.5 7.66602 15.5 12.999c3.33301 4.66699 5.83301 9.66699 7.5 15
s2.5 11.333 2.5 18v410c0 16.667 -4.66699 29.334 -14 38.001s-19.666 13 -30.999 13v0z" />
    <glyph glyph-name="uniE964" unicode="video&#x2d;camera&#x2d;slash" 
d="M96 768c-26.667 0 -49.333 -9.33203 -68 -27.999s-28 -41.334 -28 -68.001v-448c0 -11.333 2 -22.333 6 -33s9.33301 -20 16 -28l403 605h-329v0zM979.001 704.001c-5.33301 0 -10.667 -1.00195 -16 -3.00195s-10.666 -4.66699 -15.999 -8l-179 -127v106
c0 26.667 -9.33301 49.334 -28 68.001s-41.334 28 -68.001 28h-17l89 133l-80 54l-640 -960l80 -54l124 187h444c26.667 0 49.334 9.33301 68.001 28s28 41.334 28 68.001v106l179 -127c5.33301 -3.33301 10.666 -6 15.999 -8s10.666 -3 15.999 -3v0v0
c6.66699 0 13.167 1.66699 19.5 5s11.5 7.66602 15.5 12.999c3.33301 4.66699 5.83301 9.66699 7.5 15s2.5 11.333 2.5 18v410c0 16.667 -4.66699 29.334 -14 38.001s-19.666 13 -30.999 13v0z" />
    <glyph glyph-name="uniE965" unicode="video&#x2d;camera&#x33;" 
d="M979 704c-5.33301 0 -10.667 -1 -16 -3s-10.666 -4.66699 -15.999 -8l-179 -127v106c0 26.667 -9.33301 49.334 -28 68.001s-41.334 28 -68.001 28h-576c-26.667 0 -49.334 -9.33301 -68.001 -28s-28 -41.334 -28 -68.001v-448c0 -26.667 9.33301 -49.334 28 -68.001
s41.334 -28 68.001 -28h576c26.667 0 49.334 9.33301 68.001 28s28 41.334 28 68.001v106l179 -127c5.33301 -3.33301 10.666 -6 15.999 -8s10.666 -3 15.999 -3v0v0c6.66699 0 13.167 1.66699 19.5 5s11.5 7.66602 15.5 12.999c3.33301 4.66699 5.83301 9.66699 7.5 15
s2.5 11.333 2.5 18v410c0 16.667 -4.66699 29.334 -14 38.001s-19.666 13 -30.999 13v0zM255.999 256v384l320 -192l-320 -192v0z" />
    <glyph glyph-name="uniE966" unicode="video&#x2d;camera&#x34;" 
d="M979 704c-5.33301 0 -10.667 -1 -16 -3s-10.666 -4.66699 -15.999 -8l-179 -127v106c0 26.667 -9.33301 49.334 -28 68.001s-41.334 28 -68.001 28h-576c-26.667 0 -49.334 -9.33301 -68.001 -28s-28 -41.334 -28 -68.001v-448c0 -26.667 9.33301 -49.334 28 -68.001
s41.334 -28 68.001 -28h576c26.667 0 49.334 9.33301 68.001 28s28 41.334 28 68.001v106l179 -127c5.33301 -3.33301 10.666 -6 15.999 -8s10.666 -3 15.999 -3v0v0c6.66699 0 13.167 1.66699 19.5 5s11.5 7.66602 15.5 12.999c3.33301 4.66699 5.83301 9.66699 7.5 15
s2.5 11.333 2.5 18v410c0 16.667 -4.66699 29.334 -14 38.001s-19.666 13 -30.999 13v0zM959.999 272l-158 112h-98v-160c0 -8.66699 -3.16699 -16.167 -9.5 -22.5s-13.833 -9.5 -22.5 -9.5h-576c-8.66699 0 -16.167 3.16699 -22.5 9.5s-9.5 13.833 -9.5 22.5v448
c0 8.66699 3.16699 16.167 9.5 22.5s13.833 9.5 22.5 9.5h576c8.66699 0 16.167 -3.16699 22.5 -9.5s9.5 -13.833 9.5 -22.5v-160h98l158 112v-352v0z" />
    <glyph glyph-name="uniE967" unicode="video&#x2d;camera&#x2d;slash&#x32;" 
d="M979 704c-5.33301 0 -10.667 -1.00098 -16 -3.00098s-10.666 -4.66699 -15.999 -8l-179 -127v106c0 26.667 -9.33301 49.334 -28 68.001s-41.334 28 -68.001 28h-14l104 141c5.33301 7.33301 7.33301 15.333 6 24s-5.66602 15.667 -12.999 21s-15.333 7.33301 -24 6
s-15.667 -5.66602 -21 -12.999l-131 -179h-483c-26.667 0 -49.334 -9.33301 -68.001 -28s-28 -41.334 -28 -68.001v-448c-0 -26.667 9.33301 -49.334 28 -68.001s41.334 -28 68.001 -28h14l-104 -141c-5.33301 -7.33301 -7.33301 -15.333 -6 -24s5.66602 -15.667 12.999 -21
c2.66699 -2 5.66699 -3.5 9 -4.5s6.66602 -1.5 9.99902 -1.5c4.66699 0 9.33398 1.16699 14.001 3.5s8.66699 5.5 12 9.5l131 179h483c26.667 0 49.334 9.33301 68.001 28s28 41.334 28 68.001v106l179 -127c5.33301 -3.33301 10.666 -6 15.999 -8s10.666 -3 15.999 -3v0v0
c6.66699 0 13.167 1.66699 19.5 5s11.5 7.66602 15.5 12.999c3.33301 4.66699 5.83301 9.66699 7.5 15s2.5 11.333 2.5 18v410c0 16.667 -4.66699 29.334 -14 38.001s-19.666 13 -30.999 13v0zM95.999 191.999c-8.66699 0 -16.167 3.16699 -22.5 9.5s-9.5 13.833 -9.5 22.5
v448c0 8.66699 3.16699 16.167 9.5 22.5s13.833 9.5 22.5 9.5h436l-375 -512h-61v0zM959.999 271.999l-158 112h-98v-160c0 -8.66699 -3.16699 -16.167 -9.5 -22.5s-13.833 -9.5 -22.5 -9.5h-436l375 512h61c8.66699 0 16.167 -3.16699 22.5 -9.5s9.5 -13.833 9.5 -22.5
v-160h98l158 112v-352v0z" />
    <glyph glyph-name="uniE968" unicode="video&#x2d;camera&#x35;" 
d="M979 704c-5.33301 0 -10.667 -1 -16 -3s-10.666 -4.66699 -15.999 -8l-179 -127v106c0 26.667 -9.33301 49.334 -28 68.001s-41.334 28 -68.001 28h-576c-26.667 0 -49.334 -9.33301 -68.001 -28s-28 -41.334 -28 -68.001v-448c0 -26.667 9.33301 -49.334 28 -68.001
s41.334 -28 68.001 -28h576c26.667 0 49.334 9.33301 68.001 28s28 41.334 28 68.001v106l179 -127c5.33301 -3.33301 10.666 -6 15.999 -8s10.666 -3 15.999 -3v0v0c6.66699 0 13.167 1.66699 19.5 5s11.5 7.66602 15.5 12.999c3.33301 4.66699 5.83301 9.66699 7.5 15
s2.5 11.333 2.5 18v410c0 16.667 -4.66699 29.334 -14 38.001s-19.666 13 -30.999 13v0zM959.999 272l-158 112h-98v-160c0 -8.66699 -3.16699 -16.167 -9.5 -22.5s-13.833 -9.5 -22.5 -9.5h-576c-8.66699 0 -16.167 3.16699 -22.5 9.5s-9.5 13.833 -9.5 22.5v448
c0 8.66699 3.16699 16.167 9.5 22.5s13.833 9.5 22.5 9.5h576c8.66699 0 16.167 -3.16699 22.5 -9.5s9.5 -13.833 9.5 -22.5v-160h98l158 112v-352v0zM255.999 640l320 -192l-320 -192v384z" />
    <glyph glyph-name="uniE969" unicode="recording" 
d="M704 704c0 -53.333 -18.667 -98.666 -56 -135.999s-82.666 -56 -135.999 -56s-98.666 18.667 -135.999 56s-56 82.666 -56 135.999s18.667 98.666 56 135.999s82.666 56 135.999 56s98.666 -18.667 135.999 -56s56 -82.666 56 -135.999v0zM608 320
c8.66699 0 16.167 3.16699 22.5 9.5s9.5 13.833 9.5 22.5s-3.16699 16.167 -9.5 22.5s-13.833 9.5 -22.5 9.5h-192c-8.66699 0 -16.167 -3.16699 -22.5 -9.5s-9.5 -13.833 -9.5 -22.5v-384c0 -8.66699 3.16699 -16.167 9.5 -22.5s13.833 -9.5 22.5 -9.5h192
c8.66699 0 16.167 3.16699 22.5 9.5s9.5 13.833 9.5 22.5s-3.16699 16.167 -9.5 22.5s-13.833 9.5 -22.5 9.5h-160v128h160c8.66699 0 16.167 3.16699 22.5 9.5s9.5 13.833 9.5 22.5s-3.16699 16.167 -9.5 22.5s-13.833 9.5 -22.5 9.5h-160v128h160v0zM256 256
c0 35.333 -12.5 65.498 -37.5 90.498s-55.167 37.5 -90.5 37.5h-96c-8.66699 0 -16.167 -3.16699 -22.5 -9.5s-9.5 -13.833 -9.5 -22.5v-384c0 -8.66699 3.16699 -16.167 9.5 -22.5s13.833 -9.5 22.5 -9.5s16.167 3.16699 22.5 9.5s9.5 13.833 9.5 22.5v160h44l87 -174
c3.33301 -6 7.5 -10.5 12.5 -13.5s10.5 -4.5 16.5 -4.5c2.66699 0 5.16699 0.333008 7.5 1s4.5 1.33398 6.5 2.00098c8 4 13.5 10.167 16.5 18.5s2.5 16.5 -1.5 24.5l-78 155c24 9.33301 43.5 24.833 58.5 46.5s22.5 45.834 22.5 72.501v0zM128 191.998h-64v128h64
c17.333 0 32.333 -6.33301 45 -19s19 -27.667 19 -45s-6.33301 -32.333 -19 -45s-27.667 -19 -45 -19v0zM992 -0.00195312h-96c-17.333 0 -32.333 6.33301 -45 19s-19 27.667 -19 45v192c0 17.333 6.33301 32.333 19 45s27.667 19 45 19h96
c8.66699 0 16.167 3.16699 22.5 9.5s9.5 13.833 9.5 22.5s-3.16699 16.167 -9.5 22.5s-13.833 9.5 -22.5 9.5h-96c-35.333 0 -65.5 -12.5 -90.5 -37.5s-37.5 -55.167 -37.5 -90.5v-192c0 -35.333 12.5 -65.5 37.5 -90.5s55.167 -37.5 90.5 -37.5h96
c8.66699 0 16.167 3.16699 22.5 9.5s9.5 13.833 9.5 22.5s-3.16699 16.167 -9.5 22.5s-13.833 9.5 -22.5 9.5v0z" />
    <glyph glyph-name="uniE96A" unicode="dice" 
d="M864 768h-512c-44 0 -81.667 -15.667 -113 -47s-47 -69 -47 -113v-512c0 -44 15.667 -81.667 47 -113s69 -47 113 -47h512c44 0 81.667 15.667 113 47s47 69 47 113v512c0 44 -15.667 81.667 -47 113s-69 47 -113 47v0zM416 64c-26.667 0 -49.334 9.33301 -68.001 28
s-28 41.334 -28 68.001s9.33301 49.334 28 68.001s41.334 28 68.001 28s49.334 -9.33301 68.001 -28s28 -41.334 28 -68.001s-9.33301 -49.334 -28 -68.001s-41.334 -28 -68.001 -28v0zM416 448c-26.667 0 -49.334 9.33301 -68.001 28s-28 41.334 -28 68.001
s9.33301 49.334 28 68.001s41.334 28 68.001 28s49.334 -9.33301 68.001 -28s28 -41.334 28 -68.001s-9.33301 -49.334 -28 -68.001s-41.334 -28 -68.001 -28v0zM608 256c-26.667 0 -49.334 9.33301 -68.001 28s-28 41.334 -28 68.001s9.33301 49.334 28 68.001
s41.334 28 68.001 28s49.334 -9.33301 68.001 -28s28 -41.334 28 -68.001s-9.33301 -49.334 -28 -68.001s-41.334 -28 -68.001 -28v0zM800 64c-26.667 0 -49.334 9.33301 -68.001 28s-28 41.334 -28 68.001s9.33301 49.334 28 68.001s41.334 28 68.001 28
s49.334 -9.33301 68.001 -28s28 -41.334 28 -68.001s-9.33301 -49.334 -28 -68.001s-41.334 -28 -68.001 -28v0zM800 448c-26.667 0 -49.334 9.33301 -68.001 28s-28 41.334 -28 68.001s9.33301 49.334 28 68.001s41.334 28 68.001 28s49.334 -9.33301 68.001 -28
s28 -41.334 28 -68.001s-9.33301 -49.334 -28 -68.001s-41.334 -28 -68.001 -28v0zM829 832c-7.33301 36.667 -25.667 67.166 -55 91.499s-63.333 36.5 -102 36.5h-512c-44 0 -81.667 -15.667 -113 -47s-47 -69 -47 -113v-512c0 -38.667 12.167 -72.667 36.5 -102
s54.833 -47.666 91.5 -54.999v637c0 17.333 6.33301 32.333 19 45s27.667 19 45 19h637v0z" />
    <glyph glyph-name="uniE96B" unicode="gamepad" 
d="M320 640h-64v-64h-64v-64h64v-64h64v64h64v64h-64v64zM640 592c0 13.333 4.66699 24.666 14 33.999s20.666 14 33.999 14s24.666 -4.66699 33.999 -14s14 -20.666 14 -33.999s-4.66699 -24.666 -14 -33.999s-20.666 -14 -33.999 -14s-24.666 4.66699 -33.999 14
s-14 20.666 -14 33.999v0zM736 496c0 13.333 4.66699 24.666 14 33.999s20.666 14 33.999 14s24.666 -4.66699 33.999 -14s14 -20.666 14 -33.999s-4.66699 -24.666 -14 -33.999s-20.666 -14 -33.999 -14s-24.666 4.66699 -33.999 14s-14 20.666 -14 33.999v0zM739 788
c-58 0 -98.6709 -11.5 -122.004 -34.5s-58.333 -34.5 -105 -34.5s-81.667 11.5 -105 34.5s-64 34.5 -122 34.5c-47.333 0 -88.666 -12.833 -123.999 -38.5s-65 -58 -89 -97s-42 -81.5 -54 -127.5s-18 -89.333 -18 -130c0 -78 4.83301 -143 14.5 -195s29.167 -82 58.5 -90
c28.667 -8 60.834 0.666992 96.501 26s71.5 55 107.5 89s61.5 53.167 76.5 57.5s36.833 6.5 65.5 6.5l93 -2l93 2c28.667 0 50.5 -2.16699 65.5 -6.5s40.5 -23.5 76.5 -57.5s71.833 -63.667 107.5 -89s67.834 -34 96.501 -26c29.333 8 48.833 38 58.5 90s14.5 117 14.5 195
c0 40.667 -6 84 -18 130s-30 88.5 -54 127.5s-53.667 71.333 -89 97s-76.666 38.5 -123.999 38.5v0zM287.996 384c-44 0 -81.667 15.667 -113 47s-47 69 -47 113s15.667 81.667 47 113s69 47 113 47s81.667 -15.667 113 -47s47 -69 47 -113s-15.667 -81.667 -47 -113
s-69 -47 -113 -47v0zM735.996 384c-44 0 -81.667 15.667 -113 47s-47 69 -47 113s15.667 81.667 47 113s69 47 113 47s81.667 -15.667 113 -47s47 -69 47 -113s-15.667 -81.667 -47 -113s-69 -47 -113 -47v0z" />
    <glyph glyph-name="uniE96C" unicode="gamepad&#x32;" 
d="M952 644c-13.333 21.333 -27.6738 40.333 -43.0068 57s-31.666 31 -48.999 43c-20 13.333 -41.167 23.5 -63.5 30.5s-45.166 10.5 -68.499 10.5c-32.667 0 -59.167 -4.16699 -79.5 -12.5s-38.5 -17.166 -54.5 -26.499c-13.333 -7.33301 -26 -13.5 -38 -18.5
s-26.667 -7.5 -44 -7.5s-32 2.5 -44 7.5s-24.667 11.167 -38 18.5c-16 9.33301 -34.167 18.166 -54.5 26.499s-46.833 12.5 -79.5 12.5c-23.333 0 -46.166 -3.5 -68.499 -10.5s-43.5 -17.167 -63.5 -30.5c-17.333 -12 -33.666 -26.333 -48.999 -43
s-29.666 -35.667 -42.999 -57c-22.667 -36.667 -40.334 -77.834 -53.001 -123.501s-19 -90.834 -19 -135.501c0 -42 1.16699 -78.5 3.5 -109.5s5.83301 -57.833 10.5 -80.5c6.66699 -30 16.167 -53.667 28.5 -71s27.5 -28.666 45.5 -33.999l12.5 -2
c4.33301 -0.666992 8.83301 -1 13.5 -1c31.333 0 63.5 12.167 96.5 36.5s65.167 51.5 96.5 81.5c28.667 26.667 48.334 42.167 59.001 46.5s24.334 6.5 41.001 6.5h4h4h4.5h4.5l88 -2l88 2h4.5h4.5h4h4c16.667 0 30.334 -2.16699 41.001 -6.5s30.334 -19.833 59.001 -46.5
c31.333 -30 63.5 -57.167 96.5 -81.5s65.167 -36.5 96.5 -36.5v0v0c4.66699 0 9.16699 0.333008 13.5 1l12.5 2c18 5.33301 33.167 16.666 45.5 33.999s21.833 41 28.5 71c4.66699 22.667 8.16699 49.5 10.5 80.5s3.5 67.5 3.5 109.5c0 44.667 -6.33301 89.834 -19 135.501
s-30.334 86.834 -53.001 123.501v0zM946.992 209c-3.33301 -16 -7.67578 -29.167 -13.0088 -39.5s-10.333 -16.166 -15 -17.499c-1.33301 -0.666992 -2.66602 -1 -3.99902 -1h-5c-21.333 0 -47.166 12.667 -77.499 38s-54.5 46.333 -72.5 63
c-16.667 16 -30.667 28.333 -42 37s-22 15.334 -32 20.001c-13.333 6.66699 -25.666 10.5 -36.999 11.5s-22 1.5 -32 1.5h-4h-4h-4.5h-4.5h-1l-87 -2l-88 2h-4.5h-4.5h-4h-4c-10 0 -20.667 -0.5 -32 -1.5s-23.666 -4.83301 -36.999 -11.5
c-10 -4.66699 -20.667 -11.334 -32 -20.001s-25.333 -21 -42 -37c-18 -16.667 -42.167 -37.667 -72.5 -63s-56.166 -38 -77.499 -38h-5c-1.33301 0 -2.66602 0.333008 -3.99902 1c-4.66699 1.33301 -9.66699 7.16602 -15 17.499s-9.66602 23.5 -12.999 39.5
c-4.66699 20 -8 44.333 -10 73s-3 63 -3 103c0 18.667 1.5 38 4.5 58s7.16699 40 12.5 60c5.33301 19.333 11.833 38.166 19.5 56.499s16.5 35.5 26.5 51.5c10.667 17.333 22.167 32.666 34.5 45.999s25.166 24.666 38.499 33.999c14.667 10 30 17.5 46 22.5
s32.667 7.5 50 7.5c24.667 0 44.334 -3 59.001 -9s29.334 -13 44.001 -21c14.667 -8.66699 30.667 -16.667 48 -24s39 -11 65 -11s47.833 3.66699 65.5 11s33.5 15.333 47.5 24c14.667 8 29.334 15 44.001 21s34.334 9 59.001 9c17.333 0 34 -2.5 50 -7.5
s31.333 -12.5 46 -22.5c13.333 -9.33301 26.166 -20.666 38.499 -33.999s23.833 -28.666 34.5 -45.999c10 -16 18.833 -33.167 26.5 -51.5s14.167 -37.166 19.5 -56.499c5.33301 -20 9.5 -40 12.5 -60s4.5 -39.333 4.5 -58c0 -40 -1 -74.333 -3 -103s-5.33301 -53 -10 -73v0
v0zM639.982 576c0 18 6.16699 33.167 18.5 45.5s27.5 18.5 45.5 18.5s33.167 -6.16699 45.5 -18.5s18.5 -27.5 18.5 -45.5s-6.16699 -33.167 -18.5 -45.5s-27.5 -18.5 -45.5 -18.5s-33.167 6.16699 -45.5 18.5s-18.5 27.5 -18.5 45.5v0zM767.982 448
c0 18 6.16699 33.167 18.5 45.5s27.5 18.5 45.5 18.5s33.167 -6.16699 45.5 -18.5s18.5 -27.5 18.5 -45.5s-6.16699 -33.167 -18.5 -45.5s-27.5 -18.5 -45.5 -18.5s-33.167 6.16699 -45.5 18.5s-18.5 27.5 -18.5 45.5v0zM255.982 640c-35.333 0 -65.5 -12.5 -90.5 -37.5
s-37.5 -55.167 -37.5 -90.5s12.5 -65.5 37.5 -90.5s55.167 -37.5 90.5 -37.5s65.5 12.5 90.5 37.5s37.5 55.167 37.5 90.5s-12.5 65.5 -37.5 90.5s-55.167 37.5 -90.5 37.5v0v0z" />
    <glyph glyph-name="uniE96D" unicode="gamepad&#x33;" horiz-adv-x="1280" 
d="M992 766l0.00195312 2h-672c-44 0 -85.5 -8.33301 -124.5 -25s-73 -39.5 -102 -68.5s-51.833 -63 -68.5 -102s-25 -80.5 -25 -124.5s8.33301 -85.5 25 -124.5s39.5 -73 68.5 -102s63 -51.833 102 -68.5s80.5 -25 124.5 -25c52.667 0 101.167 11.667 145.5 35
s81.166 54.333 110.499 93h128c29.333 -38.667 66.166 -69.667 110.499 -93s92.833 -35 145.5 -35c44 0 85.5 8.33301 124.5 25s73 39.5 102 68.5s51.833 63 68.5 102s25 80.5 25 124.5c0 41.333 -7.5 80.5 -22.5 117.5s-35.333 69.667 -61 98s-56 51.5 -91 69.5
s-72.833 29 -113.5 33v0zM512.002 384h-128v-128h-128v128h-128v128h128v128h128v-128h128v-128v0zM896.002 384c-18 0 -33.167 6.16699 -45.5 18.5s-18.5 27.5 -18.5 45.5s6.16699 33.167 18.5 45.5s27.5 18.5 45.5 18.5s33.167 -6.16699 45.5 -18.5s18.5 -27.5 18.5 -45.5
s-6.16699 -33.167 -18.5 -45.5s-27.5 -18.5 -45.5 -18.5v0zM1088 384c-18 0 -33.167 6.16699 -45.5 18.5s-18.5 27.5 -18.5 45.5s6.16699 33.167 18.5 45.5s27.5 18.5 45.5 18.5s33.167 -6.16699 45.5 -18.5s18.5 -27.5 18.5 -45.5s-6.16699 -33.167 -18.5 -45.5
s-27.5 -18.5 -45.5 -18.5v0z" />
    <glyph glyph-name="uniE96E" unicode="game&#x35;" 
d="M965 781c-23.333 27.333 -49.5 51.998 -78.5 73.998s-60 40.833 -93 56.5s-67.833 27.667 -104.5 36s-74.334 12.5 -113.001 12.5c-70.667 0 -137.167 -13.333 -199.5 -40s-116.666 -63.167 -162.999 -109.5s-82.833 -100.666 -109.5 -162.999s-40 -128.833 -40 -199.5
s13.333 -137.167 40 -199.5s63.167 -116.666 109.5 -162.999s100.666 -82.833 162.999 -109.5s128.833 -40 199.5 -40c38.667 0 76.334 4.16699 113.001 12.5s71.5 20.333 104.5 36s64 34.5 93 56.5s55.167 46.667 78.5 74l-325 333l325 333v0zM704 838.998
c20 0 36.833 -6.83301 50.5 -20.5s20.5 -30.5 20.5 -50.5s-6.83301 -36.833 -20.5 -50.5s-30.5 -20.5 -50.5 -20.5s-36.833 6.83301 -50.5 20.5s-20.5 30.5 -20.5 50.5s6.83301 36.833 20.5 50.5s30.5 20.5 50.5 20.5v0z" />
    <glyph glyph-name="uniE96F" unicode="cards" 
d="M818 612c-48.667 36 -89.8301 70.167 -123.497 102.5s-62.167 63 -85.5 92s-42.5 56.333 -57.5 82s-28.167 49.5 -39.5 71.5v0v0v0v0c-11.333 -22 -24.5 -45.833 -39.5 -71.5s-34.167 -53 -57.5 -82s-51.833 -59.667 -85.5 -92s-74.834 -66.5 -123.501 -102.5
c-82 -61.333 -127.833 -125.5 -137.5 -192.5s3.16602 -123.667 38.499 -170s86 -75.833 152 -88.5s133 4.66602 201 51.999c-8.66699 -58.667 -26.5 -108.667 -53.5 -150s-55.833 -71 -86.5 -89v-38h384v38c-30.667 18 -59.5 47.667 -86.5 89s-44.833 91.333 -53.5 150
c68 -47.333 135 -64.666 201 -51.999s116.667 42.167 152 88.5s48.166 103 38.499 170s-55.5 131.167 -137.5 192.5v0z" />
    <glyph glyph-name="uniE970" unicode="cards&#x32;" 
d="M787 567c-29.333 0 -57 -5.66699 -83 -17s-48.333 -27 -67 -47c-8 -8.66699 -18.5 -17.834 -31.5 -27.501s-27.167 -18.834 -42.5 -27.501c7.33301 26.667 20.333 54.834 39 84.501s35.667 51.834 51 66.501c20 19.333 35.667 42 47 68s17 54 17 84
c0 28.667 -5.33301 55.667 -16 81s-25.334 47.333 -44.001 66s-40.5 33.667 -65.5 45s-51.5 17 -79.5 17s-54.5 -5.66699 -79.5 -17s-46.833 -26.333 -65.5 -45s-33.334 -40.667 -44.001 -66s-16 -52.333 -16 -81c0 -30 5.66699 -58 17 -84s27 -48.667 47 -68
c15.333 -14.667 32.333 -36.834 51 -66.501s31.667 -57.834 39 -84.501c-15.333 8.66699 -29.5 17.834 -42.5 27.501s-23.5 18.834 -31.5 27.501c-18.667 20 -41 35.667 -67 47s-53.667 17 -83 17c-28.667 0 -55.5 -5.5 -80.5 -16.5s-46.833 -25.833 -65.5 -44.5
s-33.5 -40.834 -44.5 -66.501s-16.5 -52.834 -16.5 -81.501s5.5 -55.834 16.5 -81.501s25.833 -48 44.5 -67s40.5 -33.833 65.5 -44.5s51.833 -16 80.5 -16c29.333 0 57 5.83301 83 17.5s48.333 27.5 67 47.5c8.66699 8.66699 19.834 18.334 33.501 29.001
s28.5 20.667 44.5 30c-0.666992 -37.333 -5.16699 -71.833 -13.5 -103.5s-19.333 -60.167 -33 -85.5s-29 -47.333 -46 -66s-34.5 -33.334 -52.5 -44.001v-38h384v38c-18 10.667 -35.5 25.334 -52.5 44.001s-32.333 40.667 -46 66s-24.667 53.833 -33 85.5
s-12.833 66.167 -13.5 103.5c16 -9.33301 30.833 -19.333 44.5 -30s24.834 -20.334 33.501 -29.001c18.667 -20 41 -35.833 67 -47.5s53.667 -17.5 83 -17.5c28.667 0 55.5 5.33301 80.5 16s46.833 25.5 65.5 44.5s33.5 41.333 44.5 67s16.5 52.834 16.5 81.501
s-5.5 55.834 -16.5 81.501s-25.833 47.834 -44.5 66.501s-40.5 33.5 -65.5 44.5s-51.833 16.5 -80.5 16.5v0z" />
    <glyph glyph-name="uniE971" unicode="cards&#x33;" 
d="M512 960l-320 -512l320 -512l320 512z" />
    <glyph glyph-name="uniE972" unicode="chess&#x2d;king" 
d="M974 694c-16.667 17.333 -36.332 30.001 -58.999 38.001s-46.667 12 -72 12c-34.667 0 -70.667 -7 -108 -21s-73.333 -35 -108 -63c-8 25.333 -19.333 46.833 -34 64.5s-31 30.167 -49 37.5v70h96v64h-96v64h-64v-64h-96v-64h96v-70
c-18 -7.33301 -34.333 -19.833 -49 -37.5s-26 -39.167 -34 -64.5c-34.667 28 -70.667 49 -108 63s-73.333 21 -108 21c-25.333 0 -49.333 -4 -72 -12s-42.334 -20.333 -59.001 -37c-22 -22 -36.667 -48.667 -44 -80s-8 -64.333 -2 -99s18.667 -69.834 38 -105.501
s44.666 -69.167 75.999 -100.5c11.333 -12 23.333 -23 36 -33s25.334 -19 38.001 -27v-94c22 -4.66699 45.333 -8.66699 70 -12s50.5 -6.16602 77.5 -8.49902s55 -4.16602 84 -5.49902s58.5 -2 88.5 -2s59.5 0.666992 88.5 2s57 3.16602 84 5.49902
s52.833 5.16602 77.5 8.49902s48 7.33301 70 12v94c12.667 8 25.334 17 38.001 27s24.667 21 36 33c31.333 31.333 56.666 64.833 75.999 100.5s32 70.834 38 105.501s5.33301 67.667 -2 99s-22 57.666 -44 78.999v0zM163.002 581.001
c0.666992 0.666992 2.50098 1.33398 5.50098 2.00098s7.16699 1 12.5 1v0c16 0 36.833 -5.16699 62.5 -15.5s51.5 -28.833 77.5 -55.5c17.333 -16.667 32 -35 44 -55s20 -39.667 24 -59c3.33301 -14 4.5 -24.5 3.5 -31.5s-2.16699 -11.167 -3.5 -12.5l-4.5 -1.5
c-3 -1 -7.5 -1.5 -13.5 -1.5c-16 0 -36.833 5.33301 -62.5 16s-51.5 29 -77.5 55c-17.333 17.333 -31.833 36 -43.5 56s-19.834 39.667 -24.501 59c-3.33301 13.333 -4.33301 23.666 -3 30.999s2.33301 11.333 3 12v0zM861.003 538.001
c-4.66699 -19.333 -12.833 -39 -24.5 -59s-26.167 -38.667 -43.5 -56c-26 -26 -51.833 -44.333 -77.5 -55s-46.5 -16 -62.5 -16c-6 0 -10.5 0.5 -13.5 1.5l-4.5 1.5c-1.33301 1.33301 -2.5 5.5 -3.5 12.5s0.166992 17.5 3.5 31.5c4 19.333 12 39 24 59s26.667 38.333 44 55
c26 26.667 51.833 45.167 77.5 55.5s46.5 15.5 62.5 15.5c5.33301 0 9.5 -0.333008 12.5 -1s4.83301 -1.33398 5.5 -2.00098s1.66699 -4.66699 3 -12s0.333008 -17.666 -3 -30.999v0zM192.004 58.001l-0.00195312 -94c22 -4.66699 45.333 -8.66699 70 -12
s50.5 -6.16602 77.5 -8.49902s55 -4.16602 84 -5.49902s58.5 -2 88.5 -2s59.5 0.666992 88.5 2s57 3.16602 84 5.49902s52.833 5.16602 77.5 8.49902s48 7.33301 70 12v94c-23.333 -4 -47.666 -7.66699 -72.999 -11s-51.5 -6.16602 -78.5 -8.49902s-54.5 -4 -82.5 -5
s-56.667 -1.5 -86 -1.5s-58 0.5 -86 1.5s-55.5 2.66699 -82.5 5s-53.167 5.16602 -78.5 8.49902s-49.666 7 -72.999 11v0z" />
    <glyph glyph-name="uniE973" unicode="chess&#x2d;queen" 
d="M512 0c-28.667 0 -57 0.666992 -85 2s-55.333 3.16602 -82 5.49902s-52.167 5.16602 -76.5 8.49902s-47.5 7.33301 -69.5 12c-1.33301 0 -2.5 0.166992 -3.5 0.5s-2.16699 0.5 -3.5 0.5v-65c22 -4.66699 45.333 -8.66699 70 -12s50.5 -6.16602 77.5 -8.49902
s55 -4.16602 84 -5.49902s58.5 -2 88.5 -2s59.5 0.666992 88.5 2s57 3.16602 84 5.49902s52.833 5.16602 77.5 8.49902s48 7.33301 70 12v65c-1.33301 0 -2.5 -0.166992 -3.5 -0.5s-2.16699 -0.5 -3.5 -0.5c-22 -4.66699 -45.167 -8.66699 -69.5 -12
s-49.833 -6.16602 -76.5 -8.49902s-54 -4.16602 -82 -5.49902s-56.333 -2 -85 -2v0zM768 98l0.00195312 30l-32 64h-448l-32 -64v-30c37.333 -5.33301 77.666 -9.5 120.999 -12.5s88.333 -4.5 135 -4.5s91.667 1.5 135 4.5s83.666 7.16699 120.999 12.5v0zM1002 678
c-15.333 15.333 -33.668 23 -55.001 23s-39.333 -7.66699 -54 -23c-12.667 -12.667 -20 -27.667 -22 -45s1.33301 -33.333 10 -48l-195 -118l39 182c16.667 -3.33301 33 -1.33301 49 6s27.667 19.333 35 36c9.33301 18.667 10.666 38 3.99902 58s-19.667 34.667 -39 44
c-18.667 9.33301 -38.167 10.5 -58.5 3.5s-35.166 -19.833 -44.499 -38.5c-7.33301 -16 -9.16602 -32.667 -5.49902 -50s12.167 -31.666 25.5 -42.999l-118 -140l-42 168c16.667 4.66699 30.5 13.834 41.5 27.501s16.5 29.5 16.5 47.5c0 21.333 -7.5 39.5 -22.5 54.5
s-33.167 22.5 -54.5 22.5s-39.5 -7.5 -54.5 -22.5s-22.5 -33.167 -22.5 -54.5c0 -18 5.5 -33.833 16.5 -47.5s24.833 -22.834 41.5 -27.501l-42 -168l-118 140c13.333 11.333 21.833 25.666 25.5 42.999s1.83398 34 -5.49902 50c-9.33301 18.667 -24.166 31.5 -44.499 38.5
s-39.833 5.83301 -58.5 -3.5c-19.333 -9.33301 -32.333 -24 -39 -44s-5.33398 -39.333 3.99902 -58c7.33301 -16.667 19 -28.667 35 -36s32.333 -9.33301 49 -6l39 -182l-195 118c8.66699 14.667 12 30.667 10 48s-9.33301 32.333 -22 45c-14.667 15.333 -32.667 23 -54 23
s-39.666 -7.66699 -54.999 -23c-14.667 -14.667 -22 -32.667 -22 -54s7.33301 -39.333 22 -54c13.333 -12.667 28.666 -20 45.999 -22s33.333 1.33301 48 10l182 -302h428l182 302c14.667 -8.66699 30.667 -12 48 -10s32.666 9.33301 45.999 22
c14.667 14.667 22 32.667 22 54s-7.33301 39.333 -22 54v0z" />
    <glyph glyph-name="uniE974" unicode="chess&#x2d;rook" 
d="M192 672h576v-512h-576v512zM768 704l128 128v128h-128v-64h-192v64h-192v-64h-192v64h-128v-128l128 -128h576v0zM768 800l-32 -32h-512l-32 32h576v0zM128 128h704v-64h-704v64zM896 32h-832l-26.5 -24c-17.667 -16 -30.167 -40 -37.5 -72h960
c-7.33301 32 -19.833 56 -37.5 72l-26.5 24v0z" />
    <glyph glyph-name="uniE975" unicode="chess&#x2d;bishop" 
d="M794 192h-628.004c8 -18 21.5 -34.833 40.5 -50.5s42.333 -29.334 70 -41.001s58.834 -20.667 93.501 -27s71.334 -9.5 110.001 -9.5s75.334 3.16699 110.001 9.5s65.834 15.333 93.501 27s51 25.334 70 41.001s32.5 32.5 40.5 50.5v0zM-0.00390625 -64
l89.999 -0.00195312c0 1.33301 0.833008 3.83301 2.5 7.5s4.5 7.83398 8.5 12.501s7.83301 7.83398 11.5 9.50098s6.16699 2.5 7.5 2.5h270c26.667 0.666992 48.334 12.667 65.001 36s25 43.333 25 60h-48h-109.5h-120.5h-82c-30 0 -57.5 -13.333 -82.5 -40
s-37.5 -56 -37.5 -88v0zM839.995 63.998l-81.501 0.00195312h-121h-109.5h-48c0 -16.667 8.33301 -36.667 25 -60s38.334 -35.333 65.001 -36h270c1.33301 0 3.83301 -0.833008 7.5 -2.5s7.5 -4.83398 11.5 -9.50098s6.83301 -8.83398 8.5 -12.501s2.5 -6.16699 2.5 -7.5h90
c0 32 -12.5 61.333 -37.5 88s-52.5 40 -82.5 40v0zM479.994 256h314.002c-6.66699 16 -17.834 31 -33.501 45s-34.834 26.667 -57.501 38c10.667 14 18.834 30 24.501 48s8.5 38.333 8.5 61c0 40 -6.5 76.667 -19.5 110s-29.333 62.666 -49 87.999
s-41.167 46.833 -64.5 64.5s-45.333 31.5 -66 41.5c16.667 9.33301 30 22.5 40 39.5s15 35.833 15 56.5c0 30.667 -11 57 -33 79s-48.333 33 -79 33s-57 -11 -79 -33s-33 -48.333 -33 -79c0 -20.667 5 -39.5 15 -56.5s23.333 -30.167 40 -39.5
c-20.667 -10 -42.667 -23.833 -66 -41.5s-44.833 -39.167 -64.5 -64.5s-36 -54.666 -49 -87.999s-19.5 -70 -19.5 -110c0 -22.667 2.83301 -43 8.5 -61s13.834 -34 24.501 -48c-22.667 -11.333 -41.834 -24 -57.501 -38s-26.834 -29 -33.501 -45h314v0v0v0zM319.996 512v64
h128v128h64v-128h128v-64h-128v-128h-64v128h-128v0z" />
    <glyph glyph-name="uniE976" unicode="chess&#x2d;knight" 
d="M992 0h-736l-32 -64h800zM567 448c4 -52 -2.99609 -97.001 -20.9961 -135.001s-40 -72.5 -66 -103.5s-52.833 -60.5 -80.5 -88.5s-49.167 -57.667 -64.5 -89h625v62v78.5v96.5v115c0 55.333 -5 106.833 -15 154.5s-23.667 91 -41 130s-37.5 73.167 -60.5 102.5
s-47.5 53.666 -73.5 72.999c-2 10 -4.83301 20.333 -8.5 31s-7.5 20.667 -11.5 30l-12 28c-7.33301 16 -17.5 24.833 -30.5 26.5s-25.167 -4.16602 -36.5 -17.499l-39 -46v0h-1c-8 0 -15.833 -0.166992 -23.5 -0.5s-14.834 -0.5 -21.501 -0.5l-85 56
c-14.667 10 -27.167 12.167 -37.5 6.5s-15.5 -17.5 -15.5 -35.5v-65c-12.667 -7.33301 -24.834 -15.333 -36.501 -24l-36.5 -27c-16 -12 -36.833 -32 -62.5 -60l-83 -94l-90 -106.5l-84.5 -97.5c-46.667 -53.333 -61.834 -97.833 -45.501 -133.5s46.833 -48.5 91.5 -38.5
c-2 -42 10.5 -60.5 37.5 -55.5s52.5 16.833 76.5 35.5c28 21.333 62.667 36.5 104 45.5s80.666 18.167 117.999 27.5s69 22.333 95 39s37.667 43.334 35 80.001v0zM775.004 786.999c17.333 -17.333 33.332 -37.166 47.999 -59.499s27.667 -46.5 39 -72.5
c18 -39.333 31.5 -81.833 40.5 -127.5s13.5 -93.5 13.5 -143.5v-288l-96 96v192c0 43.333 -3.83301 84.5 -11.5 123.5s-18.834 75.167 -33.501 108.5c-9.33301 20.667 -19.666 39.667 -30.999 57s-23.666 32.666 -36.999 45.999l68 68v0zM160.003 370.999
c-12.667 0 -23.334 4.33301 -32.001 13s-13 19.334 -13 32.001s4.33301 23.334 13 32.001s19.334 13 32.001 13s23.334 -4.33301 32.001 -13s13 -19.334 13 -32.001s-4.33301 -23.334 -13 -32.001s-19.334 -13 -32.001 -13v0zM482.003 671.999
c-18.667 -18.667 -38 -31.334 -58 -38.001s-34.667 -5.33398 -44 3.99902s-10.666 24 -3.99902 44s19.334 39.333 38.001 58s38 31.334 58 38.001s34.667 5.33398 44 -3.99902s10.666 -24 3.99902 -44s-19.334 -39.333 -38.001 -58v0z" />
    <glyph glyph-name="uniE977" unicode="chess&#x2d;pawn" 
d="M736 324c10 18.667 17.8369 38.334 23.5039 59.001s8.5 42.334 8.5 65.001c0 51.333 -13.833 97.833 -41.5 139.5s-63.5 72.834 -107.5 93.501c16 14.667 28.833 32.167 38.5 52.5s14.5 42.5 14.5 66.5c0 44 -15.667 81.667 -47 113s-69 47 -113 47
s-81.667 -15.667 -113 -47s-47 -69 -47 -113c0 -24 4.83301 -46.167 14.5 -66.5s22.5 -37.833 38.5 -52.5c-44 -20.667 -79.833 -51.834 -107.5 -93.501s-41.5 -88.167 -41.5 -139.5c0 -22.667 2.83301 -44.334 8.5 -65.001s13.5 -40.334 23.5 -59.001
c-33.333 -19.333 -63.833 -42.666 -91.5 -69.999s-51.334 -57.666 -71.001 -90.999s-34.834 -69.166 -45.501 -107.499s-16 -78.166 -16 -119.499h896c0 41.333 -5.33301 81.166 -16 119.499s-25.834 74.166 -45.501 107.499s-43.334 63.666 -71.001 90.999
s-58.167 50.666 -91.5 69.999v0z" />
    <glyph glyph-name="uniE978" unicode="chess&#x37;" 
d="M896 960h128v-128h-128v128zM896 704h128v-128h-128v128zM896 448h128v-128h-128v128zM896 192h128v-128h-128v128zM768 832h128v-128h-128v128zM768 576h128v-128h-128v128zM768 320h128v-128h-128v128zM768 64h128v-128h-128v128zM640 960h128v-128h-128v128zM640 704
h128v-128h-128v128zM640 448h128v-128h-128v128zM640 192h128v-128h-128v128zM512 832h128v-128h-128v128zM512 576h128v-128h-128v128zM512 320h128v-128h-128v128zM512 64h128v-128h-128v128zM384 960h128v-128h-128v128zM384 704h128v-128h-128v128zM384 448h128v-128
h-128v128zM384 192h128v-128h-128v128zM256 832h128v-128h-128v128zM256 576h128v-128h-128v128zM256 320h128v-128h-128v128zM256 64h128v-128h-128v128zM128 960h128v-128h-128v128zM128 704h128v-128h-128v128zM128 448h128v-128h-128v128zM128 192h128v-128h-128v128z
M0 832h128v-128h-128v128zM0 576h128v-128h-128v128zM0 320h128v-128h-128v128zM0 64h128v-128h-128v128z" />
    <glyph glyph-name="uniE979" unicode="bullhorn" 
d="M1024 531c0 50 -3.5 97.167 -10.5 141.5s-16.333 83 -28 116s-25.5 59 -41.5 78s-33 28.833 -51 29.5v0v0h-83l-34.5 -24c-23 -16 -55.5 -34.833 -97.5 -56.5s-92.167 -44 -150.5 -67s-122.5 -41.833 -192.5 -56.5c-4 -22.667 -7.33301 -47.5 -10 -74.5
s-4 -55.833 -4 -86.5c0 -31.333 1.33301 -60.5 4 -87.5s6 -51.833 10 -74.5c70 -14 134.167 -32.5 192.5 -55.5s108.5 -45.5 150.5 -67.5s74.5 -41 97.5 -57l34.5 -24h83v0.5v0.5c18 0 35 9.66699 51 29s29.833 45.5 41.5 78.5s21 71.5 28 115.5s10.5 91.333 10.5 142v0z
M865 221c-4.66699 0 -9.33398 1.83301 -14.001 5.5s-8.33398 6.83398 -11.001 9.50098c-6 7.33301 -12 16.333 -18 27s-11.667 23 -17 37c-12 30.667 -21 65.834 -27 105.501s-9 81.5 -9 125.5s3 85.833 9 125.5s15 74.834 27 105.501c5.33301 13.333 11 25.5 17 36.5
s12 19.833 18 26.5c2.66699 3.33301 6.33398 6.83301 11.001 10.5s9.33398 5.5 14.001 5.5s9.33398 -1.83301 14.001 -5.5s8.33398 -7.16699 11.001 -10.5c6 -6.66699 12 -15.5 18 -26.5s11.667 -23.167 17 -36.5c11.333 -30.667 20.166 -65.834 26.499 -105.501
s9.5 -81.5 9.5 -125.5s-3.16699 -85.833 -9.5 -125.5s-15.166 -74.834 -26.499 -105.501c-5.33301 -14 -11 -26.333 -17 -37s-12 -19.667 -18 -27c-2.66699 -2.66699 -6.33398 -5.83398 -11.001 -9.50098s-9.33398 -5.5 -14.001 -5.5v0zM252 531
c0 26 0.833008 51.5 2.5 76.5s4.5 49.167 8.5 72.5c-24 -3.33301 -47 -5.83301 -69 -7.5s-45.667 -2.5 -71 -2.5h-59.5h-8.5l-55 -95v-88l55 -95h8.5h59.5c25.333 0 49 -0.833008 71 -2.5s45 -4.16699 69 -7.5c-4 23.333 -6.83301 47.5 -8.5 72.5s-2.5 50.5 -2.5 76.5v0z
M368 318l-128 24.001l82 -321c2 -8.66699 6.66699 -14.834 14 -18.501s15 -3.83398 23 -0.500977l118 48c8 2.66699 13.5 7.83398 16.5 15.501s2.16699 15.5 -2.5 23.5l-123 229v0zM865 411.001c-2 0 -3.83398 0.832031 -5.50098 2.49902s-3.16699 2.83398 -4.5 3.50098
c-2 2.66699 -4.16699 6.16699 -6.5 10.5s-4.5 9.16602 -6.5 14.499c-4.66699 11.333 -8.16699 24.666 -10.5 39.999s-3.5 31.666 -3.5 48.999c0 16.667 1.16699 32.667 3.5 48s5.83301 29 10.5 41c2 5.33301 4.16699 10 6.5 14s4.5 7.33301 6.5 10
c1.33301 1.33301 2.83301 2.66602 4.5 3.99902s3.5 2 5.5 2s3.83301 -0.666992 5.5 -2s2.83398 -2.66602 3.50098 -3.99902c2.66699 -2.66699 5.16699 -6 7.5 -10s4.5 -8.66699 6.5 -14c4.66699 -12 8.16699 -25.667 10.5 -41s3.5 -31.333 3.5 -48
c0 -17.333 -1.16699 -33.666 -3.5 -48.999s-5.83301 -28.666 -10.5 -39.999c-2 -5.33301 -4.16699 -10.166 -6.5 -14.499s-4.83301 -7.83301 -7.5 -10.5l-3.5 -3.5c-1.66699 -1.66699 -3.5 -2.5 -5.5 -2.5v0z" />
    <glyph glyph-name="uniE97A" unicode="bullhorn&#x32;" 
d="M128 576h-128v-320h128v64l128 -37v-0.5v-0.5v-90c0 -17.333 6.33301 -32.333 19 -45s27.667 -19 45 -19h128c17.333 0 32.333 6.33301 45 19s19 27.667 19 45v18l320 -91v594l-704 -201v64v0zM320 265l128 -36v-37h-128v73v0zM896 731v-630l128 -37v704z" />
    <glyph glyph-name="uniE97B" unicode="news&#x32;" 
d="M896 768h-768c-35.333 0 -65.5 -12.5 -90.5 -37.5s-37.5 -55.167 -37.5 -90.5v-448c0 -35.333 12.5 -65.5 37.5 -90.5s55.167 -37.5 90.5 -37.5h768c35.333 0 65.5 12.5 90.5 37.5s37.5 55.167 37.5 90.5v448c0 35.333 -12.5 65.5 -37.5 90.5s-55.167 37.5 -90.5 37.5v0z
M320 256h-64l-128 213v-213h-64v320h64l128 -213v213h64v-320v0zM576 512h-128v-64h128v-64h-128v-64h128v-64h-192v320h192v-64v0zM960 256h-96l-64 128l-64 -128h-96v320h64v-256l64 128h64l64 -128v256h64v-320v0z" />
    <glyph glyph-name="uniE97C" unicode="connection" horiz-adv-x="1280" 
d="M640 384c52.667 0 102.33 -10 148.997 -30s87.334 -47.667 122.001 -83l-90 -90c-23.333 23.333 -50.5 41.666 -81.5 54.999s-64.167 20 -99.5 20s-68.5 -6.66699 -99.5 -20s-58.167 -31.666 -81.5 -54.999l-90 90c34.667 35.333 75.334 63 122.001 83
s96.334 30 149.001 30v0zM186.996 453c30.667 30 63.334 56.667 98.001 80s71.167 42.833 109.5 58.5s78.166 27.667 119.499 36s83.333 12.5 126 12.5s84.667 -4.16699 126 -12.5s81.166 -20.333 119.499 -36s74.833 -35.167 109.5 -58.5s67.334 -50 98.001 -80l-91 -91
c-24 24 -50 45.333 -78 64s-57.333 34.334 -88 47.001s-62.5 22.334 -95.5 29.001s-66.5 10 -100.5 10s-67.5 -3.33301 -100.5 -10s-64.833 -16.334 -95.5 -29.001s-60 -28.334 -88 -47.001s-54 -40 -78 -64l-91 91v0zM988.996 826
c26.667 -11.333 52.665 -23.833 77.998 -37.5s49.833 -28.667 73.5 -45s46.667 -33.666 69 -51.999s43.833 -37.5 64.5 -57.5v0l-91 -91c-36 36 -75 68 -117 96s-86 51.667 -132 71s-93.667 33.833 -143 43.5s-99.666 14.5 -150.999 14.5s-101.666 -4.83301 -150.999 -14.5
s-97 -24.167 -143 -43.5s-90 -43 -132 -71s-81 -60 -117 -96l-91 91c20.667 20 42.167 39.167 64.5 57.5s45.333 35.666 69 51.999s48.167 31.333 73.5 45s51.333 26.167 78 37.5c28 11.333 56.167 21.333 84.5 30s57 16 86 22s58.5 10.5 88.5 13.5s60 4.5 90 4.5
s60 -1.5 90 -4.5s59.5 -7.5 88.5 -13.5s57.667 -13.333 86 -22s56.5 -18.667 84.5 -30v0zM575.994 64c0 18 6.16699 33.167 18.5 45.5s27.5 18.5 45.5 18.5s33.167 -6.16699 45.5 -18.5s18.5 -27.5 18.5 -45.5s-6.16699 -33.167 -18.5 -45.5s-27.5 -18.5 -45.5 -18.5
s-33.167 6.16699 -45.5 18.5s-18.5 27.5 -18.5 45.5v0z" />
    <glyph glyph-name="uniE97D" unicode="connection&#x32;" horiz-adv-x="1280" 
d="M640 384c52.667 0 102.33 -10 148.997 -30s87.334 -47.667 122.001 -83l-90 -90c-23.333 23.333 -50.5 41.666 -81.5 54.999s-64.167 20 -99.5 20s-68.5 -6.66699 -99.5 -20s-58.167 -31.666 -81.5 -54.999l-90 90c34.667 35.333 75.334 63 122.001 83
s96.334 30 149.001 30v0v0zM186.996 453c30.667 30 63.334 56.667 98.001 80s71.167 42.833 109.5 58.5s78.166 27.667 119.499 36s83.333 12.5 126 12.5s84.667 -4.16699 126 -12.5s81.166 -20.333 119.499 -36s74.833 -35.167 109.5 -58.5s67.334 -50 98.001 -80l-91 -91
c-24 24 -50 45.333 -78 64s-57.333 34.334 -88 47.001s-62.5 22.334 -95.5 29.001s-66.5 10 -100.5 10s-67.5 -3.33301 -100.5 -10s-64.833 -16.334 -95.5 -29.001s-60 -28.334 -88 -47.001s-54 -40 -78 -64l-91 91v0zM575.996 64c0 18 6.16699 33.167 18.5 45.5
s27.5 18.5 45.5 18.5s33.167 -6.16699 45.5 -18.5s18.5 -27.5 18.5 -45.5s-6.16699 -33.167 -18.5 -45.5s-27.5 -18.5 -45.5 -18.5s-33.167 6.16699 -45.5 18.5s-18.5 27.5 -18.5 45.5v0zM839.996 742l7.99902 -2c2.66699 -0.666992 5.33398 -1.66699 8.00098 -3v133l-8 2
l-8 2v-132v0zM807.995 750l8.00098 -2l8 -2v131l-8 2c-2.66699 0.666992 -5.33398 1 -8.00098 1v-130v0zM935.996 709c2.66699 -1.33301 5.33398 -2.5 8.00098 -3.5s5.33398 -2.16699 8.00098 -3.5v138c-2.66699 1.33301 -5.33398 2.5 -8.00098 3.5
s-5.33398 1.83301 -8.00098 2.5v-137v0zM871.996 733c2.66699 -1.33301 5.33398 -2.33301 8.00098 -3s5.33398 -1.66699 8.00098 -3v134c-2.66699 0.666992 -5.33398 1.5 -8.00098 2.5s-5.33398 1.83301 -8.00098 2.5v-133v0zM903.996 722
c2.66699 -1.33301 5.33301 -2.5 8 -3.5s5.33398 -1.83301 8.00098 -2.5v135c-2.66699 1.33301 -5.33398 2.33301 -8.00098 3l-8 2v-134v0zM711.995 765c2.66699 -0.666992 5.33398 -1.16699 8.00098 -1.5s5.33398 -0.5 8.00098 -0.5v129
c-2.66699 0 -5.33398 0.166992 -8.00098 0.5s-5.33398 0.5 -8.00098 0.5v-128v0zM647.995 768h8h8v128h-8h-8v-128v0zM775.995 756c2.66699 -0.666992 5.33398 -1.16699 8.00098 -1.5s5.33398 -0.833008 8.00098 -1.5v130c-2.66699 0.666992 -5.33398 1.16699 -8.00098 1.5
s-5.33398 0.833008 -8.00098 1.5v-130v0zM743.995 761c2.66699 0 5.33398 -0.333008 8.00098 -1s5.33398 -1 8.00098 -1v129c-2.66699 0.666992 -5.33398 1.16699 -8.00098 1.5s-5.33398 0.5 -8.00098 0.5v-129v0zM679.995 767c2.66699 0 5.33301 -0.166992 8 -0.5
s5.33398 -0.5 8.00098 -0.5v128c-2.66699 0.666992 -5.33398 1 -8.00098 1h-8v-128v0zM1223.99 584l16.002 16v65c-2.66699 2.66699 -5.33398 5.16699 -8.00098 7.5s-5.33398 4.83301 -8.00098 7.5v-96v0zM1192 552l16.002 16v125c-2.66699 2 -5.33398 4.16699 -8.00098 6.5
s-5.33398 4.5 -8.00098 6.5v-154v0zM1160 565c2.66699 -2.66699 5.33203 -5.16699 7.99902 -7.5s5.33398 -4.83301 8.00098 -7.5v168l-8 6l-8 6v-165v0zM1256 651v-35l16 16v3l-8 8l-8 8v0zM967.996 834l0.00195312 -139l8 -4l8 -4v141
c-2.66699 0.666992 -5.33398 1.5 -8.00098 2.5s-5.33398 2.16699 -8.00098 3.5v0zM999.998 679c2.66699 -1.33301 5.33301 -2.83301 8 -4.5s5.33398 -3.16699 8.00098 -4.5v144c-2.66699 0.666992 -5.33398 1.66699 -8.00098 3l-8 4v-142v0zM1032 661
c2.66699 -2 5.33203 -3.83301 7.99902 -5.5s5.33398 -3.16699 8.00098 -4.5v147l-8 4l-8 4v-145v0zM1096 618l8.00195 -6l8 -6v156c-2.66699 1.33301 -5.33398 2.83301 -8.00098 4.5s-5.33398 3.5 -8.00098 5.5v-154v0zM1128 593c2.66699 -2 5.33398 -4.16699 8.00098 -6.5
s5.33398 -4.5 8.00098 -6.5v161c-2.66699 2 -5.33398 3.83301 -8.00098 5.5s-5.33398 3.5 -8.00098 5.5v-159v0zM1064 641l8 -6c2.66699 -2 5.33398 -3.66699 8.00098 -5v151l-8 4c-2.66699 1.33301 -5.33398 3 -8.00098 5v-149v0zM199.997 630
c2.66699 1.33301 5.33398 3 8.00098 5l8 6v149c-2.66699 -2 -5.33398 -3.66699 -8.00098 -5l-8 -4v-151v0zM615.997 768h8h8v128h-8h-8v-128v0zM231.997 651c2.66699 1.33301 5.33203 2.83301 7.99902 4.5s5.33398 3.5 8.00098 5.5v145l-8 -4l-8 -4v-147v0zM135.995 580
c2.66699 2 5.33398 4.16699 8.00098 6.5s5.33398 4.5 8.00098 6.5v159c-2.66699 -2 -5.33398 -3.83301 -8.00098 -5.5s-5.33398 -3.5 -8.00098 -5.5v-161v0zM263.995 814l-0.000976562 -144c2.66699 1.33301 5.33398 2.83301 8.00098 4.5s5.33398 3.16699 8.00098 4.5v142
l-8 -4c-2.66699 -1.33301 -5.33398 -2.33301 -8.00098 -3v0zM7.99414 632l16 -16v35l-8 -8l-8 -8v-3v0zM103.994 550c2.66699 2.66699 5.33203 5.16699 7.99902 7.5s5.33398 4.83301 8.00098 7.5v165l-8 -6l-8 -6v-168v0zM295.992 687l8.00195 4l8 4v139
c-2.66699 -1.33301 -5.33398 -2.5 -8.00098 -3.5s-5.33398 -1.83301 -8.00098 -2.5v-141v0zM39.9941 600l16.002 -16v96c-2.66699 -2.66699 -5.33398 -5.16699 -8.00098 -7.5s-5.33398 -4.83301 -8.00098 -7.5v-65v0zM71.9961 568l16.002 -16v154
c-2.66699 -2 -5.33398 -4.16699 -8.00098 -6.5s-5.33398 -4.5 -8.00098 -6.5v-125v0zM167.998 606l8.00195 6l8 6v154c-2.66699 -2 -5.33398 -3.83301 -8.00098 -5.5s-5.33398 -3.16699 -8.00098 -4.5v-156v0zM328 702c2.66699 1.33301 5.33398 2.5 8.00098 3.5
s5.33398 2.16699 8.00098 3.5v137c-2.66699 -0.666992 -5.33398 -1.5 -8.00098 -2.5s-5.33398 -2.16699 -8.00098 -3.5v-138v0zM552 763c2.66699 0 5.33398 0.166992 8.00098 0.5s5.33398 0.833008 8.00098 1.5v128c-2.66699 0 -5.33398 -0.166992 -8.00098 -0.5
s-5.33398 -0.5 -8.00098 -0.5v-129v0zM584 766c2.66699 0 5.33301 0.166992 8 0.5s5.33398 0.5 8.00098 0.5v128h-8c-2.66699 0 -5.33398 -0.333008 -8.00098 -1v-128v0zM487.999 753c2.66699 0.666992 5.33398 1.16699 8.00098 1.5s5.33398 0.833008 8.00098 1.5v130
c-2.66699 -0.666992 -5.33398 -1.16699 -8.00098 -1.5s-5.33398 -0.833008 -8.00098 -1.5v-130v0zM519.999 759c2.66699 0 5.33398 0.333008 8.00098 1s5.33398 1 8.00098 1v129c-2.66699 0 -5.33398 -0.166992 -8.00098 -0.5s-5.33398 -0.833008 -8.00098 -1.5v-129v0z
M391.999 727c2.66699 1.33301 5.33398 2.33301 8.00098 3s5.33398 1.66699 8.00098 3v133c-2.66699 -0.666992 -5.33398 -1.5 -8.00098 -2.5s-5.33398 -1.83301 -8.00098 -2.5v-134v0zM359.999 716c2.66699 0.666992 5.33301 1.5 8 2.5s5.33398 2.16699 8.00098 3.5v134
l-8 -2c-2.66699 -0.666992 -5.33398 -1.66699 -8.00098 -3v-135v0zM455.998 746l8.00098 2l8 2v130c-2.66699 0 -5.33398 -0.333008 -8.00098 -1l-8 -2v-131v0zM423.999 737c2.66699 1.33301 5.33301 2.33301 8 3l8 2v132l-8 -2l-8 -2v-133v0z" />
    <glyph glyph-name="uniE97E" unicode="connection&#x33;" horiz-adv-x="1280" 
d="M640 384c52.667 0 102.33 -10 148.997 -30s87.334 -47.667 122.001 -83l-90 -90c-23.333 23.333 -50.5 41.666 -81.5 54.999s-64.167 20 -99.5 20s-68.5 -6.66699 -99.5 -20s-58.167 -31.666 -81.5 -54.999l-90 90c34.667 35.333 75.334 63 122.001 83
s96.334 30 149.001 30v0v0zM575.996 64c0 18 6.16699 33.167 18.5 45.5s27.5 18.5 45.5 18.5s33.167 -6.16699 45.5 -18.5s18.5 -27.5 18.5 -45.5s-6.16699 -33.167 -18.5 -45.5s-27.5 -18.5 -45.5 -18.5s-33.167 6.16699 -45.5 18.5s-18.5 27.5 -18.5 45.5v0zM839.996 742
l7.99902 -2c2.66699 -0.666992 5.33398 -1.66699 8.00098 -3v133l-8 2l-8 2v-132v0zM807.995 750l8.00098 -2l8 -2v131l-8 2c-2.66699 0.666992 -5.33398 1 -8.00098 1v-130v0zM935.996 709c2.66699 -1.33301 5.33398 -2.5 8.00098 -3.5s5.33398 -2.16699 8.00098 -3.5v138
c-2.66699 1.33301 -5.33398 2.5 -8.00098 3.5s-5.33398 1.83301 -8.00098 2.5v-137v0zM871.996 733c2.66699 -1.33301 5.33398 -2.33301 8.00098 -3s5.33398 -1.66699 8.00098 -3v134c-2.66699 0.666992 -5.33398 1.5 -8.00098 2.5s-5.33398 1.83301 -8.00098 2.5v-133v0z
M903.996 722c2.66699 -1.33301 5.33301 -2.5 8 -3.5s5.33398 -1.83301 8.00098 -2.5v135c-2.66699 1.33301 -5.33398 2.33301 -8.00098 3l-8 2v-134v0zM711.995 765c2.66699 -0.666992 5.33398 -1.16699 8.00098 -1.5s5.33398 -0.5 8.00098 -0.5v129
c-2.66699 0 -5.33398 0.166992 -8.00098 0.5s-5.33398 0.5 -8.00098 0.5v-128v0zM647.995 768h8h8v128h-8h-8v-128v0zM775.995 756c2.66699 -0.666992 5.33398 -1.16699 8.00098 -1.5s5.33398 -0.833008 8.00098 -1.5v130c-2.66699 0.666992 -5.33398 1.16699 -8.00098 1.5
s-5.33398 0.833008 -8.00098 1.5v-130v0zM743.995 761c2.66699 0 5.33398 -0.333008 8.00098 -1s5.33398 -1 8.00098 -1v129c-2.66699 0.666992 -5.33398 1.16699 -8.00098 1.5s-5.33398 0.5 -8.00098 0.5v-129v0zM679.995 767c2.66699 0 5.33301 -0.166992 8 -0.5
s5.33398 -0.5 8.00098 -0.5v128c-2.66699 0.666992 -5.33398 1 -8.00098 1h-8v-128v0zM1223.99 584l16.002 16v65c-2.66699 2.66699 -5.33398 5.16699 -8.00098 7.5s-5.33398 4.83301 -8.00098 7.5v-96v0zM1192 552l16.002 16v125c-2.66699 2 -5.33398 4.16699 -8.00098 6.5
s-5.33398 4.5 -8.00098 6.5v-154v0zM1160 565c2.66699 -2.66699 5.33203 -5.16699 7.99902 -7.5s5.33398 -4.83301 8.00098 -7.5v168l-8 6l-8 6v-165v0zM1256 651v-35l16 16v3l-8 8l-8 8v0zM967.996 834l0.00195312 -139l8 -4l8 -4v141
c-2.66699 0.666992 -5.33398 1.5 -8.00098 2.5s-5.33398 2.16699 -8.00098 3.5v0zM999.998 679c2.66699 -1.33301 5.33301 -2.83301 8 -4.5s5.33398 -3.16699 8.00098 -4.5v144c-2.66699 0.666992 -5.33398 1.66699 -8.00098 3l-8 4v-142v0zM1032 661
c2.66699 -2 5.33203 -3.83301 7.99902 -5.5s5.33398 -3.16699 8.00098 -4.5v147l-8 4l-8 4v-145v0zM1096 618l8.00195 -6l8 -6v156c-2.66699 1.33301 -5.33398 2.83301 -8.00098 4.5s-5.33398 3.5 -8.00098 5.5v-154v0zM1128 593c2.66699 -2 5.33398 -4.16699 8.00098 -6.5
s5.33398 -4.5 8.00098 -6.5v161c-2.66699 2 -5.33398 3.83301 -8.00098 5.5s-5.33398 3.5 -8.00098 5.5v-159v0zM1064 641l8 -6c2.66699 -2 5.33398 -3.66699 8.00098 -5v151l-8 4c-2.66699 1.33301 -5.33398 3 -8.00098 5v-149v0zM199.997 630
c2.66699 1.33301 5.33398 3 8.00098 5l8 6v149c-2.66699 -2 -5.33398 -3.66699 -8.00098 -5l-8 -4v-151v0zM615.997 768h8h8v128h-8h-8v-128v0zM231.997 651c2.66699 1.33301 5.33203 2.83301 7.99902 4.5s5.33398 3.5 8.00098 5.5v145l-8 -4l-8 -4v-147v0zM135.995 580
c2.66699 2 5.33398 4.16699 8.00098 6.5s5.33398 4.5 8.00098 6.5v159c-2.66699 -2 -5.33398 -3.83301 -8.00098 -5.5s-5.33398 -3.5 -8.00098 -5.5v-161v0zM263.995 814l-0.000976562 -144c2.66699 1.33301 5.33398 2.83301 8.00098 4.5s5.33398 3.16699 8.00098 4.5v142
l-8 -4c-2.66699 -1.33301 -5.33398 -2.33301 -8.00098 -3v0zM7.99414 632l16 -16v35l-8 -8l-8 -8v-3v0zM103.994 550c2.66699 2.66699 5.33203 5.16699 7.99902 7.5s5.33398 4.83301 8.00098 7.5v165l-8 -6l-8 -6v-168v0zM295.992 687l8.00195 4l8 4v139
c-2.66699 -1.33301 -5.33398 -2.5 -8.00098 -3.5s-5.33398 -1.83301 -8.00098 -2.5v-141v0zM39.9941 600l16.002 -16v96c-2.66699 -2.66699 -5.33398 -5.16699 -8.00098 -7.5s-5.33398 -4.83301 -8.00098 -7.5v-65v0zM71.9961 568l16.002 -16v154
c-2.66699 -2 -5.33398 -4.16699 -8.00098 -6.5s-5.33398 -4.5 -8.00098 -6.5v-125v0zM167.998 606l8.00195 6l8 6v154c-2.66699 -2 -5.33398 -3.83301 -8.00098 -5.5s-5.33398 -3.16699 -8.00098 -4.5v-156v0zM328 702c2.66699 1.33301 5.33398 2.5 8.00098 3.5
s5.33398 2.16699 8.00098 3.5v137c-2.66699 -0.666992 -5.33398 -1.5 -8.00098 -2.5s-5.33398 -2.16699 -8.00098 -3.5v-138v0zM552 763c2.66699 0 5.33398 0.166992 8.00098 0.5s5.33398 0.833008 8.00098 1.5v128c-2.66699 0 -5.33398 -0.166992 -8.00098 -0.5
s-5.33398 -0.5 -8.00098 -0.5v-129v0zM584 766c2.66699 0 5.33301 0.166992 8 0.5s5.33398 0.5 8.00098 0.5v128h-8c-2.66699 0 -5.33398 -0.333008 -8.00098 -1v-128v0zM487.999 753c2.66699 0.666992 5.33398 1.16699 8.00098 1.5s5.33398 0.833008 8.00098 1.5v130
c-2.66699 -0.666992 -5.33398 -1.16699 -8.00098 -1.5s-5.33398 -0.833008 -8.00098 -1.5v-130v0zM519.999 759c2.66699 0 5.33398 0.333008 8.00098 1s5.33398 1 8.00098 1v129c-2.66699 0 -5.33398 -0.166992 -8.00098 -0.5s-5.33398 -0.833008 -8.00098 -1.5v-129v0z
M391.999 727c2.66699 1.33301 5.33398 2.33301 8.00098 3s5.33398 1.66699 8.00098 3v133c-2.66699 -0.666992 -5.33398 -1.5 -8.00098 -2.5s-5.33398 -1.83301 -8.00098 -2.5v-134v0zM359.999 716c2.66699 0.666992 5.33301 1.5 8 2.5s5.33398 2.16699 8.00098 3.5v134
l-8 -2c-2.66699 -0.666992 -5.33398 -1.66699 -8.00098 -3v-135v0zM455.998 746l8.00098 2l8 2v130c-2.66699 0 -5.33398 -0.333008 -8.00098 -1l-8 -2v-131v0zM423.999 737c2.66699 1.33301 5.33301 2.33301 8 3l8 2v132l-8 -2l-8 -2v-133v0zM775.998 494
c2.66699 -0.666992 5.33203 -1.5 7.99902 -2.5s5.33398 -1.83301 8.00098 -2.5v133l-8 2l-8 2v-132v0zM807.996 484c2.66699 -0.666992 5.33398 -1.5 8.00098 -2.5s5.33398 -2.16699 8.00098 -3.5v135c-2.66699 0.666992 -5.33398 1.5 -8.00098 2.5
s-5.33398 1.83301 -8.00098 2.5v-134v0zM711.996 507c2.66699 -0.666992 5.33398 -1.16699 8.00098 -1.5s5.33398 -0.5 8.00098 -0.5v129c-2.66699 0.666992 -5.33398 1.16699 -8.00098 1.5s-5.33398 0.5 -8.00098 0.5v-129v0zM679.996 510
c2.66699 0 5.33301 -0.166992 8 -0.5s5.33398 -0.5 8.00098 -0.5v129h-8c-2.66699 0 -5.33398 0.333008 -8.00098 1v-129v0zM743.995 501c2.66699 0 5.33496 -0.333008 8.00195 -1l8 -2v131c-2.66699 0.666992 -5.33398 1.16699 -8.00098 1.5
s-5.33398 0.833008 -8.00098 1.5v-131v0zM839.996 472l8.00195 -4l8 -4v139c-2.66699 0.666992 -5.33398 1.5 -8.00098 2.5s-5.33398 1.83301 -8.00098 2.5v-136v0zM871.998 457c2.66699 -1.33301 5.33398 -2.83301 8.00098 -4.5s5.33398 -3.16699 8.00098 -4.5v142
c-2.66699 1.33301 -5.33398 2.5 -8.00098 3.5s-5.33398 2.16699 -8.00098 3.5v-140v0zM1032 392l16.002 16v85c-2.66699 2 -5.33398 4.16699 -8.00098 6.5s-5.33398 4.5 -8.00098 6.5v-114v0zM1064 479l0.00195312 -55l16 16v25c-2.66699 2 -5.33398 4.33301 -8.00098 7
s-5.33398 5 -8.00098 7v0zM1000 364c0.666992 0 1.16797 -0.166992 1.50098 -0.5s0.5 -0.833008 0.5 -1.5l14 14v142l-8 6c-2.66699 2 -5.33398 3.66699 -8.00098 5v-165v0zM904.003 439c2.66699 -2 5.33301 -3.83301 8 -5.5s5.33398 -3.16699 8.00098 -4.5v147l-8 4
c-2.66699 1.33301 -5.33398 2.33301 -8.00098 3v-144v0zM968.002 393c2.66699 -2 5.33398 -4.16699 8.00098 -6.5s5.33398 -4.83301 8.00098 -7.5v161c-2.66699 1.33301 -5.33398 2.83301 -8.00098 4.5s-5.33398 3.5 -8.00098 5.5v-157v0zM648.002 512h7.99902
c2.66699 0 5.33398 -0.333008 8.00098 -1v129h-8h-8v-128v0zM936.001 418l8.00195 -6l8 -6v153c-2.66699 1.33301 -5.33398 2.83301 -8.00098 4.5s-5.33398 3.16699 -8.00098 4.5v-150v0zM456.003 478c2.66699 1.33301 5.33398 2.5 8.00098 3.5s5.33398 1.83301 8.00098 2.5
v134c-2.66699 -0.666992 -5.33398 -1.5 -8.00098 -2.5s-5.33398 -1.83301 -8.00098 -2.5v-135v0zM296.003 379c2.66699 2.66699 5.33398 5.16699 8.00098 7.5s5.33398 4.5 8.00098 6.5v157c-2.66699 -2 -5.33398 -3.83301 -8.00098 -5.5s-5.33398 -3.16699 -8.00098 -4.5
v-161v0zM264.003 376l14.001 -14c0 0.666992 0.166992 1.16699 0.5 1.5s0.833008 0.5 1.5 0.5v165c-2.66699 -1.33301 -5.33398 -3 -8.00098 -5l-8 -6v-142v0zM328.004 406l8.00195 6l8 6v150c-2.66699 -1.33301 -5.33398 -2.83301 -8.00098 -4.5
s-5.33398 -3.16699 -8.00098 -4.5v-153v0zM360.006 429c2.66699 1.33301 5.33301 2.83301 8 4.5s5.33398 3.5 8.00098 5.5v144c-2.66699 -0.666992 -5.33398 -1.66699 -8.00098 -3l-8 -4v-147v0zM232.005 408l16.002 -16v114c-2.66699 -2 -5.33398 -4.16699 -8.00098 -6.5
s-5.33398 -4.5 -8.00098 -6.5v-85v0zM200.007 440l16.002 -16v55c-2.66699 -2 -5.33398 -4.33301 -8.00098 -7s-5.33398 -5 -8.00098 -7v-25v0zM584.009 509c2.66699 0 5.33301 0.166992 8 0.5s5.33398 0.5 8.00098 0.5v129c-2.66699 -0.666992 -5.33398 -1 -8.00098 -1h-8
v-129v0zM392.008 448c2.66699 1.33301 5.33398 2.83301 8.00098 4.5s5.33398 3.16699 8.00098 4.5v140c-2.66699 -1.33301 -5.33398 -2.5 -8.00098 -3.5s-5.33398 -2.16699 -8.00098 -3.5v-142v0zM616.008 511c2.66699 0.666992 5.33301 1 8 1h8v128h-8h-8v-129v0z
M520.007 498l8.00098 2c2.66699 0.666992 5.33398 1 8.00098 1v131c-2.66699 -0.666992 -5.33398 -1.16699 -8.00098 -1.5s-5.33398 -0.833008 -8.00098 -1.5v-131v0zM552.008 505c2.66699 0 5.33398 0.166992 8.00098 0.5s5.33398 0.833008 8.00098 1.5v129
c-2.66699 0 -5.33398 -0.166992 -8.00098 -0.5s-5.33398 -0.833008 -8.00098 -1.5v-129v0zM424.008 464l8.00195 4l8 4v136c-2.66699 -0.666992 -5.33398 -1.5 -8.00098 -2.5s-5.33398 -1.83301 -8.00098 -2.5v-139v0zM488.01 489c2.66699 0.666992 5.33203 1.5 7.99902 2.5
s5.33398 1.83301 8.00098 2.5v132l-8 -2l-8 -2v-133v0z" />
    <glyph glyph-name="uniE97F" unicode="connection&#x34;" horiz-adv-x="1280" 
d="M576 64c0 18 6.16699 33.167 18.5 45.5s27.5 18.5 45.5 18.5s33.167 -6.16699 45.5 -18.5s18.5 -27.5 18.5 -45.5s-6.16699 -33.167 -18.5 -45.5s-27.5 -18.5 -45.5 -18.5s-33.167 6.16699 -45.5 18.5s-18.5 27.5 -18.5 45.5v0zM840 742l7.99902 -2
c2.66699 -0.666992 5.33398 -1.66699 8.00098 -3v133l-8 2l-8 2v-132v0zM807.999 750l8.00098 -2l8 -2v131l-8 2c-2.66699 0.666992 -5.33398 1 -8.00098 1v-130v0zM936 709c2.66699 -1.33301 5.33398 -2.5 8.00098 -3.5s5.33398 -2.16699 8.00098 -3.5v138
c-2.66699 1.33301 -5.33398 2.5 -8.00098 3.5s-5.33398 1.83301 -8.00098 2.5v-137v0zM872 733c2.66699 -1.33301 5.33398 -2.33301 8.00098 -3s5.33398 -1.66699 8.00098 -3v134c-2.66699 0.666992 -5.33398 1.5 -8.00098 2.5s-5.33398 1.83301 -8.00098 2.5v-133v0z
M904 722c2.66699 -1.33301 5.33301 -2.5 8 -3.5s5.33398 -1.83301 8.00098 -2.5v135c-2.66699 1.33301 -5.33398 2.33301 -8.00098 3l-8 2v-134v0zM711.999 765c2.66699 -0.666992 5.33398 -1.16699 8.00098 -1.5s5.33398 -0.5 8.00098 -0.5v129
c-2.66699 0 -5.33398 0.166992 -8.00098 0.5s-5.33398 0.5 -8.00098 0.5v-128v0zM647.999 768h8h8v128h-8h-8v-128v0zM775.999 756c2.66699 -0.666992 5.33398 -1.16699 8.00098 -1.5s5.33398 -0.833008 8.00098 -1.5v130c-2.66699 0.666992 -5.33398 1.16699 -8.00098 1.5
s-5.33398 0.833008 -8.00098 1.5v-130v0zM743.999 761c2.66699 0 5.33398 -0.333008 8.00098 -1s5.33398 -1 8.00098 -1v129c-2.66699 0.666992 -5.33398 1.16699 -8.00098 1.5s-5.33398 0.5 -8.00098 0.5v-129v0zM679.999 767c2.66699 0 5.33301 -0.166992 8 -0.5
s5.33398 -0.5 8.00098 -0.5v128c-2.66699 0.666992 -5.33398 1 -8.00098 1h-8v-128v0zM1224 584l16.002 16v65c-2.66699 2.66699 -5.33398 5.16699 -8.00098 7.5s-5.33398 4.83301 -8.00098 7.5v-96v0zM1192 552l16.002 16v125c-2.66699 2 -5.33398 4.16699 -8.00098 6.5
s-5.33398 4.5 -8.00098 6.5v-154v0zM1160 565c2.66699 -2.66699 5.33203 -5.16699 7.99902 -7.5s5.33398 -4.83301 8.00098 -7.5v168l-8 6l-8 6v-165v0zM1256 651v-35l16 16v3l-8 8l-8 8v0zM968 834l0.00195312 -139l8 -4l8 -4v141
c-2.66699 0.666992 -5.33398 1.5 -8.00098 2.5s-5.33398 2.16699 -8.00098 3.5v0zM1000 679c2.66699 -1.33301 5.33301 -2.83301 8 -4.5s5.33398 -3.16699 8.00098 -4.5v144c-2.66699 0.666992 -5.33398 1.66699 -8.00098 3l-8 4v-142v0zM1032 661
c2.66699 -2 5.33203 -3.83301 7.99902 -5.5s5.33398 -3.16699 8.00098 -4.5v147l-8 4l-8 4v-145v0zM1096 618l8.00195 -6l8 -6v156c-2.66699 1.33301 -5.33398 2.83301 -8.00098 4.5s-5.33398 3.5 -8.00098 5.5v-154v0zM1128 593c2.66699 -2 5.33398 -4.16699 8.00098 -6.5
s5.33398 -4.5 8.00098 -6.5v161c-2.66699 2 -5.33398 3.83301 -8.00098 5.5s-5.33398 3.5 -8.00098 5.5v-159v0zM1064 641l8 -6c2.66699 -2 5.33398 -3.66699 8.00098 -5v151l-8 4c-2.66699 1.33301 -5.33398 3 -8.00098 5v-149v0zM200.001 630
c2.66699 1.33301 5.33398 3 8.00098 5l8 6v149c-2.66699 -2 -5.33398 -3.66699 -8.00098 -5l-8 -4v-151v0zM616.001 768h8h8v128h-8h-8v-128v0zM232.001 651c2.66699 1.33301 5.33203 2.83301 7.99902 4.5s5.33398 3.5 8.00098 5.5v145l-8 -4l-8 -4v-147v0zM135.999 580
c2.66699 2 5.33398 4.16699 8.00098 6.5s5.33398 4.5 8.00098 6.5v159c-2.66699 -2 -5.33398 -3.83301 -8.00098 -5.5s-5.33398 -3.5 -8.00098 -5.5v-161v0zM263.999 814l-0.000976562 -144c2.66699 1.33301 5.33398 2.83301 8.00098 4.5s5.33398 3.16699 8.00098 4.5v142
l-8 -4c-2.66699 -1.33301 -5.33398 -2.33301 -8.00098 -3v0zM7.99805 632l16 -16v35l-8 -8l-8 -8v-3v0zM103.998 550c2.66699 2.66699 5.33203 5.16699 7.99902 7.5s5.33398 4.83301 8.00098 7.5v165l-8 -6l-8 -6v-168v0zM295.996 687l8.00195 4l8 4v139
c-2.66699 -1.33301 -5.33398 -2.5 -8.00098 -3.5s-5.33398 -1.83301 -8.00098 -2.5v-141v0zM39.998 600l16.002 -16v96c-2.66699 -2.66699 -5.33398 -5.16699 -8.00098 -7.5s-5.33398 -4.83301 -8.00098 -7.5v-65v0zM72 568l16.002 -16v154
c-2.66699 -2 -5.33398 -4.16699 -8.00098 -6.5s-5.33398 -4.5 -8.00098 -6.5v-125v0zM168.002 606l8.00195 6l8 6v154c-2.66699 -2 -5.33398 -3.83301 -8.00098 -5.5s-5.33398 -3.16699 -8.00098 -4.5v-156v0zM328.004 702c2.66699 1.33301 5.33398 2.5 8.00098 3.5
s5.33398 2.16699 8.00098 3.5v137c-2.66699 -0.666992 -5.33398 -1.5 -8.00098 -2.5s-5.33398 -2.16699 -8.00098 -3.5v-138v0zM552.004 763c2.66699 0 5.33398 0.166992 8.00098 0.5s5.33398 0.833008 8.00098 1.5v128c-2.66699 0 -5.33398 -0.166992 -8.00098 -0.5
s-5.33398 -0.5 -8.00098 -0.5v-129v0zM584.004 766c2.66699 0 5.33301 0.166992 8 0.5s5.33398 0.5 8.00098 0.5v128h-8c-2.66699 0 -5.33398 -0.333008 -8.00098 -1v-128v0zM488.003 753c2.66699 0.666992 5.33398 1.16699 8.00098 1.5s5.33398 0.833008 8.00098 1.5v130
c-2.66699 -0.666992 -5.33398 -1.16699 -8.00098 -1.5s-5.33398 -0.833008 -8.00098 -1.5v-130v0zM520.003 759c2.66699 0 5.33398 0.333008 8.00098 1s5.33398 1 8.00098 1v129c-2.66699 0 -5.33398 -0.166992 -8.00098 -0.5s-5.33398 -0.833008 -8.00098 -1.5v-129v0z
M392.003 727c2.66699 1.33301 5.33398 2.33301 8.00098 3s5.33398 1.66699 8.00098 3v133c-2.66699 -0.666992 -5.33398 -1.5 -8.00098 -2.5s-5.33398 -1.83301 -8.00098 -2.5v-134v0zM360.003 716c2.66699 0.666992 5.33301 1.5 8 2.5s5.33398 2.16699 8.00098 3.5v134
l-8 -2c-2.66699 -0.666992 -5.33398 -1.66699 -8.00098 -3v-135v0zM456.002 746l8.00098 2l8 2v130c-2.66699 0 -5.33398 -0.333008 -8.00098 -1l-8 -2v-131v0zM424.003 737c2.66699 1.33301 5.33301 2.33301 8 3l8 2v132l-8 -2l-8 -2v-133v0zM776.002 494
c2.66699 -0.666992 5.33203 -1.5 7.99902 -2.5s5.33398 -1.83301 8.00098 -2.5v133l-8 2l-8 2v-132v0zM808 484c2.66699 -0.666992 5.33398 -1.5 8.00098 -2.5s5.33398 -2.16699 8.00098 -3.5v135c-2.66699 0.666992 -5.33398 1.5 -8.00098 2.5
s-5.33398 1.83301 -8.00098 2.5v-134v0zM712 507c2.66699 -0.666992 5.33398 -1.16699 8.00098 -1.5s5.33398 -0.5 8.00098 -0.5v129c-2.66699 0.666992 -5.33398 1.16699 -8.00098 1.5s-5.33398 0.5 -8.00098 0.5v-129v0zM680 510c2.66699 0 5.33301 -0.166992 8 -0.5
s5.33398 -0.5 8.00098 -0.5v129h-8c-2.66699 0 -5.33398 0.333008 -8.00098 1v-129v0zM743.999 501c2.66699 0 5.33496 -0.333008 8.00195 -1l8 -2v131c-2.66699 0.666992 -5.33398 1.16699 -8.00098 1.5s-5.33398 0.833008 -8.00098 1.5v-131v0zM840 472l8.00195 -4l8 -4
v139c-2.66699 0.666992 -5.33398 1.5 -8.00098 2.5s-5.33398 1.83301 -8.00098 2.5v-136v0zM872.002 457c2.66699 -1.33301 5.33398 -2.83301 8.00098 -4.5s5.33398 -3.16699 8.00098 -4.5v142c-2.66699 1.33301 -5.33398 2.5 -8.00098 3.5s-5.33398 2.16699 -8.00098 3.5
v-140v0zM1032 392l16.002 16v85c-2.66699 2 -5.33398 4.16699 -8.00098 6.5s-5.33398 4.5 -8.00098 6.5v-114v0zM1064 479l0.00195312 -55l16 16v25c-2.66699 2 -5.33398 4.33301 -8.00098 7s-5.33398 5 -8.00098 7v0zM1000.01 364
c0.666992 0 1.16797 -0.166992 1.50098 -0.5s0.5 -0.833008 0.5 -1.5l14 14v142l-8 6c-2.66699 2 -5.33398 3.66699 -8.00098 5v-165v0zM904.007 439c2.66699 -2 5.33301 -3.83301 8 -5.5s5.33398 -3.16699 8.00098 -4.5v147l-8 4
c-2.66699 1.33301 -5.33398 2.33301 -8.00098 3v-144v0zM968.006 393c2.66699 -2 5.33398 -4.16699 8.00098 -6.5s5.33398 -4.83301 8.00098 -7.5v161c-2.66699 1.33301 -5.33398 2.83301 -8.00098 4.5s-5.33398 3.5 -8.00098 5.5v-157v0zM648.006 512h7.99902
c2.66699 0 5.33398 -0.333008 8.00098 -1v129h-8h-8v-128v0zM936.005 418l8.00195 -6l8 -6v153c-2.66699 1.33301 -5.33398 2.83301 -8.00098 4.5s-5.33398 3.16699 -8.00098 4.5v-150v0zM456.007 478c2.66699 1.33301 5.33398 2.5 8.00098 3.5s5.33398 1.83301 8.00098 2.5
v134c-2.66699 -0.666992 -5.33398 -1.5 -8.00098 -2.5s-5.33398 -1.83301 -8.00098 -2.5v-135v0zM296.007 379c2.66699 2.66699 5.33398 5.16699 8.00098 7.5s5.33398 4.5 8.00098 6.5v157c-2.66699 -2 -5.33398 -3.83301 -8.00098 -5.5s-5.33398 -3.16699 -8.00098 -4.5
v-161v0zM264.007 376l14.001 -14c0 0.666992 0.166992 1.16699 0.5 1.5s0.833008 0.5 1.5 0.5v165c-2.66699 -1.33301 -5.33398 -3 -8.00098 -5l-8 -6v-142v0zM328.008 406l8.00195 6l8 6v150c-2.66699 -1.33301 -5.33398 -2.83301 -8.00098 -4.5
s-5.33398 -3.16699 -8.00098 -4.5v-153v0zM360.01 429c2.66699 1.33301 5.33301 2.83301 8 4.5s5.33398 3.5 8.00098 5.5v144c-2.66699 -0.666992 -5.33398 -1.66699 -8.00098 -3l-8 -4v-147v0zM232.009 408l16.002 -16v114c-2.66699 -2 -5.33398 -4.16699 -8.00098 -6.5
s-5.33398 -4.5 -8.00098 -6.5v-85v0zM200.011 440l16.002 -16v55c-2.66699 -2 -5.33398 -4.33301 -8.00098 -7s-5.33398 -5 -8.00098 -7v-25v0zM584.013 509c2.66699 0 5.33301 0.166992 8 0.5s5.33398 0.5 8.00098 0.5v129c-2.66699 -0.666992 -5.33398 -1 -8.00098 -1h-8
v-129v0zM392.012 448c2.66699 1.33301 5.33398 2.83301 8.00098 4.5s5.33398 3.16699 8.00098 4.5v140c-2.66699 -1.33301 -5.33398 -2.5 -8.00098 -3.5s-5.33398 -2.16699 -8.00098 -3.5v-142v0zM616.012 511c2.66699 0.666992 5.33301 1 8 1h8v128h-8h-8v-129v0z
M520.011 498l8.00098 2c2.66699 0.666992 5.33398 1 8.00098 1v131c-2.66699 -0.666992 -5.33398 -1.16699 -8.00098 -1.5s-5.33398 -0.833008 -8.00098 -1.5v-131v0zM552.012 505c2.66699 0 5.33398 0.166992 8.00098 0.5s5.33398 0.833008 8.00098 1.5v129
c-2.66699 0 -5.33398 -0.166992 -8.00098 -0.5s-5.33398 -0.833008 -8.00098 -1.5v-129v0zM424.012 464l8.00195 4l8 4v136c-2.66699 -0.666992 -5.33398 -1.5 -8.00098 -2.5s-5.33398 -1.83301 -8.00098 -2.5v-139v0zM488.014 489
c2.66699 0.666992 5.33203 1.5 7.99902 2.5s5.33398 1.83301 8.00098 2.5v132l-8 -2l-8 -2v-133v0zM648.012 256c2.66699 0 5.33398 -0.166992 8.00098 -0.5s5.33398 -0.5 8.00098 -0.5v128c-2.66699 0 -5.33398 0.166992 -8.00098 0.5s-5.33398 0.5 -8.00098 0.5v-128v0z
M712.012 246c2.66699 -1.33301 5.33398 -2.33301 8.00098 -3s5.33398 -1.66699 8.00098 -3v134c-2.66699 0.666992 -5.33398 1.16699 -8.00098 1.5s-5.33398 0.833008 -8.00098 1.5v-131v0zM680.012 253c2.66699 -0.666992 5.33398 -1.16699 8.00098 -1.5
s5.33398 -0.833008 8.00098 -1.5v130c-2.66699 0 -5.33398 0.333008 -8.00098 1s-5.33398 1 -8.00098 1v-129v0zM776.012 217c2.66699 -2 5.33398 -3.83301 8.00098 -5.5s5.33398 -3.5 8.00098 -5.5v147c-2.66699 0.666992 -5.33398 1.66699 -8.00098 3
s-5.33398 2.33301 -8.00098 3v-142v0zM744.012 234l8.00195 -4l8 -4v139c-2.66699 0.666992 -5.33398 1.5 -8.00098 2.5s-5.33398 1.83301 -8.00098 2.5v-136v0zM808.014 193c2 -2 4.16699 -4 6.5 -6s4.5 -4 6.5 -6l3 3v153l-8 4l-8 4v-152v0zM904.014 279v-14.999l7 7
c-0.666992 1.33301 -1.66699 2.66602 -3 3.99902l-4 4v0zM872.014 232.001l16.002 16v45c-2.66699 2 -5.33398 4.16699 -8.00098 6.5s-5.33398 4.5 -8.00098 6.5v-74v0zM840.016 200.001l16.002 16v101c-2.66699 2 -5.33398 3.83301 -8.00098 5.5s-5.33398 3.5 -8.00098 5.5
v-128v0zM616.018 255.001c2.66699 0 5.33398 0.166992 8.00098 0.5s5.33398 0.5 8.00098 0.5v128c-2.66699 0 -5.33398 -0.166992 -8.00098 -0.5s-5.33398 -0.5 -8.00098 -0.5v-128v0zM424.018 216.001l16.002 -16v128c-2.66699 -2 -5.33398 -3.83301 -8.00098 -5.5
s-5.33398 -3.5 -8.00098 -5.5v-101v0zM584.02 250.001c2.66699 0.666992 5.33398 1.16699 8.00098 1.5s5.33398 0.833008 8.00098 1.5v129c-2.66699 0 -5.33398 -0.333008 -8.00098 -1s-5.33398 -1 -8.00098 -1v-130v0zM376.02 264.001v14.999l-4 -4
c-1.33301 -1.33301 -2.33301 -2.66602 -3 -3.99902l7 -7v0zM456.02 184l3 -3c2 2 4.16699 4 6.5 6s4.5 4 6.5 6v152l-8 -4l-8 -4v-153v0zM392.02 248l16.002 -16v74c-2.66699 -2 -5.33398 -4.16699 -8.00098 -6.5s-5.33398 -4.5 -8.00098 -6.5v-45v0zM488.021 206
c2.66699 2 5.33398 3.83301 8.00098 5.5s5.33398 3.5 8.00098 5.5v142c-2.66699 -0.666992 -5.33398 -1.66699 -8.00098 -3s-5.33398 -2.33301 -8.00098 -3v-147v0zM552.021 240c2.66699 1.33301 5.33398 2.33301 8.00098 3s5.33398 1.66699 8.00098 3v131
c-2.66699 -0.666992 -5.33398 -1.16699 -8.00098 -1.5s-5.33398 -0.833008 -8.00098 -1.5v-134v0zM520.021 226l8.00195 4l8 4v136c-2.66699 -0.666992 -5.33398 -1.5 -8.00098 -2.5s-5.33398 -1.83301 -8.00098 -2.5v-139v0z" />
    <glyph glyph-name="uniE980" unicode="broadcast" 
d="M1024 448c0 70.667 -13.335 137.167 -40.002 199.5s-63.167 116.666 -109.5 162.999s-100.666 82.833 -162.999 109.5s-128.833 40 -199.5 40s-137.167 -13.333 -199.5 -40s-116.666 -63.167 -162.999 -109.5s-82.833 -100.666 -109.5 -162.999s-40 -128.833 -40 -199.5
c0 -55.333 8.16699 -108 24.5 -158s39.333 -95.833 69 -137.5s65 -78.334 106 -110.001s85.833 -56.5 134.5 -74.5l-14 -32h384l-14 32c48.667 18 93.5 42.833 134.5 74.5s76.333 68.334 106 110.001s52.667 87.5 69 137.5s24.5 102.667 24.5 158v0zM486.998 325
c-11.333 5.33301 -20.668 13.166 -28.001 23.499s-11 22.166 -11 35.499c0 18 6.16699 33.167 18.5 45.5s27.5 18.5 45.5 18.5s33.167 -6.16699 45.5 -18.5s18.5 -27.5 18.5 -45.5c0 -13.333 -3.66699 -25.166 -11 -35.499s-16.666 -18.166 -27.999 -23.499l-25 59l-25 -59
v0zM537.996 323c29.333 6 53.6699 20.667 73.0029 44s29 50.333 29 81c0 35.333 -12.5 65.5 -37.5 90.5s-55.167 37.5 -90.5 37.5s-65.5 -12.5 -90.5 -37.5s-37.5 -55.167 -37.5 -90.5c0 -30.667 9.66699 -57.667 29 -81s43.666 -38 72.999 -44l-75 -174
c-45.333 19.333 -82.5 50.166 -111.5 92.499s-43.5 89.833 -43.5 142.5c0 35.333 6.66699 69.166 20 101.499s31.666 60.833 54.999 85.5s50.5 44.334 81.5 59.001s64.167 22 99.5 22s68.5 -7.33301 99.5 -22s58.167 -34.334 81.5 -59.001s41.666 -53.167 54.999 -85.5
s20 -66.166 20 -101.499c0 -52.667 -14.5 -100.167 -43.5 -142.5s-66.167 -73.166 -111.5 -92.499l-75 174v0zM688 -28l-72.998 173c31.333 10.667 60.333 25.834 87 45.501s49.667 42.667 69 69s34.333 55.5 45 87.5s16 65.667 16 101c0 44 -8.33301 85.5 -25 124.5
s-39.5 73 -68.5 102s-63 51.833 -102 68.5s-80.5 25 -124.5 25s-85.5 -8.33301 -124.5 -25s-73 -39.5 -102 -68.5s-51.833 -63 -68.5 -102s-25 -80.5 -25 -124.5c0 -35.333 5.33301 -69 16 -101s25.667 -61.167 45 -87.5s42.333 -49.333 69 -69s55.667 -34.834 87 -45.501
l-73 -173c-40 17.333 -76.667 39.833 -110 67.5s-62 59.334 -86 95.001s-42.667 74.667 -56 117s-20 86.5 -20 132.5c0 62 11.833 120.833 35.5 176.5s55.667 104.5 96 146.5s87.666 75.333 141.999 100s112.5 37 174.5 37s120.167 -12.333 174.5 -37
s101.666 -58 141.999 -100s72.333 -90.833 96 -146.5s35.5 -114.5 35.5 -176.5c0 -46 -6.66699 -90.167 -20 -132.5s-32 -81.333 -56 -117s-52.667 -67.334 -86 -95.001s-70 -50.167 -110 -67.5v0z" />
    <glyph glyph-name="uniE981" unicode="radio" 
d="M640 640c0 35.333 -12.5 65.5 -37.5 90.5s-55.167 37.5 -90.5 37.5s-65.5 -12.5 -90.5 -37.5s-37.5 -55.167 -37.5 -90.5c0 -22.667 5.5 -43.5 16.5 -62.5s25.167 -34.167 42.5 -45.5l-162 -596h78l18 64h270l18 -64h78l-162 596c17.333 11.333 31.5 26.5 42.5 45.5
s16.5 39.833 16.5 62.5v0zM595 192h-166l18 64h130l18 -64v0zM464 320l48 176l48 -176h-96v0zM394 64l18 64h200l18 -64h-236v0zM664 921c25.333 -13.333 48.333 -29.835 69 -49.502s38.334 -41.5 53.001 -65.5s26 -50 34 -78s12 -57.333 12 -88s-4 -60 -12 -88
s-19.333 -54 -34 -78s-32.334 -45.833 -53.001 -65.5s-43.667 -36.167 -69 -49.5c22 34.667 39.5 76.334 52.5 125.001s19.5 100.667 19.5 156s-6.5 107.333 -19.5 156s-30.5 90.334 -52.5 125.001v0zM856 920.998c25.333 -13.333 48.333 -29.835 69 -49.502
s38.334 -41.5 53.001 -65.5s26 -50 34 -78s12 -57.333 12 -88s-4 -60 -12 -88s-19.333 -54 -34 -78s-32.334 -45.833 -53.001 -65.5s-43.667 -36.167 -69 -49.5c22 34.667 39.5 76.334 52.5 125.001s19.5 100.667 19.5 156s-6.5 107.333 -19.5 156
s-30.5 90.334 -52.5 125.001v0zM360 358.996c-25.333 13.333 -48.333 29.835 -69 49.502s-38.334 41.5 -53.001 65.5s-26 50 -34 78s-12 57.333 -12 88s4 60 12 88s19.333 54 34 78s32.334 45.833 53.001 65.5s43.667 36.167 69 49.5
c-22 -34.667 -39.5 -76.334 -52.5 -125.001s-19.5 -100.667 -19.5 -156s6.5 -107.333 19.5 -156s30.5 -90.334 52.5 -125.001v0zM0 639.998c0 30.667 4 60.002 12 88.002s19.333 54 34 78s32.334 45.833 53.001 65.5s43.667 36.167 69 49.5
c-22 -34.667 -39.5 -76.334 -52.5 -125.001s-19.5 -100.667 -19.5 -156s6.5 -107.333 19.5 -156s30.5 -90.334 52.5 -125.001c-25.333 13.333 -48.333 29.833 -69 49.5s-38.334 41.5 -53.001 65.5s-26 50 -34 78s-12 57.333 -12 88v0z" />
    <glyph glyph-name="uniE982" unicode="radio&#x32;" 
d="M200 234l40.999 90.001c-22 19.333 -42 40.666 -60 63.999s-33.333 48.5 -46 75.5s-22.334 55.333 -29.001 85s-10 60.167 -10 91.5c0 49.333 8.16699 96 24.5 140s38.5 84 66.5 120l-75 60c-18 -22.667 -34 -46.5 -48 -71.5s-25.667 -51 -35 -78
s-16.5 -54.833 -21.5 -83.5s-7.5 -57.667 -7.5 -87c0 -34 3.33301 -67.5 10 -100.5s16.334 -64.833 29.001 -95.5s28.334 -60 47.001 -88s40 -54 64 -78c8 -8 16.167 -15.667 24.5 -23s16.833 -14.333 25.5 -21v0zM782.999 324.001l40.999 -90.001
c8.66699 6.66699 17.167 13.667 25.5 21s16.5 15 24.5 23c24 24 45.333 50 64 78s34.334 57.333 47.001 88s22.334 62.5 29.001 95.5s10 66.5 10 100.5c0 29.333 -2.5 58.333 -7.5 87s-12.167 56.5 -21.5 83.5s-21 53 -35 78s-30 48.833 -48 71.5l-75 -60
c28 -36 50.167 -76 66.5 -120s24.5 -90.667 24.5 -140c0 -31.333 -3.33301 -61.833 -10 -91.5s-16.334 -58 -29.001 -85s-28 -52.167 -46 -75.5s-38 -44.666 -60 -63.999v0zM703.998 497l44.002 -96l0.5 0.5c0.333008 0.333008 0.833008 0.5 1.5 0.5
c30 30.667 53.167 65 69.5 103s25.5 77.167 27.5 117.5s-3 80.166 -15 119.499s-31.333 75.333 -58 108l-75 -60c17.333 -21.333 30.333 -44.5 39 -69.5s13.167 -50.5 13.5 -76.5s-3.33398 -51.667 -11.001 -77s-19.834 -48.666 -36.501 -69.999v0zM274 402
c0.666992 0 1.16895 -0.166992 1.50195 -0.5l0.5 -0.5l44 96c-16.667 21.333 -28.834 44.666 -36.501 69.999s-11.334 51 -11.001 77s4.83301 51.5 13.5 76.5s21.667 48.167 39 69.5l-75 60c-26.667 -32.667 -46 -68.667 -58 -108s-17 -79.166 -15 -119.499
s11.167 -79.5 27.5 -117.5s39.5 -72.333 69.5 -103v0zM640.002 640c0 35.333 -12.5 65.5 -37.5 90.5s-55.167 37.5 -90.5 37.5s-65.5 -12.5 -90.5 -37.5s-37.5 -55.167 -37.5 -90.5c0 -18.667 3.66699 -36.167 11 -52.5s17.333 -30.166 30 -41.499l-277 -610h106l58 128h400
l58 -128h106l-277 610c12.667 11.333 22.667 25.166 30 41.499s11 33.833 11 52.5v0zM512.002 504l84 -184h-168l84 184v0zM683.002 128h-342l58 128h226l58 -128v0z" />
    <glyph glyph-name="uniE983" unicode="antenna" 
d="M716 196c-6.66699 0 -12.832 1.16504 -18.499 3.49805s-10.834 5.83301 -15.501 10.5c-9.33301 9.33301 -14 20.666 -14 33.999s4.66699 24.666 14 33.999c23.333 23.333 40.833 49.833 52.5 79.5s17.5 59.834 17.5 90.501s-5.83301 60.834 -17.5 90.501
s-29.167 56.167 -52.5 79.5s-49.833 40.833 -79.5 52.5s-59.834 17.5 -90.501 17.5s-60.834 -5.83301 -90.501 -17.5s-56.167 -29.167 -79.5 -52.5c-22.667 -22.667 -40 -48.667 -52 -78s-18 -60 -18 -92s6 -62.667 18 -92s29.333 -55.333 52 -78
c9.33301 -9.33301 14 -20.666 14 -33.999s-4.66699 -24.666 -14 -33.999s-20.666 -14 -33.999 -14s-24.666 4.66699 -33.999 14c-31.333 32 -55.5 68.5 -72.5 109.5s-25.5 83.833 -25.5 128.5s8.5 87.5 25.5 128.5s41.167 77.5 72.5 109.5
c33.333 32.667 70.5 57.167 111.5 73.5s83.167 24.5 126.5 24.5s85.5 -8.16699 126.5 -24.5s78.167 -40.833 111.5 -73.5c32.667 -33.333 57.167 -70.5 73.5 -111.5s24.5 -83.167 24.5 -126.5s-8.16699 -85.5 -24.5 -126.5s-40.833 -78.167 -73.5 -111.5
c-4.66699 -4.66699 -10 -8.16699 -16 -10.5s-12 -3.5 -18 -3.5v0v0zM840.002 71.998c-6 0 -12.002 1.16699 -18.002 3.5s-11.333 5.83301 -16 10.5c-9.33301 9.33301 -14 20.666 -14 33.999s4.66699 24.666 14 33.999c40.667 40.667 71.167 86.5 91.5 137.5
s30.5 103.167 30.5 156.5s-10.167 105.5 -30.5 156.5s-50.833 96.833 -91.5 137.5s-86.5 71.167 -137.5 91.5s-103.167 30.5 -156.5 30.5s-105.5 -10.167 -156.5 -30.5s-96.833 -50.833 -137.5 -91.5s-71.167 -86.5 -91.5 -137.5s-30.5 -103.167 -30.5 -156.5
s10.167 -105.5 30.5 -156.5s50.833 -96.833 91.5 -137.5c9.33301 -9.33301 14 -20.666 14 -33.999s-4.66699 -24.666 -14 -33.999s-20.666 -14 -33.999 -14s-24.666 4.66699 -33.999 14c-24 24 -45.333 50 -64 78s-34.334 57.333 -47.001 88s-22.334 62.5 -29.001 95.5
s-10 66.5 -10 100.5s3.33301 67.5 10 100.5s16.334 64.833 29.001 95.5s28.334 60 47.001 88s40 54 64 78s50 45.333 78 64s57.333 34.334 88 47.001s62.5 22.334 95.5 29.001s66.5 10 100.5 10s67.5 -3.33301 100.5 -10s64.833 -16.334 95.5 -29.001s60 -28.334 88 -47.001
s54 -40 78 -64s45.333 -50 64 -78s34.334 -57.333 47.001 -88s22.334 -62.5 29.001 -95.5s10 -66.5 10 -100.5s-3.33301 -67.5 -10 -100.5s-16.334 -64.833 -29.001 -95.5s-28.334 -60 -47.001 -88s-40 -54 -64 -78c-4.66699 -4.66699 -10 -8.16699 -16 -10.5
s-12 -3.5 -18 -3.5v0v0zM608 -0.00195312h-32v337c19.333 11.333 34.833 26.666 46.5 45.999s17.5 41 17.5 65c0 35.333 -12.5 65.5 -37.5 90.5s-55.167 37.5 -90.5 37.5s-65.5 -12.5 -90.5 -37.5s-37.5 -55.167 -37.5 -90.5c0 -24 5.83301 -45.667 17.5 -65
s27.167 -34.666 46.5 -45.999v-337h-32c-8.66699 0 -16.167 -3.16699 -22.5 -9.5s-9.5 -13.833 -9.5 -22.5s3.16699 -16.167 9.5 -22.5s13.833 -9.5 22.5 -9.5h192c8.66699 0 16.167 3.16699 22.5 9.5s9.5 13.833 9.5 22.5s-3.16699 16.167 -9.5 22.5s-13.833 9.5 -22.5 9.5
v0z" />
    <glyph glyph-name="uniE984" unicode="satellite&#x2d;dish" 
d="M1022 920c2 5.33301 2.49707 10.8359 1.49707 16.5029s-3.83301 10.5 -8.5 14.5c-4 4.66699 -8.83301 7.5 -14.5 8.5s-11.167 0.5 -16.5 -1.5v0l-351 -125c-11.333 8 -22.333 15.333 -33 22s-21.334 13 -32.001 19c-36 20 -70.5 35.167 -103.5 45.5
s-63.167 15.5 -90.5 15.5c-22 0 -41.833 -3.33301 -59.5 -10s-33.167 -16.334 -46.5 -29.001c-6 -6 -11.5 -12.833 -16.5 -20.5s-9.16699 -15.834 -12.5 -24.501c-14.667 -32.667 -26.167 -67 -34.5 -103s-12.5 -73.333 -12.5 -112c0 -70 13.333 -135.833 40 -197.5
s63 -115.5 109 -161.5s99.833 -82.333 161.5 -109s127.5 -40 197.5 -40c38.667 0 76 4.16699 112 12.5s70.333 20.166 103 35.499c8.66699 3.33301 16.834 7.33301 24.501 12s14.5 10 20.5 16c24.667 24.667 37.834 57 39.501 97s-8.16602 85.333 -29.499 136
c-8.66699 21.333 -19.167 43 -31.5 65s-26.166 44.333 -41.499 67l125 351v0zM771.997 394.003c-2.66699 -8 -2.33887 -15.667 0.994141 -23s9 -12.333 17 -15c1.33301 -0.666992 2.83301 -1.16699 4.5 -1.5s3.5 -0.5 5.5 -0.5c6 0 11.667 1.83301 17 5.5s9 8.5 11 14.5
l42 117c8.66699 -13.333 16.5 -26.833 23.5 -40.5s13.167 -27.167 18.5 -40.5c13.333 -33.333 21 -62.833 23 -88.5s-2.66699 -43.834 -14 -54.501c-4.66699 -4.66699 -10.667 -8.16699 -18 -10.5s-16.333 -3.5 -27 -3.5c-18.667 0 -40.834 4 -66.501 12s-54 20.5 -85 37.5
s-63.667 38.333 -98 64s-69.166 56.167 -104.499 91.5c-20.667 20.667 -40.167 41.834 -58.5 63.501s-35.166 43.5 -50.499 65.5s-29.166 43.667 -41.499 65s-22.5 42.333 -30.5 63c-14 33.333 -21.833 62.666 -23.5 87.999s2.83301 43.333 13.5 54
c4.66699 4.66699 10.834 8.16699 18.501 10.5s16.5 3.5 26.5 3.5c21.333 0 47.5 -5.33301 78.5 -16s64.833 -27 101.5 -49l-118 -42c-8 -2.66699 -13.667 -7.66699 -17 -15s-3.66602 -15 -0.999023 -23s7.66699 -13.667 15 -17s15 -3.66602 23 -0.999023l421 149l-292 -292
c-6 -6 -9 -13 -9 -21s3 -15 9 -21c2.66699 -3.33301 5.83398 -5.66602 9.50098 -6.99902s7.5 -2 11.5 -2s7.83301 0.666992 11.5 2s6.83398 3.66602 9.50098 6.99902l292 292l-149 -421v0zM575.992 -31.9971v32.001c0 8 -0.5 15.833 -1.5 23.5s-2.5 15.167 -4.5 22.5
c-48 10.667 -94.167 27 -138.5 49s-85.5 49 -123.5 81c-34 -14.667 -61.833 -37.834 -83.5 -69.501s-32.5 -67.167 -32.5 -106.5v-32c0 -8.66699 3.16699 -16.167 9.5 -22.5s13.833 -9.5 22.5 -9.5h320c8.66699 0 16.167 3.16699 22.5 9.5s9.5 13.833 9.5 22.5v0z" />
    <glyph glyph-name="uniE985" unicode="satellite&#x2d;dish&#x32;" 
d="M960 960c-18 0 -33.166 -6.16797 -45.499 -18.501s-18.5 -27.5 -18.5 -45.5c0 -5.33301 0.666992 -10.666 2 -15.999s3.33301 -10.333 6 -15l-352 -252c17.333 -24 36.5 -46.5 57.5 -67.5s43.5 -40.167 67.5 -57.5l252 352c4.66699 -2.66699 9.66699 -4.66699 15 -6
s10.666 -2 15.999 -2c18 0 33.167 6.16699 45.5 18.5s18.5 27.5 18.5 45.5s-6.16699 33.167 -18.5 45.5s-27.5 18.5 -45.5 18.5v0zM862.001 615.999l-39.0039 -54.998c19.333 -26 36.5 -51.667 51.5 -77s27.5 -50 37.5 -74c13.333 -33.333 21 -62.833 23 -88.5
s-2.66699 -43.834 -14 -54.501c-4.66699 -4.66699 -10.667 -8.16699 -18 -10.5s-16.333 -3.5 -27 -3.5c-18.667 0 -40.834 4 -66.501 12s-54 20.5 -85 37.5s-63.667 38.333 -98 64s-69.166 56.167 -104.499 91.5c-20.667 20.667 -40.167 41.834 -58.5 63.501
s-35.166 43.5 -50.499 65.5s-29.166 43.667 -41.499 65s-22.5 42.333 -30.5 63c-14 33.333 -21.833 62.666 -23.5 87.999s2.83301 43.333 13.5 54c4.66699 4.66699 10.834 8.16699 18.501 10.5s16.5 3.5 26.5 3.5c28 0 63.667 -9 107 -27s90.666 -46.333 141.999 -85l55 39
c-18.667 14.667 -37.334 28.334 -56.001 41.001s-37.334 24.334 -56.001 35.001c-36 20 -70.5 35.167 -103.5 45.5s-63.167 15.5 -90.5 15.5c-22 0 -41.833 -3.33301 -59.5 -10s-33.167 -16.334 -46.5 -29.001c-6 -6 -11.5 -12.833 -16.5 -20.5
s-9.16699 -15.834 -12.5 -24.501c-14.667 -32.667 -26.167 -67 -34.5 -103s-12.5 -73.333 -12.5 -112c0 -70 13.333 -135.833 40 -197.5s63 -115.5 109 -161.5s99.833 -82.333 161.5 -109s127.5 -40 197.5 -40c38.667 0 76 4.16699 112 12.5s70.333 20.166 103 35.499
c8.66699 3.33301 16.834 7.33301 24.501 12s14.5 10 20.5 16c24.667 24.667 37.834 57 39.501 97s-8.16602 85.333 -29.499 136c-11.333 29.333 -26.166 59 -44.499 89s-39.5 60 -63.5 90v0zM575.997 -31.999v32.001c0 8 -0.5 15.833 -1.5 23.5s-2.5 15.167 -4.5 22.5
c-48 10.667 -94.167 27 -138.5 49s-85.5 49 -123.5 81c-34 -14.667 -61.833 -37.834 -83.5 -69.501s-32.5 -67.167 -32.5 -106.5v-32c0 -8.66699 3.16699 -16.167 9.5 -22.5s13.833 -9.5 22.5 -9.5h320c8.66699 0 16.167 3.16699 22.5 9.5s9.5 13.833 9.5 22.5v0z" />
    <glyph glyph-name="uniE986" unicode="feed" 
d="M384 448c0 35.333 12.5 65.5 37.5 90.5s55.167 37.5 90.5 37.5s65.5 -12.5 90.5 -37.5s37.5 -55.167 37.5 -90.5s-12.5 -65.5 -37.5 -90.5s-55.167 -37.5 -90.5 -37.5s-65.5 12.5 -90.5 37.5s-37.5 55.167 -37.5 90.5v0zM664 729
c25.333 -13.333 48.333 -29.835 69 -49.502s38.334 -41.5 53.001 -65.5s26 -50 34 -78s12 -57.333 12 -88s-4 -60 -12 -88s-19.333 -54 -34 -78s-32.334 -45.833 -53.001 -65.5s-43.667 -36.167 -69 -49.5c22 34.667 39.5 76.334 52.5 125.001s19.5 100.667 19.5 156
s-6.5 107.333 -19.5 156s-30.5 90.334 -52.5 125.001v0zM288 447.998c0 -55.333 6.5 -107.331 19.5 -155.998s30.5 -90.334 52.5 -125.001c-25.333 13.333 -48.333 29.833 -69 49.5s-38.334 41.5 -53.001 65.5s-26 50 -34 78s-12 57.333 -12 88s4 60 12 88s19.333 54 34 78
s32.334 45.833 53.001 65.5s43.667 36.167 69 49.5c-22 -34.667 -39.5 -76.334 -52.5 -125.001s-19.5 -100.667 -19.5 -156v0zM96 448c0 -42.667 3.33301 -84.3301 10 -124.997s16 -79.334 28 -116.001s26.667 -71 44 -103s37 -61.333 59 -88
c-36 22.667 -68.5 49.5 -97.5 80.5s-53.833 65 -74.5 102s-36.667 76.5 -48 118.5s-17 85.667 -17 131s5.66699 89 17 131s27.333 81.5 48 118.5s45.5 71 74.5 102s61.5 57.833 97.5 80.5c-22 -26.667 -41.667 -56 -59 -88s-32 -66.333 -44 -103
s-21.333 -75.334 -28 -116.001s-10 -82.334 -10 -125.001v0zM787 880.004c36 -22.667 68.5 -49.5039 97.5 -80.5039s53.833 -65 74.5 -102s36.667 -76.5 48 -118.5s17 -85.667 17 -131s-5.66699 -89 -17 -131s-27.333 -81.5 -48 -118.5s-45.5 -71 -74.5 -102
s-61.5 -57.833 -97.5 -80.5c22 26.667 41.667 56 59 88s32 66.333 44 103s21.333 75.334 28 116.001s10 82.334 10 125.001s-3.33301 84.334 -10 125.001s-16 79.334 -28 116.001s-26.667 71 -44 103s-37 61.333 -59 88v0z" />
    <glyph glyph-name="uniE987" unicode="broadcast&#x32;" 
d="M512 960c-70.667 0 -137.169 -13.333 -199.502 -40s-116.666 -63.167 -162.999 -109.5s-82.833 -100.666 -109.5 -162.999s-40 -128.833 -40 -199.5c0 -35.333 3.5 -69.666 10.5 -102.999s17 -65.333 30 -96s28.667 -59.667 47 -87s39.166 -52.666 62.499 -75.999l45 45
c-20 20.667 -38.167 42.834 -54.5 66.501s-30.166 49 -41.499 76s-20 55.167 -26 84.5s-9 59.333 -9 90c0 62 11.667 120.167 35 174.5s55.333 101.833 96 142.5s88.167 72.667 142.5 96s112.5 35 174.5 35s120.167 -11.667 174.5 -35s101.833 -55.333 142.5 -96
s72.667 -88.167 96 -142.5s35 -112.5 35 -174.5c0 -30.667 -3 -60.667 -9 -90s-14.667 -57.5 -26 -84.5s-25.166 -52.333 -41.499 -76s-34.5 -45.834 -54.5 -66.501l45 -45c23.333 23.333 44.166 48.666 62.499 75.999s34 56.333 47 87s23 62.667 30 96
s10.5 67.666 10.5 102.999c0 70.667 -13.333 137.167 -40 199.5s-63.167 116.666 -109.5 162.999s-100.666 82.833 -162.999 109.5s-128.833 40 -199.5 40v0zM511.998 768c-44 0 -85.5 -8.33301 -124.5 -25s-73 -39.5 -102 -68.5s-51.833 -63 -68.5 -102
s-25 -80.5 -25 -124.5s8.33301 -85.5 25 -124.5s39.667 -72.833 69 -101.5l45 45c-23.333 23.333 -41.666 50.5 -54.999 81.5s-20 64.167 -20 99.5s6.66699 68.5 20 99.5s31.666 58.167 54.999 81.5s50.5 41.666 81.5 54.999s64.167 20 99.5 20s68.5 -6.66699 99.5 -20
s58.167 -31.666 81.5 -54.999s41.666 -50.5 54.999 -81.5s20 -64.167 20 -99.5s-6.66699 -68.5 -20 -99.5s-31.666 -58.167 -54.999 -81.5l45 -45c29.333 28.667 52.333 62.5 69 101.5s25 80.5 25 124.5s-8.33301 85.5 -25 124.5s-39.5 73 -68.5 102s-63 51.833 -102 68.5
s-80.5 25 -124.5 25v0v0zM602.998 357c11.333 12 20.333 25.667 27 41s10 32 10 50c0 35.333 -12.5 65.5 -37.5 90.5s-55.167 37.5 -90.5 37.5s-65.5 -12.5 -90.5 -37.5s-37.5 -55.167 -37.5 -90.5c0 -18 3.33301 -34.667 10 -50s15.667 -29 27 -41l46 46
c-6 5.33301 -10.667 12 -14 20s-5 16.333 -5 25c0 18 6.16699 33.167 18.5 45.5s27.5 18.5 45.5 18.5s33.167 -6.16699 45.5 -18.5s18.5 -27.5 18.5 -45.5c0 -8.66699 -1.66699 -17 -5 -25s-8 -14.667 -14 -20l46 -46v0zM487.998 384l-168 -448h384l-168 448h-48v0z" />
    <glyph glyph-name="uniE988" unicode="antenna&#x32;" 
d="M320 -64h384l-128 128v465c19.333 11.333 34.833 26.666 46.5 45.999s17.5 41 17.5 65c0 35.333 -12.5 65.5 -37.5 90.5s-55.167 37.5 -90.5 37.5s-65.5 -12.5 -90.5 -37.5s-37.5 -55.167 -37.5 -90.5c0 -24 5.83301 -45.667 17.5 -65s27.167 -34.666 46.5 -45.999v-465
l-128 -128v0zM712 800c17.333 -22 31 -46.667 41 -74s15 -56 15 -86s-5 -58.667 -15 -86s-23.667 -52 -41 -74l50 -40c22 27.333 39.167 58 51.5 92s18.5 70 18.5 108s-6.16699 74 -18.5 108s-29.5 64.667 -51.5 92l-50 -40v0zM262 840c-22 -27.333 -39.167 -58 -51.5 -92
s-18.5 -70 -18.5 -108s6.16699 -74 18.5 -108s29.5 -64.667 51.5 -92l50 40c-17.333 22 -31 46.667 -41 74s-15 56 -15 86s5 58.667 15 86s23.667 52 41 74l-50 40v0zM112 960c-17.333 -22 -33 -45.3369 -47 -70.0039s-25.833 -50.5 -35.5 -77.5s-17 -55 -22 -84
s-7.5 -58.5 -7.5 -88.5s2.5 -59.5 7.5 -88.5s12.333 -57 22 -84s21.5 -52.833 35.5 -77.5s29.667 -48 47 -70l50 40c-30.667 38.667 -54.667 81.834 -72 129.501s-26 97.834 -26 150.501s8.66699 102.834 26 150.501s41.333 90.834 72 129.501l-50 40v0zM912 959.996
l-50 -39.9961c30.667 -38.667 54.667 -81.834 72 -129.501s26 -97.834 26 -150.501s-8.66699 -102.834 -26 -150.501s-41.333 -90.834 -72 -129.501l50 -40c17.333 22 33 45.333 47 70s25.833 50.5 35.5 77.5s17 55 22 84s7.5 58.5 7.5 88.5s-2.5 59.5 -7.5 88.5
s-12.333 57 -22 84s-21.5 52.833 -35.5 77.5s-29.667 48 -47 70v0z" />
    <glyph glyph-name="uniE989" unicode="microphone" 
d="M480 256c44 0 81.667 15.667 113 47s47 69 47 113v384c0 44 -15.667 81.667 -47 113s-69 47 -113 47s-81.667 -15.667 -113 -47s-47 -69 -47 -113v-384c0 -44 15.667 -81.667 47 -113s69 -47 113 -47v0zM704 512l-0.00195312 -96c0 -30.667 -5.83301 -59.667 -17.5 -87
s-27.667 -51.166 -48 -71.499s-44.166 -36.333 -71.499 -48s-56.333 -17.5 -87 -17.5s-59.667 5.83301 -87 17.5s-51.166 27.667 -71.499 48s-36.333 44.166 -48 71.499s-17.5 56.333 -17.5 87v96h-64v-96c0 -37.333 6.66699 -72.333 20 -105s31.5 -61.834 54.5 -87.501
s50 -46.667 81 -63s64.5 -26.5 100.5 -30.5v-130h-128v-64h320v64h-128v130c36 4 69.5 14.167 100.5 30.5s58 37.333 81 63s41.167 54.834 54.5 87.501s20 67.667 20 105v96h-64v0z" />
    <glyph glyph-name="uniE98A" unicode="microphone&#x32;" 
d="M640 800c0 44 -15.667 81.667 -47 113s-69 47 -113 47s-81.667 -15.667 -113 -47s-47 -69 -47 -113v-344l320 320v24v0zM257 393c0 4 -0.166992 7.83301 -0.5 11.5s-0.5 7.5 -0.5 11.5v96h-64v-96c0 -13.333 0.833008 -26.5 2.5 -39.5s4.5 -25.833 8.5 -38.5l54 55v0z
M704 416c0 -30.667 -5.83398 -59.6709 -17.501 -87.0039s-27.667 -51.166 -48 -71.499s-44.166 -36.333 -71.499 -48s-56.333 -17.5 -87 -17.5c-33.333 0 -64.5 6.83301 -93.5 20.5s-53.5 31.834 -73.5 54.501l45 46c14.667 -17.333 32.5 -31.166 53.5 -41.499
s43.833 -15.5 68.5 -15.5c44 0 81.667 15.667 113 47s47 69 47 113v179l257 256l-46 46l-211 -212l-638 -640l45 -46l220 223c23.333 -25.333 50.333 -46 81 -62s64 -26 100 -30v-130h-128v-64h320v64h-128v130c36 4 69.5 14.167 100.5 30.5s58 37.333 81 63
s41.167 54.834 54.5 87.501s20 67.667 20 105v96h-64v-96v0z" />
    <glyph glyph-name="uniE98B" unicode="microphone&#x33;" 
d="M896 512v9.5v9.5c-0.666992 13.333 -6 24.333 -16 33s-21.667 12.667 -35 12s-24.333 -5.83398 -33 -15.501s-12.667 -21.167 -12 -34.5v-6.5v-7.5c0 -40 -7.5 -77.5 -22.5 -112.5s-35.667 -65.5 -62 -91.5s-56.833 -46.5 -91.5 -61.5s-72 -22.5 -112 -22.5
s-77.333 7.5 -112 22.5s-65.167 35.5 -91.5 61.5s-47 56.5 -62 91.5s-22.5 72.5 -22.5 112.5v7.5v6.5c0.666992 13.333 -3.33301 24.833 -12 34.5s-19.667 14.834 -33 15.501s-25 -3.33301 -35 -12s-15.333 -19.667 -16 -33v-9.5v-9.5c0 -47.333 8.16699 -92.333 24.5 -135
s38.833 -80.834 67.5 -114.501s62.5 -61.667 101.5 -84s81.167 -37.5 126.5 -45.5v-133c0 -18 6.16699 -33.167 18.5 -45.5s27.5 -18.5 45.5 -18.5s33.167 6.16699 45.5 18.5s18.5 27.5 18.5 45.5v133c45.333 8 87.5 23.167 126.5 45.5s72.833 50.333 101.5 84
s51.167 71.834 67.5 114.501s24.5 87.667 24.5 135v0zM512 960c-53.333 0 -98.666 -18.667 -135.999 -56s-56 -82.666 -56 -135.999v-256c0 -53.333 18.667 -98.666 56 -135.999s82.666 -56 135.999 -56s98.666 18.667 135.999 56s56 82.666 56 135.999v256
c0 53.333 -18.667 98.666 -56 135.999s-82.666 56 -135.999 56v0z" />
    <glyph glyph-name="uniE98C" unicode="microphone&#x34;" 
d="M687 847c-15.333 33.333 -38.668 60.499 -70.001 81.499s-66.333 31.5 -105 31.5c-53.333 0 -98.666 -18.667 -135.999 -56s-56 -82.666 -56 -135.999v-256c0 -5.33301 0.166992 -10.333 0.5 -15s0.833008 -9.66699 1.5 -15l365 365v0zM244.998 404.999
c-6.66699 16.667 -11.834 33.999 -15.501 51.999s-5.5 36.333 -5.5 55v7.5v6.5c0.666992 13.333 -3.33301 24.833 -12 34.5s-19.667 14.834 -33 15.501s-25 -3.33301 -35 -12s-15.333 -19.667 -16 -33v-9.5v-9.5c0 -32.667 3.83301 -64 11.5 -94s18.834 -58.333 33.501 -85
l72 72v0zM844.998 575.998c-13.333 -0.666992 -24.333 -5.83203 -33 -15.499s-12.667 -21.167 -12 -34.5v-6.5v-7.5c0 -40 -7.5 -77.5 -22.5 -112.5s-35.667 -65.5 -62 -91.5s-56.833 -46.5 -91.5 -61.5s-72 -22.5 -112 -22.5c-27.333 0 -53.666 3.66699 -78.999 11
s-49 17.666 -71 30.999l71 71c12 -5.33301 24.667 -9.5 38 -12.5s27 -4.5 41 -4.5c53.333 0 98.666 18.667 135.999 56s56 82.666 56 135.999v96l288 288l-64 64l-928 -928l64 -64l229 229c22.667 -16 47 -29.5 73 -40.5s53.333 -18.833 82 -23.5v-133
c0 -18 6.16699 -33.167 18.5 -45.5s27.5 -18.5 45.5 -18.5s33.167 6.16699 45.5 18.5s18.5 27.5 18.5 45.5v133c45.333 8 87.5 23.167 126.5 45.5s72.833 50.333 101.5 84s51.167 71.834 67.5 114.501s24.5 87.667 24.5 135v9.5v9.5c-0.666992 13.333 -6 24.333 -16 33
s-21.667 12.667 -35 12v0z" />
    <glyph glyph-name="uniE98D" unicode="microphone&#x35;" 
d="M896 512v9.5v9.5c-0.666992 13.333 -6 24.333 -16 33s-21.667 12.667 -35 12s-24.333 -5.83398 -33 -15.501s-12.667 -21.167 -12 -34.5v-6.5v-7.5c0 -40 -7.5 -77.5 -22.5 -112.5s-35.667 -65.5 -62 -91.5s-56.833 -46.5 -91.5 -61.5s-72 -22.5 -112 -22.5
s-77.333 7.5 -112 22.5s-65.167 35.5 -91.5 61.5s-47 56.5 -62 91.5s-22.5 72.5 -22.5 112.5v7.5v6.5c0.666992 13.333 -3.33301 24.833 -12 34.5s-19.667 14.834 -33 15.501s-25 -3.33301 -35 -12s-15.333 -19.667 -16 -33v-9.5v-9.5c0 -47.333 8.16699 -92.333 24.5 -135
s38.833 -80.834 67.5 -114.501s62.5 -61.667 101.5 -84s81.167 -37.5 126.5 -45.5v-133c0 -18 6.16699 -33.167 18.5 -45.5s27.5 -18.5 45.5 -18.5s33.167 6.16699 45.5 18.5s18.5 27.5 18.5 45.5v133c45.333 8 87.5 23.167 126.5 45.5s72.833 50.333 101.5 84
s51.167 71.834 67.5 114.501s24.5 87.667 24.5 135v0zM512 864c26.667 0 49.334 -9.33301 68.001 -28s28 -41.334 28 -68.001v-256c0 -26.667 -9.33301 -49.334 -28 -68.001s-41.334 -28 -68.001 -28s-49.334 9.33301 -68.001 28s-28 41.334 -28 68.001v256
c0 26.667 9.33301 49.334 28 68.001s41.334 28 68.001 28v0zM512 960c-53.333 0 -98.666 -18.667 -135.999 -56s-56 -82.666 -56 -135.999v-256c0 -53.333 18.667 -98.666 56 -135.999s82.666 -56 135.999 -56s98.666 18.667 135.999 56s56 82.666 56 135.999v256
c0 53.333 -18.667 98.666 -56 135.999s-82.666 56 -135.999 56v0v0z" />
    <glyph glyph-name="uniE98E" unicode="microphone&#x36;" 
d="M256 384c0 -35.333 12.5 -65.5 37.5 -90.5s55.167 -37.5 90.5 -37.5h256c35.333 0 65.5 12.5 90.5 37.5s37.5 55.167 37.5 90.5v192h-512v-192v0zM928 640h-127.996c-8.66699 0 -16.167 -3.16699 -22.5 -9.5s-9.5 -13.833 -9.5 -22.5s3.16699 -16.167 9.5 -22.5
s13.833 -9.5 22.5 -9.5h32v-192c0 -52.667 -18.833 -97.834 -56.5 -135.501s-82.834 -56.5 -135.501 -56.5h-256c-52.667 0 -97.834 18.833 -135.501 56.5s-56.5 82.834 -56.5 135.501v192h32c8.66699 0 16.167 3.16699 22.5 9.5s9.5 13.833 9.5 22.5
s-3.16699 16.167 -9.5 22.5s-13.833 9.5 -22.5 9.5h-128c-8.66699 0 -16.167 -3.16699 -22.5 -9.5s-9.5 -13.833 -9.5 -22.5s3.16699 -16.167 9.5 -22.5s13.833 -9.5 22.5 -9.5h32v-192c0 -35.333 6.66699 -68.5 20 -99.5s31.666 -58.167 54.999 -81.5
s50.5 -41.666 81.5 -54.999s64.167 -20 99.5 -20h64v-128h-96c-8.66699 0 -16.167 -3.16699 -22.5 -9.5s-9.5 -13.833 -9.5 -22.5s3.16699 -16.167 9.5 -22.5s13.833 -9.5 22.5 -9.5h320c8.66699 0 16.167 3.16699 22.5 9.5s9.5 13.833 9.5 22.5s-3.16699 16.167 -9.5 22.5
s-13.833 9.5 -22.5 9.5h-96v128h64c35.333 0 68.5 6.66699 99.5 20s58.167 31.666 81.5 54.999s41.666 50.5 54.999 81.5s20 64.167 20 99.5v192h32c8.66699 0 16.167 3.16699 22.5 9.5s9.5 13.833 9.5 22.5s-3.16699 16.167 -9.5 22.5s-13.833 9.5 -22.5 9.5v0z
M640.004 960h-256c-35.333 0 -65.5 -12.5 -90.5 -37.5s-37.5 -55.167 -37.5 -90.5v-192h512v192c0 35.333 -12.5 65.5 -37.5 90.5s-55.167 37.5 -90.5 37.5v0zM352.004 720c-4.66699 0 -8.5 1.5 -11.5 4.5s-4.5 6.83301 -4.5 11.5s1.5 8.5 4.5 11.5s6.83301 4.5 11.5 4.5
s8.5 -1.5 11.5 -4.5s4.5 -6.83301 4.5 -11.5s-1.5 -8.5 -4.5 -11.5s-6.83301 -4.5 -11.5 -4.5v0zM352.004 784c-4.66699 0 -8.5 1.5 -11.5 4.5s-4.5 6.83301 -4.5 11.5s1.5 8.5 4.5 11.5s6.83301 4.5 11.5 4.5s8.5 -1.5 11.5 -4.5s4.5 -6.83301 4.5 -11.5
s-1.5 -8.5 -4.5 -11.5s-6.83301 -4.5 -11.5 -4.5v0zM352.004 848c-4.66699 0 -8.5 1.5 -11.5 4.5s-4.5 6.83301 -4.5 11.5s1.5 8.5 4.5 11.5s6.83301 4.5 11.5 4.5s8.5 -1.5 11.5 -4.5s4.5 -6.83301 4.5 -11.5s-1.5 -8.5 -4.5 -11.5s-6.83301 -4.5 -11.5 -4.5v0z
M416.004 720c-4.66699 0 -8.5 1.5 -11.5 4.5s-4.5 6.83301 -4.5 11.5s1.5 8.5 4.5 11.5s6.83301 4.5 11.5 4.5s8.5 -1.5 11.5 -4.5s4.5 -6.83301 4.5 -11.5s-1.5 -8.5 -4.5 -11.5s-6.83301 -4.5 -11.5 -4.5v0zM416.004 784c-4.66699 0 -8.5 1.5 -11.5 4.5
s-4.5 6.83301 -4.5 11.5s1.5 8.5 4.5 11.5s6.83301 4.5 11.5 4.5s8.5 -1.5 11.5 -4.5s4.5 -6.83301 4.5 -11.5s-1.5 -8.5 -4.5 -11.5s-6.83301 -4.5 -11.5 -4.5v0zM416.004 848c-4.66699 0 -8.5 1.5 -11.5 4.5s-4.5 6.83301 -4.5 11.5s1.5 8.5 4.5 11.5
s6.83301 4.5 11.5 4.5s8.5 -1.5 11.5 -4.5s4.5 -6.83301 4.5 -11.5s-1.5 -8.5 -4.5 -11.5s-6.83301 -4.5 -11.5 -4.5v0zM480.004 720c-4.66699 0 -8.5 1.5 -11.5 4.5s-4.5 6.83301 -4.5 11.5s1.5 8.5 4.5 11.5s6.83301 4.5 11.5 4.5s8.5 -1.5 11.5 -4.5
s4.5 -6.83301 4.5 -11.5s-1.5 -8.5 -4.5 -11.5s-6.83301 -4.5 -11.5 -4.5v0zM480.004 784c-4.66699 0 -8.5 1.5 -11.5 4.5s-4.5 6.83301 -4.5 11.5s1.5 8.5 4.5 11.5s6.83301 4.5 11.5 4.5s8.5 -1.5 11.5 -4.5s4.5 -6.83301 4.5 -11.5s-1.5 -8.5 -4.5 -11.5
s-6.83301 -4.5 -11.5 -4.5v0zM480.004 848c-4.66699 0 -8.5 1.5 -11.5 4.5s-4.5 6.83301 -4.5 11.5s1.5 8.5 4.5 11.5s6.83301 4.5 11.5 4.5s8.5 -1.5 11.5 -4.5s4.5 -6.83301 4.5 -11.5s-1.5 -8.5 -4.5 -11.5s-6.83301 -4.5 -11.5 -4.5v0zM544.004 720
c-4.66699 0 -8.5 1.5 -11.5 4.5s-4.5 6.83301 -4.5 11.5s1.5 8.5 4.5 11.5s6.83301 4.5 11.5 4.5s8.5 -1.5 11.5 -4.5s4.5 -6.83301 4.5 -11.5s-1.5 -8.5 -4.5 -11.5s-6.83301 -4.5 -11.5 -4.5v0zM544.004 784c-4.66699 0 -8.5 1.5 -11.5 4.5s-4.5 6.83301 -4.5 11.5
s1.5 8.5 4.5 11.5s6.83301 4.5 11.5 4.5s8.5 -1.5 11.5 -4.5s4.5 -6.83301 4.5 -11.5s-1.5 -8.5 -4.5 -11.5s-6.83301 -4.5 -11.5 -4.5v0zM544.004 848c-4.66699 0 -8.5 1.5 -11.5 4.5s-4.5 6.83301 -4.5 11.5s1.5 8.5 4.5 11.5s6.83301 4.5 11.5 4.5s8.5 -1.5 11.5 -4.5
s4.5 -6.83301 4.5 -11.5s-1.5 -8.5 -4.5 -11.5s-6.83301 -4.5 -11.5 -4.5v0zM608.004 720c-4.66699 0 -8.5 1.5 -11.5 4.5s-4.5 6.83301 -4.5 11.5s1.5 8.5 4.5 11.5s6.83301 4.5 11.5 4.5s8.5 -1.5 11.5 -4.5s4.5 -6.83301 4.5 -11.5s-1.5 -8.5 -4.5 -11.5
s-6.83301 -4.5 -11.5 -4.5v0zM608.004 784c-4.66699 0 -8.5 1.5 -11.5 4.5s-4.5 6.83301 -4.5 11.5s1.5 8.5 4.5 11.5s6.83301 4.5 11.5 4.5s8.5 -1.5 11.5 -4.5s4.5 -6.83301 4.5 -11.5s-1.5 -8.5 -4.5 -11.5s-6.83301 -4.5 -11.5 -4.5v0zM608.004 848
c-4.66699 0 -8.5 1.5 -11.5 4.5s-4.5 6.83301 -4.5 11.5s1.5 8.5 4.5 11.5s6.83301 4.5 11.5 4.5s8.5 -1.5 11.5 -4.5s4.5 -6.83301 4.5 -11.5s-1.5 -8.5 -4.5 -11.5s-6.83301 -4.5 -11.5 -4.5v0zM672.004 720c-4.66699 0 -8.5 1.5 -11.5 4.5s-4.5 6.83301 -4.5 11.5
s1.5 8.5 4.5 11.5s6.83301 4.5 11.5 4.5s8.5 -1.5 11.5 -4.5s4.5 -6.83301 4.5 -11.5s-1.5 -8.5 -4.5 -11.5s-6.83301 -4.5 -11.5 -4.5v0zM672.004 784c-4.66699 0 -8.5 1.5 -11.5 4.5s-4.5 6.83301 -4.5 11.5s1.5 8.5 4.5 11.5s6.83301 4.5 11.5 4.5s8.5 -1.5 11.5 -4.5
s4.5 -6.83301 4.5 -11.5s-1.5 -8.5 -4.5 -11.5s-6.83301 -4.5 -11.5 -4.5v0zM672.004 848c-4.66699 0 -8.5 1.5 -11.5 4.5s-4.5 6.83301 -4.5 11.5s1.5 8.5 4.5 11.5s6.83301 4.5 11.5 4.5s8.5 -1.5 11.5 -4.5s4.5 -6.83301 4.5 -11.5s-1.5 -8.5 -4.5 -11.5
s-6.83301 -4.5 -11.5 -4.5v0z" />
    <glyph glyph-name="uniE98F" unicode="microphone&#x37;" 
d="M458 624l-458.001 -559.999c0 -32 13.333 -61.333 40 -88s56 -40 88 -40l560 458c-28 7.33301 -54.333 18.166 -79 32.499s-47 31.5 -67 51.5s-37.167 42.333 -51.5 67s-25.166 51 -32.499 79v0zM582.999 881.001c-22 -23.333 -39.3301 -50.1689 -51.9971 -80.502
s-19 -62.5 -19 -96.5c0 -35.333 6.66699 -68.5 20 -99.5s31.666 -58.167 54.999 -81.5s50.5 -41.666 81.5 -54.999s64.167 -20 99.5 -20c34 0 66.167 6.33301 96.5 19s57.166 30 80.499 52c-46 8 -89.167 22.833 -129.5 44.5s-76.333 48.334 -108 80.001
s-58.334 67.667 -80.001 108s-36.5 83.5 -44.5 129.5v0zM768.002 959.998c-23.333 0 -45.6699 -2.8291 -67.0029 -8.49609s-41.333 -13.834 -60 -24.501c4 -46.667 15.833 -90.334 35.5 -131.001s45 -76.5 76 -107.5s66.833 -56.333 107.5 -76s84.334 -31.5 131.001 -35.5
c10.667 18.667 18.834 38.667 24.501 60s8.5 43.666 8.5 66.999c0 35.333 -6.66699 68.5 -20 99.5s-31.666 58.167 -54.999 81.5s-50.5 41.666 -81.5 54.999s-64.167 20 -99.5 20v0zM863.998 896.002c8.66699 0 16.167 -3.16699 22.5 -9.5s9.5 -13.833 9.5 -22.5
s-3.16699 -16.167 -9.5 -22.5s-13.833 -9.5 -22.5 -9.5s-16.167 3.16699 -22.5 9.5s-9.5 13.833 -9.5 22.5s3.16699 16.167 9.5 22.5s13.833 9.5 22.5 9.5v0zM735.998 832.002c-8.66699 0 -16.167 3.16699 -22.5 9.5s-9.5 13.833 -9.5 22.5s3.16699 16.167 9.5 22.5
s13.833 9.5 22.5 9.5s16.167 -3.16699 22.5 -9.5s9.5 -13.833 9.5 -22.5s-3.16699 -16.167 -9.5 -22.5s-13.833 -9.5 -22.5 -9.5v0zM799.998 768.002c-8.66699 0 -16.167 3.16699 -22.5 9.5s-9.5 13.833 -9.5 22.5s3.16699 16.167 9.5 22.5s13.833 9.5 22.5 9.5
s16.167 -3.16699 22.5 -9.5s9.5 -13.833 9.5 -22.5s-3.16699 -16.167 -9.5 -22.5s-13.833 -9.5 -22.5 -9.5v0zM863.998 704.002c-8.66699 0 -16.167 3.16699 -22.5 9.5s-9.5 13.833 -9.5 22.5s3.16699 16.167 9.5 22.5s13.833 9.5 22.5 9.5s16.167 -3.16699 22.5 -9.5
s9.5 -13.833 9.5 -22.5s-3.16699 -16.167 -9.5 -22.5s-13.833 -9.5 -22.5 -9.5v0zM927.998 640.002c-8.66699 0 -16.167 3.16699 -22.5 9.5s-9.5 13.833 -9.5 22.5s3.16699 16.167 9.5 22.5s13.833 9.5 22.5 9.5s16.167 -3.16699 22.5 -9.5s9.5 -13.833 9.5 -22.5
s-3.16699 -16.167 -9.5 -22.5s-13.833 -9.5 -22.5 -9.5v0zM927.998 768.002c-8.66699 0 -16.167 3.16699 -22.5 9.5s-9.5 13.833 -9.5 22.5s3.16699 16.167 9.5 22.5s13.833 9.5 22.5 9.5s16.167 -3.16699 22.5 -9.5s9.5 -13.833 9.5 -22.5s-3.16699 -16.167 -9.5 -22.5
s-13.833 -9.5 -22.5 -9.5v0z" />
    <glyph glyph-name="uniE990" unicode="book" 
d="M1017 729c-25.333 32 -60.333 57.167 -105 75.5s-92.667 27.5 -144 27.5s-99.333 -9.16699 -144 -27.5s-79.667 -43.5 -105 -75.5c-2 -2.66699 -3.66699 -5.66699 -5 -9s-2 -7 -2 -11c0 4 -0.666992 7.66699 -2 11s-3 6.33301 -5 9c-25.333 32 -60.333 57.167 -105 75.5
s-92.667 27.5 -144 27.5s-99.333 -9.16699 -144 -27.5s-79.667 -43.5 -105 -75.5c-2 -2.66699 -3.66699 -5.66699 -5 -9s-2 -7 -2 -11v-640c0 -6.66699 2 -12.834 6 -18.501s9 -9.5 15 -11.5c6.66699 -2 13.334 -2.16699 20.001 -0.5s12 5.16699 16 10.5
c19.333 24.667 46.833 44 82.5 58s74.5 21 116.5 21s80.833 -7 116.5 -21s63.167 -33.333 82.5 -58c3.33301 -4 7.16602 -7 11.499 -9s8.83301 -3 13.5 -3h64c4.66699 0 9.16699 1 13.5 3s8.16602 5 11.499 9c19.333 24.667 46.833 44 82.5 58s74.5 21 116.5 21
s80.833 -7 116.5 -21s63.167 -33.333 82.5 -58c4 -5.33301 9.33301 -8.83301 16 -10.5s13.334 -1.5 20.001 0.5c6 2 11 5.83301 15 11.5s6 11.834 6 18.501v640c0 4 -0.666992 7.66699 -2 11s-3 6.33301 -5 9v0zM448 139c-26 16.667 -55.5 29.667 -88.5 39
s-67.5 14 -103.5 14s-70.5 -4.66699 -103.5 -14s-62.5 -22.333 -88.5 -39v558c20.667 22 48 39.333 82 52s70.667 19 110 19s76 -6.33301 110 -19s61.333 -30 82 -52v-558v0zM960 139c-26 16.667 -55.5 29.667 -88.5 39s-67.5 14 -103.5 14s-70.5 -4.66699 -103.5 -14
s-62.5 -22.333 -88.5 -39v558c20.667 22 48 39.333 82 52s70.667 19 110 19s76 -6.33301 110 -19s61.333 -30 82 -52v-558v0zM640 640h256v-64h-256v64v0zM640 512h256v-64h-256v64v0zM640 384h192v-64h-192v64v0zM128 640h256v-64h-256v64v0zM128 512h256v-64h-256v64v0z
M128 384h192v-64h-192v64v0z" />
    <glyph glyph-name="uniE991" unicode="book&#x32;" 
d="M1017 729c-25.333 32 -60.333 57.167 -105 75.5s-92.667 27.5 -144 27.5s-99.333 -9.16699 -144 -27.5s-79.667 -43.5 -105 -75.5c-2 -2.66699 -3.66699 -5.66699 -5 -9s-2 -7 -2 -11c0 4 -0.666992 7.66699 -2 11s-3 6.33301 -5 9c-25.333 32 -60.333 57.167 -105 75.5
s-92.667 27.5 -144 27.5s-99.333 -9.16699 -144 -27.5s-79.667 -43.5 -105 -75.5c-2 -2.66699 -3.66699 -5.66699 -5 -9s-2 -7 -2 -11v-640c0 -6.66699 2 -12.834 6 -18.501s9 -9.5 15 -11.5c6.66699 -2 13.334 -2.16699 20.001 -0.5s12 5.16699 16 10.5
c19.333 24.667 46.833 44 82.5 58s74.5 21 116.5 21s80.833 -7 116.5 -21s63.167 -33.333 82.5 -58c3.33301 -4 7.16602 -7 11.499 -9s8.83301 -3 13.5 -3h64c4.66699 0 9.16699 1 13.5 3s8.16602 5 11.499 9c19.333 24.667 46.833 44 82.5 58s74.5 21 116.5 21
s80.833 -7 116.5 -21s63.167 -33.333 82.5 -58c4 -5.33301 9.33301 -8.83301 16 -10.5s13.334 -1.5 20.001 0.5c6 2 11 5.83301 15 11.5s6 11.834 6 18.501v640c0 4 -0.666992 7.66699 -2 11s-3 6.33301 -5 9v0zM448 139c-26 16.667 -55.5 29.667 -88.5 39
s-67.5 14 -103.5 14s-70.5 -4.66699 -103.5 -14s-62.5 -22.333 -88.5 -39v558c20.667 22 48 39.333 82 52s70.667 19 110 19s76 -6.33301 110 -19s61.333 -30 82 -52v-558v0zM960 139c-26 16.667 -55.5 29.667 -88.5 39s-67.5 14 -103.5 14s-70.5 -4.66699 -103.5 -14
s-62.5 -22.333 -88.5 -39v558c20.667 22 48 39.333 82 52s70.667 19 110 19s76 -6.33301 110 -19s61.333 -30 82 -52v-558v0z" />
    <glyph glyph-name="uniE992" unicode="book&#x2d;play" 
d="M384 608l320 -192l-320 -192v384v0zM512 -15c-4.66699 0 -9.16504 1.16699 -13.498 3.5s-8.16602 5.16602 -11.499 8.49902c-18.667 23.333 -51 45.666 -97 66.999s-90.667 32 -134 32c-42 0 -80.833 -7 -116.5 -21s-63.167 -33.333 -82.5 -58
c-4 -5.33301 -9.33301 -8.83301 -16 -10.5s-13.334 -1.5 -20.001 0.5c-6 2 -11 5.83301 -15 11.5s-6 11.834 -6 18.501v672c0 4 0.666992 7.66699 2 11s3 6.33301 5 9c25.333 32 60.333 57.167 105 75.5s92.667 27.5 144 27.5c46.667 0 93.667 -9.83301 141 -29.5
s85.666 -42.167 114.999 -67.5c29.333 25.333 67.666 47.833 114.999 67.5s94.333 29.5 141 29.5c51.333 0 99.333 -9.16699 144 -27.5s79.667 -43.5 105 -75.5c2 -2.66699 3.66699 -5.66699 5 -9s2 -7 2 -11v-672c0 -6.66699 -2 -12.834 -6 -18.501s-9 -9.5 -15 -11.5
c-6.66699 -2 -13.334 -2.16699 -20.001 -0.5s-12 5.16699 -16 10.5c-19.333 24.667 -46.833 44 -82.5 58s-74.5 21 -116.5 21c-43.333 0 -88 -10.667 -134 -32s-78.333 -43.666 -97 -66.999c-3.33301 -3.33301 -7.16602 -6.16602 -11.499 -8.49902s-8.83301 -3.5 -13.5 -3.5
v0zM256.002 160c46.667 0 93.667 -9.83301 141 -29.5s85.666 -42.167 114.999 -67.5c29.333 25.333 67.666 47.833 114.999 67.5s94.333 29.5 141 29.5c36 0 70.5 -4.66699 103.5 -14s62.5 -22.333 88.5 -39v590c-20.667 22 -48 39.333 -82 52s-70.667 19 -110 19
c-43.333 0 -88 -10.667 -134 -32s-78.333 -43.666 -97 -66.999c-3.33301 -3.33301 -7.16602 -6.16602 -11.499 -8.49902s-8.83301 -3.5 -13.5 -3.5s-9.16699 1.16699 -13.5 3.5s-8.16602 5.16602 -11.499 8.49902c-18.667 23.333 -51 45.666 -97 66.999s-90.667 32 -134 32
c-39.333 0 -76 -6.33301 -110 -19s-61.333 -30 -82 -52v-590c26 16.667 55.5 29.667 88.5 39s67.5 14 103.5 14v0z" />
    <glyph glyph-name="uniE993" unicode="book&#x34;" 
d="M896 832v-832.002h-672c-26.667 0 -49.334 9.33301 -68.001 28s-28 41.334 -28 68.001s9.33301 49.334 28 68.001s41.334 28 68.001 28h608v768h-640c-35.333 0 -65.5 -12.5 -90.5 -37.5s-37.5 -55.167 -37.5 -90.5v-768c0 -35.333 12.5 -65.5 37.5 -90.5
s55.167 -37.5 90.5 -37.5h768v896h-64v0zM224 127.998v0v0c-8.66699 0 -16.167 -3.16699 -22.5 -9.5s-9.5 -13.833 -9.5 -22.5s3.16699 -16.167 9.5 -22.5s13.833 -9.5 22.5 -9.5v0v0v0h608v64h-608v0z" />
    <glyph glyph-name="uniE994" unicode="bookmark" 
d="M896 832v-832.002h-672c-26.667 0 -49.334 9.33301 -68.001 28s-28 41.334 -28 68.001s9.33301 49.334 28 68.001s41.334 28 68.001 28h608v768h-640c-35.333 0 -65.5 -12.5 -90.5 -37.5s-37.5 -55.167 -37.5 -90.5v-768c0 -35.333 12.5 -65.5 37.5 -90.5
s55.167 -37.5 90.5 -37.5h768v896h-64v0zM320 927.998h320v-448l-160 160l-160 -160v448v0zM224 127.998v0v0c-8.66699 0 -16.167 -3.16699 -22.5 -9.5s-9.5 -13.833 -9.5 -22.5s3.16699 -16.167 9.5 -22.5s13.833 -9.5 22.5 -9.5v0v0v0h608v64h-608v0z" />
    <glyph glyph-name="uniE995" unicode="books" horiz-adv-x="1152" 
d="M224 832h-192c-8.66699 0 -16.167 -3.16699 -22.5 -9.5s-9.5 -13.833 -9.5 -22.5v-704c0 -8.66699 3.16699 -16.167 9.5 -22.5s13.833 -9.5 22.5 -9.5h192c8.66699 0 16.167 3.16699 22.5 9.5s9.5 13.833 9.5 22.5v704c0 8.66699 -3.16699 16.167 -9.5 22.5
s-13.833 9.5 -22.5 9.5v0zM192 640h-128v64h128v-64v0zM544 832h-192c-8.66699 0 -16.167 -3.16699 -22.5 -9.5s-9.5 -13.833 -9.5 -22.5v-704c0 -8.66699 3.16699 -16.167 9.5 -22.5s13.833 -9.5 22.5 -9.5h192c8.66699 0 16.167 3.16699 22.5 9.5s9.5 13.833 9.5 22.5v704
c0 8.66699 -3.16699 16.167 -9.5 22.5s-13.833 9.5 -22.5 9.5v0zM512 640h-128v64h128v-64v0zM765 783l-170.999 -87.001c-8 -4 -13.333 -10.167 -16 -18.5s-2.33398 -16.5 0.999023 -24.5l288 -571c4 -8 10.333 -13.5 19 -16.5s16.667 -2.5 24 1.5l172 87
c8 4 13.333 10.167 16 18.5s2 16.5 -2 24.5l-288 571c-4 8 -10.167 13.333 -18.5 16s-16.5 2.33398 -24.5 -0.999023v0z" />
    <glyph glyph-name="uniE996" unicode="archive" horiz-adv-x="1088" 
d="M256 896h-192c-17.333 0 -32.333 -6.33301 -45 -19s-19 -27.667 -19 -45v-768c-0 -17.333 6.33301 -32.333 19 -45s27.667 -19 45 -19h192c17.333 -0 32.333 6.33301 45 19s19 27.667 19 45v768c0 17.333 -6.33301 32.333 -19 45s-27.667 19 -45 19v0zM192 152
c0 -6.66699 -2.33301 -12.334 -7 -17.001s-10.334 -7 -17.001 -7h-16c-6.66699 0 -12.334 2.33301 -17.001 7s-7 10.334 -7 17.001v16c0 6.66699 2.33301 12.334 7 17.001s10.334 7 17.001 7h16c6.66699 0 12.334 -2.33301 17.001 -7s7 -10.334 7 -17.001v-16v0zM256 320
h-192v320h192v-320v0zM256 704h-192v64h192v-64v0zM640 896h-192c-17.333 0 -32.333 -6.33301 -45 -19s-19 -27.667 -19 -45v-768c0 -17.333 6.33301 -32.333 19 -45s27.667 -19 45 -19h192c17.333 -0 32.333 6.33301 45 19s19 27.667 19 45v768
c0 17.333 -6.33301 32.333 -19 45s-27.667 19 -45 19v0zM576 152c0 -6.66699 -2.33301 -12.334 -7 -17.001s-10.334 -7 -17.001 -7h-16c-6.66699 0 -12.334 2.33301 -17.001 7s-7 10.334 -7 17.001v16c0 6.66699 2.33301 12.334 7 17.001s10.334 7 17.001 7h16
c6.66699 0 12.334 -2.33301 17.001 -7s7 -10.334 7 -17.001v-16v0zM640 320h-192v320h192v-320v0zM640 704h-192v64h192v-64v0zM1024 896h-192c-17.333 0 -32.333 -6.33301 -45 -19s-19 -27.667 -19 -45v-768c0 -17.333 6.33301 -32.333 19 -45s27.667 -19 45 -19h192
c17.333 -0 32.333 6.33301 45 19s19 27.667 19 45v768c0 17.333 -6.33301 32.333 -19 45s-27.667 19 -45 19v0zM960 152c0 -6.66699 -2.33301 -12.334 -7 -17.001s-10.334 -7 -17.001 -7h-16c-6.66699 0 -12.334 2.33301 -17.001 7s-7 10.334 -7 17.001v16
c0 6.66699 2.33301 12.334 7 17.001s10.334 7 17.001 7h16c6.66699 0 12.334 -2.33301 17.001 -7s7 -10.334 7 -17.001v-16v0zM1024 320h-192v320h192v-320v0zM1024 704h-192v64h192v-64v0z" />
    <glyph glyph-name="uniE997" unicode="library&#x32;" 
d="M352 800c0 44 15.667 81.667 47 113s69 47 113 47s81.667 -15.667 113 -47s47 -69 47 -113s-15.667 -81.667 -47 -113s-69 -47 -113 -47s-81.667 15.667 -113 47s-47 69 -47 113v0zM1010 232l-255.998 320c-6 8 -13.5 14 -22.5 18s-18.167 6 -27.5 6v0h-384
c-9.33301 0 -18.5 -2 -27.5 -6s-16.5 -10 -22.5 -18l-256 -320c-8.66699 -10.667 -13.334 -22.667 -14.001 -36s2.33301 -25.666 9 -36.999c6 -10 13.833 -17.667 23.5 -23s20.167 -8 31.5 -8c2 0 4 0.166992 6 0.5s4.33301 0.5 7 0.5l179 36v-229h512v229l179 -36
c2.66699 0 5 -0.166992 7 -0.5s4 -0.5 6 -0.5c11.333 0 21.833 2.66699 31.5 8s17.5 13 23.5 23c6.66699 11.333 9.66699 23.666 9 36.999s-5.33398 25.333 -14.001 36v0zM704.002 308l-51.002 11c-17.333 3.33301 -33.5 0.166016 -48.5 -9.50098
s-24.167 -23.167 -27.5 -40.5s-0.166016 -33.5 9.50098 -48.5s23.167 -24.167 40.5 -27.5l77 -15v-50l-192 -64l-192 64v50l77 15c17.333 3.33301 30.833 12.5 40.5 27.5s12.834 31.167 9.50098 48.5s-12.5 30.833 -27.5 40.5s-31.167 12.834 -48.5 9.50098l-51 -11v140
l192 -64l192 64v-140v0z" />
    <glyph glyph-name="uniE998" unicode="bank" horiz-adv-x="1088" 
d="M1024 0v64h-64v384h64v64h-192v-64h64v-384h-192v384h64v64h-192v-64h64v-384h-192v384h64v64h-192v-64h64v-384h-192v384h64v64h-192v-64h64v-384h-64v-64h-64v-64h1088v64h-64v0zM512 960h64l512 -320v-64h-1088v64l512 320v0z" />
    <glyph glyph-name="uniE999" unicode="bank&#x32;" 
d="M960 512h-128v-448h-128v448h-128v-448h-128v448h-128v-448h-128v448h-128v-512h-64v-64h1024v64h-64v512v0zM544 960h-64l-480 -320v-64h1024v64l-480 320v0zM512 704c-18 0 -33.167 6.16699 -45.5 18.5s-18.5 27.5 -18.5 45.5s6.16699 33.167 18.5 45.5
s27.5 18.5 45.5 18.5s33.167 -6.16699 45.5 -18.5s18.5 -27.5 18.5 -45.5s-6.16699 -33.167 -18.5 -45.5s-27.5 -18.5 -45.5 -18.5v0z" />
    <glyph glyph-name="uniE99A" unicode="education" 
d="M192 373v-149c0 -16 8.33301 -33.333 25 -52s39.5 -36 68.5 -52s63 -29.333 102 -40s80.5 -16 124.5 -16s85.5 5.33301 124.5 16s73 24 102 40s51.833 33.333 68.5 52s25 36 25 52v149l-320 -160l-320 160v0zM512 832l-512 -256l512 -256l415 208l-31 -272h64v288l64 32
l-512 256v0zM544 562c-12.667 0 -23.5 4.5 -32.5 13.5s-13.5 19.833 -13.5 32.5s4.5 23.5 13.5 32.5s19.833 13.5 32.5 13.5s23.5 -4.5 32.5 -13.5s13.5 -19.833 13.5 -32.5s-4.5 -23.5 -13.5 -32.5s-19.833 -13.5 -32.5 -13.5v0z" />
    <glyph glyph-name="uniE99B" unicode="file&#x2d;text" 
d="M864 960h-768c-26.667 0 -49.334 -9.33301 -68.001 -28s-28 -41.334 -28 -68.001v-832c0 -26.667 9.33301 -49.334 28 -68.001s41.334 -28 68.001 -28h768c26.667 0 49.334 9.33301 68.001 28s28 41.334 28 68.001v832c0 26.667 -9.33301 49.334 -28 68.001
s-41.334 28 -68.001 28v0zM832 64h-704v768h704v-768v0zM256 512h448v-64h-448v64zM256 384h448v-64h-448v64zM256 256h448v-64h-448v64zM256 640h448v-64h-448v64z" />
    <glyph glyph-name="uniE99C" unicode="file&#x32;" 
d="M864 960h-768c-26.667 0 -49.334 -9.33301 -68.001 -28s-28 -41.334 -28 -68.001v-832c0 -26.667 9.33301 -49.334 28 -68.001s41.334 -28 68.001 -28h768c26.667 0 49.334 9.33301 68.001 28s28 41.334 28 68.001v832c0 26.667 -9.33301 49.334 -28 68.001
s-41.334 28 -68.001 28v0zM832 64h-704v768h704v-768v0zM256 384h448v-64h-448v64zM256 256h448v-64h-448v64zM320 672c0 26.667 9.33301 49.334 28 68.001s41.334 28 68.001 28s49.334 -9.33301 68.001 -28s28 -41.334 28 -68.001s-9.33301 -49.334 -28 -68.001
s-41.334 -28 -68.001 -28s-49.334 9.33301 -68.001 28s-28 41.334 -28 68.001v0zM480 576h-127.998c-26.667 0 -49.334 -6.33301 -68.001 -19s-28 -27.667 -28 -45v-64h320v64c0 17.333 -9.33301 32.333 -28 45s-41.334 19 -68.001 19v0z" />
    <glyph glyph-name="uniE99D" unicode="file&#x2d;empty" 
d="M918 731c-11.333 15.333 -24.499 31.499 -39.499 48.499l-47.5 51.5l-51.5 47.5c-17 15 -33.167 28.167 -48.5 39.5c-26 18.667 -45.833 30.334 -59.5 35.001s-24.167 7 -31.5 7h-496c-22 0 -40.833 -7.83301 -56.5 -23.5s-23.5 -34.5 -23.5 -56.5v-864
c0 -22 7.83301 -40.833 23.5 -56.5s34.5 -23.5 56.5 -23.5h736c22 0 40.833 7.83301 56.5 23.5s23.5 34.5 23.5 56.5v624c0 7.33301 -2.33301 17.833 -7 31.5s-16.334 33.5 -35.001 59.5v0zM785.001 784.999c15.333 -15.333 29.167 -29.834 41.5 -43.501
s22.833 -26.167 31.5 -37.5h-154v154c11.333 -8.66699 23.833 -19.167 37.5 -31.5s28.167 -26.166 43.5 -41.499v0zM896.002 15.998c0 -4.66699 -1.5 -8.5 -4.5 -11.5s-6.83301 -4.5 -11.5 -4.5h-736c-4.66699 0 -8.5 1.5 -11.5 4.5s-4.5 6.83301 -4.5 11.5v864
c0 4.66699 1.5 8.5 4.5 11.5s6.83301 4.5 11.5 4.5h77.5h170.5h170.5h77.5v-224c0 -8.66699 3.16699 -16.167 9.5 -22.5s13.833 -9.5 22.5 -9.5h224v-624v0z" />
    <glyph glyph-name="uniE99E" unicode="file&#x2d;empty&#x32;" 
d="M704 704l231.999 0.000976562l-8.5 12.5c-3 4.33301 -6.16699 9.16602 -9.5 14.499c-11.333 15.333 -24.5 31.5 -39.5 48.5l-47.5 51.5l-51.5 47.5c-17 15 -33.167 28.167 -48.5 39.5c-5.33301 3.33301 -10.166 6.5 -14.499 9.5l-12.5 8.5v-232v0zM639.999 672.001v288
h-496c-22 0 -40.833 -7.83301 -56.5 -23.5s-23.5 -34.5 -23.5 -56.5v-864c0 -22 7.83301 -40.833 23.5 -56.5s34.5 -23.5 56.5 -23.5h736c22 0 40.833 7.83301 56.5 23.5s23.5 34.5 23.5 56.5v624h-288c-8.66699 0 -16.167 3.16699 -22.5 9.5s-9.5 13.833 -9.5 22.5v0z" />
    <glyph glyph-name="uniE99F" unicode="files&#x2d;empty" 
d="M918 603c-11.333 15.333 -24.499 31.499 -39.499 48.499l-47.5 51.5l-51.5 47.5c-17 15 -33.167 28.167 -48.5 39.5c-26 18.667 -45.833 30.334 -59.5 35.001s-24.167 7 -31.5 7h-368c-22 0 -40.833 -7.83301 -56.5 -23.5s-23.5 -34.5 -23.5 -56.5v-736
c0 -22 7.83301 -40.833 23.5 -56.5s34.5 -23.5 56.5 -23.5h608c22 0 40.833 7.83301 56.5 23.5s23.5 34.5 23.5 56.5v496c0 7.33301 -2.33301 17.833 -7 31.5s-16.334 33.5 -35.001 59.5v0zM785.001 656.999c15.333 -15.333 29.167 -29.834 41.5 -43.501
s22.833 -26.167 31.5 -37.5h-154v154c11.333 -8.66699 23.833 -19.167 37.5 -31.5s28.167 -26.166 43.5 -41.499v0v0zM896.002 15.998c0 -4.66699 -1.5 -8.5 -4.5 -11.5s-6.83301 -4.5 -11.5 -4.5h-608c-4.66699 0 -8.5 1.5 -11.5 4.5s-4.5 6.83301 -4.5 11.5v736
c0 4.66699 1.5 8.5 4.5 11.5s6.83301 4.5 11.5 4.5h57.5h126.5h126.5h57.5v-224c0 -8.66699 3.16699 -16.167 9.5 -22.5s13.833 -9.5 22.5 -9.5h224v-496v0zM603.002 917.998c-26 18.667 -45.833 30.333 -59.5 35s-24.167 7 -31.5 7h-368
c-22 0 -40.833 -7.83301 -56.5 -23.5s-23.5 -34.5 -23.5 -56.5v-736c0 -19.333 6.16699 -36.333 18.5 -51s27.5 -23.667 45.5 -27v814c0 4.66699 1.5 8.5 4.5 11.5s6.83301 4.5 11.5 4.5h487l-14 11.5l-14 10.5v0z" />
    <glyph glyph-name="uniE9A0" unicode="files&#x2d;empty&#x32;" 
d="M603 918c-26 18.667 -45.833 30.333 -59.5 35s-24.167 7 -31.5 7h-368c-22 0 -40.833 -7.83301 -56.5 -23.5s-23.5 -34.5 -23.5 -56.5v-736c0 -19.333 6.16699 -36.333 18.5 -51s27.5 -23.667 45.5 -27v814c0 4.66699 1.5 8.5 4.5 11.5s6.83301 4.5 11.5 4.5h487
l-14 11.5l-14 10.5v0zM704 575.999l231.999 0.000976562l-8.5 12.5c-3 4.33301 -6.16699 9.16602 -9.5 14.499c-11.333 15.333 -24.5 31.5 -39.5 48.5l-47.5 51.5l-51.5 47.5c-17 15 -33.167 28.167 -48.5 39.5c-5.33301 3.33301 -10.166 6.5 -14.499 9.5l-12.5 8.5v-232v0z
M639.999 544v288h-368c-22 0 -40.833 -7.83301 -56.5 -23.5s-23.5 -34.5 -23.5 -56.5v-736c0 -22 7.83301 -40.833 23.5 -56.5s34.5 -23.5 56.5 -23.5h608c22 0 40.833 7.83301 56.5 23.5s23.5 34.5 23.5 56.5v496h-288c-8.66699 0 -16.167 3.16699 -22.5 9.5
s-9.5 13.833 -9.5 22.5v0z" />
    <glyph glyph-name="uniE9A1" unicode="file&#x2d;plus" 
d="M918 731c-11.333 15.333 -24.499 31.499 -39.499 48.499l-47.5 51.5l-51.5 47.5c-17 15 -33.167 28.167 -48.5 39.5c-26 18.667 -45.833 30.334 -59.5 35.001s-24.167 7 -31.5 7h-496c-22 0 -40.833 -7.83301 -56.5 -23.5s-23.5 -34.5 -23.5 -56.5v-864
c0 -22 7.83301 -40.833 23.5 -56.5s34.5 -23.5 56.5 -23.5h400c8.66699 0 16.167 3.16699 22.5 9.5s9.5 13.833 9.5 22.5s-3.16699 16.167 -9.5 22.5s-13.833 9.5 -22.5 9.5h-400c-4.66699 0 -8.5 1.5 -11.5 4.5s-4.5 6.83301 -4.5 11.5v864c0 4.66699 1.5 8.5 4.5 11.5
s6.83301 4.5 11.5 4.5h77.5h170.5h170.5h77.5v-224c0 -8.66699 3.16699 -16.167 9.5 -22.5s13.833 -9.5 22.5 -9.5h224v-224c0 -8.66699 3.16699 -16.167 9.5 -22.5s13.833 -9.5 22.5 -9.5s16.167 3.16699 22.5 9.5s9.5 13.833 9.5 22.5v224
c0 7.33301 -2.33301 17.833 -7 31.5s-16.334 33.5 -35.001 59.5v0zM704.001 703.999l0.000976562 153.999c11.333 -8.66699 23.833 -19.167 37.5 -31.5s28.167 -26.166 43.5 -41.499s29.166 -29.833 41.499 -43.5s22.833 -26.167 31.5 -37.5h-154v0zM1024 191.998h-128v128
h-128v-128h-128v-128h128v-128h128v128h128v128z" />
    <glyph glyph-name="uniE9A2" unicode="file&#x2d;plus&#x32;" 
d="M704 704l231.999 0.000976562l-8.5 12.5c-3 4.33301 -6.16699 9.16602 -9.5 14.499c-11.333 15.333 -24.5 31.5 -39.5 48.5l-47.5 51.5l-51.5 47.5c-17 15 -33.167 28.167 -48.5 39.5c-5.33301 3.33301 -10.166 6.5 -14.499 9.5l-12.5 8.5v-232v0zM503.999 160.001
c0 40.667 7.83203 78.998 23.499 114.998s36.834 67.333 63.501 94s58 47.834 94 63.501s74.333 23.5 115 23.5c29.333 0 57.5 -4.16699 84.5 -12.5s52.167 -19.833 75.5 -34.5v231h-288c-8.66699 0 -16.167 3.16699 -22.5 9.5s-9.5 13.833 -9.5 22.5v288h-496
c-22 0 -40.833 -7.83301 -56.5 -23.5s-23.5 -34.5 -23.5 -56.5v-864c0 -22 7.83301 -40.833 23.5 -56.5s34.5 -23.5 56.5 -23.5h463c-31.333 27.333 -56.333 60.333 -75 99s-28 80.334 -28 125.001v0zM799.998 383.999c-30.667 0 -59.667 -5.83301 -87 -17.5
s-51.166 -27.667 -71.499 -48s-36.333 -44.166 -48 -71.499s-17.5 -56.333 -17.5 -87s5.83301 -59.667 17.5 -87s27.667 -51.166 48 -71.499s44.166 -36.333 71.499 -48s56.333 -17.5 87 -17.5s59.667 5.83301 87 17.5s51.166 27.667 71.499 48s36.333 44.166 48 71.499
s17.5 56.333 17.5 87s-5.83301 59.667 -17.5 87s-27.667 51.166 -48 71.499s-44.166 36.333 -71.499 48s-56.333 17.5 -87 17.5v0zM831.998 127.999v-128h-64v128h-128v64h128v128h64v-128h128v-64h-128v0z" />
    </font>
</defs>
</svg>
