<?xml version="1.0" encoding="utf-8"?>
<!-- Generated by IcoMoon.io -->
<!DOCTYPE svg PUBLIC "-//W3C//DTD SVG 1.1//EN" "http://www.w3.org/Graphics/SVG/1.1/DTD/svg11.dtd">
<svg version="1.1" xmlns="http://www.w3.org/2000/svg" xmlns:xlink="http://www.w3.org/1999/xlink" width="32" height="32" viewBox="0 0 32 32">
<path d="M3.837 29.794c-0.362 0-0.663-0.294-0.663-0.663v-24.594c0-0.362 0.294-0.663 0.663-0.663s0.663 0.294 0.663 0.663v24.594c-0.006 0.369-0.3 0.663-0.663 0.663z"></path>
<path d="M28.163 31.831h-20.894c-0.006 0-0.006 0-0.013 0-0.2-0.006-1.975-0.069-2.994-1.056 0 0-0.006-0.006-0.006-0.006-0.356-0.356-0.631-0.788-0.806-1.262-0.125-0.344 0.050-0.719 0.388-0.85 0.344-0.125 0.719 0.050 0.85 0.387 0.106 0.294 0.281 0.563 0.5 0.781 0.55 0.525 1.688 0.669 2.094 0.681h20.225v-23.331h-21.087c-1.787 0-3.244-1.425-3.244-3.175v-0.656c0-1.75 1.456-3.175 3.244-3.175h20.613c0.363 0 0.663 0.294 0.663 0.662s-0.294 0.662-0.663 0.662h-20.613c-1.063 0-1.925 0.831-1.925 1.856v0.65c0 1.025 0.862 1.856 1.925 1.856h21.744c0.363 0 0.663 0.294 0.663 0.662v24.656c0 0.363-0.3 0.656-0.663 0.656z"></path>
<path d="M27.038 7.175c-0.131 0-0.262-0.037-0.381-0.119-1.375-0.969-2.156-2.106-2.313-3.381-0.231-1.825 0.931-3.219 0.981-3.275 0.238-0.275 0.65-0.313 0.931-0.075 0.275 0.237 0.313 0.65 0.075 0.925-0.019 0.019-0.844 1.031-0.681 2.269 0.119 0.887 0.712 1.712 1.762 2.456 0.3 0.213 0.369 0.619 0.156 0.919-0.119 0.181-0.325 0.281-0.531 0.281z"></path>
<path d="M8.387 21.244c-0.075 0-0.15-0.012-0.219-0.038-0.263-0.094-0.438-0.344-0.438-0.625v-14.069c0-0.362 0.294-0.662 0.662-0.662h6.638c0.363 0 0.662 0.294 0.662 0.662v14.069c0 0.275-0.169 0.519-0.425 0.619s-0.544 0.025-0.725-0.181l-2.963-3.331-2.681 3.313c-0.125 0.156-0.319 0.244-0.512 0.244zM11.563 16.006c0.188 0 0.369 0.081 0.494 0.225l2.313 2.613v-11.669h-5.319v11.544l2-2.469c0.125-0.15 0.306-0.238 0.5-0.244 0 0 0.006 0 0.012 0z"></path>
</svg>
