<?xml version="1.0" encoding="utf-8"?>
<!-- Generated by IcoMoon.io -->
<!DOCTYPE svg PUBLIC "-//W3C//DTD SVG 1.1//EN" "http://www.w3.org/Graphics/SVG/1.1/DTD/svg11.dtd">
<svg version="1.1" xmlns="http://www.w3.org/2000/svg" xmlns:xlink="http://www.w3.org/1999/xlink" width="32" height="32" viewBox="0 0 32 32">
<path d="M32 12.969c-0.002-1.629-0.967-3.031-2.356-3.67-0.386-2.247-2.226-3.979-4.463-4.159-0.621-1.249-1.889-2.092-3.354-2.092-0 0-0.001 0-0.001 0h0c-0.181 0-0.361 0.036-0.541 0.036h-0.035c-0.22 0.035-0.414 0.085-0.601 0.152-0.698-0.585-1.601-0.945-2.539-0.945-0.011-0-0.024-0-0.037-0-0.781 0-1.506 0.242-2.103 0.655-0.601-0.282-1.317-0.441-2.071-0.441-0.016 0-0.032 0-0.048 0-0.008-0-0.019-0-0.031-0-1.522 0-2.888 0.668-3.821 1.726-0.286-0.063-0.61-0.102-0.942-0.103-0.008-0-0.018-0-0.027-0-1.327 0-2.49 0.7-3.139 1.752l-0.334 0.016c-0.072 0-0.144 0.036-0.216 0.036s-0.108 0.036-0.181 0.036c-0.081 0.008-0.154 0.034-0.218 0.073-0.070-0.001-0.106 0.035-0.178 0.035-0.072 0.036-0.144 0.036-0.181 0.072-0.072 0.039-0.144 0.039-0.18 0.075s-0.108 0.036-0.144 0.072l-0.216 0.108c-1.263 0.688-2.129 2.020-2.237 3.536v0.036c-1.154 1.082-1.804 2.634-1.804 4.221 0 3.211 2.634 5.844 5.844 5.844 0.364-0.007 0.713-0.033 1.058-0.077 0.356 0.135 0.823 0.225 1.307 0.254 0.954 2.31 2.829 3.536 5.391 3.536 2.453 0 5.411 2.489 5.411 5.411v0.541h4.114l-0.469-3.355c0.175 0.018 0.378 0.029 0.583 0.029 2.731 0 5.027-1.864 5.686-4.389 0.115-0.482 0.18-0.991 0.19-1.514 1.698-0.618 2.886-2.241 2.886-4.081 0-0.019 0.001-0.042 0.001-0.064 0-0.604-0.133-1.178-0.372-1.692 0.227-0.515 0.371-1.093 0.371-1.671zM30.449 14.918c0.229 0.413 0.364 0.906 0.364 1.431 0 0.017-0 0.034-0 0.051-0 1.26-0.748 2.347-1.824 2.843-0.515-2.148-2.146-3.827-4.235-4.384-0.366-0.081-0.69 0.099-0.762 0.424s0.108 0.649 0.433 0.721c1.893 0.471 3.306 2.067 3.498 4.022 0.073 0.56 0.002 1.102-0.107 1.644-0.649 2.526-3.175 4.041-5.7 3.391l-0.83-0.216 0.505 3.68h-1.661c-0.361-3.391-3.75-6.025-6.566-6.025q-2.922 0-4.113-2.381c0.001-0.005 0.001-0.010 0.001-0.016 0-0.036-0.014-0.068-0.037-0.092-0.613-1.262-0.072-2.812 1.227-3.427 0.289-0.144 0.433-0.505 0.289-0.794s-0.505-0.433-0.794-0.289c-1.371 0.649-2.129 2.020-2.129 3.428-0.347-0.037-0.665-0.113-0.965-0.225l-0.117-0.063-0.144 0.036c-0.275 0.069-0.591 0.108-0.916 0.108-0.008 0-0.015-0-0.023-0-2.561 0-4.686-2.093-4.686-4.688 0-0.003 0-0.006 0-0.010 0-0.983 0.311-1.893 0.84-2.638 0.452 1.399 1.564 2.451 2.955 2.82-0.069 0.161-0.145 0.341-0.188 0.533-0.147 0.661-0.074 1.31 0.287 1.886 0.101 0.174 0.287 0.289 0.499 0.289 0.002 0 0.004 0 0.006-0 0.105-0.003 0.204-0.029 0.292-0.074 0.171-0.105 0.286-0.294 0.286-0.511 0-0.104-0.027-0.202-0.073-0.287-0.112-0.187-0.18-0.417-0.18-0.662 0-0.11 0.013-0.216 0.039-0.318 0.081-0.329 0.29-0.608 0.57-0.782 0.179-0.11 0.293-0.299 0.293-0.514 0-0.104-0.026-0.201-0.073-0.286-0.103-0.161-0.285-0.268-0.491-0.268-0.056 0-0.11 0.008-0.161 0.022-1.691-0.037-3.098-1.444-3.098-3.14 0.001-1.733 1.406-3.138 3.139-3.139h0.072l0.469 0.036 0.181-0.361c0.421-0.861 1.29-1.444 2.296-1.444 0.003 0 0.006 0 0.010 0 0.325 0 0.613 0.072 0.937 0.181l0.397 0.144 0.25-0.361c0.738-0.97 1.893-1.589 3.192-1.589 0.008 0 0.017 0 0.025 0 0.698 0.011 1.354 0.183 1.935 0.48l0.336 0.169 0.289-0.25c0.443-0.381 1.024-0.613 1.659-0.613 0 0 0.001 0 0.001 0 0.009-0 0.019-0 0.030-0 0.516 0 0.993 0.162 1.385 0.438-0.873 0.682-1.451 1.727-1.451 2.917-0 0.006-0 0.012-0 0.019 0 0.319 0.259 0.577 0.578 0.577s0.578-0.259 0.578-0.577c0-0.007-0-0.013-0-0.020 0 0.001 0 0 0-0 0-0.953 0.517-1.785 1.286-2.231l0.193-0.079c0.361-0.144 0.721-0.25 1.082-0.25 1.082 0 2.020 0.688 2.417 1.696l0.144 0.397h0.397c1.948 0 3.572 1.551 3.716 3.463l0.036 0.397 0.361 0.108c1.138 0.396 1.941 1.456 1.948 2.705 0 0.47-0.108 0.975-0.361 1.371l-0.144 0.289zM18.038 17.912c-0.003-1.122-0.57-2.111-1.432-2.698l-0.011-0.007c-1.529-0.726-2.618-2.161-2.847-3.868-0.005-0.044-0.007-0.066-0.007-0.088 0-0.262 0.212-0.474 0.474-0.474 0.233 0 0.427 0.168 0.467 0.39 0.215 1.57 1.283 2.843 2.713 3.349 0.436 0.153 0.906 0.236 1.395 0.236 0.657 0 1.28-0.151 1.834-0.419 0.985-0.458 1.707-1.324 2.067-2.37 0.072-0.25 0.361-0.361 0.613-0.289s0.361 0.361 0.289 0.613c-0.433 1.299-1.371 2.309-2.598 2.886-0.644 0.315-1.4 0.5-2.199 0.505-0.021 0.001-0.043 0.001-0.066 0.001-0.143 0-0.283-0.014-0.418-0.039 0.416 0.637 0.657 1.408 0.663 2.235-0.005 0.259-0.212 0.466-0.468 0.47-0.253 0.001-0.47-0.179-0.47-0.432zM26.949 12.5c0 0.259-0.21 0.469-0.469 0.469s-0.469-0.21-0.469-0.469c-0.003-2.131-1.729-3.857-3.86-3.86-0.259 0-0.469-0.21-0.469-0.469s0.21-0.469 0.469-0.469c2.633 0 4.797 2.164 4.797 4.797zM14.539 7.666c0.005-0.257 0.212-0.464 0.468-0.469 2.072 0 3.75 1.679 3.75 3.75 0 0.259-0.21 0.469-0.469 0.469s-0.469-0.21-0.469-0.469c-0.003-1.552-1.26-2.81-2.812-2.813-0.257-0.005-0.464-0.212-0.469-0.468zM13.421 18.381c-0.072 0.144-0.25 0.216-0.397 0.216-0.093-0.008-0.177-0.034-0.254-0.074-0.13-0.083-0.218-0.23-0.218-0.397 0-0.093 0.027-0.18 0.074-0.253 0.255-0.403 0.406-0.895 0.406-1.424 0-0.962-0.504-1.806-1.262-2.284-0.136-0.092-0.217-0.235-0.217-0.395 0-0.26 0.211-0.471 0.471-0.471 0.089 0 0.171 0.024 0.242 0.067 1.026 0.66 1.697 1.799 1.697 3.094 0 0.711-0.202 1.374-0.552 1.936zM12.988 10.083c-0.721 0-1.371-0.325-1.875-0.794-0.83 1.188-2.201 1.84-3.572 1.84-0.002 0-0.004 0-0.006 0-0.795 0-1.54-0.214-2.18-0.588-0.117-0.074-0.208-0.225-0.208-0.396 0-0.263 0.213-0.477 0.477-0.477 0.081 0 0.157 0.020 0.223 0.055 0.489 0.285 1.079 0.455 1.708 0.455 1.266 0 2.371-0.684 2.968-1.702-0.168-0.386-0.274-0.819-0.28-1.277-0-0.261 0.21-0.471 0.469-0.471s0.469 0.21 0.469 0.469c-0.036 1.010 0.794 1.875 1.804 1.912 0.257 0.005 0.464 0.212 0.469 0.468 0 0.325-0.216 0.505-0.469 0.505zM23.991 19.25c0.119 0.085 0.196 0.222 0.196 0.378 0 0.102-0.033 0.196-0.089 0.273-0.848 1.221-2.243 2.013-3.823 2.019-0.007 0-0.014 0-0.020 0-0.963 0-1.856-0.297-2.593-0.804-0.108-0.075-0.188-0.216-0.188-0.375 0-0.257 0.208-0.466 0.466-0.466 0.105 0 0.203 0.035 0.281 0.094 0.59 0.399 1.318 0.637 2.102 0.637 0.239 0 0.472-0.022 0.698-0.064 0.971-0.185 1.808-0.751 2.347-1.538 0.081-0.145 0.22-0.232 0.379-0.232 0.092 0 0.177 0.029 0.247 0.079z"></path>
</svg>
