<?xml version="1.0" encoding="utf-8"?>
<!-- Generated by IcoMoon.io -->
<!DOCTYPE svg PUBLIC "-//W3C//DTD SVG 1.1//EN" "http://www.w3.org/Graphics/SVG/1.1/DTD/svg11.dtd">
<svg version="1.1" xmlns="http://www.w3.org/2000/svg" xmlns:xlink="http://www.w3.org/1999/xlink" width="32" height="32" viewBox="0 0 32 32">
<path d="M10.546 2.182c-1.001 0.007-1.811 0.817-1.818 1.817v2.546h-6.909c-1.001 0.007-1.811 0.817-1.818 1.817v19.637c0.007 1.001 0.817 1.811 1.817 1.818h28.364c1.001-0.007 1.811-0.817 1.818-1.817v-19.637c-0.007-1.001-0.817-1.811-1.817-1.818h-6.91v-2.546c-0.007-1.001-0.817-1.811-1.817-1.818zM10.546 3.636h10.909c0.005-0 0.010-0 0.016-0 0.192 0 0.348 0.156 0.348 0.348 0 0.006-0 0.011-0 0.017l0 2.545h-11.636v-2.546c-0-0.005-0-0.010-0-0.016 0-0.192 0.156-0.348 0.348-0.348 0.006 0 0.011 0 0.017 0zM1.818 8h28.364c0.005-0 0.010-0 0.016-0 0.192 0 0.348 0.156 0.348 0.348 0 0.006-0 0.011-0 0.017l0 7.442c-1.389 0.409-2.848 0.766-4.364 1.057v-0.864c0-0.456-0.341-0.727-0.727-0.727h-2.909c-0.396 0.015-0.713 0.332-0.727 0.726l-0 1.513c-1.745 0.195-3.768 0.306-5.817 0.307-2.053-0.002-4.076-0.118-6.066-0.341l0.247-1.478c-0.015-0.396-0.332-0.713-0.726-0.727l-2.91-0c-0.396 0-0.728 0.399-0.728 0.727v0.864c-1.516-0.291-2.975-0.648-4.364-1.057v-7.443c-0-0.005-0-0.010-0-0.016 0-0.192 0.156-0.348 0.348-0.348 0.006 0 0.011 0 0.017 0zM7.272 16.727h1.454v2.909h-1.454zM23.273 16.727h1.454v2.909h-1.454zM1.454 17.329c1.396 0.396 2.854 0.733 4.364 1.011v2.023c0.015 0.396 0.332 0.713 0.726 0.727l2.911 0c0.396-0.015 0.713-0.332 0.727-0.726l0-1.399c1.741 0.192 3.764 0.304 5.813 0.307 2.054-0 4.078-0.108 6.072-0.317l-0.249 1.407c0.015 0.396 0.332 0.713 0.726 0.727l2.911 0c0.396-0.015 0.713-0.332 0.727-0.726l0-2.012c1.511-0.281 2.967-0.625 4.364-1.023v10.67c0 0.005 0 0.010 0 0.016 0 0.192-0.156 0.348-0.348 0.348-0.006 0-0.011-0-0.017-0l-28.364 0c-0.005 0-0.010 0-0.016 0-0.192 0-0.348-0.156-0.348-0.348 0-0.006 0-0.011 0-0.017z"></path>
</svg>
