<?xml version="1.0" encoding="utf-8"?>
<!-- Generated by IcoMoon.io -->
<!DOCTYPE svg PUBLIC "-//W3C//DTD SVG 1.1//EN" "http://www.w3.org/Graphics/SVG/1.1/DTD/svg11.dtd">
<svg version="1.1" xmlns="http://www.w3.org/2000/svg" xmlns:xlink="http://www.w3.org/1999/xlink" width="32" height="32" viewBox="0 0 32 32">
<path d="M13.193 21.261h6.125v-6.125h-6.125zM14.409 16.353h3.691v3.691h-3.69z"></path>
<path d="M30.273 16.471c-0.954 0-1.727 0.773-1.727 1.727s0.773 1.727 1.727 1.727c0.954 0 1.727-0.773 1.727-1.727-0.009-0.951-0.777-1.719-1.727-1.727zM30.273 18.709c-0.282 0-0.511-0.229-0.511-0.511s0.229-0.511 0.511-0.511c0.282 0 0.511 0.229 0.511 0.511-0.005 0.28-0.231 0.505-0.51 0.511z"></path>
<path d="M22.419 8.265h2.67c0.236 0.668 0.864 1.099 1.61 1.099 0.954 0 1.727-0.773 1.727-1.728s-0.773-1.728-1.727-1.728c-0.002 0-0.004 0-0.005 0-0.727 0-1.348 0.451-1.601 1.088l-2.674 0.012c-0.201-0.287-0.53-0.472-0.903-0.472-0.608 0-1.1 0.492-1.1 1.1 0 0.372 0.185 0.701 0.468 0.9l0.003 1.926h-3.848v-1.924c0.286-0.201 0.471-0.53 0.471-0.902 0-0.607-0.492-1.099-1.099-1.099s-1.099 0.492-1.099 1.099c0 0.372 0.185 0.701 0.468 0.9l0.004 1.926h-3.847v-1.924c0.286-0.202 0.471-0.531 0.471-0.903s-0.185-0.701-0.468-0.901l-0.003-1.73c0.668-0.236 1.099-0.864 1.099-1.61 0-0.954-0.773-1.728-1.728-1.728s-1.727 0.773-1.727 1.728c0 0.002 0 0.004 0 0.006 0 0.726 0.45 1.348 1.087 1.6l0.012 1.732c-0.286 0.202-0.471 0.531-0.471 0.903s0.185 0.701 0.468 0.901l0.003 1.926h-2.238v2.042h-1.767c-0.202-0.286-0.531-0.471-0.903-0.471s-0.701 0.185-0.901 0.468l-3.732 0.003v2.119c-0.669 0.239-1.139 0.867-1.139 1.605 0 0.002 0 0.004 0 0.006 0.009 0.95 0.777 1.718 1.727 1.727 0.951-0.009 1.72-0.777 1.728-1.727 0-0.003 0-0.005 0-0.007 0-0.727-0.451-1.348-1.088-1.601l-0.012-0.867h2.552c0.202 0.286 0.531 0.471 0.903 0.471s0.701-0.185 0.901-0.468l1.769-0.003v3.848h-1.767c-0.202-0.284-0.529-0.468-0.9-0.468-0.606 0-1.098 0.49-1.1 1.095-0 0.008-0 0.017-0 0.026 0 0.593 0.481 1.074 1.074 1.074 0.009 0 0.017-0 0.026-0-0 0 0.001 0 0.002 0 0.372 0 0.7-0.185 0.898-0.468l1.768-0.004v3.848h-1.767c-0.202-0.286-0.531-0.471-0.903-0.471s-0.701 0.185-0.901 0.468l-1.573 0.003c-0.236-0.668-0.864-1.099-1.61-1.099-0.943-0.039-1.728 0.706-1.728 1.688 0.001 0.954 0.774 1.727 1.728 1.727 0.728 0 1.351-0.45 1.605-1.087l1.575-0.012c0.202 0.286 0.531 0.471 0.903 0.471s0.701-0.185 0.901-0.468l1.769-0.003v1.963h2.237v1.924c-0.070 0.032-0.125 0.087-0.156 0.155l-3.142 0.002c-0.233-0.667-0.864-1.1-1.608-1.1-0.954 0-1.728 0.773-1.728 1.727s0.773 1.727 1.728 1.727c0.002 0 0.004 0 0.005 0 0.727 0 1.348-0.451 1.601-1.088l2.949-0.012c0.181 0.369 0.554 0.618 0.985 0.618 0.604 0 1.094-0.49 1.094-1.094 0-0.371-0.184-0.698-0.466-0.896l-0.004-1.924h3.848v1.924c-0.284 0.202-0.468 0.529-0.468 0.9 0 0.606 0.49 1.098 1.095 1.1 0.008 0 0.017 0 0.026 0 0.593 0 1.074-0.481 1.074-1.074 0-0.009-0-0.018-0-0.027 0 0 0-0 0-0.001 0-0.372-0.185-0.7-0.468-0.898l-0.004-1.924h3.848v1.924c-0.284 0.202-0.468 0.529-0.468 0.9 0 0.606 0.49 1.098 1.095 1.1 0.008 0 0.017 0 0.026 0 0.593 0 1.074-0.481 1.074-1.074 0-0.009-0-0.018-0-0.027 0 0 0-0 0-0.001 0-0.372-0.185-0.7-0.468-0.898l-0.004-1.924c1.063 0 1.884-0.864 1.884-1.924v-0.039h1.767c0.072 0.111 0.164 0.203 0.271 0.273l0.004 2.752c-0.668 0.236-1.099 0.864-1.099 1.61 0 0.954 0.773 1.727 1.727 1.727s1.727-0.773 1.727-1.727c0-0.002 0-0.004 0-0.005 0-0.727-0.451-1.348-1.088-1.601l-0.012-2.754c0.287-0.201 0.472-0.53 0.472-0.903 0-0.608-0.492-1.1-1.1-1.1-0.372 0-0.701 0.185-0.9 0.468l-1.771 0.003v-3.848h1.767c0.202 0.284 0.529 0.468 0.9 0.468 0.606 0 1.098-0.49 1.1-1.095 0-0.008 0-0.017 0-0.026 0-0.593-0.481-1.074-1.074-1.074-0.009 0-0.018 0-0.027 0 0-0-0-0-0.001-0-0.372 0-0.7 0.185-0.898 0.468l-1.767 0.004v-3.848h1.767c0.202 0.284 0.529 0.468 0.9 0.468 0.606 0 1.098-0.49 1.1-1.095 0-0.008 0-0.017 0-0.026 0-0.593-0.481-1.074-1.074-1.074-0.009 0-0.018 0-0.027 0 0-0-0-0-0.001-0-0.372 0-0.7 0.185-0.898 0.468l-1.767 0.004v-2.042h-1.885v-1.924c0.039-0.079 0.157-0.157 0.236-0.275zM11.348 2.925c0.28 0.006 0.506 0.232 0.51 0.512 0 0.002 0 0.003 0 0.004 0 0.159-0.077 0.3-0.195 0.388-0.081-0.041-0.175-0.069-0.274-0.078-0.104 0.002-0.199 0.031-0.28 0.080-0.117-0.090-0.193-0.231-0.193-0.39 0-0.001 0-0.003 0-0.004-0.079-0.277 0.157-0.512 0.432-0.512zM1.728 16.707c-0.005 0-0.012 0-0.018 0-0.282 0-0.511-0.229-0.511-0.511s0.229-0.511 0.511-0.511c0.006 0 0.013 0 0.019 0 0.279 0.005 0.505 0.231 0.51 0.51 0 0.005 0 0.010 0 0.016 0 0.273-0.222 0.495-0.495 0.495-0.006 0-0.011-0-0.017-0zM1.728 23.774c-0.005 0-0.012 0-0.018 0-0.282 0-0.511-0.229-0.511-0.511s0.229-0.511 0.511-0.511c0.006 0 0.013 0 0.019 0 0.004-0 0.011-0 0.017-0 0.282 0 0.511 0.229 0.511 0.511s-0.229 0.511-0.511 0.511c-0.006 0-0.013-0-0.019-0zM5.813 29.036c-0.282 0-0.511-0.229-0.511-0.511s0.229-0.511 0.511-0.511c0.282 0 0.511 0.229 0.511 0.511 0 0.005 0 0.010 0 0.016 0 0.273-0.222 0.495-0.495 0.495-0.006 0-0.011-0-0.017-0zM26.701 29.036c-0.282 0-0.511-0.229-0.511-0.511s0.229-0.511 0.511-0.511c0.282 0 0.511 0.229 0.511 0.511-0.041 0.314-0.237 0.511-0.512 0.511zM22.773 23.931c0 0.001 0 0.002 0 0.003 0 0.389-0.315 0.704-0.704 0.704-0.001 0-0.002 0-0.003 0h-12.329v-12.957h13.036zM26.699 7.125c0.282 0 0.511 0.229 0.511 0.511s-0.229 0.511-0.511 0.511c-0.282 0-0.511-0.229-0.511-0.511-0-0.005-0-0.010-0-0.016 0-0.273 0.222-0.495 0.495-0.495 0.006 0 0.011 0 0.017 0z"></path>
</svg>
