<!-- Generated by IcoMoon.io -->
<svg version="1.1" xmlns="http://www.w3.org/2000/svg" width="32" height="32" viewBox="0 0 32 32">
<title>drama</title>
<path d="M17.269 14.753c0.167-0.36 0.011-0.784-0.347-0.955s-0.789-0.017-0.963 0.34c-0.043 0.089-1.094 2.171-4.496 2.171s-4.454-2.083-4.494-2.166c-0.168-0.363-0.598-0.52-0.961-0.352s-0.52 0.598-0.352 0.961c0.057 0.123 1.443 3.003 5.806 3.003s5.749-2.881 5.806-3.003z"></path>
<path d="M13.47 8.874h3.143c0.399 0 0.723-0.324 0.723-0.723s-0.324-0.723-0.723-0.723h-3.143c-0.399 0-0.723 0.324-0.723 0.723s0.324 0.723 0.723 0.723z"></path>
<path d="M6.313 8.874h3.143c0.399 0 0.723-0.324 0.723-0.723s-0.324-0.723-0.723-0.723h-3.143c-0.399 0-0.723 0.324-0.723 0.723s0.324 0.723 0.723 0.723z"></path>
<path d="M20.54 21.509c-4.363 0-5.75 2.881-5.807 3.004-0.167 0.36-0.011 0.785 0.348 0.955s0.789 0.017 0.963-0.34c0.043-0.089 1.094-2.172 4.497-2.172s4.453 2.083 4.493 2.166c0.122 0.264 0.384 0.419 0.657 0.419 0.102 0 0.206-0.022 0.304-0.067 0.363-0.168 0.52-0.598 0.352-0.961-0.058-0.122-1.444-3.004-5.806-3.004z"></path>
<path d="M29.858 9.076h-8.352v-8.353c0-0.399-0.324-0.723-0.723-0.723h-18.64c-0.399 0-0.723 0.324-0.723 0.723v9.452c0 8.514 5.012 11.592 9.419 12.652 1.25 6.091 5.714 8.375 9.552 9.184 0.049 0.010 0.1 0.015 0.149 0.015s0.1-0.005 0.149-0.015c4.513-0.952 9.892-3.939 9.892-12.764v-9.447c0-0.399-0.323-0.723-0.723-0.723zM2.867 10.171v-8.724h17.193v8.728c0 0.119-0.008 0.233-0.010 0.35-0.086 4.723-1.873 8.005-5.325 9.801-0.002 0.001-0.003 0.002-0.005 0.003-0.263 0.136-0.535 0.265-0.817 0.384-0.005 0.002-0.009 0.004-0.014 0.006-0.281 0.118-0.572 0.229-0.872 0.33-0.005 0.002-0.010 0.003-0.015 0.005-0.302 0.102-0.614 0.195-0.935 0.279-0.2 0.053-0.396 0.109-0.603 0.154-0.271-0.060-0.53-0.131-0.788-0.202-0.024-0.007-0.050-0.012-0.074-0.019v0c-5.131-1.443-7.735-5.167-7.735-11.095zM29.136 19.251c0 6.25-2.892 10.055-8.596 11.313-4.538-1.001-7.29-3.619-8.228-7.793 0.003-0.001 0.006-0.002 0.009-0.003 0.121-0.031 0.243-0.064 0.365-0.098 0.016-0.005 0.033-0.009 0.049-0.014 0.118-0.033 0.236-0.069 0.354-0.105 0.020-0.006 0.039-0.012 0.059-0.018 0.117-0.037 0.233-0.075 0.349-0.115 0.021-0.007 0.042-0.014 0.063-0.022 0.117-0.040 0.234-0.082 0.35-0.126 0.018-0.007 0.037-0.014 0.056-0.021 0.12-0.045 0.239-0.092 0.359-0.142 0.013-0.006 0.026-0.011 0.039-0.017 0.125-0.052 0.25-0.106 0.375-0.162 0.003-0.001 0.006-0.003 0.009-0.004 1.471-0.665 2.885-1.63 4.036-3.018 0-0 0.001-0.001 0.001-0.001 1.571-1.894 2.649-4.58 2.715-8.375 0-0.003 0-0.006 0-0.010h7.636v8.729h-0.001z"></path>
<path d="M22.546 17.95h3.143c0.399 0 0.723-0.324 0.723-0.723s-0.323-0.723-0.723-0.723h-3.143c-0.399 0-0.723 0.323-0.723 0.723s0.324 0.723 0.723 0.723z"></path>
</svg>
