<?xml version="1.0" encoding="utf-8"?>
<!-- Generated by IcoMoon.io -->
<!DOCTYPE svg PUBLIC "-//W3C//DTD SVG 1.1//EN" "http://www.w3.org/Graphics/SVG/1.1/DTD/svg11.dtd">
<svg version="1.1" xmlns="http://www.w3.org/2000/svg" xmlns:xlink="http://www.w3.org/1999/xlink" width="32" height="32" viewBox="0 0 32 32">
<path d="M16 0.041c-0.398 0.016-0.716 0.338-0.726 0.736l-0 1.438h-14.518c-0.386 0.009-0.726 0.366-0.726 0.729v2.178c0.015 0.394 0.331 0.71 0.724 0.726l1.090 0v17.784c0.008 0.599 0.492 1.083 1.091 1.089h12.337v1.168l-4.524 4.866c-0.258 0.279-0.245 0.762 0.034 1.021s0.774 0.245 1.032-0.034l3.459-3.72v2.506c-0 0.006-0 0.014-0 0.021 0 0.401 0.325 0.726 0.726 0.726s0.726-0.325 0.726-0.726c0-0.008-0-0.015-0-0.022l0-2.505 3.46 3.72c0.258 0.279 0.75 0.293 1.032 0.034s0.293-0.742 0.034-1.021l-4.526-4.866v-1.168h12.334c0.598-0.008 1.081-0.491 1.089-1.088v-17.784h1.089c0.396-0.014 0.713-0.33 0.729-0.724l0-2.179c-0.015-0.394-0.331-0.71-0.724-0.726l-14.519-0v-1.438c-0.008-0.401-0.326-0.724-0.724-0.741zM1.483 3.67h29.034v0.726h-29.034zM3.296 5.848h25.407v17.421h-25.405zM15.737 8.071l-10.159 3.992c-0.266 0.117-0.449 0.377-0.452 0.68 0.003 0.301 0.188 0.558 0.449 0.668l3.169 1.252v3.525c0 0.602 0.375 1.019 0.794 1.338s0.96 0.578 1.599 0.805c1.279 0.454 2.977 0.76 4.866 0.76s3.587-0.306 4.866-0.76c0.639-0.227 1.179-0.486 1.599-0.805s0.794-0.736 0.794-1.338v-3.527l1.452-0.578v1.849c-0.223 0.2-0.363 0.489-0.363 0.811 0 0.601 0.487 1.089 1.089 1.089s1.089-0.487 1.089-1.089c0-0.322-0.14-0.611-0.362-0.811l-0.001-2.417 0.261-0.102c0.265-0.113 0.447-0.369 0.45-0.669-0.003-0.304-0.186-0.564-0.448-0.679l-10.167-3.994c-0.078-0.027-0.167-0.043-0.261-0.043s-0.183 0.016-0.266 0.044zM16 9.523l8.188 3.221-8.188 3.209-8.188-3.21zM10.193 15.227l5.546 2.178c0.077 0.030 0.167 0.048 0.261 0.048s0.183-0.018 0.266-0.050l5.541-2.176v2.915c-0.378 0.401-0.899 0.613-1.429 0.817-1.083 0.385-2.647 0.681-4.375 0.681s-3.295-0.296-4.375-0.681c-0.444-0.16-1.090-0.433-1.429-0.817z"></path>
</svg>
