<!-- Generated by IcoMoon.io -->
<svg version="1.1" xmlns="http://www.w3.org/2000/svg" width="32" height="32" viewBox="0 0 32 32">
<title>film-reel</title>
<path d="M14.609 1.391c-8.060 0-14.609 6.546-14.609 14.609s6.549 14.609 14.609 14.609h16.696c0.384 0 0.696-0.311 0.696-0.696s-0.311-0.696-0.696-0.696h-10.492c4.96-2.337 8.402-7.375 8.402-13.218 0.003-8.063-6.546-14.609-14.606-14.609zM14.609 2.783c7.3 0 13.218 5.918 13.218 13.217s-5.918 13.218-13.217 13.218c-7.3 0-13.217-5.918-13.217-13.218 0-0.003 0-0.007 0-0.011 0-7.294 5.913-13.207 13.207-13.207 0.004 0 0.007 0 0.011 0zM14.609 3.826c-2.305 0-4.174 1.869-4.174 4.174s1.869 4.174 4.174 4.174c2.305 0 4.174-1.869 4.174-4.174-0.008-2.302-1.872-4.166-4.173-4.174zM14.609 5.218c1.537 0 2.782 1.246 2.782 2.782s-1.246 2.783-2.783 2.783c-1.537 0-2.783-1.246-2.783-2.783 0-0.003-0-0.007-0-0.011 0-1.531 1.241-2.772 2.772-2.772 0.004 0 0.008 0 0.011 0zM6.609 11.826c-2.305 0-4.174 1.869-4.174 4.174s1.869 4.174 4.174 4.174c2.305 0 4.174-1.869 4.174-4.174-0.008-2.302-1.872-4.166-4.173-4.174zM22.609 11.826c-2.305 0-4.174 1.869-4.174 4.174s1.869 4.174 4.174 4.174c2.305 0 4.174-1.869 4.174-4.174-0.008-2.302-1.872-4.166-4.173-4.174zM6.609 13.217c1.537 0 2.782 1.246 2.782 2.783s-1.246 2.782-2.783 2.782c-1.537 0-2.783-1.246-2.783-2.783 0-0.003-0-0.007-0-0.011 0-1.531 1.241-2.772 2.772-2.772 0.004 0 0.008 0 0.011 0zM22.609 13.217c1.537 0 2.782 1.246 2.782 2.783s-1.246 2.782-2.782 2.782c-1.537 0-2.782-1.246-2.782-2.783 0-0.003-0-0.007-0-0.011 0-1.531 1.241-2.772 2.772-2.772 0.004 0 0.008 0 0.011 0zM14.609 13.913c-1.153 0-2.087 0.934-2.087 2.087s0.934 2.087 2.087 2.087c1.153 0 2.087-0.934 2.087-2.087-0.006-1.15-0.937-2.081-2.086-2.087zM14.609 15.304c0.384 0 0.696 0.311 0.696 0.696s-0.311 0.696-0.696 0.696c-0.384 0-0.696-0.311-0.696-0.696-0-0.002-0-0.005-0-0.008 0-0.38 0.308-0.688 0.688-0.688 0.003 0 0.006 0 0.009 0zM14.609 19.826c-2.305 0-4.174 1.869-4.174 4.174s1.869 4.174 4.174 4.174c2.305 0 4.174-1.869 4.174-4.174-0.008-2.302-1.872-4.166-4.173-4.174zM14.609 21.218c1.537 0 2.782 1.246 2.782 2.782s-1.246 2.782-2.783 2.782c-1.537 0-2.783-1.246-2.783-2.782 0-0.003-0-0.007-0-0.011 0-1.531 1.241-2.772 2.772-2.772 0.004 0 0.008 0 0.011 0z"></path>
</svg>
