<?xml version="1.0" encoding="utf-8"?>
<!-- Generated by IcoMoon.io -->
<!DOCTYPE svg PUBLIC "-//W3C//DTD SVG 1.1//EN" "http://www.w3.org/Graphics/SVG/1.1/DTD/svg11.dtd">
<svg version="1.1" xmlns="http://www.w3.org/2000/svg" xmlns:xlink="http://www.w3.org/1999/xlink" width="32" height="32" viewBox="0 0 32 32">
<path d="M16 9c-3.866 0-7 3.134-7 7s3.134 7 7 7c3.866 0 7-3.134 7-7-0.004-3.864-3.136-6.996-7-7zM16 10c3.314 0 6 2.686 6 6s-2.686 6-6 6c-3.314 0-6-2.686-6-6 0-0.002 0-0.005 0-0.008 0-3.31 2.683-5.992 5.992-5.992 0.003 0 0.005 0 0.008 0z"></path>
<path d="M15.5 9.5v13h1v-13z"></path>
<path d="M16 9c-1.217 0-2.232 0.898-2.916 2.168s-1.084 2.963-1.084 4.832 0.4 3.563 1.084 4.834 1.699 2.166 2.916 2.166 2.233-0.896 2.916-2.166 1.084-2.967 1.084-4.834-0.4-3.563-1.084-4.832-1.699-2.168-2.916-2.168zM16 10c0.716 0 1.452 0.563 2.035 1.643s0.965 2.634 0.965 4.357-0.382 3.277-0.965 4.359-1.319 1.641-2.035 1.641-1.452-0.558-2.035-1.641-0.965-2.638-0.965-4.359 0.382-3.274 0.965-4.357 1.319-1.643 2.035-1.643z"></path>
<path d="M10 13.25v1h12v-1z"></path>
<path d="M10 17.75v1h12v-1z"></path>
<path d="M0.5 21.5c-0.276 0-0.5 0.224-0.5 0.5v9.5c0 0.276 0.224 0.5 0.5 0.5h3c0.276 0 0.5-0.224 0.5-0.5v-3.5c0-0.002 0-0.005 0-0.007 0-0.276-0.224-0.5-0.5-0.5-0.274 0-0.496 0.22-0.5 0.492 0 0.005 0 0.010 0 0.015v3h-2v-8.5h2v2c-0 0.002-0 0.005-0 0.007 0 0.276 0.224 0.5 0.5 0.5 0.274 0 0.496-0.22 0.5-0.492 0-0.005 0-0.010 0-0.015v-2.5c0-0.276-0.224-0.5-0.5-0.5z"></path>
<path d="M7.221 22.188l-3.607 0.45 0.125 0.992 3.606-0.451c0.166-0.022 0.358-0.034 0.552-0.034 0.814 0 1.576 0.219 2.233 0.6l3.25 1.864h3.893c0.002 0 0.004-0 0.006-0 0.551 0 0.998 0.446 1 0.996l0.004 0.41c0 0.007 0 0.015 0 0.024 0 0.532-0.431 0.962-0.962 0.962-0.002 0-0.004 0-0.006-0h-5.726v1h5.726c1.088-0.005 1.969-0.888 1.969-1.977 0-0.008-0-0.016-0-0.024l-0.004-0.409c-0.017-1.097-0.907-1.98-2.005-1.984h-3.625l-3.041-1.744c-0.776-0.451-1.707-0.717-2.7-0.717-0.241 0-0.479 0.016-0.712 0.046z"></path>
<path d="M25.223 24.136c-0.21-0.085-0.454-0.134-0.709-0.134-0.265 0-0.517 0.053-0.747 0.149l-5.237 1.882 0.338 0.941 5.287-1.904c0.107-0.045 0.232-0.072 0.363-0.072 0.383 0 0.713 0.224 0.867 0.548l0.010 0.020c0.068 0.133 0.108 0.29 0.108 0.456 0 0.406-0.238 0.757-0.582 0.92l-7.303 3.311c-1.848 0.838-3.911 0.885-5.984 0.563l-7.978-1.253-0.154 0.991 7.978 1.25c2.188 0.342 4.461 0.309 6.551-0.639l7.299-3.309c1.027-0.466 1.463-1.712 0.965-2.729l0.017 0.039c-0.007-0.020-0.013-0.036-0.021-0.052-0.222-0.446-0.596-0.792-1.053-0.973z"></path>
<path d="M4 26.25c0 0.276-0.224 0.5-0.5 0.5s-0.5-0.224-0.5-0.5c0-0.276 0.224-0.5 0.5-0.5s0.5 0.224 0.5 0.5z"></path>
<path d="M28.5 0c-0.276 0-0.5 0.224-0.5 0.5v3.5c-0 0.002-0 0.005-0 0.007 0 0.276 0.224 0.5 0.5 0.5 0.274 0 0.496-0.22 0.5-0.492 0-0.005 0-0.010 0-0.015v-3h2v8.5h-2v-2c0-0.002 0-0.005 0-0.007 0-0.276-0.224-0.5-0.5-0.5-0.274 0-0.496 0.22-0.5 0.492 0 0.005 0 0.010 0 0.015v2.5c0 0.276 0.224 0.5 0.5 0.5h3c0.276 0 0.5-0.224 0.5-0.5v-9.5c0-0.276-0.224-0.5-0.5-0.5z"></path>
<path d="M14.688 3c-1.089 0.006-1.969 0.89-1.969 1.979 0 0.007 0 0.014 0 0.022l0.004 0.409c0.017 1.097 0.907 1.98 2.005 1.984h3.625l3.041 1.742c0.776 0.452 1.709 0.719 2.704 0.719 0.24 0 0.477-0.016 0.708-0.046l3.58-0.448-0.125-0.992-3.606 0.451c-0.166 0.022-0.358 0.034-0.552 0.034-0.814 0-1.576-0.219-2.233-0.6l-3.25-1.864h-3.893c-0.002 0-0.004 0-0.006 0-0.552 0-1-0.448-1-1 0 0 0 0 0-0l-0.004-0.408c-0-0.006-0-0.012-0-0.019 0-0.533 0.432-0.964 0.964-0.964 0.001 0 0.003 0 0.004 0h5.726v-1h-5.726z"></path>
<path d="M17.209 0.035c-1.188 0.082-2.29 0.369-3.298 0.827l-7.239 3.284c-1.027 0.466-1.463 1.713-0.965 2.729l-0.018-0.041c0.007 0.021 0.013 0.038 0.021 0.054 0.327 0.661 1 1.11 1.778 1.11 0.264 0 0.516-0.052 0.746-0.146l5.237-1.882-0.338-0.941-5.287 1.904c-0.107 0.045-0.232 0.072-0.363 0.072-0.383 0-0.713-0.224-0.867-0.548l-0.010-0.020c-0.068-0.133-0.108-0.29-0.108-0.456 0-0.406 0.238-0.757 0.582-0.92l7.303-3.311c1.848-0.838 3.911-0.885 5.984-0.563l7.978 1.25 0.154-0.988-7.978-1.25c-1.094-0.171-2.209-0.25-3.313-0.164z"></path>
<path d="M29 5.75c0 0.276-0.224 0.5-0.5 0.5s-0.5-0.224-0.5-0.5c0-0.276 0.224-0.5 0.5-0.5s0.5 0.224 0.5 0.5z"></path>
</svg>
