<!-- Generated by IcoMoon.io -->
<svg version="1.1" xmlns="http://www.w3.org/2000/svg" width="32" height="32" viewBox="0 0 32 32">
<title>handshake</title>
<path d="M31.931 10.347c-0.337-2.73-1.726-5.084-3.742-6.681-2.064-1.62-4.633-2.322-7.271-1.992-1.845 0.269-3.428 0.934-4.714 1.981-0.493-0.375-1.227-0.903-1.667-1.147-4.241-2.356-9.475-1.397-12.435 2.277-2.008 2.471-2.581 5.484-1.704 8.952 0.518 2.056 1.729 4.102 3.342 5.66 0.006 0.975 0.425 1.851 1.091 2.463 0.483 0.46 1.106 0.772 1.798 0.867 0.116 0.714 0.454 1.409 0.951 1.863 0.484 0.472 1.124 0.784 1.837 0.852 0.12 0.727 0.485 1.478 0.998 1.95s1.322 0.924 2.15 1.051c0.24 0.872 0.717 1.777 1.886 2.168 0.311 0.105 0.668 0.166 1.040 0.166 0.008 0 0.018 0 0.027 0 0.736 0 1.406-0.278 1.913-0.734 0.009-0.008 0.019-0.018 0.031-0.029 0.057-0.058 0.16-0.154 0.294-0.279 1.188-1.111 2.098-2.050 2.557-2.826 0.802 0.239 1.8 0.193 2.445-0.307 0.793-0.567 1.109-1.389 1.109-2.184 0.769-0.006 1.563-0.329 2.039-0.799 0.504-0.496 0.827-1.304 0.792-2.084 0.683-0.026 1.535-0.232 2.211-0.946 0.704-0.744 0.727-1.724 0.584-2.361 1.885-2.259 2.77-5.11 2.438-7.881zM5.115 19.419l3.26-3.156c0.157-0.105 1.117-0.688 1.883 0.232 0.6 0.721 0.326 1.348 0.216 1.539l-3.459 3.342c-0.423 0.011-0.875-0.172-1.244-0.516-0.393-0.359-0.643-0.869-0.656-1.438zM7.994 22.337l3.431-3.313c0.227-0.121 1.125-0.546 1.662-0.017 0.558 0.552 0.468 1.304 0.4 1.611l-3.668 3.46c-0.025 0.001-0.053 0.002-0.082 0.002-0.469 0-0.895-0.185-1.208-0.487-0.312-0.288-0.522-0.798-0.534-1.257zM10.773 25.069l3.658-3.45c0.34-0.059 1.191-0.139 1.659 0.414 0.323 0.382 0.304 1.044 0.25 1.409l-3.5 3.645c-0.479-0.063-1.090-0.34-1.492-0.709-0.321-0.294-0.557-0.858-0.573-1.309zM16.82 28.731c-0.137 0.129-0.247 0.231-0.313 0.297-0.634 0.549-1.398 0.352-1.618 0.279-0.455-0.152-0.791-0.438-1.016-1.313l3.526-3.671c0.463-0.261 1.156 0.133 1.394 0.423 0.304 0.375 0.433 0.946 0.469 1.218-0.074 0.267-0.516 0.964-2.441 2.767zM27.914 19.643c-0.556 0.586-1.367 0.563-1.817 0.486l-6.131-6.188c-0.126-0.134-0.304-0.218-0.502-0.218-0.38 0-0.688 0.308-0.688 0.688 0 0.196 0.082 0.372 0.213 0.497l6.222 6.278c0.231 0.368 0.104 1.086-0.265 1.451-0.343 0.337-1.178 0.544-1.563 0.293-0.003-0.001-0.005-0.002-0.008-0.003l-6.295-6.45c-0.124-0.121-0.293-0.195-0.48-0.195-0.38 0-0.688 0.308-0.688 0.688 0 0.181 0.070 0.345 0.183 0.468l6.326 6.483c0.125 0.438 0.139 1.135-0.481 1.579-0.279 0.216-0.916 0.223-1.356 0.049-0.081-0.423-0.273-1.114-0.729-1.673-0.421-0.515-1.25-1.023-2.113-1.024-0.022-0.539-0.161-1.183-0.604-1.707-0.647-0.765-1.546-0.938-2.231-0.941 0.010-0.64-0.148-1.476-0.856-2.174-0.617-0.61-1.375-0.728-2.054-0.631-0.004-0.551-0.179-1.176-0.688-1.784-1.239-1.489-2.988-1.051-3.799-0.426-0.021 0.017-0.040 0.033-0.058 0.051l-3.009 2.916c-1.307-1.348-2.284-3.046-2.715-4.75-0.776-3.068-0.306-5.603 1.438-7.75 2.546-3.159 7.046-3.976 10.703-1.944 0.328 0.183 0.883 0.58 1.313 0.899l-5.162 5.051c-0.169 0.148-0.931 0.869-0.938 1.875 0 0.444 0.147 1.106 0.881 1.738 1.724 1.486 4.323 1.309 6.178-0.421 0.738-0.688 2.467-2.38 3.32-3.217l8.671 8.813c0.054 0.197 0.174 0.781-0.219 1.196zM28.681 17.047l-8.719-8.865c-0.123-0.126-0.295-0.204-0.484-0.206h-0.006c-0.188 0-0.358 0.075-0.482 0.198-0.028 0.027-2.818 2.774-3.783 3.673-1.334 1.244-3.16 1.406-4.344 0.386-0.403-0.348-0.403-0.6-0.403-0.682 0-0.371 0.341-0.746 0.469-0.857 0.014-0.011 0.027-0.023 0.039-0.036l5.738-5.616c1.151-1.073 2.635-1.75 4.399-2.006 2.254-0.282 4.462 0.319 6.215 1.695 1.758 1.391 2.956 3.421 3.242 5.734 0.277 2.32-0.407 4.666-1.881 6.581z"></path>
</svg>
