<!-- Generated by IcoMoon.io -->
<svg version="1.1" xmlns="http://www.w3.org/2000/svg" width="32" height="32" viewBox="0 0 32 32">
<title>health-care</title>
<path d="M21.975 28.7c-0.025 0-0.056 0-0.081-0.006l-4.787-0.675c-0.275-0.038-0.481-0.269-0.5-0.544-0.031-0.587-0.294-5.769 0.262-7.194 0.775-2 4.056-4.050 5.037-4.631 0.962-0.569 1.512-1.313 2.038-2.031 0.587-0.8 1.194-1.631 2.306-2.025 0.113-0.044 0.225-0.069 0.331-0.081 0.113-0.475 0.344-1.338 0.669-2.206 0.7-1.875 1.488-2.825 2.4-2.888 0.212-0.044 0.688-0.050 1.844 0.269 0.156 0.044 0.288 0.15 0.363 0.294s0.081 0.313 0.025 0.469c-0.012 0.044-1.538 4.15-1.8 5.325-0.050 0.219-0.125 0.531-0.212 0.894-0.262 1.094-0.656 2.738-0.875 4.050-0.019 0.119-0.288 1.756-1 3.050-0.419 0.756-1.275 1.387-2.262 2.125-1.844 1.369-3.75 2.788-3.194 5.081 0.044 0.188-0.006 0.387-0.131 0.525-0.113 0.131-0.269 0.2-0.431 0.2zM17.744 26.938l3.538 0.5c-0.069-1.056 0.262-2.044 0.994-3 0.75-0.981 1.819-1.769 2.756-2.469 0.844-0.625 1.644-1.219 1.938-1.756 0.631-1.137 0.869-2.656 0.869-2.669 0 0 0-0.006 0-0.006 0.225-1.356 0.625-3.025 0.894-4.131 0.087-0.356 0.156-0.662 0.206-0.875 0.219-0.975 1.175-3.656 1.619-4.869-0.45-0.1-0.637-0.094-0.688-0.094-0.044 0.013-0.087 0.019-0.131 0.019-0.063 0-0.637 0.069-1.413 2.138-0.363 0.969-0.6 1.95-0.675 2.287 0.344 0.55 0.331 1.55-0.050 2.963-0.256 0.95-0.694 2.113-1.106 2.575-0.344 0.381-0.75 0.656-1.15 0.919-0.456 0.306-0.856 0.569-1.019 0.919-0.131 0.294-0.481 0.419-0.769 0.288-0.294-0.131-0.419-0.481-0.288-0.769 0.3-0.65 0.875-1.031 1.431-1.4 0.35-0.231 0.681-0.45 0.925-0.725 0.175-0.194 0.569-1.037 0.85-2.113 0.319-1.206 0.269-1.794 0.206-1.981-0.019 0.006-0.038 0.012-0.063 0.019-0.781 0.275-1.212 0.869-1.762 1.619-0.569 0.775-1.212 1.656-2.381 2.344-2.344 1.381-4.125 2.969-4.544 4.050-0.306 0.819-0.281 4.063-0.188 6.219zM29.869 7.563v0 0zM29.969 7.537c0 0 0 0 0 0s0 0 0 0zM29.969 7.537c0 0 0 0 0 0s0 0 0 0zM29.969 7.537c0 0 0 0 0 0s0 0 0 0zM29.969 7.537c0 0 0 0 0 0s0 0 0 0zM10.025 28.7c-0.162 0-0.319-0.069-0.431-0.194-0.131-0.144-0.181-0.337-0.131-0.525 0.563-2.294-1.35-3.712-3.194-5.081-0.987-0.738-1.844-1.369-2.263-2.125-0.719-1.294-0.981-2.931-1-3.050-0.219-1.313-0.612-2.963-0.875-4.050-0.087-0.363-0.163-0.675-0.212-0.894-0.256-1.175-1.781-5.287-1.8-5.325-0.056-0.15-0.044-0.319 0.025-0.469 0.075-0.144 0.206-0.25 0.362-0.294 1.15-0.319 1.625-0.313 1.837-0.269 0.919 0.063 1.706 1.013 2.406 2.888 0.325 0.869 0.55 1.725 0.669 2.206 0.106 0.012 0.219 0.044 0.338 0.081 1.112 0.4 1.719 1.225 2.306 2.025 0.525 0.719 1.069 1.463 2.037 2.031 0.988 0.581 4.263 2.631 5.037 4.631 0.556 1.425 0.294 6.606 0.262 7.194-0.012 0.275-0.225 0.506-0.5 0.544l-4.787 0.675c-0.031 0-0.056 0-0.088 0zM1.431 7.656c0.444 1.219 1.406 3.894 1.619 4.869 0.044 0.206 0.119 0.519 0.206 0.875 0.263 1.106 0.663 2.781 0.894 4.131 0 0 0 0.006 0 0.006 0 0.012 0.244 1.538 0.869 2.669 0.294 0.538 1.094 1.125 1.938 1.756 0.944 0.7 2.006 1.488 2.756 2.469 0.731 0.956 1.063 1.944 0.994 3l3.537-0.5c0.094-2.156 0.119-5.4-0.206-6.231-0.419-1.081-2.206-2.669-4.544-4.050-1.175-0.688-1.819-1.569-2.381-2.344-0.55-0.75-0.981-1.344-1.763-1.619-0.025-0.006-0.044-0.012-0.063-0.019-0.063 0.188-0.112 0.775 0.206 1.981 0.287 1.081 0.681 1.919 0.85 2.112 0.244 0.275 0.575 0.494 0.925 0.725 0.556 0.369 1.131 0.75 1.431 1.4 0.131 0.294 0.006 0.637-0.287 0.769s-0.638 0.006-0.769-0.288c-0.162-0.35-0.556-0.613-1.019-0.919-0.394-0.262-0.806-0.538-1.15-0.919-0.412-0.456-0.85-1.625-1.106-2.575-0.375-1.412-0.394-2.406-0.050-2.963-0.081-0.344-0.319-1.331-0.681-2.3-0.769-2.056-1.344-2.125-1.406-2.125-0.044 0-0.087-0.006-0.131-0.019-0.031 0.013-0.219 0.013-0.669 0.106zM2.131 7.563v0 0zM2.031 7.537c0 0 0 0 0 0s0 0 0 0zM2.031 7.537c0 0 0 0 0 0s0 0 0 0zM2.031 7.537c0 0 0 0 0 0s0 0 0 0zM22.344 22.156c-0.087 0-0.175-0.019-0.256-0.063-0.288-0.144-0.406-0.494-0.262-0.781 0.212-0.431 0.456-0.85 0.725-1.244 0.181-0.262 0.544-0.331 0.806-0.15s0.331 0.544 0.15 0.806c-0.238 0.35-0.456 0.725-0.65 1.106-0.094 0.206-0.3 0.325-0.512 0.325zM9.894 22.156c-0.213 0-0.419-0.119-0.519-0.325-0.188-0.381-0.406-0.75-0.65-1.106-0.181-0.262-0.113-0.625 0.15-0.806s0.625-0.113 0.806 0.15c0.269 0.394 0.512 0.813 0.725 1.244 0.144 0.288 0.025 0.637-0.262 0.781-0.075 0.044-0.162 0.063-0.25 0.063zM16 16.863c-3.738 0-6.781-3.044-6.781-6.781s3.044-6.781 6.781-6.781 6.781 3.044 6.781 6.781-3.044 6.781-6.781 6.781zM16 4.463c-3.1 0-5.619 2.519-5.619 5.619s2.519 5.619 5.619 5.619 5.619-2.519 5.619-5.619-2.519-5.619-5.619-5.619zM17.156 14.219h-2.050c-0.319 0-0.581-0.262-0.581-0.581v-2.037h-2.037c-0.319 0-0.581-0.262-0.581-0.581v-2.044c0-0.319 0.262-0.581 0.581-0.581h2.037v-2.037c0-0.319 0.262-0.581 0.581-0.581h2.050c0.319 0 0.581 0.263 0.581 0.581v2.037h2.038c0.156 0 0.3 0.063 0.413 0.169 0.106 0.106 0.169 0.256 0.169 0.412l-0.006 2.044c0 0.319-0.262 0.581-0.581 0.581h-2.031v2.037c0 0.325-0.256 0.581-0.581 0.581zM15.694 13.056h0.888v-2.037c0-0.319 0.262-0.581 0.581-0.581h2.038v-0.887h-2.038c-0.319 0-0.581-0.262-0.581-0.581v-2.031h-0.887v2.037c0 0.319-0.262 0.581-0.581 0.581h-2.037v0.881h2.037c0.319 0 0.581 0.262 0.581 0.581v2.037z"></path>
</svg>
