<!-- Generated by IcoMoon.io -->
<svg version="1.1" xmlns="http://www.w3.org/2000/svg" width="32" height="32" viewBox="0 0 32 32">
<title>list</title>
<path d="M31 3.5h-30c-0.6 0-1-0.4-1-1v-1.5c0-0.6 0.4-1 1-1h30c0.6 0 1 0.4 1 1v1.5c0 0.6-0.4 1-1 1z"></path>
<path d="M31 10.6h-30c-0.6 0-1-0.4-1-1v-1.5c0-0.6 0.4-1 1-1h30c0.6 0 1 0.4 1 1v1.5c0 0.6-0.4 1-1 1z"></path>
<path d="M31 17.8h-30c-0.6 0-1-0.4-1-1v-1.5c0-0.6 0.4-1 1-1h30c0.6 0 1 0.4 1 1v1.5c0 0.5-0.4 1-1 1z"></path>
<path d="M31 24.9h-30c-0.6 0-1-0.4-1-1v-1.5c0-0.6 0.4-1 1-1h30c0.6 0 1 0.4 1 1v1.5c0 0.5-0.4 1-1 1z"></path>
<path d="M31 32h-30c-0.6 0-1-0.4-1-1v-1.5c0-0.6 0.4-1 1-1h30c0.6 0 1 0.4 1 1v1.5c0 0.6-0.4 1-1 1z"></path>
</svg>
