<!-- Generated by IcoMoon.io -->
<svg version="1.1" xmlns="http://www.w3.org/2000/svg" width="32" height="32" viewBox="0 0 32 32">
<title>marketing-campaign</title>
<path d="M28.267 10.569c0.099-0.002 0.191-0.031 0.269-0.081l2.985-1.732c0.267-0.16 0.347-0.48 0.188-0.72-0.16-0.267-0.48-0.347-0.72-0.188l-2.988 1.707c-0.267 0.16-0.347 0.48-0.188 0.72 0.079 0.174 0.251 0.294 0.451 0.294 0.001 0 0.002 0 0.004 0z"></path>
<path d="M31.493 18.942l-2.96-1.707c-0.267-0.133-0.587-0.053-0.72 0.188s-0.053 0.587 0.188 0.72l2.987 1.707c0.077 0.050 0.172 0.080 0.273 0.080 0.192 0 0.36-0.107 0.445-0.265 0.134-0.27 0.054-0.59-0.213-0.723z"></path>
<path d="M31.467 13.316v0l-3.438 0.027c-0.295 0-0.533 0.239-0.533 0.533s0.239 0.533 0.533 0.533v0l3.438-0.027c0.294-0.001 0.532-0.239 0.533-0.533 0-0.005 0-0.010 0-0.015 0-0.287-0.232-0.519-0.519-0.519-0.005 0-0.010 0-0.015 0z"></path>
<path d="M24.64 12.169h-1.093v-7.544c-0.002-0.214-0.132-0.398-0.317-0.479-0.191-0.081-0.43-0.054-0.566 0.079-3.264 2.873-7.571 4.629-12.288 4.638h-5.337c-2.78 0.007-5.033 2.259-5.040 5.039v0.376c0.007 2.78 2.259 5.033 5.039 5.040 0.008 0.001 0.017 0.001 0.026 0.001 0.049 0 0.095-0.010 0.137-0.029l1.865 0.001v6.133c0.004 0.685 0.278 1.305 0.721 1.761 0.445 0.441 1.056 0.715 1.732 0.719h0.028c1.36 0 2.48-1.12 2.48-2.507v-4.508c0-0.295-0.239-0.533-0.533-0.533s-0.533 0.239-0.533 0.533v4.507c0 0.003 0 0.006 0 0.009 0 0.784-0.631 1.42-1.412 1.429-0.007 0-0.014 0-0.022 0-0.376 0-0.716-0.151-0.964-0.396-0.263-0.256-0.427-0.614-0.427-1.011 0-0.001 0-0.002 0-0.003v-6.135h2.375c0.002 0 0.004 0 0.007 0 4.642 0 8.892 1.674 12.182 4.45 0.065 0.056 0.186 0.106 0.318 0.11 0.079-0.002 0.152-0.021 0.217-0.054 0.186-0.081 0.315-0.264 0.317-0.478v-7.574h1.12c0.987 0 1.787-0.8 1.787-1.787 0-0.006 0-0.013 0-0.020 0-0.486-0.205-0.924-0.532-1.232-0.326-0.33-0.778-0.534-1.278-0.534-0.003 0-0.005 0-0.008 0zM1.067 14.276v-0.375c0.004-2.006 1.487-3.665 3.416-3.944l0.022 8.239c-1.942-0.24-3.438-1.92-3.438-3.92zM10.504 18.223h-4.931v-8.293h4.802c0.005 0 0.011 0 0.017 0 4.578 0 8.79-1.566 12.13-4.192l-0.042 6.965v9.493c-3.299-2.476-7.462-3.967-11.972-3.973zM24.637 14.676h-1.091v-1.438h1.12c0.396 0.005 0.715 0.324 0.72 0.72-0.022 0.398-0.347 0.712-0.746 0.718z"></path>
</svg>
