<!-- Generated by IcoMoon.io -->
<svg version="1.1" xmlns="http://www.w3.org/2000/svg" width="32" height="32" viewBox="0 0 32 32">
<title>microscope</title>
<path d="M4.819 32h22.019c0.908-0.001 1.643-0.737 1.644-1.644v-1.496c-0.001-0.908-0.737-1.643-1.644-1.644h-0.547l-2.688-3.571c3.153-1.984 5.217-5.444 5.219-9.387 0-6.095-4.96-11.054-11.057-11.054-0.759 0-1.87 0.107-2.472 0.172v-0.132c-0.001-0.806-0.654-1.458-1.459-1.459h-0.176v-1.25c0-0 0-0.001 0-0.001 0-0.294-0.239-0.533-0.533-0.533 0 0 0 0 0 0h-2.875c-0.294 0-0.533 0.239-0.533 0.533v1.25h-0.177c-0.806 0.001-1.459 0.654-1.459 1.459v11.633c0.001 0.703 0.498 1.289 1.16 1.428l0.010 1.68c0 0.294 0.239 0.533 0.533 0.533h3.818c0.294 0 0.533-0.239 0.533-0.533v-1.678c0.668-0.143 1.162-0.729 1.162-1.43v-7.292c0.505-0.106 1.699-0.339 2.472-0.339 0 0 0.001 0 0.002 0 3.872 0 7.011 3.139 7.011 7.011 0 2.634-1.453 4.93-3.602 6.127-0.546-0.531-1.272-0.874-2.079-0.874-0.003 0-0.007 0-0.010 0-0.105 0-0.208 0.007-0.31 0.018-0.038-0.009-0.099-0.015-0.161-0.017l-12.519-0c-0.010-0-0.021-0-0.033-0-0.944 0-1.71 0.766-1.71 1.71s0.766 1.71 1.71 1.71c0.011 0 0.023-0 0.034-0l9.016 0-3.224 4.288h-7.074c-0.908 0.001-1.643 0.737-1.644 1.644v1.496c0.001 0.908 0.737 1.643 1.644 1.644zM10.786 1.067h1.808v0.718h-1.808zM13.063 17.449h-2.75v-1.114h2.75zM14.23 14.875c-0 0.217-0.176 0.393-0.393 0.393h-4.295c-0.217-0-0.393-0.176-0.393-0.393 0 0 0 0 0 0v-11.631c0 0 0 0 0 0 0-0.217 0.176-0.393 0.392-0.393h4.295c0.217 0 0.393 0.176 0.393 0.393zM25.851 14.257c0-4.455-3.625-8.079-8.082-8.079-0.773 0-1.854 0.192-2.472 0.316v-2.044c0.545-0.063 1.721-0.179 2.472-0.179 5.509 0 9.99 4.481 9.99 9.987-0.002 3.595-1.902 6.747-4.753 8.505l-1.198-1.512c2.425-1.429 4.030-4.022 4.043-6.991zM6.1 21.861c-0.001 0-0.002 0-0.003 0-0.355 0-0.643-0.288-0.643-0.642 0-0.177 0.071-0.336 0.186-0.453 0.117-0.118 0.279-0.191 0.459-0.192h10.792c-0.015 0.019-0.032 0.036-0.047 0.055l-0.926 1.231h-9.819zM17.698 21.271c0.322-0.425 0.827-0.697 1.395-0.697s1.073 0.272 1.392 0.692l4.472 5.948h-11.729zM4.242 28.86c0.001-0.319 0.259-0.577 0.577-0.578h22.019c0.319 0.001 0.577 0.259 0.578 0.577v1.496c-0.001 0.319-0.259 0.577-0.577 0.578h-22.019c-0.319-0.001-0.577-0.259-0.577-0.577z"></path>
<path d="M20.134 22.395c0 0.575-0.466 1.041-1.041 1.041s-1.041-0.466-1.041-1.041c0-0.575 0.466-1.041 1.041-1.041s1.041 0.466 1.041 1.041z"></path>
</svg>
