<?xml version="1.0" encoding="utf-8"?>
<!-- Generated by IcoMoon.io -->
<!DOCTYPE svg PUBLIC "-//W3C//DTD SVG 1.1//EN" "http://www.w3.org/Graphics/SVG/1.1/DTD/svg11.dtd">
<svg version="1.1" xmlns="http://www.w3.org/2000/svg" xmlns:xlink="http://www.w3.org/1999/xlink" width="32" height="32" viewBox="0 0 32 32">
<path d="M21.764 15.47c-0.138-0.461 0.093-0.968 0.553-1.107s0.968 0.092 1.107 0.553-0.093 0.968-0.553 1.107c-0.068 0.030-0.148 0.048-0.232 0.048-0.016 0-0.031-0.001-0.047-0.002-0.367 0.046-0.69-0.23-0.828-0.599zM32 13.487c0 1.91-1.548 3.458-3.458 3.458s-3.458-1.548-3.458-3.458c0-1.891 1.567-3.458 3.458-3.458 0.001 0 0.003 0 0.004 0 1.907 0 3.454 1.546 3.454 3.454 0 0.002 0 0.003 0 0.005zM30.25 13.487c0-0.966-0.784-1.75-1.75-1.75s-1.75 0.784-1.75 1.75c0 0.966 0.784 1.75 1.75 1.75 1.010 0.002 1.75-0.781 1.75-1.75zM9.268 16.023c0.013 0.001 0.029 0.002 0.045 0.002 0.084 0 0.164-0.018 0.236-0.049 0.457-0.137 0.688-0.644 0.549-1.105s-0.646-0.692-1.107-0.553-0.691 0.646-0.554 1.107c0.122 0.349 0.447 0.596 0.83 0.599zM27.018 27.873c0 0.001 0 0.003 0 0.004 0 1.907-1.546 3.454-3.454 3.454-0.001 0-0.001 0-0.002 0-1.891 0-3.458-1.567-3.458-3.458 0-0.875 0.323-1.614 0.83-2.259l-3.227-4.519c-0.508 0.231-1.107 0.323-1.66 0.323-0.603-0.007-1.173-0.143-1.686-0.379l-3.202 4.573c0.46 0.588 0.738 1.339 0.738 2.154 0 0.005 0 0.009-0 0.014 0 0 0 0.001 0 0.002 0 1.91-1.548 3.458-3.458 3.458s-3.458-1.548-3.458-3.458c0-1.909 1.548-3.457 3.457-3.458 0.004 0 0.008-0 0.012-0 0.479 0 0.935 0.102 1.346 0.285l3.205-4.527c-0.674-0.709-1.088-1.671-1.088-2.729 0-0.159 0.009-0.317 0.028-0.471l-0.002 0.019c0.053-0.617 0.235-1.181 0.518-1.68l-0.011 0.020c0.199-0.351 0.429-0.654 0.693-0.923 0.548-0.552 1.256-0.944 2.049-1.102l0.025-5.721c-1.476-0.369-2.582-1.75-2.582-3.366 0-1.91 1.548-3.458 3.458-3.458s3.458 1.548 3.458 3.458c0 1.614-1.107 2.951-2.582 3.366v5.718c0.81 0.193 1.512 0.579 2.078 1.109 0.759 0.751 1.234 1.794 1.242 2.947 0 1.064-0.415 2.030-1.107 2.814l3.227 4.519c0.369-0.145 0.797-0.23 1.245-0.231 1.803-0.001 3.37 1.568 3.37 3.506zM10.143 27.781c0-0.966-0.784-1.75-1.75-1.75s-1.75 0.784-1.75 1.75c0 0.966 0.784 1.75 1.75 1.75 0 0 0.001 0 0.001 0 0.966 0 1.75-0.783 1.75-1.749zM16.046 5.833c0.966 0 1.75-0.784 1.75-1.75s-0.784-1.75-1.75-1.75c-0.966 0-1.75 0.784-1.75 1.75s0.784 1.75 1.75 1.75zM17.75 15.516c-0.44-0.428-1.042-0.692-1.705-0.692-0 0-0.001 0-0.002 0-0.010-0-0.021-0-0.033-0-0.653 0-1.245 0.264-1.673 0.692-0.425 0.439-0.687 1.039-0.687 1.699 0 1.351 1.095 2.446 2.446 2.446 0.661 0 1.26-0.262 1.7-0.688 0.424-0.441 0.685-1.043 0.685-1.705 0-0.685-0.28-1.305-0.732-1.752zM25.268 27.875c0-0.966-0.784-1.75-1.75-1.75s-1.75 0.784-1.75 1.75c0 0.966 0.784 1.75 1.75 1.75s1.75-0.829 1.75-1.75zM6.916 13.395c0 0.001 0 0.003 0 0.004 0 1.907-1.546 3.454-3.454 3.454-0.002 0-0.003 0-0.005 0-1.89 0-3.458-1.568-3.458-3.458 0-1.91 1.548-3.458 3.458-3.458s3.458 1.548 3.458 3.458zM5.21 13.395c0-0.966-0.784-1.75-1.75-1.75s-1.75 0.784-1.75 1.75c0 0.966 0.784 1.75 1.75 1.75 0.966 0.002 1.751-0.828 1.751-1.75z"></path>
</svg>
