<?xml version="1.0" encoding="utf-8"?>
<!-- Generated by IcoMoon.io -->
<!DOCTYPE svg PUBLIC "-//W3C//DTD SVG 1.1//EN" "http://www.w3.org/Graphics/SVG/1.1/DTD/svg11.dtd">
<svg version="1.1" xmlns="http://www.w3.org/2000/svg" xmlns:xlink="http://www.w3.org/1999/xlink" width="32" height="32" viewBox="0 0 32 32">
<path d="M25.285 9.291c1.14 0 2.066-0.926 2.066-2.066s-0.932-2.060-2.066-2.060c-1.14 0-2.066 0.926-2.066 2.066s0.926 2.060 2.066 2.060zM25.285 6.198c0.567 0 1.033 0.466 1.033 1.033s-0.466 1.033-1.033 1.033-1.033-0.466-1.033-1.033c0-0.573 0.46-1.033 1.033-1.033z"></path>
<path d="M19.093 6.715c1.14 0 2.066-0.926 2.066-2.066s-0.932-2.066-2.066-2.066c-1.14 0-2.066 0.926-2.066 2.066s0.926 2.066 2.066 2.066zM19.093 3.616c0.567 0 1.033 0.466 1.033 1.033s-0.466 1.033-1.033 1.033-1.033-0.466-1.033-1.033c0-0.567 0.46-1.033 1.033-1.033z"></path>
<path d="M14.444 4.649c0-1.14-0.926-2.066-2.066-2.066s-2.066 0.926-2.066 2.066 0.926 2.066 2.066 2.066c1.146 0 2.066-0.932 2.066-2.066zM11.351 4.649c0-0.567 0.466-1.033 1.033-1.033s1.033 0.46 1.033 1.033c0 0.573-0.466 1.033-1.033 1.033s-1.033-0.466-1.033-1.033z"></path>
<path d="M7.225 5.682c-1.14 0-2.066 0.926-2.066 2.066s0.926 2.066 2.066 2.066 2.066-0.926 2.066-2.066-0.932-2.066-2.066-2.066zM7.225 8.775c-0.567 0-1.033-0.466-1.033-1.033s0.466-1.033 1.033-1.033c0.567 0 1.033 0.466 1.033 1.033 0 0.573-0.466 1.033-1.033 1.033z"></path>
<path d="M4.642 11.357c-1.14 0-2.066 0.926-2.066 2.066s0.926 2.066 2.066 2.066c1.14 0 2.066-0.926 2.066-2.066s-0.926-2.066-2.066-2.066zM4.642 14.456c-0.567 0-1.033-0.466-1.033-1.033s0.466-1.033 1.033-1.033c0.567 0 1.033 0.466 1.033 1.033 0 0.573-0.466 1.033-1.033 1.033z"></path>
<path d="M28.264 25.222c-1.379-1.808-2.904-3.49-4.554-5.039-0.088-0.542-0.113-1.090-0.069-1.644 0.239-2.809 2.431-5.253 5.329-5.946 0 0 1.972-0.435 2.772-2.242 0.441-1.002 0.315-2.117-0.265-3.036-2.872-4.51-8.548-7.313-14.828-7.313-9.184 0-16.649 6.022-16.649 13.423s7.464 13.423 16.649 13.423c1.694 0 3.874-0.195 5.757-0.92 0.901 0.825 1.833 1.613 2.803 2.356l4.491 3.433c0.252 0.195 1.172 0.586 1.877-0.126 0.504-0.504 0.561-1.316 0.126-1.883l-3.439-4.485zM16.649 25.814c-8.611 0-15.616-5.562-15.616-12.39 0-6.835 7.005-12.39 15.616-12.39 5.934 0 11.275 2.614 13.953 6.828 0.409 0.643 0.466 1.386 0.183 2.091-0.504 1.26-2.054 1.631-2.054 1.631-3.32 0.794-5.839 3.616-6.116 6.86-0.019 0.239-0.025 0.479-0.025 0.718-0.624-0.542-1.26-1.065-1.915-1.569l0.076-0.076c0 0 0.252-1.77-1.052-3.074-0.706-0.706-1.556-0.718-2.457-0.731-1.064-0.013-2.268-0.031-3.855-1.039-0.737-0.466-1.335-0.315-1.562 0.233-0.529 1.279 1.594 5.77 2.62 6.797 1.354 1.354 3.068 1.052 3.068 1.052l0.076-0.076c1.228 1.587 2.564 3.087 4.006 4.479-0.39 0.208-3.338 0.655-4.945 0.655zM19.937 18.324c0.58 0.441 1.14 0.907 1.688 1.38l-1.94 1.94c-0.472-0.554-0.932-1.115-1.379-1.688l1.631-1.631zM17.058 19.748v0c-0.718 0-1.392-0.277-1.89-0.775-0.964-0.964-2.394-4.453-2.419-5.474 1.638 0.882 3.395 1.235 4.472 1.247 0.876 0.013 1.348 0.038 1.739 0.428 0.498 0.498 0.775 1.178 0.775 1.89l-2.677 2.683zM30.84 30.866c-0.208 0.208-0.435 0.101-0.523 0.032l-4.485-3.433c-1.972-1.512-3.798-3.2-5.455-5.046l2.035-2.035c1.839 1.663 3.527 3.49 5.039 5.461l3.433 4.491c0.113 0.157 0.095 0.384-0.044 0.529z"></path>
</svg>
