<!-- Generated by IcoMoon.io -->
<svg version="1.1" xmlns="http://www.w3.org/2000/svg" width="32" height="32" viewBox="0 0 32 32">
<title>pencil</title>
<path d="M3.859 16.207l-3.799 14.872c0 0.036-0.036 0.036-0.036 0.072-0.143 0.466 0.358 0.968 0.824 0.824 0.036 0 0.072-0.036 0.108-0.036l14.836-3.799c0.036 0 0.036-0.036 0.072-0.036s0.108-0.036 0.143-0.072c0.036-0.036 0.072-0.036 0.108-0.072l15.696-15.697c0.251-0.251 0.251-0.681 0-0.932l-11.145-11.145c-0.251-0.251-0.681-0.251-0.932 0l-15.696 15.696c-0.072 0.108-0.143 0.215-0.179 0.322zM1.781 30.255l1.326-3.799c0.86 0.753 1.684 1.577 2.437 2.437l-3.763 1.362zM7.336 28.965l-0.108-0.143c-0.609-0.717-1.218-1.433-1.863-2.078s-1.362-1.29-2.079-1.863l-0.143-0.108 1.792-7.060 9.497 9.497-7.096 1.756zM23.892 5.313l3.512 3.512-6.916 6.916c-0.251 0.251-0.251 0.681 0 0.932s0.681 0.251 0.932 0l6.916-6.916 2.043 2.043-14.729 14.765-6.486-6.522 14.729-14.729zM20.201 1.622l2.759 2.759-14.729 14.729-2.759-2.759 14.729-14.729z"></path>
</svg>
