<?xml version="1.0" encoding="utf-8"?>
<!-- Generated by IcoMoon.io -->
<!DOCTYPE svg PUBLIC "-//W3C//DTD SVG 1.1//EN" "http://www.w3.org/Graphics/SVG/1.1/DTD/svg11.dtd">
<svg version="1.1" xmlns="http://www.w3.org/2000/svg" xmlns:xlink="http://www.w3.org/1999/xlink" width="29" height="32" viewBox="0 0 29 32">
<path d="M1.951 10.208l3.611 2.075c-0.913 1.536-1.411 3.321-1.411 5.189 0 5.728 4.649 10.377 10.377 10.377s10.377-4.649 10.377-10.377c0-5.521-4.317-10.045-9.755-10.377 0 0.415 0 0.83 0 1.245v1.121c0 0.913-0.664 1.287-1.453 0.83l-2.241-1.287c-0.789-0.457-2.075-1.204-2.864-1.66l-2.241-1.287c-0.789-0.457-0.789-1.204 0-1.66l2.241-1.287c0.789-0.457 2.075-1.204 2.864-1.66l2.241-1.245c0.789-0.457 1.453-0.125 1.453 0.747 0 0.581 0 1.328 0 1.992 7.72 0.332 13.905 6.724 13.905 14.528 0 8.011-6.517 14.528-14.528 14.528s-14.528-6.517-14.528-14.528c0-2.656 0.706-5.105 1.951-7.264z"></path>
</svg>
