<!-- Generated by IcoMoon.io -->
<svg version="1.1" xmlns="http://www.w3.org/2000/svg" width="32" height="32" viewBox="0 0 32 32">
<title>science</title>
<path d="M30.009 8c-1.153-1.956-4.367-2.411-8.489-1.468-1.223-3.982-3.214-6.532-5.519-6.532s-4.297 2.55-5.519 6.532c-4.088-0.943-7.336-0.489-8.489 1.468-0.489 0.838-0.559 1.817-0.279 2.969 0.419 1.537 1.572 3.284 3.214 5.031-1.676 1.747-2.794 3.494-3.214 5.031-0.313 1.153-0.209 2.131 0.279 2.969 0.769 1.328 2.446 1.956 4.716 1.956 1.118 0 2.411-0.174 3.773-0.489 1.223 3.983 3.214 6.533 5.519 6.533s4.297-2.55 5.519-6.532c1.363 0.313 2.655 0.489 3.773 0.489 2.236 0 3.947-0.629 4.716-1.956 0.489-0.838 0.559-1.817 0.279-2.969-0.419-1.537-1.572-3.284-3.214-5.031 1.677-1.747 2.795-3.494 3.214-5.031 0.314-1.153 0.212-2.166-0.279-2.97zM16 1.397c1.747 0 3.179 2.306 4.157 5.485-1.659 0.495-3.037 1.017-4.37 1.623-0.907-0.606-2.286-1.128-3.704-1.561 0.738-3.277 2.17-5.548 3.917-5.548zM21.415 16c0 0.054 0.001 0.119 0.001 0.183 0 0.994-0.051 1.975-0.151 2.943-0.793 0.437-1.667 0.962-2.577 1.486-0.875 0.489-1.782 0.978-2.725 1.398-0.908-0.419-1.851-0.908-2.725-1.398-0.908-0.524-1.747-1.048-2.585-1.607-0.088-0.851-0.138-1.839-0.138-2.839 0-0.058 0-0.116 0.001-0.175-0-0.039-0.001-0.096-0.001-0.153 0-1.001 0.051-1.99 0.151-2.964 0.794-0.436 1.667-0.961 2.575-1.485 0.875-0.489 1.782-0.978 2.725-1.398 0.908 0.419 1.851 0.908 2.725 1.398 0.908 0.524 1.747 1.049 2.585 1.607 0.090 0.846 0.141 1.828 0.141 2.821 0 0.064-0 0.129-0.001 0.193zM22.777 14.044c0.851 0.644 1.603 1.285 2.316 1.966-0.713 0.662-1.465 1.303-2.251 1.9-0.030-0.582-0.030-1.245-0.030-1.909s0-1.328-0.035-1.956zM21.063 20.821c-0.146 1.123-0.342 2.106-0.596 3.065-0.871-0.445-1.814-0.759-2.793-1.143 0.559-0.279 1.118-0.594 1.712-0.908 0.666-0.359 1.214-0.695 1.744-1.056zM14.288 22.742c-0.943 0.384-1.886 0.699-2.83 0.978-0.209-0.943-0.419-1.921-0.559-2.899 0.559 0.349 1.083 0.699 1.677 1.013 0.594 0.349 1.153 0.629 1.712 0.908zM9.226 17.956c-0.852-0.644-1.605-1.285-2.319-1.966 0.713-0.662 1.465-1.302 2.251-1.899 0.030 0.582 0.030 1.245 0.030 1.909s0 1.328 0.035 1.956zM10.938 11.179c0.146-1.123 0.342-2.106 0.596-3.065 0.871 0.445 1.814 0.759 2.793 1.143-0.559 0.279-1.118 0.594-1.712 0.908-0.666 0.359-1.214 0.695-1.744 1.056zM19.392 10.166c-0.559-0.313-1.118-0.629-1.712-0.908 0.94-0.383 1.883-0.699 2.826-0.978 0.209 0.943 0.419 1.921 0.559 2.899-0.462-0.318-1.010-0.654-1.575-0.962zM3.179 8.699c0.524-0.908 1.712-1.293 3.319-1.293 1.048 0 2.271 0.174 3.598 0.489-0.295 1.195-0.553 2.669-0.719 4.17-1.303 1.070-2.431 1.988-3.493 2.975-1.446-1.591-2.459-3.128-2.844-4.421-0.175-0.803-0.14-1.433 0.139-1.921zM3.179 23.301c-0.279-0.489-0.313-1.153-0.14-1.921 0.349-1.328 1.363-2.864 2.864-4.402 1.042 0.969 2.17 1.887 3.357 2.727 0.242 1.681 0.502 3.157 0.877 4.586-3.325 0.618-6.085 0.513-6.958-0.989zM16 30.602c-1.747 0-3.179-2.306-4.157-5.485 1.659-0.495 3.037-1.017 4.37-1.623 0.907 0.606 2.286 1.128 3.704 1.561-0.738 3.277-2.17 5.548-3.917 5.548zM28.821 23.301c-0.875 1.5-3.598 1.572-6.917 0.804 0.295-1.195 0.553-2.668 0.719-4.17 1.303-1.070 2.431-1.988 3.493-2.975 1.448 1.59 2.461 3.128 2.844 4.42 0.174 0.803 0.139 1.433-0.14 1.921zM28.926 10.62c-0.349 1.328-1.363 2.864-2.864 4.402-1.042-0.969-2.17-1.887-3.357-2.727-0.242-1.681-0.502-3.157-0.877-4.586 1.369-0.127 2.591-0.304 3.64-0.304 1.607 0 2.795 0.384 3.319 1.292 0.314 0.489 0.349 1.119 0.139 1.922z"></path>
<path d="M16 14.253c-0.965 0-1.747 0.782-1.747 1.747s0.782 1.747 1.747 1.747c0.965 0 1.747-0.782 1.747-1.747 0-0.005 0-0.011 0-0.017 0-0.955-0.775-1.73-1.73-1.73-0.006 0-0.012 0-0.018 0z"></path>
</svg>
