<!-- Generated by IcoMoon.io -->
<svg version="1.1" xmlns="http://www.w3.org/2000/svg" width="32" height="32" viewBox="0 0 32 32">
<title>screen</title>
<path d="M29.019 8.278v10.812h-26.065v-10.812h26.065zM30.018 7.278h-28.063v12.81h28.063v-12.81z"></path>
<path d="M30.975 6.42v14.949c-2.037 0.993-7.554 1.925-14.988 1.925-7.432 0-12.949-0.932-14.988-1.924v-14.95h29.976zM31.974 5.42h-31.974v16.526h0c1.972 1.354 8.38 2.347 15.986 2.347s14.014-0.992 15.986-2.347h0.001v-16.526z"></path>
<path d="M9.503 21.582h2.311v0.999h-2.311v-0.999z"></path>
<path d="M13.055 21.582h2.312v0.999h-2.312v-0.999z"></path>
<path d="M16.606 21.582h2.312v0.999h-2.312v-0.999z"></path>
<path d="M20.16 21.582h2.312v0.999h-2.312v-0.999z"></path>
<path d="M5.313 25.58h21.348v0.999h-21.348v-0.999z"></path>
</svg>
