<!-- Generated by IcoMoon.io -->
<svg version="1.1" xmlns="http://www.w3.org/2000/svg" width="32" height="32" viewBox="0 0 32 32">
<title>sociology</title>
<path d="M20.563 14.7c-0.081-0.219-0.287-0.371-0.529-0.371-0.069 0-0.134 0.012-0.195 0.035l-0.934 0.337c-0.51-0.897-1.387-1.534-2.421-1.711l-0.020-0.499c0-0.311-0.252-0.563-0.563-0.563s-0.563 0.252-0.563 0.563v0.496c-1.047 0.179-1.918 0.809-2.421 1.678l-0.769-0.263c-0.061-0.025-0.132-0.039-0.206-0.039-0.311 0-0.563 0.252-0.563 0.563 0 0.245 0.157 0.454 0.376 0.531l0.763 0.281c-0.040 0.198-0.063 0.425-0.063 0.658 0 1.903 1.542 3.445 3.445 3.445s3.445-1.542 3.445-3.445c0-0.225-0.021-0.444-0.063-0.657l0.941-0.316c0.219-0.080 0.372-0.287 0.372-0.529 0-0.069-0.012-0.134-0.035-0.195zM15.901 18.7c-1.281-0.001-2.319-1.039-2.32-2.32 0.021-0.468 0.157-0.9 0.382-1.273 0.411-0.627 1.123-1.043 1.932-1.043 0.857 0 1.605 0.467 2.003 1.16 0.197 0.34 0.312 0.734 0.318 1.154-0.001 1.281-1.037 2.318-2.316 2.322z"></path>
<path d="M10.512 9.301c0 0 0 0 0 0 0.154 0 0.293-0.062 0.394-0.161l1.197-1.176c0.104-0.102 0.168-0.244 0.168-0.401 0-0.311-0.252-0.564-0.563-0.564-0.154 0-0.294 0.062-0.396 0.162l-1.194 1.176c-0.104 0.102-0.168 0.244-0.168 0.401 0 0.31 0.251 0.562 0.561 0.563z"></path>
<path d="M12.504 6.782c0.102 0.104 0.244 0.168 0.401 0.168 0.153 0 0.293-0.061 0.394-0.161l0.574-0.562c0.412 0.304 0.907 0.521 1.444 0.612l0.020 0.824c0 0.311 0.252 0.563 0.563 0.563s0.563-0.252 0.563-0.563v-0.823c0.57-0.096 1.074-0.321 1.501-0.643l0.601 0.593c0.101 0.097 0.239 0.157 0.39 0.157 0.311 0 0.563-0.252 0.563-0.563 0-0.16-0.066-0.304-0.173-0.406l-0.608-0.585c0.382-0.547 0.61-1.225 0.61-1.957 0-1.903-1.543-3.446-3.446-3.446s-3.446 1.543-3.446 3.446c0 0.744 0.236 1.433 0.637 1.996l-0.581 0.552c-0.105 0.102-0.17 0.245-0.17 0.403 0 0.154 0.062 0.293 0.162 0.395zM15.901 1.125c1.281 0.001 2.319 1.039 2.32 2.32-0.001 0.455-0.135 0.878-0.364 1.234-0.305 0.496-0.797 0.864-1.379 1.005-0.184 0.047-0.378 0.072-0.577 0.072-0.472 0-0.911-0.14-1.279-0.38-0.269-0.18-0.499-0.415-0.673-0.688-0.232-0.359-0.368-0.785-0.369-1.244 0.002-1.281 1.040-2.318 2.32-2.32z"></path>
<path d="M21.011 9.145c0.101 0.097 0.239 0.157 0.39 0.157 0.311 0 0.563-0.252 0.563-0.563 0-0.16-0.066-0.304-0.173-0.406l-1.223-1.178c-0.101-0.097-0.239-0.157-0.39-0.157-0.311 0-0.563 0.252-0.563 0.563 0 0.16 0.066 0.304 0.173 0.406z"></path>
<path d="M22.843 10.907c-0.38 0.541-0.608 1.214-0.608 1.94 0 0.223 0.022 0.442 0.063 0.653l-0.838 0.279c-0.218 0.081-0.371 0.287-0.371 0.529 0 0.309 0.249 0.56 0.558 0.562 0.068-0 0.132-0.013 0.192-0.035l0.831-0.299c0.601 1.066 1.725 1.773 3.014 1.773 1.905 0 3.449-1.544 3.449-3.449s-1.544-3.449-3.449-3.449c-0.778 0-1.497 0.258-2.074 0.693l-0.601-0.593c-0.101-0.097-0.239-0.157-0.39-0.157-0.311 0-0.563 0.252-0.563 0.563 0 0.16 0.066 0.304 0.173 0.406zM24.379 10.937c0.377-0.264 0.845-0.422 1.349-0.422 1.309 0 2.369 1.061 2.369 2.369s-1.061 2.369-2.369 2.369c-1.309 0-2.369-1.061-2.369-2.369 0-0.464 0.133-0.897 0.364-1.262 0.168-0.268 0.389-0.499 0.648-0.68z"></path>
<path d="M6.321 16.301c1.276-0.002 2.389-0.697 2.983-1.728l0.841 0.29c0.061 0.025 0.132 0.039 0.206 0.039 0.311 0 0.563-0.252 0.563-0.563 0-0.245-0.157-0.454-0.376-0.531l-0.835-0.307c0.040-0.196 0.063-0.421 0.063-0.652 0-0.74-0.236-1.424-0.636-1.983l0.581-0.552c0.112-0.103 0.182-0.251 0.182-0.414 0-0.311-0.252-0.563-0.563-0.563-0.16 0-0.305 0.067-0.408 0.175l-0.575 0.563c-0.561-0.413-1.266-0.661-2.029-0.661-1.901 0-3.442 1.541-3.442 3.443s1.541 3.442 3.442 3.442c0.001 0 0.001 0 0.002 0zM7.591 10.919c0.278 0.185 0.508 0.42 0.682 0.693 0.228 0.359 0.361 0.786 0.361 1.243 0 1.278-1.034 2.316-2.311 2.321-0.002 0-0.005 0-0.007 0-1.281 0-2.32-1.039-2.32-2.32s1.039-2.32 2.32-2.32c0.475 0 0.917 0.143 1.285 0.388z"></path>
<path d="M25.679 17.875c-2.909 0.005-5.347 2.015-6.006 4.722-1.071-0.653-2.372-1.067-3.77-1.067-1.329 0-2.57 0.374-3.625 1.022-0.673-2.716-3.088-4.676-5.962-4.676-3.414 0-6.182 2.768-6.183 6.182v3.254h1.125v-3.254c0-0.002 0-0.003 0-0.005 0-2.794 2.265-5.058 5.058-5.058 2.512 0 4.597 1.832 4.991 4.232-1.471 1.314-2.399 3.195-2.4 5.292v3.481h1.125v-3.481c0-0.002 0-0.003 0-0.005 0-1.424 0.51-2.729 1.356-3.742 0.318-0.379 0.682-0.717 1.084-1.006 0.963-0.7 2.146-1.113 3.427-1.113 1.364 0 2.618 0.468 3.611 1.253 0.412 0.325 0.78 0.703 1.093 1.124 0.729 0.973 1.161 2.181 1.161 3.489v3.481h1.125v-3.481c-0.001-2.015-0.857-3.829-2.224-5.1 0.326-2.507 2.447-4.419 5.014-4.419 2.794 0 5.058 2.264 5.059 5.058v3.254h1.125v-3.254c-0.006-3.414-2.772-6.179-6.186-6.183z"></path>
<path d="M15.901 11.279c0.311 0 0.562-0.252 0.562-0.563v-1.154c0-0.311-0.252-0.563-0.563-0.563s-0.563 0.252-0.563 0.563v1.156c0.001 0.31 0.252 0.561 0.563 0.561 0 0 0 0 0 0z"></path>
</svg>
