<?xml version="1.0" encoding="utf-8"?>
<!-- Generated by IcoMoon.io -->
<!DOCTYPE svg PUBLIC "-//W3C//DTD SVG 1.1//EN" "http://www.w3.org/Graphics/SVG/1.1/DTD/svg11.dtd">
<svg version="1.1" xmlns="http://www.w3.org/2000/svg" xmlns:xlink="http://www.w3.org/1999/xlink" width="32" height="32" viewBox="0 0 32 32">
<path d="M24.795 0.975h-17.59c-0.002 0-0.004 0-0.006 0-3.976 0-7.199 3.223-7.199 7.199 0 0.002 0 0.004 0 0.006v22.421c-0 0.007-0.001 0.015-0.001 0.024 0 0.221 0.179 0.401 0.401 0.401 0.008 0 0.017-0 0.025-0.001l31.151 0c0.007 0 0.015 0.001 0.024 0.001 0.221 0 0.401-0.179 0.401-0.401 0-0.008-0-0.017-0.001-0.025l0-22.42c0-0.002 0-0.004 0-0.006 0-3.976-3.223-7.199-7.199-7.199-0.002 0-0.004 0-0.006 0zM31.152 25.431h-3.179c1.271-4.62 2.5-6.909 3.179-7.968zM28.143 16.826h0.424c-0.58 0.816-1.131 1.747-1.602 2.723l-21.666 0.117c-0.763-1.313-1.441-2.246-1.949-2.84h0.169c0.007 0 0.015 0.001 0.024 0.001 0.221 0 0.401-0.179 0.401-0.401 0-0.008-0-0.017-0.001-0.025 0-0.211-0.169-0.38-0.381-0.423 2.543-2.541 4.492-8.307 5.043-10.13 1.822 1.063 4.451 1.737 7.375 1.737 3.264 0 6.146-0.805 8.011-2.119 0.297 1.229 2.077 7.756 4.366 10.511h-0.254c-0.007-0-0.015-0.001-0.024-0.001-0.221 0-0.401 0.179-0.401 0.401 0 0.008 0 0.017 0.001 0.025-0 0.254 0.212 0.423 0.466 0.423zM15.979 6.739c-4.791 0-8.901-1.989-9.324-4.451 1.018 0.593 5 2.67 9.833 2.67 2.797 0 5.891-0.721 8.901-2.797-0.339 2.501-4.492 4.578-9.409 4.578zM7.541 1.823h16.829c-6.996 4.489-14.537 1.229-16.826-0.001zM7.838 5.386c-0.463 1.566-2.838 8.771-5.592 10.593h-0.762c2.373-2.839 3.984-9.96 4.535-12.842 0.294 0.848 0.933 1.614 1.822 2.246zM0.848 17.674c0.721 1.102 1.865 3.433 3.094 7.799h-3.094zM4.789 25.431v0c-1.356-5.086-2.712-7.5-3.476-8.604h0.89c0.551 0.551 2.967 3.306 4.662 8.604zM7.756 25.431v-0.043c-0.636-1.949-1.313-3.563-1.992-4.875h20.768c-0.628 1.361-1.208 2.983-1.648 4.662l-0.047 0.255zM29.625 16.826h0.933c-0.763 1.063-2.119 3.518-3.476 8.563v0.043h-1.439c1.441-5.214 3.476-7.969 3.983-8.605zM29.54 15.979c-2.584-2.034-4.745-10.808-4.79-10.893-0.011-0.066-0.042-0.124-0.085-0.169 0.551-0.509 0.975-1.017 1.229-1.611 0.593 3.009 2.162 9.875 4.492 12.673zM5.341 2.119c-0.341 1.865-1.992 10.341-4.493 13.309v-7.25c0.001-2.841 1.871-5.245 4.448-6.047zM31.153 30.177h-30.306v-3.899h30.305zM31.153 15.553c-2.543-2.84-4.281-11.656-4.62-13.478 2.67 0.763 4.62 3.221 4.62 6.103z"></path>
</svg>
