<!-- Generated by IcoMoon.io -->
<svg version="1.1" xmlns="http://www.w3.org/2000/svg" width="32" height="32" viewBox="0 0 32 32">
<title>team</title>
<path d="M16 6.667c0.010 0 0.021 0 0.032 0 1.823 0 3.301-1.478 3.301-3.301 0-0.011-0-0.022-0-0.034 0-1.839-1.492-3.332-3.333-3.332s-3.333 1.492-3.333 3.333c-0 0.010-0 0.021-0 0.032 0 1.823 1.478 3.301 3.301 3.301 0.011 0 0.023-0 0.034-0zM16 1.334c1.133 0 2 0.867 2 2s-0.867 2-2 2-2-0.867-2-2 0.867-2.001 2-2.001z"></path>
<path d="M12 16h8c0.4 0 0.667-0.267 0.667-0.667v-2.666c0-0.016 0-0.035 0-0.054 0-2.577-2.089-4.667-4.667-4.667s-4.667 2.089-4.667 4.667c0 0.019 0 0.038 0 0.057l-0 2.664c-0.001 0.399 0.266 0.666 0.666 0.666zM12.667 12.667c0-1.841 1.492-3.333 3.333-3.333s3.333 1.492 3.333 3.333v2h-6.667z"></path>
<path d="M27.333 22.667c1.841 0 3.333-1.492 3.333-3.333s-1.492-3.333-3.333-3.333c-1.841 0-3.333 1.492-3.333 3.332-0 0.010-0 0.021-0 0.033 0 1.823 1.478 3.301 3.301 3.301 0.011 0 0.023-0 0.034-0zM27.333 17.334c1.133 0 2 0.867 2 2s-0.867 2-2 2-2-0.867-2-2 0.867-2.001 2-2.001z"></path>
<path d="M27.333 24c-0.009-0-0.019-0-0.029-0-2.562 0-4.638 2.077-4.638 4.638 0 0.010 0 0.020 0 0.030v2.665c0 0.4 0.267 0.667 0.667 0.667h8c0.4 0 0.667-0.267 0.667-0.667v-2.667c0-0.009 0-0.019 0-0.029 0-2.562-2.077-4.638-4.638-4.638-0.010 0-0.020 0-0.030 0zM30.666 30.667h-6.666v-2c0-1.841 1.492-3.333 3.333-3.333s3.333 1.492 3.333 3.333z"></path>
<path d="M4.667 22.667c1.841 0 3.333-1.492 3.333-3.333s-1.492-3.333-3.333-3.333c-1.841 0-3.333 1.492-3.333 3.333s1.492 3.333 3.333 3.333zM4.667 17.334c1.133 0 2 0.867 2 2s-0.867 2-2 2-2-0.867-2-2 0.866-2.001 2-2.001z"></path>
<path d="M4.667 24c-0.009-0-0.019-0-0.029-0-2.562 0-4.638 2.077-4.638 4.638 0 0.010 0 0.020 0 0.030v2.665c0 0.399 0.267 0.666 0.667 0.666h8c0.4 0 0.667-0.267 0.667-0.667v-2.666c0-0.009 0-0.019 0-0.029 0-2.562-2.077-4.638-4.638-4.638-0.010 0-0.020 0-0.030 0zM8 30.667h-6.667v-2c-0-0.010-0-0.021-0-0.032 0-1.823 1.478-3.301 3.301-3.301 0.011 0 0.022 0 0.034 0 0.008-0 0.019-0 0.031-0 1.823 0 3.301 1.478 3.301 3.301 0 0.011-0 0.023-0 0.034z"></path>
<path d="M21.267 26.267l-4.6-4v-4.267c0-0.4-0.267-0.667-0.667-0.667s-0.667 0.267-0.667 0.667v4.267l-4.6 4c-0.267 0.267-0.333 0.667-0.067 0.933s0.6 0.267 0.933 0.067l4.4-3.8 4.4 3.8c0.267 0.267 0.667 0.2 0.933-0.067s0.267-0.733-0.066-0.933z"></path>
</svg>
