<!-- Generated by IcoMoon.io -->
<svg version="1.1" xmlns="http://www.w3.org/2000/svg" width="32" height="32" viewBox="0 0 32 32">
<title>tv</title>
<path d="M17.417 10.324l4.296-7.307c0.151 0.050 0.309 0.082 0.479 0.082 0.857 0 1.55-0.693 1.55-1.55s-0.693-1.55-1.55-1.55-1.55 0.693-1.55 1.55c0 0.309 0.095 0.592 0.246 0.831l-4.674 7.943h-0.964l-3.622-5.89c0.151-0.239 0.239-0.517 0.239-0.819 0-0.857-0.693-1.55-1.55-1.55s-1.55 0.693-1.55 1.55 0.693 1.55 1.55 1.55c0.17 0 0.334-0.038 0.491-0.088l3.232 5.247h-14.041v21.676h32v-21.676h-14.583zM22.192 1.033c0.284 0 0.517 0.233 0.517 0.517s-0.233 0.517-0.517 0.517c-0.283 0-0.517-0.233-0.517-0.517s0.233-0.517 0.517-0.517zM9.808 3.616c0-0.283 0.233-0.517 0.517-0.517s0.517 0.233 0.517 0.517-0.233 0.517-0.517 0.517c-0.283-0.006-0.517-0.233-0.517-0.517zM30.967 11.357v15.483h-29.934v-15.483h29.934zM1.033 30.967v-3.099h29.934v3.099h-29.934z"></path>
<path d="M2.066 28.901h1.033v1.033h-1.033v-1.033z"></path>
<path d="M4.126 28.901h1.033v1.033h-1.033v-1.033z"></path>
<path d="M6.192 28.901h1.033v1.033h-1.033v-1.033z"></path>
</svg>
