<?xml version="1.0" encoding="utf-8"?>
<!-- Generator: Adobe Illustrator 19.0.0, SVG Export Plug-In . SVG Version: 6.00 Build 0)  -->
<svg version="1.1" id="Layer_1" xmlns="http://www.w3.org/2000/svg" xmlns:xlink="http://www.w3.org/1999/xlink" x="0px" y="0px"
	 viewBox="0 0 30.1 30.1" enable-background="new 0 0 30.1 30.1" xml:space="preserve">
<path fill="#323430" d="M28.6,0H1.5C0.7,0,0,0.7,0,1.5v27.1c0,0.8,0.7,1.5,1.5,1.5h27.1c0.8,0,1.5-0.7,1.5-1.5V1.5
	C30.1,0.7,29.4,0,28.6,0z M27.1,27.1H3V3h24.1V27.1z M16.9,9.1h5.8c0.7,0,1.2-0.6,1.2-1.2s-0.6-1.2-1.2-1.2h-5.8
	c-0.7,0-1.2,0.6-1.2,1.2S16.2,9.1,16.9,9.1z M16.9,13.9h5.8c0.7,0,1.2-0.6,1.2-1.2s-0.6-1.2-1.2-1.2h-5.8c-0.7,0-1.2,0.6-1.2,1.2
	S16.2,13.9,16.9,13.9z M7.4,18.7h15.3c0.7,0,1.2-0.6,1.2-1.2s-0.6-1.2-1.2-1.2H7.4c-0.7,0-1.2,0.6-1.2,1.2S6.7,18.7,7.4,18.7z
	 M7.4,23.5h15.3c0.7,0,1.2-0.6,1.2-1.2S23.4,21,22.7,21H7.4c-0.7,0-1.2,0.6-1.2,1.2S6.7,23.5,7.4,23.5z M7.4,13.8H12
	c0.7,0,1.2-0.6,1.2-1.2V7.9c0-0.7-0.6-1.2-1.2-1.2H7.4c-0.7,0-1.2,0.6-1.2,1.2v4.7C6.2,13.2,6.7,13.8,7.4,13.8z"/>
</svg>
