<svg id="Layer_1" data-name="Layer 1" xmlns="http://www.w3.org/2000/svg" viewBox="0 0 273.58 28.08">
  <defs>
    <style>
      .cls-1 {
        fill: #98002e;
      }

      .cls-2 {
        fill: #231f20;
      }
    </style>
  </defs>
  <title>Chapman Horizontal Color</title>
  <g>
    <g>
      <polygon class="cls-1" points="13.04 14.46 0 27.49 0 14.46 13.04 14.46"/>
      <polygon class="cls-1" points="0 13.62 0 0.59 13.04 13.62 0 13.62"/>
      <polygon class="cls-1" points="27.49 0 14.46 13.03 14.46 0 27.49 0"/>
      <polygon class="cls-1" points="13.62 13.03 0.59 0 13.62 0 13.62 13.03"/>
      <polygon class="cls-1" points="15.05 13.62 28.08 0.59 28.08 13.62 15.05 13.62"/>
      <polygon class="cls-1" points="28.08 14.46 28.08 27.49 15.05 14.46 28.08 14.46"/>
      <polygon class="cls-1" points="13.62 15.05 0.59 28.08 13.62 28.08 13.62 15.05"/>
      <polygon class="cls-1" points="14.46 15.05 14.46 28.08 27.49 28.08 14.46 15.05"/>
    </g>
    <g>
      <path class="cls-2" d="M48,10.33c-0.66-2.52-2.06-3.2-4.21-3.2-3.94,0-5.7,3-5.7,6.42,0,4.23,2.17,7,5.72,7,2.45,0,3.59-1.18,4.67-3.48L49,17.16c-0.28.94-.77,2.7-1.12,3.53a19.67,19.67,0,0,1-4.12.61c-5.54,0-7.87-3.77-7.87-7.25,0-4.51,3.48-7.65,8.28-7.65A16.32,16.32,0,0,1,48.14,7c0.18,1.21.26,2.17,0.39,3.31Z"/>
      <path class="cls-2" d="M61.73,13V9.91c0-2.39-.18-2.54-1.93-2.67V6.73h5.78v0.5c-1.84.13-2,.29-2,2.67V17.8c0,2.39.18,2.54,2,2.67V21H59.63v-0.5c1.93-.13,2.1-0.29,2.1-2.67V13.9h-7.6v3.9c0,2.39.18,2.54,2,2.67V21H50.32v-0.5c1.8-.13,2-0.29,2-2.67V9.91c0-2.39-.18-2.54-2.06-2.67V6.73H56v0.5c-1.71.13-1.88,0.29-1.88,2.67V13h7.6Z"/>
      <path class="cls-2" d="M75.28,20.47l0.7-.09c0.81-.09.9-0.33,0.68-1-0.15-.53-0.79-2.23-1.4-3.81H70.81c-0.22.57-.79,2.28-1.1,3.2-0.42,1.27-.22,1.56.77,1.64l0.66,0.07V21H66.45v-0.5c1.42-.15,1.6-0.29,2.37-2.23L73.33,6.6l0.5-.2,1.56,4.16c1,2.78,2,5.57,2.85,7.8,0.7,1.84,1,2,2.34,2.1V21h-5.3v-0.5ZM71.1,14.73H75L73,9.34h0Z"/>
      <path class="cls-2" d="M85.25,17.8c0,2.39.18,2.54,2.3,2.67V21H81.44v-0.5c1.8-.13,2-0.29,2-2.67V9.91c0-2.39-.17-2.54-1.86-2.67V6.73H87.1a6,6,0,0,1,3.64.92,3.52,3.52,0,0,1,1.4,3,4.52,4.52,0,0,1-4.27,4.4,8.1,8.1,0,0,1-1,0l-1.62-.42V17.8Zm0-3.77a4.43,4.43,0,0,0,1.64.26c1.38,0,3.18-.72,3.18-3.57,0-2.39-1.25-3.35-3.51-3.35a3.48,3.48,0,0,0-1.12.11c-0.13,0-.2.15-0.2,0.59v6Z"/>
      <path class="cls-2" d="M97.53,6.73L102.83,18,108,6.73h3.62v0.5c-1.91.15-2,.24-2,2.67l0.18,7.89c0.07,2.45.13,2.52,2.06,2.67V21h-5.78v-0.5C108,20.32,108,20.25,108,17.8L107.94,9h-0.09l-5.37,11.77h-0.55L96.87,9.27h0l-0.22,6.11a27.5,27.5,0,0,0,0,3.94c0.11,0.81.64,1,2.06,1.14V21H93.52v-0.5c1.23-.11,1.69-0.33,1.84-1.14a35.15,35.15,0,0,0,.37-4.16L96,10.57c0.15-2.94,0-3.18-2.06-3.33V6.73h3.62Z"/>
      <path class="cls-2" d="M121.55,20.47l0.7-.09c0.81-.09.9-0.33,0.68-1-0.15-.53-0.79-2.23-1.4-3.81h-4.45c-0.22.57-.79,2.28-1.1,3.2-0.42,1.27-.22,1.56.77,1.64l0.66,0.07V21h-4.69v-0.5c1.42-.15,1.6-0.29,2.37-2.23L119.6,6.6l0.5-.2,1.56,4.16c1,2.78,2,5.57,2.85,7.8,0.7,1.84,1,2,2.34,2.1V21h-5.3v-0.5Zm-4.19-5.74h3.88l-1.93-5.39h0Z"/>
      <path class="cls-2" d="M140.73,21.13h-0.57L130.65,9.58h0v5.59a34.11,34.11,0,0,0,.18,4.16c0.11,0.77.7,1.07,2.15,1.14V21h-5.26v-0.5c1.2,0,1.77-.37,1.88-1.14a34,34,0,0,0,.18-4.16V10.41c0-1.58,0-1.93-.42-2.43a2.42,2.42,0,0,0-1.93-.75V6.73h3.2l9.23,11h0V12.54a33.94,33.94,0,0,0-.18-4.16c-0.11-.77-0.7-1.07-2.15-1.14V6.73h5.26v0.5c-1.21,0-1.77.37-1.88,1.14a33.94,33.94,0,0,0-.18,4.16v8.59Z"/>
      <path class="cls-2" d="M154.83,6.73v0.5c-1.75.13-1.93,0.29-1.93,2.67v4.58a7.47,7.47,0,0,0,.92,4.25A3.59,3.59,0,0,0,157,20.25a3.73,3.73,0,0,0,3.22-1.64,9.67,9.67,0,0,0,1-4.87V12.56A34.41,34.41,0,0,0,161,8.38c-0.11-.77-0.7-1.07-2.15-1.14V6.73h5.26v0.5c-1.21,0-1.77.37-1.88,1.14a34.41,34.41,0,0,0-.18,4.18V14c0,2.54-.39,4.34-1.67,5.7a6.15,6.15,0,0,1-7.65.46c-1.16-.94-1.69-2.43-1.69-4.93V9.91c0-2.39-.18-2.54-2-2.67V6.73h5.79Z"/>
      <path class="cls-2" d="M178.32,21.13h-0.57L168.24,9.58h0v5.59a34,34,0,0,0,.17,4.16c0.11,0.77.7,1.07,2.15,1.14V21h-5.26v-0.5c1.21,0,1.77-.37,1.88-1.14a34.23,34.23,0,0,0,.17-4.16V10.41c0-1.58,0-1.93-.42-2.43A2.42,2.42,0,0,0,165,7.24V6.73h3.2l9.22,11h0V12.54a34.24,34.24,0,0,0-.17-4.16c-0.11-.77-0.7-1.07-2.15-1.14V6.73h5.26v0.5c-1.21,0-1.78.37-1.88,1.14a34.22,34.22,0,0,0-.17,4.16v8.59Z"/>
      <path class="cls-2" d="M185.51,17.8c0,2.39.17,2.54,2,2.67V21H181.7v-0.5c1.8-.13,2-0.29,2-2.67V9.91c0-2.39-.17-2.54-2-2.67V6.73h5.78v0.5c-1.8.13-2,.29-2,2.67V17.8Z"/>
      <path class="cls-2" d="M195.24,21.11c-1.49-3.92-3.59-9.33-4.54-11.77-0.7-1.82-1-2-2.32-2.1V6.73h5.32v0.5l-0.7.09c-0.81.11-.94,0.33-0.7,1,0.57,1.62,2.26,5.94,3.86,10,1.14-3,3-8,3.51-9.42,0.42-1.25.2-1.53-.79-1.64l-0.66-.07V6.73H203v0.5c-1.47.15-1.66,0.31-2.48,2.24-0.29.68-3,7.19-4.65,11.63h-0.66Z"/>
      <path class="cls-2" d="M205.9,9.91c0-2.39-.17-2.54-1.93-2.67V6.73h9.6c0,0.37.13,2,.24,3.2l-0.55.07a4,4,0,0,0-.79-2c-0.35-.37-1.07-0.53-2.41-0.53h-1.67c-0.61,0-.66,0-0.66.68v5H210c1.88,0,2-.13,2.17-1.75h0.55v4.34h-0.55a2.35,2.35,0,0,0-.46-1.49,2.77,2.77,0,0,0-1.71-.28h-2.21v3.88c0,1.25.13,1.91,0.55,2.17a5,5,0,0,0,2.23.26c1.25,0,2.28-.11,2.76-0.63a6.08,6.08,0,0,0,1.05-2.15l0.55,0.07c-0.11.61-.59,2.85-0.77,3.44H203.75v-0.5c2-.13,2.15-0.29,2.15-2.67V9.91Z"/>
      <path class="cls-2" d="M220,17.8c0,2.39.17,2.54,2,2.67V21h-5.83v-0.5c1.84-.13,2-0.29,2-2.67V9.91c0-2.39-.17-2.54-1.93-2.67V6.73h5.57a6.4,6.4,0,0,1,3.46.75,3.19,3.19,0,0,1,1.45,2.8,4.09,4.09,0,0,1-2.89,3.83c0.39,0.66,1.29,2.17,2,3.13a20.17,20.17,0,0,0,1.84,2.41,2.83,2.83,0,0,0,1.64,1.1l0,0.42h-0.31c-2.52-.07-3.29-0.83-4.12-2-0.68-1-1.6-2.61-2.21-3.64a1.4,1.4,0,0,0-1.38-.79H220V17.8Zm0-3.73h1.27a3.24,3.24,0,0,0,2.19-.59,3.53,3.53,0,0,0,1.27-2.89,3.06,3.06,0,0,0-3.31-3.22,3.87,3.87,0,0,0-1.23.11c-0.13,0-.2.15-0.2,0.59v6Z"/>
      <path class="cls-2" d="M230.55,17.12c0.35,1,1.47,3.46,3.79,3.46a2.59,2.59,0,0,0,2.72-2.83c0-1.86-1.42-2.63-2.83-3.31-0.72-.35-3.68-1.38-3.68-4,0-2.17,1.64-4,4.51-4a6.44,6.44,0,0,1,1.82.29,8.55,8.55,0,0,0,.83.24c0.09,0.77.22,1.64,0.39,3l-0.55.07c-0.37-1.29-1-2.83-3-2.83a2.28,2.28,0,0,0-2.37,2.43c0,1.62,1.16,2.34,2.83,3.09,1.45,0.64,3.75,1.53,3.75,4.25,0,2.54-2.08,4.4-4.86,4.4a7,7,0,0,1-2.08-.33c-0.55-.17-0.94-0.35-1.21-0.46-0.17-.57-0.42-2.13-0.64-3.31Z"/>
      <path class="cls-2" d="M244.28,17.8c0,2.39.17,2.54,2,2.67V21h-5.78v-0.5c1.8-.13,2-0.29,2-2.67V9.91c0-2.39-.17-2.54-2-2.67V6.73h5.78v0.5c-1.8.13-2,.29-2,2.67V17.8Z"/>
      <path class="cls-2" d="M254.73,17.8c0,2.39.18,2.54,2.32,2.67V21h-6.4v-0.5c2.06-.13,2.24-0.29,2.24-2.67V7.46h-1c-2,0-2.54.29-2.87,0.7a5.81,5.81,0,0,0-.77,1.88h-0.55c0.09-1.34.22-2.74,0.26-3.86h0.31a1,1,0,0,0,1.14.55h9a1.05,1.05,0,0,0,1-.55h0.31c0,0.92.13,2.52,0.24,3.79L259.4,10a4.26,4.26,0,0,0-.79-2c-0.37-.42-1.05-0.57-2.41-0.57h-1.47V17.8Z"/>
      <path class="cls-2" d="M267.95,17.8c0,2.39.17,2.54,2.28,2.67V21h-6.31v-0.5c2-.13,2.19-0.29,2.19-2.67V15.3a2.27,2.27,0,0,0-.48-1.31c-1-1.71-1.84-3.29-2.78-4.91s-1-1.69-2.3-1.84V6.73h5.28v0.5l-1,.13c-0.55.09-.7,0.28-0.33,1,1,1.84,2,3.66,3.07,5.46,0.92-1.75,1.91-3.55,2.72-5.35,0.37-.79.2-1-0.63-1.1l-0.88-.11V6.73h4.82v0.5c-1.47.13-1.58,0.42-2.5,1.86s-1.82,3-2.76,4.8a1.89,1.89,0,0,0-.37,1.18V17.8Z"/>
    </g>
  </g>
</svg>
