<svg id="Layer_1" data-name="Layer 1" xmlns="http://www.w3.org/2000/svg" viewBox="0 0 159.12 30.03">
  <defs>
    <style>
      .cls-1 {
        fill: #313131;
      }

      .cls-2 {
        fill: #262626;
      }
    </style>
  </defs>
  <title>Chapman Horizontal Stacked Gray</title>
  <g>
    <g>
      <path class="cls-1" d="M49.2,3.92C48.54,1.4,47.14.72,45,.72c-3.94,0-5.7,3-5.7,6.42,0,4.23,2.17,7,5.72,7,2.45,0,3.59-1.18,4.67-3.48l0.55,0.07c-0.28.94-.77,2.69-1.12,3.53A19.67,19.67,0,0,1,45,14.9c-5.54,0-7.87-3.77-7.87-7.25C37.13,3.13,40.61,0,45.41,0a16.32,16.32,0,0,1,3.94.57c0.18,1.21.26,2.17,0.39,3.31Z"/>
      <path class="cls-1" d="M65.46,6.62V3.51c0-2.39-.18-2.54-1.93-2.67V0.33h5.78v0.5c-1.84.13-2,.29-2,2.67v7.89c0,2.39.18,2.54,2,2.67v0.5H63.36v-0.5c1.93-.13,2.1-0.29,2.1-2.67V7.49h-7.6v3.9c0,2.39.18,2.54,2,2.67v0.5H54v-0.5c1.8-.13,2-0.29,2-2.67V3.51C56,1.12,55.85,1,54,.83V0.33h5.78v0.5C58,1,57.86,1.12,57.86,3.51V6.62h7.6Z"/>
      <path class="cls-1" d="M81.53,14.07l0.7-.09c0.81-.09.9-0.33,0.68-1-0.15-.53-0.79-2.23-1.4-3.81H77.06c-0.22.57-.79,2.28-1.1,3.2-0.42,1.27-.22,1.56.77,1.64l0.66,0.07v0.5H72.7v-0.5c1.42-.15,1.6-0.29,2.37-2.23L79.58,0.2l0.5-.2,1.56,4.16c1,2.78,2,5.57,2.85,7.8,0.7,1.84,1,2,2.34,2.1v0.5h-5.3v-0.5ZM77.35,8.33h3.88L79.3,2.94h0Z"/>
      <path class="cls-1" d="M94,11.39c0,2.39.17,2.54,2.3,2.67v0.5H90.22v-0.5c1.8-.13,2-0.29,2-2.67V3.51C92.19,1.12,92,1,90.32.83V0.33h5.54a6,6,0,0,1,3.64.92,3.52,3.52,0,0,1,1.4,3,4.52,4.52,0,0,1-4.27,4.4,8.1,8.1,0,0,1-1,0L94,8.28v3.11Zm0-3.77a4.42,4.42,0,0,0,1.64.26c1.38,0,3.18-.72,3.18-3.57C98.85,1.93,97.6,1,95.34,1a3.49,3.49,0,0,0-1.12.11c-0.13,0-.2.15-0.2,0.59v6Z"/>
      <path class="cls-1" d="M108.82,0.33l5.3,11.28,5.21-11.28H123v0.5c-1.91.15-2,.24-2,2.67l0.17,7.89c0.07,2.45.13,2.52,2.06,2.67v0.5h-5.78v-0.5c1.84-.15,1.91-0.22,1.88-2.67l-0.09-8.83h-0.09l-5.37,11.77h-0.55L108.17,2.87h0L107.9,9a27.81,27.81,0,0,0,0,3.94c0.11,0.81.64,1,2.06,1.14v0.5h-5.15v-0.5c1.23-.11,1.69-0.33,1.84-1.14A34.88,34.88,0,0,0,107,8.76l0.24-4.6c0.15-2.94,0-3.18-2.06-3.33V0.33h3.62Z"/>
      <path class="cls-1" d="M135.36,14.07l0.7-.09c0.81-.09.9-0.33,0.68-1-0.15-.53-0.79-2.23-1.4-3.81h-4.45c-0.22.57-.79,2.28-1.1,3.2-0.42,1.27-.22,1.56.77,1.64l0.66,0.07v0.5h-4.69v-0.5c1.42-.15,1.6-0.29,2.37-2.23L133.41,0.2l0.5-.2,1.56,4.16c1,2.78,2,5.57,2.85,7.8,0.7,1.84,1,2,2.34,2.1v0.5h-5.3v-0.5Zm-4.18-5.74h3.88l-1.93-5.39h0Z"/>
      <path class="cls-1" d="M157.06,14.72h-0.57L147,3.18h0V8.76a34,34,0,0,0,.17,4.16c0.11,0.77.7,1.07,2.15,1.14v0.5H144v-0.5c1.21,0,1.77-.37,1.88-1.14a34.21,34.21,0,0,0,.17-4.16V4c0-1.58,0-1.93-.42-2.43a2.42,2.42,0,0,0-1.93-.75V0.33h3.2l9.22,11h0V6.14A34.25,34.25,0,0,0,156,2c-0.11-.77-0.7-1.07-2.15-1.14V0.33h5.26v0.5c-1.21,0-1.78.37-1.88,1.14a34.22,34.22,0,0,0-.17,4.16v8.59Z"/>
      <path class="cls-1" d="M41.65,18.72v0.39c-1.36.1-1.5,0.22-1.5,2.07v3.55a5.8,5.8,0,0,0,.71,3.3,2.78,2.78,0,0,0,2.45,1.17,2.89,2.89,0,0,0,2.5-1.28,7.51,7.51,0,0,0,.76-3.77V23.24A26.81,26.81,0,0,0,46.45,20c-0.08-.6-0.54-0.83-1.67-0.88V18.72h4.08v0.39c-0.94,0-1.38.29-1.46,0.88a26.81,26.81,0,0,0-.14,3.25v1.14c0,2-.31,3.37-1.29,4.42a4.77,4.77,0,0,1-5.93.36c-0.9-.73-1.31-1.89-1.31-3.82V21.19c0-1.85-.14-2-1.56-2.07V18.72h4.49Z"/>
      <path class="cls-1" d="M62.68,29.89H62.24l-7.38-9h0v4.33A26.44,26.44,0,0,0,55,28.5c0.09,0.59.54,0.83,1.67,0.88v0.39H52.55V29.38c0.94,0,1.38-.29,1.46-0.88a26.43,26.43,0,0,0,.14-3.23V21.58c0-1.22,0-1.5-.32-1.89a1.88,1.88,0,0,0-1.5-.58V18.72h2.48L62,27.29h0V23.23A26.45,26.45,0,0,0,61.87,20c-0.09-.6-0.54-0.83-1.67-0.88V18.72h4.08v0.39c-0.93,0-1.38.29-1.46,0.88a26.44,26.44,0,0,0-.14,3.23v6.66Z"/>
      <path class="cls-1" d="M71.06,27.31c0,1.85.14,2,1.53,2.07v0.39H68.11V29.38c1.39-.1,1.53-0.22,1.53-2.07V21.19c0-1.85-.14-2-1.53-2.07V18.72h4.49v0.39c-1.39.1-1.53,0.22-1.53,2.07v6.12Z"/>
      <path class="cls-1" d="M81.42,29.87c-1.16-3-2.79-7.24-3.52-9.13-0.54-1.41-.78-1.53-1.8-1.63V18.72h4.13v0.39l-0.54.07c-0.63.09-.73,0.26-0.54,0.78,0.44,1.26,1.75,4.61,3,7.79,0.88-2.35,2.35-6.2,2.72-7.31s0.15-1.19-.61-1.27l-0.51-.05V18.72h3.72v0.39c-1.14.12-1.29,0.24-1.92,1.73-0.22.53-2.33,5.58-3.6,9H81.42Z"/>
      <path class="cls-1" d="M92.48,21.19c0-1.85-.14-2-1.5-2.07V18.72h7.44c0,0.29.1,1.53,0.19,2.48l-0.42.05a3.15,3.15,0,0,0-.61-1.56,2.64,2.64,0,0,0-1.87-.41H94.42c-0.48,0-.51,0-0.51.53v3.88h1.72c1.46,0,1.51-.1,1.68-1.36h0.42v3.37H97.31A1.82,1.82,0,0,0,97,24.54a2.14,2.14,0,0,0-1.33-.22H93.91v3c0,1,.1,1.48.42,1.68a3.84,3.84,0,0,0,1.73.2,3.06,3.06,0,0,0,2.14-.49A4.71,4.71,0,0,0,99,27.05l0.42,0.05c-0.09.48-.46,2.21-0.59,2.67h-8V29.38c1.53-.1,1.66-0.22,1.66-2.07V21.19Z"/>
      <path class="cls-1" d="M106.22,27.31c0,1.85.14,2,1.53,2.07v0.39h-4.52V29.38c1.43-.1,1.56-0.22,1.56-2.07V21.19c0-1.85-.14-2-1.5-2.07V18.72h4.32a5,5,0,0,1,2.69.58,2.48,2.48,0,0,1,1.12,2.18,3.17,3.17,0,0,1-2.24,3c0.31,0.51,1,1.68,1.51,2.43a15.77,15.77,0,0,0,1.43,1.87,2.19,2.19,0,0,0,1.28.85l0,0.32h-0.24c-2-.05-2.55-0.65-3.2-1.58-0.53-.76-1.24-2-1.72-2.82a1.09,1.09,0,0,0-1.07-.61h-0.92v2.4Zm0-2.89h1a2.52,2.52,0,0,0,1.7-.46,2.74,2.74,0,0,0,1-2.24,2.37,2.37,0,0,0-2.57-2.5,3,3,0,0,0-1,.08c-0.1,0-.15.12-0.15,0.46v4.66Z"/>
      <path class="cls-1" d="M117.22,26.78c0.27,0.8,1.14,2.69,2.94,2.69a2,2,0,0,0,2.11-2.19c0-1.45-1.1-2-2.19-2.57-0.56-.27-2.86-1.07-2.86-3.11a3.18,3.18,0,0,1,3.5-3.13,5,5,0,0,1,1.41.22,6.46,6.46,0,0,0,.65.19c0.07,0.59.17,1.27,0.31,2.29l-0.43.05c-0.29-1-.76-2.19-2.31-2.19a1.77,1.77,0,0,0-1.84,1.89c0,1.26.9,1.82,2.19,2.4,1.12,0.49,2.91,1.19,2.91,3.3A3.51,3.51,0,0,1,119.84,30a5.43,5.43,0,0,1-1.62-.26c-0.42-.13-0.73-0.27-0.93-0.36-0.14-.44-0.32-1.65-0.49-2.57Z"/>
      <path class="cls-1" d="M130.67,27.31c0,1.85.14,2,1.53,2.07v0.39h-4.49V29.38c1.39-.1,1.53-0.22,1.53-2.07V21.19c0-1.85-.14-2-1.53-2.07V18.72h4.49v0.39c-1.39.1-1.53,0.22-1.53,2.07v6.12Z"/>
      <path class="cls-1" d="M141.58,27.31c0,1.85.14,2,1.8,2.07v0.39h-5V29.38c1.6-.1,1.73-0.22,1.73-2.07v-8h-0.8c-1.51,0-2,.22-2.23.54a4.51,4.51,0,0,0-.59,1.46h-0.42c0.07-1,.17-2.12.2-3h0.24a0.81,0.81,0,0,0,.88.42h7a0.82,0.82,0,0,0,.8-0.42h0.24c0,0.71.1,2,.19,2.94l-0.42.05a3.28,3.28,0,0,0-.61-1.56,2.43,2.43,0,0,0-1.87-.44h-1.14v8Z"/>
      <path class="cls-1" d="M154.63,27.31c0,1.85.14,2,1.77,2.07v0.39h-4.9V29.38c1.56-.1,1.7-0.22,1.7-2.07V25.37a1.76,1.76,0,0,0-.37-1c-0.76-1.33-1.43-2.55-2.16-3.81s-0.8-1.31-1.79-1.43V18.72H153v0.39l-0.78.1c-0.42.07-.54,0.22-0.25,0.75,0.76,1.43,1.55,2.84,2.38,4.23,0.71-1.36,1.48-2.75,2.11-4.15,0.29-.61.15-0.78-0.49-0.85l-0.68-.08V18.72H159v0.39c-1.14.1-1.22,0.32-1.94,1.44s-1.41,2.36-2.14,3.72a1.47,1.47,0,0,0-.29.92v2.11Z"/>
    </g>
    <g>
      <polygon class="cls-2" points="13.69 15.28 0 28.96 0 15.28 13.69 15.28"/>
      <polygon class="cls-2" points="0 14.4 0 0.72 13.69 14.4 0 14.4"/>
      <polygon class="cls-2" points="28.87 0.1 15.18 13.78 15.18 0.1 28.87 0.1"/>
      <polygon class="cls-2" points="14.31 13.78 0.62 0.1 14.31 0.1 14.31 13.78"/>
      <polygon class="cls-2" points="15.8 14.4 29.49 0.72 29.49 14.4 15.8 14.4"/>
      <polygon class="cls-2" points="29.49 15.28 29.49 28.96 15.8 15.28 29.49 15.28"/>
      <polygon class="cls-2" points="14.31 15.9 0.62 29.58 14.31 29.58 14.31 15.9"/>
      <polygon class="cls-2" points="15.18 15.9 15.18 29.58 28.87 29.58 15.18 15.9"/>
    </g>
  </g>
</svg>
