<svg version="1.1" id="Layer_1" xmlns="http://www.w3.org/2000/svg" xmlns:xlink="http://www.w3.org/1999/xlink" x="0px" y="0px"
         viewBox="0 0 612 792" enable-background="new 0 0 612 792" xml:space="preserve">
      <path d="M584.7,540.7c-2-3-4.1-6.1-4.6-8.5l-40.7-175c-1-4.3-1.8-9.2-2.4-14.2c3.7-2.8,5.6-6.9,5.2-11.6c-0.4-4.3-2.7-8.3-5.8-10.5
        c0.1-1.9,0.3-3.6,0.5-5.3l9.5-91.6c1.5,0.2,3.1,0.4,4.4,0.4c7.7,0,17.2-3.2,18.1-18.7l12-86.9c2.1-7.4,1.1-15.2-2.7-20.8
        c-3.4-5.1-8.7-8.1-15.9-8.9c-22.4,2.1-44.5,3.2-65.5,3.1c-35.3-0.1-69.8-3.2-102.4-9.4l-0.2,0l-0.2,0c-11.4,0.7-18.4,7.2-20.8,19.4
        l-12.1,87c-3,12.1,4.6,17.2,10.5,20l0.5,0.1c5.4,0.8,10.9,1.6,16.3,2.4l-2.2,25l-166-13.4L23.5,252.7c-0.9,0.1-1.5,0.9-1.5,1.8
        l0,10.7c0,0.9,0.7,1.7,1.6,1.8l59.2,6.8c-4.3,6.1-7.4,16.1-6.6,34.2L35,616.4c-1.9,2-8.2,9.1-6.1,14.3c1.3,3.1,4.8,4.6,10.9,4.6
        l1.3,0c7.3-0.2,11.4-2,12.7-5.5c1.8-5-3.6-11-5.7-13.1L104,296.8c0.8-13.4,5.5-15.3,10.8-17.5c1.1-0.4,2.1-0.9,3.1-1.4l53.6,6.2
        l54.7,79.8l0.3,8.2c0,0.7,0.4,1.3,1,1.5c2.4,1.2,5,2.3,7.6,3.4c3.6,6.5,10.9,10.1,18.4,12l34.8,300.1c-2.2,2.2-8.3,8.8-6.4,14.2
        c1.4,3.7,5.8,5.6,13.7,5.9c0.5,0,1,0,1.4,0h0c6.5,0,10.4-1.6,11.7-4.8c2.3-5.5-4.5-13.2-6.5-15.4l-22.7-298
        c29.9,7.1,64.4,11.6,97.9,12.6l-6.8,91.7c0.5,3.5-1.2,7-2.7,10.1c-1.6,3.2-3,6.3-1.4,8.8c1.5,2.3,5.1,3.3,12.1,3.3l1,0
        c7.8-0.1,11.9-1.3,13.3-4.1c1.7-3.2-0.8-7-3.5-10.9c-1.7-2.5-3.4-5.1-4-7.4l12.9-91.4c14.5-0.3,28.4-1.3,41.2-3
        c0.2,0,0.5-0.1,0.7-0.2l73.5-43.7c0.4,1.2,0.7,2.5,1.2,3.8L565,534.9c0.9,2-0.3,5.3-1.4,8.5c-1.5,4.4-3.1,8.9-0.6,12.3
        c1.9,2.7,5.7,3.9,12,3.9c0.6,0,1.2,0,1.9,0c7.1-0.3,11.2-1.8,12.7-4.7C591.5,550.9,588.1,545.7,584.7,540.7z M274.6,324.4
        c0.6-13-0.6-22.2-2.8-28.8l14.4,1.7c0.1,0,0.1,0,0.2,0c0.1,0,0.3,0,0.4-0.1l96.6-25.1l-2.9,32.5l0.2,9.3c-0.5,0-1.1,0-1.6,0
        c-3.8,0-8.8,0.4-10.8,1.2c-11.6,5-34.9,8.3-59.5,11.8c-11.6,1.7-23.1,3.3-33.6,5.2L274.6,324.4z M511.5,313.6
        c-0.1,3-0.2,5.7-0.3,8.3c-19.4,2.4-36.1,3.5-51.4,3.4c-18.6,0-35.6-1.8-53.8-5.7l0-13.1l3.7-41.1l37.2-9.7c0.8-0.2,1.3-0.9,1.3-1.7
        l0-10.7c0-0.9-0.7-1.7-1.6-1.8l-34.6-2.8l2.1-23.6c34.3,4.5,70,8,106.7,8.7L511.5,313.6z M228.6,290.6c1.4,0.8,2.8,1.3,4.1,1.9
        c5.9,2.4,10.9,4.5,11.8,19.4l3,26.3c-3,0.9-5.7,1.9-8.2,2.9L203,287.7L228.6,290.6z"/>
      </svg>