<?xml version="1.0" encoding="utf-8"?>
<!-- Generator: Adobe Illustrator 16.0.4, SVG Export Plug-In . SVG Version: 6.00 Build 0)  -->
<!DOCTYPE svg PUBLIC "-//W3C//DTD SVG 1.1//EN" "http://www.w3.org/Graphics/SVG/1.1/DTD/svg11.dtd">
<svg version="1.1" id="Layer_1" xmlns="http://www.w3.org/2000/svg" xmlns:xlink="http://www.w3.org/1999/xlink" x="0px" y="0px"
	 width="512px" height="512px" viewBox="0 0 512 512" enable-background="new 0 0 512 512" xml:space="preserve">
<path fill="#FFFFFF" d="M451.716,99.715c13.746,13.746,25.276,39.336,27.775,60.285H320V0.508
	c20.949,2.499,46.538,14.03,60.284,27.776L451.716,99.715z M288,192V0H72C50,0,32,18,32,40v432c0,22,18,40,40,40h368
	c22,0,40-18,40-40V192H288z M416,448H96v-32h320V448z M416,384H96v-32h320V384z M416,320H96v-32h320V320z"/>
</svg>
