<?xml version="1.0" encoding="utf-8"?>
<!-- Generator: Adobe Illustrator 19.0.0, SVG Export Plug-In . SVG Version: 6.00 Build 0)  -->
<svg version="1.1" id="Layer_1" xmlns="http://www.w3.org/2000/svg" xmlns:xlink="http://www.w3.org/1999/xlink" x="0px" y="0px"
	 viewBox="0 0 30.1 30.1" enable-background="new 0 0 30.1 30.1" xml:space="preserve">
<path fill="#353430" d="M28.6,0H1.5C0.7,0,0,0.7,0,1.5v27.1c0,0.8,0.7,1.5,1.5,1.5h27.1c0.8,0,1.5-0.7,1.5-1.5V1.5
	C30.1,0.7,29.4,0,28.6,0z M21.3,15.5c-0.3,3.2-3,5.8-6.3,5.8c-3.3,0-6-2.6-6.3-5.8c0-0.2,0-0.3,0-0.5s0-0.3,0-0.5
	c0.3-3.2,3-5.8,6.3-5.8c3.3,0,6,2.6,6.3,5.8c0,0.2,0,0.3,0,0.5S21.3,15.4,21.3,15.5z M20.9,6.4c0-1.5,1.2-2.7,2.7-2.7
	c1.5,0,2.7,1.2,2.7,2.7s-1.2,2.7-2.7,2.7C22.2,9.1,20.9,7.9,20.9,6.4z M27.1,27.1H3V15.5h2.8c0.3,4.9,4.3,8.8,9.3,8.8s9-3.9,9.3-8.8
	h2.8V27.1z"/>
</svg>
