<svg id="Layer_1" data-name="Layer 1" xmlns="http://www.w3.org/2000/svg" viewBox="0 0 344.91 98.45">
  <defs>
    <style>
      .cls-1 {
        fill: #2f2f2f;
      }

      .cls-2 {
        fill: #313131;
      }
    </style>
  </defs>
  <title>logo-gray</title>
  <g>
    <g>
      <polygon class="cls-1" points="172.23 20.99 153.32 39.9 153.32 20.99 172.23 20.99"/>
      <polygon class="cls-1" points="153.32 19.77 153.32 0.86 172.23 19.77 153.32 19.77"/>
      <polygon class="cls-1" points="193.22 0 174.3 18.91 174.3 0 193.22 0"/>
      <polygon class="cls-1" points="173.09 18.91 154.17 0 173.09 0 173.09 18.91"/>
      <polygon class="cls-1" points="175.16 19.77 194.07 0.86 194.07 19.77 175.16 19.77"/>
      <polygon class="cls-1" points="194.07 20.99 194.07 39.9 175.16 20.99 194.07 20.99"/>
      <polygon class="cls-1" points="173.09 21.84 154.17 40.75 173.09 40.75 173.09 21.84"/>
      <polygon class="cls-1" points="174.3 21.84 174.3 40.75 193.22 40.75 174.3 21.84"/>
    </g>
    <g>
      <path class="cls-2" d="M17.52,284.7c-1-3.66-3-4.64-6.11-4.64-5.72,0-8.27,4.32-8.27,9.32,0,6.14,3.15,10.21,8.3,10.21,3.56,0,5.21-1.72,6.77-5.06l0.8,0.1c-0.41,1.37-1.11,3.91-1.62,5.12a28.56,28.56,0,0,1-6,.89c-8,0-11.42-5.47-11.42-10.53C0,283.55,5.06,279,12,279a23.66,23.66,0,0,1,5.72.83c0.25,1.75.38,3.15,0.57,4.8Z" transform="translate(0 -226.72)"/>
      <path class="cls-2" d="M37.47,288.61v-4.52c0-3.47-.25-3.69-2.8-3.88v-0.73h8.4v0.73c-2.67.19-2.93,0.41-2.93,3.88v11.45c0,3.47.25,3.69,2.86,3.88v0.73H34.41v-0.73c2.8-.19,3.05-0.41,3.05-3.88v-5.66h-11v5.66c0,3.47.25,3.69,2.86,3.88v0.73H20.9v-0.73c2.61-.19,2.86-0.41,2.86-3.88V284.09c0-3.47-.25-3.69-3-3.88v-0.73h8.39v0.73c-2.48.19-2.73,0.41-2.73,3.88v4.52h11Z" transform="translate(0 -226.72)"/>
      <path class="cls-2" d="M57.13,299.42l1-.13c1.18-.13,1.3-0.48,1-1.46-0.22-.76-1.14-3.24-2-5.53H50.64c-0.32.83-1.14,3.31-1.59,4.64-0.6,1.84-.32,2.26,1.11,2.38l1,0.1v0.73h-6.8v-0.73c2.07-.22,2.32-0.41,3.43-3.24l6.55-16.89L55,279l2.26,6c1.49,4,2.89,8.08,4.13,11.32,1,2.67,1.43,2.89,3.4,3.05v0.73H57.13v-0.73Zm-6.07-8.33h5.63l-2.8-7.82H53.82Z" transform="translate(0 -226.72)"/>
      <path class="cls-2" d="M71.6,295.54c0,3.47.25,3.69,3.34,3.88v0.73H66.07v-0.73c2.61-.19,2.86-0.41,2.86-3.88V284.09c0-3.47-.25-3.69-2.7-3.88v-0.73h8a8.76,8.76,0,0,1,5.28,1.34,5.11,5.11,0,0,1,2,4.36c0,3.91-3.15,6-6.2,6.39a11.88,11.88,0,0,1-1.43.06L71.6,291v4.52Zm0-5.47a6.45,6.45,0,0,0,2.39.38c2,0,4.61-1,4.61-5.18,0-3.47-1.81-4.87-5.09-4.87a5,5,0,0,0-1.62.16c-0.19.06-.29,0.22-0.29,0.86v8.65Z" transform="translate(0 -226.72)"/>
      <path class="cls-2" d="M89.42,279.48l7.7,16.38,7.57-16.38h5.25v0.73c-2.77.22-3,.35-2.86,3.88l0.25,11.45c0.1,3.56.19,3.66,3,3.88v0.73h-8.39v-0.73c2.67-.22,2.77-0.32,2.74-3.88l-0.13-12.81h-0.13L96.6,299.8H95.81l-7.35-16.63H88.4L88.08,292a40.12,40.12,0,0,0,0,5.72c0.16,1.18.92,1.49,3,1.65v0.73H83.6v-0.73c1.78-.16,2.45-0.48,2.67-1.65a51,51,0,0,0,.54-6L87.16,285c0.22-4.26,0-4.61-3-4.83v-0.73h5.25Z" transform="translate(0 -226.72)"/>
      <path class="cls-2" d="M124.28,299.42l1-.13c1.18-.13,1.3-0.48,1-1.46-0.22-.76-1.15-3.24-2-5.53h-6.46c-0.32.83-1.14,3.31-1.59,4.64-0.6,1.84-.32,2.26,1.11,2.38l1,0.1v0.73h-6.8v-0.73c2.07-.22,2.32-0.41,3.43-3.24l6.55-16.89,0.73-.29,2.26,6c1.49,4,2.89,8.08,4.13,11.32,1,2.67,1.43,2.89,3.4,3.05v0.73h-7.69v-0.73Zm-6.07-8.33h5.63l-2.8-7.82H121Z" transform="translate(0 -226.72)"/>
      <path class="cls-2" d="M152.11,300.37h-0.83l-13.8-16.76h-0.06v8.11a49.43,49.43,0,0,0,.25,6c0.16,1.11,1,1.56,3.12,1.65v0.73h-7.63v-0.73c1.75-.06,2.58-0.54,2.73-1.65a49.4,49.4,0,0,0,.25-6v-6.9c0-2.29,0-2.8-.6-3.53a3.52,3.52,0,0,0-2.8-1.08v-0.73h4.64l13.39,16h0.06v-7.6a49.54,49.54,0,0,0-.25-6c-0.16-1.11-1-1.56-3.12-1.65v-0.73h7.63v0.73c-1.75.06-2.58,0.54-2.73,1.65a49.54,49.54,0,0,0-.25,6v12.47Z" transform="translate(0 -226.72)"/>
      <path class="cls-2" d="M172.56,279.48v0.73c-2.54.19-2.8,0.41-2.8,3.88v6.65c0,2.7.35,4.74,1.34,6.17a5.21,5.21,0,0,0,4.58,2.19,5.41,5.41,0,0,0,4.67-2.39c1.05-1.59,1.43-4.39,1.43-7.06v-1.72a49.88,49.88,0,0,0-.25-6.07c-0.16-1.11-1-1.56-3.12-1.65v-0.73H186v0.73c-1.75.06-2.58,0.54-2.73,1.65a49.79,49.79,0,0,0-.26,6.07v2.13c0,3.69-.57,6.3-2.42,8.27a8.93,8.93,0,0,1-11.1.67c-1.69-1.37-2.45-3.53-2.45-7.16v-7.76c0-3.47-.25-3.69-2.92-3.88v-0.73h8.39Z" transform="translate(0 -226.72)"/>
      <path class="cls-2" d="M206.66,300.37h-0.83L192,283.61H192v8.11a49.21,49.21,0,0,0,.25,6c0.16,1.11,1,1.56,3.12,1.65v0.73h-7.63v-0.73c1.75-.06,2.57-0.54,2.73-1.65a49.13,49.13,0,0,0,.26-6v-6.9c0-2.29,0-2.8-.61-3.53a3.51,3.51,0,0,0-2.8-1.08v-0.73h4.64l13.39,16h0.06v-7.6a49.11,49.11,0,0,0-.26-6c-0.16-1.11-1-1.56-3.12-1.65v-0.73h7.63v0.73c-1.75.06-2.58,0.54-2.73,1.65a49.12,49.12,0,0,0-.26,6v12.47Z" transform="translate(0 -226.72)"/>
      <path class="cls-2" d="M217.1,295.54c0,3.47.25,3.69,2.86,3.88v0.73h-8.39v-0.73c2.61-.19,2.86-0.41,2.86-3.88V284.09c0-3.47-.25-3.69-2.86-3.88v-0.73H220v0.73c-2.61.19-2.86,0.41-2.86,3.88v11.45Z" transform="translate(0 -226.72)"/>
      <path class="cls-2" d="M231.22,300.34c-2.16-5.69-5.21-13.55-6.58-17.08-1-2.64-1.46-2.86-3.37-3.05v-0.73H229v0.73l-1,.13c-1.17.16-1.37,0.48-1,1.46,0.83,2.35,3.28,8.62,5.6,14.56,1.65-4.39,4.39-11.61,5.09-13.67,0.61-1.81.29-2.23-1.14-2.39l-1-.1v-0.73h7v0.73c-2.13.22-2.42,0.45-3.59,3.24-0.41,1-4.36,10.43-6.74,16.89h-1Z" transform="translate(0 -226.72)"/>
      <path class="cls-2" d="M246.69,284.09c0-3.47-.25-3.69-2.8-3.88v-0.73h13.93c0,0.54.19,2.86,0.35,4.64l-0.79.1a5.86,5.86,0,0,0-1.15-2.93c-0.51-.54-1.56-0.76-3.5-0.76h-2.42c-0.89,0-1,.06-1,1v7.25h3.21c2.74,0,2.83-.19,3.15-2.54h0.8v6.3h-0.8c-0.16-1.18-.25-1.81-0.67-2.16s-1.11-.41-2.48-0.41h-3.21v5.63c0,1.81.19,2.77,0.79,3.15a7.18,7.18,0,0,0,3.24.38c1.81,0,3.31-.16,4-0.92a8.79,8.79,0,0,0,1.53-3.12l0.79,0.1c-0.16.89-.86,4.13-1.11,5h-15v-0.73c2.86-.19,3.12-0.41,3.12-3.88V284.09Z" transform="translate(0 -226.72)"/>
      <path class="cls-2" d="M267.14,295.54c0,3.47.25,3.69,2.86,3.88v0.73h-8.46v-0.73c2.67-.19,2.92-0.41,2.92-3.88V284.09c0-3.47-.25-3.69-2.8-3.88v-0.73h8.08a9.28,9.28,0,0,1,5,1.08,4.63,4.63,0,0,1,2.1,4.07c0,2.64-1.62,4.52-4.2,5.56,0.57,1,1.88,3.15,2.83,4.55a29.27,29.27,0,0,0,2.67,3.5,4.11,4.11,0,0,0,2.38,1.59l-0.06.6H280c-3.66-.1-4.77-1.21-6-3-1-1.43-2.32-3.79-3.21-5.28a2,2,0,0,0-2-1.14h-1.72v4.48Zm0-5.41H269a4.7,4.7,0,0,0,3.18-.86,5.12,5.12,0,0,0,1.84-4.2c0-3.34-2.42-4.67-4.8-4.67a5.59,5.59,0,0,0-1.78.16c-0.19.06-.29,0.22-0.29,0.86v8.71Z" transform="translate(0 -226.72)"/>
      <path class="cls-2" d="M282.47,294.55c0.51,1.5,2.13,5,5.5,5a3.77,3.77,0,0,0,3.94-4.1c0-2.7-2.07-3.82-4.1-4.8-1-.51-5.34-2-5.34-5.82,0-3.15,2.39-5.85,6.55-5.85a9.4,9.4,0,0,1,2.64.41,12.1,12.1,0,0,0,1.21.35c0.13,1.11.32,2.39,0.57,4.29l-0.8.1c-0.54-1.88-1.43-4.1-4.32-4.1a3.31,3.31,0,0,0-3.43,3.53c0,2.35,1.68,3.4,4.1,4.48,2.1,0.92,5.44,2.23,5.44,6.17,0,3.69-3,6.39-7.06,6.39a10.21,10.21,0,0,1-3-.48c-0.79-.25-1.37-0.51-1.75-0.67-0.25-.83-0.6-3.08-0.92-4.8Z" transform="translate(0 -226.72)"/>
      <path class="cls-2" d="M302.38,295.54c0,3.47.25,3.69,2.86,3.88v0.73h-8.39v-0.73c2.61-.19,2.86-0.41,2.86-3.88V284.09c0-3.47-.25-3.69-2.86-3.88v-0.73h8.39v0.73c-2.61.19-2.86,0.41-2.86,3.88v11.45Z" transform="translate(0 -226.72)"/>
      <path class="cls-2" d="M317.56,295.54c0,3.47.25,3.69,3.37,3.88v0.73h-9.28v-0.73c3-.19,3.24-0.41,3.24-3.88v-15h-1.5c-2.83,0-3.69.41-4.16,1a8.43,8.43,0,0,0-1.11,2.73h-0.79c0.13-1.94.32-4,.38-5.6h0.45a1.51,1.51,0,0,0,1.65.8h13a1.53,1.53,0,0,0,1.5-.8h0.45c0,1.34.19,3.66,0.35,5.5l-0.79.1a6.17,6.17,0,0,0-1.14-2.93c-0.54-.6-1.53-0.83-3.5-0.83h-2.13v15Z" transform="translate(0 -226.72)"/>
      <path class="cls-2" d="M336.74,295.54c0,3.47.25,3.69,3.31,3.88v0.73h-9.16v-0.73c2.93-.19,3.18-0.41,3.18-3.88v-3.62a3.3,3.3,0,0,0-.7-1.91c-1.43-2.48-2.67-4.77-4-7.12s-1.5-2.45-3.34-2.67v-0.73h7.66v0.73l-1.46.19c-0.79.13-1,.41-0.48,1.4,1.43,2.67,2.89,5.31,4.45,7.92,1.33-2.54,2.77-5.15,3.94-7.76,0.54-1.14.29-1.46-.92-1.59l-1.27-.16v-0.73h7v0.73c-2.13.19-2.29,0.6-3.63,2.7s-2.64,4.42-4,7a2.75,2.75,0,0,0-.54,1.72v3.94Z" transform="translate(0 -226.72)"/>
      <path class="cls-2" d="M39.31,309.72c0,0.37.14,2.09,0.28,3.44l-0.7.09a4.26,4.26,0,0,0-.86-2.07c-0.4-.39-1.14-0.53-2.58-0.53H34.25c-0.88,0-.93,0-0.93.84v5.16h2.32c2,0,2-.14,2.28-1.86h0.74v4.76H37.92c-0.23-1.74-.28-1.84-2.28-1.84H33.32v3.62c0,2.51.19,2.69,2.32,2.83v0.65H28.81v-0.65c1.72-.14,1.91-0.33,1.91-2.83v-8.13c0-2.51-.19-2.69-1.91-2.83v-0.65h10.5Z" transform="translate(0 -226.72)"/>
      <path class="cls-2" d="M57.24,317c0,4.95-3.46,8.18-7.87,8.18a7.38,7.38,0,0,1-7.6-7.64,8,8,0,0,1,8.13-8.15A7.31,7.31,0,0,1,57.24,317Zm-12.45-.21c0,4.2,1.86,7.46,5.16,7.46,2.42,0,4.27-2,4.27-6.39,0-4.83-1.93-7.55-5-7.55C46.71,310.3,44.79,312.67,44.79,316.79Z" transform="translate(0 -226.72)"/>
      <path class="cls-2" d="M70.63,309.91l4,11.06h0c0.86-2.88,2-7.2,2.35-8.69s0.23-1.72-.77-1.81l-0.84-.09v-0.65h5.34v0.65c-1.51.14-1.7,0.28-2.44,2.37-0.35,1-2,5.81-3.93,12.27h-1l-3.95-10.87h0L65.8,325h-1l-3.83-12.36c-0.63-2-1-2.14-2.28-2.28v-0.65h6.27v0.65l-0.77.09c-1,.14-1,0.33-0.72,1.44L66.15,321h0l3.53-11.06h0.91Z" transform="translate(0 -226.72)"/>
      <path class="cls-2" d="M88.72,309.72v0.65c-1.86.14-2,.32-2,2.83v8.08c0,1.35.14,2,.53,2.28a3.74,3.74,0,0,0,1.9.33c1.07,0,2.18-.09,2.67-0.67a7,7,0,0,0,1.14-2.35L93.67,321c-0.14.74-.65,3.11-0.84,3.81H81.94v-0.65c2-.14,2.14-0.33,2.14-2.83v-8.13c0-2.51-.19-2.69-2-2.83v-0.65h6.69Z" transform="translate(0 -226.72)"/>
      <path class="cls-2" d="M105.58,309.72c0,0.37.14,2.09,0.28,3.53l-0.7,0a4.26,4.26,0,0,0-.86-2.11c-0.39-.39-1.14-0.53-2.58-0.53h-1.16c-0.88,0-.93,0-0.93.84v4.92h2c2,0,2-.14,2.28-1.93h0.74v4.92h-0.74c-0.23-1.84-.28-1.93-2.28-1.93h-2v3.81c0,1.35.09,2,.51,2.3a4.74,4.74,0,0,0,2.23.3c1.16,0,2.23-.09,2.72-0.67a7.4,7.4,0,0,0,1.18-2.35L107,321c-0.09.79-.6,3.16-0.79,3.81H94.85v-0.65c2-.14,2.18-0.33,2.18-2.83v-8.13c0-2.51-.19-2.69-2-2.83v-0.65h10.5Z" transform="translate(0 -226.72)"/>
      <path class="cls-2" d="M114.8,309.72a6.89,6.89,0,0,1,3.83.79,3.39,3.39,0,0,1,1.53,3,4.22,4.22,0,0,1-3.09,4c0.37,0.65,1.28,2.28,2,3.32a24.81,24.81,0,0,0,1.93,2.58,3.21,3.21,0,0,0,1.6,1.07l-0.09.6-1,0c-2.53-.19-3.32-0.84-4.23-2.14-0.74-1.07-1.51-2.56-2.18-3.76a1.33,1.33,0,0,0-1.35-.88h-0.74v3.11c0,2.51.19,2.69,2,2.83v0.65h-6.55v-0.65c1.86-.14,2-0.33,2-2.83v-8.13c0-2.51-.19-2.69-2-2.83v-0.65h6.25Zm-1.74,7.71h0.88a3.29,3.29,0,0,0,2.18-.6,3.66,3.66,0,0,0,1.25-3,3,3,0,0,0-3.16-3.25c-1.12,0-1.16.09-1.16,0.84v6Z" transform="translate(0 -226.72)"/>
      <path class="cls-2" d="M137.67,313.28c-0.42-1.35-1.14-3-3.09-3a2.28,2.28,0,0,0-2.37,2.44c0,1.3.93,2.16,2.72,3l0.6,0.28c1.81,0.81,3.48,2,3.48,4.46,0,2.76-2.16,4.72-5.3,4.72a7.31,7.31,0,0,1-2.32-.4c-0.65-.21-1.07-0.39-1.35-0.49-0.19-.6-0.46-2.18-0.7-3.6l0.7-.23c0.47,1.21,1.72,3.79,4.11,3.79a2.44,2.44,0,0,0,2.44-2.62c0-1.3-.63-2.23-2.46-3.14l-0.74-.37c-1.53-.79-3.48-2-3.48-4.3,0-2.44,1.83-4.44,4.95-4.44a6.79,6.79,0,0,1,2.11.33c0.37,0.14.7,0.19,1,.3,0.09,0.81.23,1.83,0.46,3.14Z" transform="translate(0 -226.72)"/>
      <path class="cls-2" d="M154.16,313.74c-0.74-2.65-2.21-3.44-4.37-3.44-3.81,0-5.53,3.18-5.53,6.62,0,4.32,2.14,7.32,5.53,7.32,2.51,0,3.67-1.3,4.88-3.76l0.65,0.14a34.52,34.52,0,0,1-1.16,3.86,18.89,18.89,0,0,1-4.37.7c-6.09,0-8.55-4-8.55-7.64,0-4.88,3.76-8.15,9-8.15a17.1,17.1,0,0,1,4.18.6c0.19,1.3.28,2.32,0.42,3.67Z" transform="translate(0 -226.72)"/>
      <path class="cls-2" d="M163.39,309.72v0.65c-1.72.14-1.9,0.32-1.9,2.83v3.11h7.06v-3.11c0-2.51-.19-2.69-2-2.83v-0.65h6.6v0.65c-1.86.14-2,.32-2,2.83v8.13c0,2.51.19,2.69,2,2.83v0.65h-6.74v-0.65c2-.14,2.14-0.33,2.14-2.83v-3.95h-7.06v3.95c0,2.51.19,2.69,2,2.83v0.65h-6.64v-0.65c1.86-.14,2-0.33,2-2.83v-8.13c0-2.51-.19-2.69-2.14-2.83v-0.65h6.64Z" transform="translate(0 -226.72)"/>
      <path class="cls-2" d="M190.84,317c0,4.95-3.46,8.18-7.87,8.18a7.38,7.38,0,0,1-7.6-7.64,8,8,0,0,1,8.13-8.15A7.31,7.31,0,0,1,190.84,317Zm-12.45-.21c0,4.2,1.86,7.46,5.16,7.46,2.42,0,4.27-2,4.27-6.39,0-4.83-1.93-7.55-5-7.55C180.32,310.3,178.39,312.67,178.39,316.79Z" transform="translate(0 -226.72)"/>
      <path class="cls-2" d="M208.68,317c0,4.95-3.46,8.18-7.87,8.18a7.38,7.38,0,0,1-7.6-7.64,7.94,7.94,0,0,1,8.13-8.15A7.31,7.31,0,0,1,208.68,317Zm-12.45-.21c0,4.2,1.86,7.46,5.16,7.46,2.41,0,4.27-2,4.27-6.39,0-4.83-1.93-7.55-5-7.55C198.15,310.3,196.23,312.67,196.23,316.79Z" transform="translate(0 -226.72)"/>
      <path class="cls-2" d="M217.54,309.72v0.65c-1.86.14-2,.32-2,2.83v8.08c0,1.35.14,2,.53,2.28a3.74,3.74,0,0,0,1.9.33c1.07,0,2.18-.09,2.67-0.67a7,7,0,0,0,1.14-2.35l0.75,0.14c-0.14.74-.65,3.11-0.84,3.81h-10.9v-0.65c2-.14,2.14-0.33,2.14-2.83v-8.13c0-2.51-.18-2.69-2-2.83v-0.65h6.69Z" transform="translate(0 -226.72)"/>
      <path class="cls-2" d="M245,317c0,4.95-3.46,8.18-7.88,8.18a7.38,7.38,0,0,1-7.6-7.64,8,8,0,0,1,8.13-8.15A7.31,7.31,0,0,1,245,317Zm-12.45-.21c0,4.2,1.86,7.46,5.16,7.46,2.42,0,4.27-2,4.27-6.39,0-4.83-1.93-7.55-5-7.55C234.52,310.3,232.59,312.67,232.59,316.79Z" transform="translate(0 -226.72)"/>
      <path class="cls-2" d="M257.85,309.72c0,0.37.14,2.09,0.28,3.44l-0.7.09a4.26,4.26,0,0,0-.86-2.07c-0.39-.39-1.14-0.53-2.58-0.53h-1.21c-0.88,0-.93,0-0.93.84v5.16h2.32c2,0,2-.14,2.28-1.86h0.74v4.76h-0.74c-0.23-1.74-.28-1.84-2.28-1.84h-2.32v3.62c0,2.51.19,2.69,2.32,2.83v0.65h-6.83v-0.65c1.72-.14,1.9-0.33,1.9-2.83v-8.13c0-2.51-.18-2.69-1.9-2.83v-0.65h10.5Z" transform="translate(0 -226.72)"/>
      <path class="cls-2" d="M272.39,309.72v0.65c-1.86.14-2,.32-2,2.83v8.08c0,1.35.14,2,.53,2.28a3.75,3.75,0,0,0,1.91.33c1.07,0,2.18-.09,2.67-0.67a7,7,0,0,0,1.14-2.35l0.74,0.14c-0.14.74-.65,3.11-0.84,3.81H265.6v-0.65c2-.14,2.14-0.33,2.14-2.83v-8.13c0-2.51-.19-2.69-2-2.83v-0.65h6.69Z" transform="translate(0 -226.72)"/>
      <path class="cls-2" d="M286,309.44l1.6,4.32c1,2.83,2.07,5.71,2.95,8,0.79,2.07,1.12,2.23,2.46,2.37v0.65h-6.11v-0.65l0.65-.09c0.88-.14.93-0.37,0.65-1.25-0.23-.7-0.79-2.14-1.28-3.35h-4.3c-0.3.7-.72,2-1,3-0.42,1.23-.23,1.53.79,1.65l0.65,0.07v0.65h-5.16v-0.65c1.44-.19,1.7-0.28,2.51-2.37l4.69-12.08Zm-3.11,9h3.69l-1.81-5.11h-0.07Z" transform="translate(0 -226.72)"/>
      <path class="cls-2" d="M305.48,309.91l4,11.06h0c0.86-2.88,2-7.2,2.35-8.69s0.23-1.72-.77-1.81l-0.84-.09v-0.65h5.34v0.65c-1.51.14-1.7,0.28-2.44,2.37-0.35,1-2,5.81-3.93,12.27h-1l-3.95-10.87h0L300.65,325h-1l-3.83-12.36c-0.63-2-1-2.14-2.28-2.28v-0.65h6.27v0.65l-0.77.09c-1,.14-1,0.33-0.72,1.44L301,321h0l3.53-11.06h0.91Z" transform="translate(0 -226.72)"/>
    </g>
  </g>
</svg>
