  <svg version="1.1" id="Layer_1" xmlns="http://www.w3.org/2000/svg" xmlns:xlink="http://www.w3.org/1999/xlink" x="0px" y="0px"
   viewBox="0 70 200 250" enable-background="new 0 0 200 250" xml:space="preserve">
<g>
  <path fill="#333333" d="M14.8,80.8c2.5-0.8,5.3,2.1,4.2,4.6c-0.7,2.5-4.4,3.1-6,1.1C11.4,84.7,12.4,81.3,14.8,80.8"/>
  <path fill="#333333" d="M9.3,89c2.3-0.9,4.8-0.5,7.3-0.6c2.1,0,4.5-0.3,6.2,1.2c1.3,1,1.4,2.9,1.4,4.4c0,3.4,0,6.7,0,10.1
    c0,0.8-0.3,1.9-1.2,1.9c-1.1,0.3-1.8-0.9-1.8-1.9c0-3.3,0-6.5,0-9.8c-0.3,0-0.8,0-1.1,0c0,9.3,0,18.7,0,28c0.2,2.2-3.7,2.7-3.9,0.4
    c-0.1-5.6,0-11.2,0-16.8h-0.9c0,4.9,0,9.8,0,14.7c0,1.1-0.1,2.2-0.5,3.1c-1.3,1-3.7,0.5-3.6-1.4c-0.1-9.3,0-18.7,0-28h-0.9
    c-0.1,3.1,0,6.2,0,9.3c0,1-0.5,2.6-1.8,2.3c-0.8,0.1-1.3-0.8-1.2-1.5c0-3.9,0-7.9,0-11.8C7.1,91.2,7.8,89.6,9.3,89"/>
  <path fill="#333333" d="M58.1,80.8c2.5-0.8,5.4,2.1,4.2,4.6c-0.7,2.5-4.4,3.1-6,1.1C54.6,84.7,55.6,81.3,58.1,80.8"/>
  <path fill="#333333" d="M52.5,89c2.3-0.9,4.8-0.5,7.3-0.6c2.1,0,4.5-0.3,6.2,1.2c1.3,1,1.4,2.9,1.4,4.4c0,3.4,0,6.7,0,10.1
    c0,0.8-0.3,1.9-1.2,1.9c-1.1,0.3-1.8-0.9-1.8-1.9c0-3.3,0-6.5,0-9.8c-0.3,0-0.8,0-1.1,0c0,9.3,0,18.7,0,28c0.2,2.2-3.7,2.7-3.9,0.4
    c-0.1-5.6,0-11.2,0-16.8h-0.9c0,4.9,0,9.8,0,14.7c0,1.1-0.1,2.2-0.5,3.1c-1.3,1-3.7,0.5-3.6-1.4c-0.1-9.3,0-18.7,0-28h-0.9
    c-0.1,3.1,0,6.2,0,9.3c0,1-0.5,2.6-1.8,2.3c-0.8,0.1-1.3-0.8-1.2-1.5c0-3.9,0-7.9,0-11.8C50.3,91.2,51.1,89.6,52.5,89"/>
  <path fill="#333333" d="M101.3,80.8c2.5-0.8,5.3,2.1,4.2,4.6c-0.7,2.5-4.4,3.1-6,1.1C97.9,84.7,98.9,81.3,101.3,80.8"/>
  <path fill="#333333" d="M95.8,89c2.3-0.9,4.9-0.5,7.3-0.6c2.1,0,4.5-0.3,6.2,1.2c1.3,1,1.4,2.9,1.4,4.4c0,3.4,0,6.7,0,10.1
    c0,0.8-0.3,1.9-1.2,1.9c-1.1,0.3-1.8-0.9-1.8-1.9c0-3.3,0-6.5,0-9.8c-0.3,0-0.8,0-1.1,0c0,9.3,0,18.7,0,28c0.2,2.2-3.7,2.7-3.9,0.4
    c-0.1-5.6,0-11.2,0-16.8h-0.9c0,4.9,0,9.8,0,14.7c0,1.1-0.1,2.2-0.5,3.1c-1.3,1-3.7,0.5-3.6-1.4c-0.1-9.3,0-18.7,0-28h-0.9
    c-0.1,3.1,0,6.2,0,9.3c0,1-0.5,2.6-1.8,2.3c-0.8,0.1-1.3-0.8-1.2-1.5c0-3.9,0-7.9,0-11.8C93.6,91.2,94.3,89.6,95.8,89"/>
  <path fill="#333333" d="M144.6,80.8c2.5-0.8,5.3,2.1,4.2,4.6c-0.7,2.5-4.4,3.1-6,1.1C141.1,84.7,142.1,81.3,144.6,80.8"/>
  <path fill="#333333" d="M139,89c2.3-0.9,4.8-0.5,7.3-0.6c2.1,0,4.5-0.3,6.2,1.2c1.3,1,1.3,2.9,1.4,4.4c0,3.4,0,6.7,0,10.1
    c0,0.8-0.3,1.9-1.2,1.9c-1.1,0.3-1.8-0.9-1.8-1.9c0-3.3,0-6.5,0-9.8c-0.3,0-0.8,0-1.1,0c0,9.3,0,18.7,0,28c0.2,2.2-3.7,2.7-3.9,0.4
    c-0.1-5.6,0-11.2,0-16.8h-0.9c0,4.9,0,9.8,0,14.7c0,1.1-0.1,2.2-0.5,3.1c-1.3,1-3.7,0.5-3.6-1.4c-0.1-9.3,0-18.7-0.1-28h-0.9
    c-0.1,3.1,0,6.2,0,9.3c0,1-0.5,2.6-1.8,2.3c-0.8,0.1-1.3-0.8-1.2-1.5c0-3.9,0-7.9,0-11.8C136.8,91.2,137.5,89.6,139,89"/>
  <path d="M174.8,79.3c5.3-1.7,11.1,4.4,8.7,9.6c-1.5,5.2-9.2,6.5-12.4,2.3C167.5,87.4,169.7,80.4,174.8,79.3"/>
  <path d="M163.1,96.4c4.8-1.9,10.1-1,15.1-1.2c4.3,0.1,9.4-0.6,13,2.4c2.7,2.2,2.8,5.9,2.9,9.1c0,7,0,14,0,21c0.1,1.6-0.6,4-2.5,3.9
    c-2.3,0.6-3.8-1.9-3.7-3.9c0-6.8,0-13.6,0-20.3c-0.6,0-1.7,0-2.3,0c-0.1,19.4,0,38.9-0.1,58.3c0.5,4.7-7.7,5.7-8.1,0.9
    c-0.2-11.7,0-23.4-0.1-35h-1.9c0,10.2,0,20.4,0,30.6c0,2.2-0.2,4.5-1,6.6c-2.6,2.2-7.7,1.1-7.5-2.9c-0.2-19.4,0-38.9-0.1-58.3H165
    c-0.1,6.4,0,12.9,0,19.3c0,2.1-1,5.4-3.8,4.8c-1.6,0.1-2.6-1.7-2.5-3.1c-0.1-8.2,0-16.4,0-24.5C158.6,100.9,160.1,97.6,163.1,96.4"
    />
  <path fill="#333333" d="M36.6,80.3c2.3-0.5,4.7,1.7,4.3,4.1c-0.2,3.1-4.8,4-6.4,1.6C32.7,84,34.2,80.8,36.6,80.3"/>
  <path fill="#333333" d="M31.7,89.7c1.8-1.7,4.4-1,6.6-1.2c1.8-0.1,4,0.1,5.1,1.8c1.3,2.2,1.6,4.8,2.5,7.1c0.5,2,1.6,4,1.1,6.2
    c-0.9,0.3-2.1,0.3-2.6-0.8c-1-2.9-1.8-5.8-2.8-8.7c-0.1-0.5-0.6-0.8-0.9-1.1c1.3,5.7,3.2,11.3,4.8,17c-1.4,0-2.8,0-4.2,0
    c-0.1,4.1,0,8.1-0.1,12.2c0,0.9-0.6,2-1.6,1.9c-1,0.1-1.8-0.9-1.6-1.9c-0.1-4.1,0-8.2,0-12.3c-0.2,0-0.7,0-1,0
    c-0.1,4.2,0.1,8.5-0.1,12.7c-0.1,1.9-3,1.9-3.2,0c-0.1-4.2,0-8.5,0-12.7c-1.4,0-2.8,0-4.3,0c1.3-5.6,2.9-11.1,4.2-16.7
    c-0.2,0.1-0.5,0.3-0.6,0.4c-1,3-1.7,6.1-2.7,9.1c-0.3,1.4-2.8,1.3-2.8-0.2c0.2-2.3,1.2-4.5,1.7-6.7C30,93.8,30.2,91.4,31.7,89.7"/>
  <path fill="#333333" d="M79.8,80.3c2.3-0.5,4.7,1.7,4.3,4.1c-0.2,3.1-4.7,4-6.4,1.6C76,84,77.4,80.8,79.8,80.3"/>
  <path fill="#333333" d="M74.9,89.7c1.8-1.7,4.4-1,6.6-1.2c1.8-0.1,4,0.1,5.1,1.8c1.3,2.2,1.6,4.8,2.5,7.1c0.5,2,1.6,4,1.1,6.2
    c-0.9,0.3-2.1,0.3-2.6-0.8c-1.1-2.9-1.8-5.8-2.8-8.7c-0.1-0.5-0.6-0.8-0.9-1.1c1.3,5.7,3.2,11.3,4.8,17c-1.4,0-2.8,0-4.2,0
    c-0.1,4.1,0.1,8.1-0.1,12.2c0,0.9-0.6,2-1.6,1.9c-1,0.1-1.7-0.9-1.6-1.9c-0.1-4.1,0-8.2,0-12.3c-0.3,0-0.7,0-1,0
    c-0.1,4.2,0.1,8.5-0.1,12.7c-0.1,1.9-3,1.9-3.2,0c-0.1-4.2,0-8.5-0.1-12.7c-1.4,0-2.8,0-4.2,0c1.3-5.6,2.9-11.1,4.2-16.7
    c-0.2,0.1-0.5,0.3-0.6,0.4c-1,3-1.7,6.1-2.7,9.1c-0.3,1.4-2.8,1.3-2.8-0.2c0.2-2.3,1.2-4.5,1.7-6.7C73.2,93.8,73.4,91.4,74.9,89.7"
    />
  <path fill="#333333" d="M123.1,80.3c2.3-0.5,4.7,1.7,4.2,4.1c-0.2,3.1-4.7,4-6.4,1.6C119.2,84,120.7,80.8,123.1,80.3"/>
  <path fill="#333333" d="M118.2,89.7c1.8-1.7,4.4-1,6.6-1.2c1.8-0.1,4,0.1,5.1,1.8c1.3,2.2,1.6,4.8,2.5,7.1c0.5,2,1.6,4,1.1,6.2
    c-0.9,0.3-2.1,0.3-2.6-0.8c-1-2.9-1.8-5.8-2.8-8.7c-0.1-0.5-0.6-0.8-0.9-1.1c1.3,5.7,3.3,11.3,4.8,17c-1.4,0-2.8,0-4.2,0
    c-0.1,4.1,0,8.1-0.1,12.2c0,0.9-0.6,2-1.6,1.9c-1,0.1-1.7-0.9-1.6-1.9c-0.1-4.1,0.1-8.2,0-12.3c-0.3,0-0.7,0-1,0
    c-0.1,4.2,0.1,8.5-0.1,12.7c-0.1,1.9-3,1.9-3.2,0c-0.1-4.2,0-8.5-0.1-12.7c-1.4,0-2.8,0-4.2,0c1.3-5.6,2.9-11.1,4.2-16.7
    c-0.2,0.1-0.5,0.3-0.6,0.4c-1,3-1.7,6.1-2.7,9.1c-0.3,1.4-2.8,1.3-2.8-0.2c0.2-2.3,1.2-4.5,1.7-6.7
    C116.5,93.8,116.7,91.4,118.2,89.7"/>
  <path fill="#333333" d="M36.5,127.5c2.5-0.8,5.3,2.1,4.2,4.6c-0.7,2.5-4.4,3.1-6,1.1C33,131.4,34,128,36.5,127.5"/>
  <path fill="#333333" d="M30.9,135.7c2.3-0.9,4.8-0.5,7.3-0.6c2.1,0,4.5-0.3,6.2,1.2c1.3,1,1.4,2.9,1.4,4.4c0,3.4,0,6.7,0,10.1
    c0,0.8-0.3,1.9-1.2,1.9c-1.1,0.3-1.8-0.9-1.8-1.9c0-3.3,0-6.5,0-9.8c-0.3,0-0.8,0-1.1,0c0,9.3,0,18.7,0,28c0.2,2.2-3.7,2.8-3.9,0.4
    c-0.1-5.6,0-11.2,0-16.8h-0.9c0,4.9,0,9.8,0,14.7c0,1.1-0.1,2.2-0.5,3.1c-1.3,1.1-3.7,0.5-3.6-1.4c-0.1-9.3,0-18.7,0-28h-0.9
    c-0.1,3.1,0,6.2,0,9.3c0,1-0.5,2.6-1.8,2.3c-0.8,0.1-1.3-0.8-1.2-1.5c0-3.9,0-7.9,0-11.8C28.7,137.9,29.4,136.3,30.9,135.7"/>
  <path fill="#333333" d="M79.7,127.5c2.5-0.8,5.3,2.1,4.2,4.6c-0.7,2.5-4.4,3.1-6,1.1C76.2,131.4,77.3,128,79.7,127.5"/>
  <path fill="#333333" d="M74.1,135.7c2.3-0.9,4.8-0.5,7.3-0.6c2.1,0,4.5-0.3,6.2,1.2c1.3,1,1.4,2.9,1.4,4.4c0,3.4,0,6.7,0,10.1
    c0,0.8-0.3,1.9-1.2,1.9c-1.1,0.3-1.8-0.9-1.8-1.9c0-3.3,0-6.5,0-9.8c-0.3,0-0.8,0-1.1,0c0,9.3,0,18.7,0,28c0.2,2.2-3.7,2.8-3.9,0.4
    c-0.1-5.6,0-11.2,0-16.8H80c0,4.9,0,9.8,0,14.7c0,1.1-0.1,2.2-0.5,3.1c-1.3,1.1-3.7,0.5-3.6-1.4c-0.1-9.3,0-18.7,0-28H75
    c-0.1,3.1,0,6.2,0,9.3c0,1-0.5,2.6-1.8,2.3c-0.8,0.1-1.3-0.8-1.2-1.5c0-3.9,0-7.9,0-11.8C72,137.9,72.7,136.3,74.1,135.7"/>
  <path fill="#333333" d="M123,127.5c2.5-0.8,5.3,2.1,4.2,4.6c-0.7,2.5-4.4,3.1-6,1.1C119.5,131.4,120.5,128,123,127.5"/>
  <path fill="#333333" d="M117.4,135.7c2.3-0.9,4.8-0.5,7.3-0.6c2.1,0,4.5-0.3,6.2,1.2c1.3,1,1.4,2.9,1.4,4.4c0,3.4,0,6.7,0,10.1
    c0,0.8-0.3,1.9-1.2,1.9c-1.1,0.3-1.8-0.9-1.8-1.9c0-3.3,0-6.5,0-9.8c-0.3,0-0.8,0-1.1,0c-0.1,9.3,0,18.7,0,28
    c0.2,2.2-3.7,2.8-3.9,0.4c-0.1-5.6,0-11.2,0-16.8h-0.9c0,4.9,0,9.8,0,14.7c0,1.1-0.1,2.2-0.5,3.1c-1.3,1.1-3.7,0.5-3.6-1.4
    c-0.1-9.3,0-18.7-0.1-28h-0.9c-0.1,3.1,0,6.2,0,9.3c0,1-0.5,2.6-1.8,2.3c-0.8,0.1-1.3-0.8-1.2-1.5c0-3.9,0-7.9,0-11.8
    C115.2,137.9,115.9,136.3,117.4,135.7"/>
  <path fill="#333333" d="M15,127c2.3-0.5,4.8,1.7,4.3,4.1c-0.2,3.1-4.7,4-6.4,1.6C11.1,130.7,12.6,127.5,15,127"/>
  <path fill="#333333" d="M10.1,136.4c1.8-1.7,4.4-1,6.6-1.2c1.8-0.1,4,0.1,5.1,1.8c1.3,2.2,1.6,4.8,2.5,7.1c0.5,2,1.6,4.1,1.1,6.2
    c-0.9,0.3-2.1,0.3-2.6-0.7c-1.1-2.9-1.8-5.8-2.8-8.7c-0.1-0.5-0.5-0.8-0.9-1.1c1.3,5.7,3.2,11.4,4.8,17c-1.4,0-2.8,0-4.2,0
    c-0.1,4.1,0,8.1-0.1,12.2c0,0.9-0.6,2-1.6,1.9c-1,0.1-1.7-0.9-1.6-1.9c0-4.1,0-8.2,0-12.3c-0.2,0-0.7,0-1,0
    c-0.1,4.2,0.1,8.5-0.1,12.7c-0.1,1.9-3,1.8-3.2,0c-0.1-4.2,0-8.5,0-12.7c-1.4,0-2.8,0-4.2,0c1.3-5.6,2.9-11.1,4.2-16.7
    c-0.2,0.1-0.5,0.3-0.7,0.4c-1,3-1.7,6.1-2.7,9.1c-0.3,1.4-2.8,1.3-2.8-0.2c0.2-2.3,1.2-4.5,1.7-6.7C8.3,140.5,8.5,138.1,10.1,136.4
    "/>
  <path fill="#333333" d="M58.2,127c2.3-0.5,4.8,1.7,4.3,4.1c-0.2,3.1-4.7,4-6.4,1.6C54.4,130.7,55.8,127.5,58.2,127"/>
  <path fill="#333333" d="M53.3,136.4c1.8-1.7,4.4-1,6.6-1.2c1.8-0.1,4,0.1,5.1,1.8c1.3,2.2,1.6,4.8,2.5,7.1c0.5,2,1.6,4.1,1.1,6.2
    c-0.9,0.3-2.1,0.3-2.6-0.7c-1.1-2.9-1.8-5.8-2.8-8.7c-0.1-0.5-0.5-0.8-0.9-1.1c1.3,5.7,3.2,11.4,4.8,17c-1.4,0-2.8,0-4.2,0
    c-0.1,4.1,0,8.1-0.1,12.2c0,0.9-0.6,2-1.6,1.9c-1,0.1-1.8-0.9-1.6-1.9c-0.1-4.1,0-8.2,0-12.3c-0.2,0-0.7,0-1,0
    c-0.1,4.2,0.1,8.5-0.1,12.7c-0.1,1.9-3,1.8-3.2,0c-0.1-4.2,0-8.5-0.1-12.7c-1.4,0-2.8,0-4.2,0c1.3-5.6,2.9-11.1,4.2-16.7
    c-0.2,0.1-0.5,0.3-0.6,0.4c-1.1,3-1.7,6.1-2.7,9.1c-0.3,1.4-2.8,1.3-2.8-0.2c0.2-2.3,1.2-4.5,1.7-6.7
    C51.6,140.5,51.8,138.1,53.3,136.4"/>
  <path fill="#333333" d="M101.5,127c2.3-0.5,4.8,1.7,4.3,4.1c-0.2,3.1-4.7,4-6.4,1.6C97.6,130.7,99,127.5,101.5,127"/>
  <path fill="#333333" d="M96.6,136.4c1.8-1.7,4.4-1,6.6-1.2c1.8-0.1,4,0.1,5.1,1.8c1.3,2.2,1.6,4.8,2.5,7.1c0.5,2,1.6,4.1,1.1,6.2
    c-0.9,0.3-2.1,0.3-2.6-0.7c-1-2.9-1.8-5.8-2.8-8.7c-0.1-0.5-0.5-0.8-0.9-1.1c1.3,5.7,3.2,11.4,4.8,17c-1.4,0-2.8,0-4.2,0
    c-0.1,4.1,0,8.1-0.1,12.2c0,0.9-0.6,2-1.6,1.9c-1,0.1-1.7-0.9-1.6-1.9c-0.1-4.1,0.1-8.2,0-12.3c-0.2,0-0.7,0-1,0
    c-0.1,4.2,0.1,8.5-0.1,12.7c-0.1,1.9-3,1.8-3.2,0c-0.1-4.2,0-8.5,0-12.7c-1.4,0-2.8,0-4.3,0c1.3-5.6,2.9-11.1,4.2-16.7
    c-0.2,0.1-0.5,0.3-0.6,0.4c-1,3-1.7,6.1-2.7,9.1c-0.3,1.4-2.8,1.3-2.8-0.2c0.2-2.3,1.2-4.5,1.7-6.7C94.8,140.5,95,138.1,96.6,136.4
    "/>
  <path fill="#333333" d="M144.7,127c2.3-0.5,4.7,1.7,4.3,4.1c-0.2,3.1-4.8,4-6.4,1.6C140.8,130.7,142.3,127.5,144.7,127"/>
  <path fill="#333333" d="M139.8,136.4c1.8-1.7,4.4-1,6.6-1.2c1.8-0.1,4,0.1,5.1,1.8c1.3,2.2,1.6,4.8,2.5,7.1c0.5,2,1.6,4.1,1.1,6.2
    c-0.9,0.3-2.1,0.3-2.6-0.7c-1-2.9-1.8-5.8-2.8-8.7c-0.1-0.5-0.5-0.8-0.9-1.1c1.3,5.7,3.2,11.4,4.8,17c-1.4,0-2.8,0-4.2,0
    c-0.1,4.1,0,8.1-0.1,12.2c0,0.9-0.6,2-1.6,1.9c-1,0.1-1.8-0.9-1.6-1.9c-0.1-4.1,0-8.2,0-12.3c-0.2,0-0.7,0-1,0
    c-0.1,4.2,0.1,8.5-0.1,12.7c-0.1,1.9-3,1.8-3.2,0c-0.1-4.2,0-8.5,0-12.7c-1.4,0-2.8,0-4.3,0c1.3-5.6,2.9-11.1,4.2-16.7
    c-0.2,0.1-0.5,0.3-0.6,0.4c-1,3-1.7,6.1-2.7,9.1c-0.3,1.4-2.8,1.3-2.8-0.2c0.2-2.3,1.2-4.5,1.7-6.7
    C138.1,140.5,138.3,138.1,139.8,136.4"/>
</g>
</svg>