<svg version="1.1" id="Layer_1" xmlns="http://www.w3.org/2000/svg" xmlns:xlink="http://www.w3.org/1999/xlink" x="0px" y="0px"
         viewBox="0 0 612 792" enable-background="new 0 0 612 792" xml:space="preserve">
      <g>
        <path fill="#231F20" d="M306,479.5c1.5,0,3-0.4,4.4-1.2c45.5-26.3,97.4-46.3,150.1-46.4c2.4,0,4.7-0.9,6.3-2.6
          c1.6-1.7,2.5-4,2.5-6.4c-1.4-55-18.7-124.2-48.8-162.8c-30.7-39.4-198.5-39.4-229.2,0c-30.1,38.6-47.4,107.8-48.8,162.8
          c0,2.4,0.9,4.7,2.5,6.4c1.7,1.7,4,2.6,6.3,2.6c52.8,0,104.7,20.1,150.1,46.4C302.9,479.1,304.5,479.5,306,479.5L306,479.5z"/>
        <path fill="#231F20" d="M145.1,421.4c1.7,1.7,4,2.6,6.3,2.6c52.8,0,104.7,20.1,150.1,46.4c1.4,0.8,2.9,1.2,4.4,1.2
          c1.5,0,3-0.4,4.4-1.2c45.5-26.3,97.4-46.4,150.1-46.4c2.4,0,4.7-1,6.3-2.6c1.1-1.2,1.9-2.7,2.3-4.3c0.1,2,0.1,3.9,0.2,5.9
          c0,2.4-0.9,4.7-2.5,6.4c-1.7,1.7-4,2.6-6.3,2.6c-52.8,0-104.7,20.1-150.1,46.4c-1.4,0.8-2.9,1.2-4.4,1.2c-1.5,0-3.1-0.4-4.4-1.2
          c-45.4-26.3-97.3-46.3-150.1-46.4c-2.4,0-4.7-0.9-6.3-2.6c-1.6-1.7-2.5-4-2.5-6.4c0-1.9,0.1-3.9,0.2-5.9
          C143.2,418.7,144,420.2,145.1,421.4z"/>
        <path fill="#FFFFFF" d="M314.4,383.3c-4.6,1.6-12.1,1.6-16.7,0L156.4,335c8.2-28.8,20-55.6,35-74.8c30.7-39.4,198.5-39.4,229.2,0
          c15,19.2,26.8,46,35.1,74.8L314.4,383.3z"/>
        <g>
          <path fill="#231F20" d="M15.4,265.1h581.2v6.2l0,0c0,0.9-1.1,1.8-3.4,2.6l-278.8,95.2c-4.6,1.6-12.1,1.6-16.7,0L18.8,273.9
            c-2.3-0.8-3.4-1.7-3.4-2.6h0V265.1z"/>
          <path fill="#231F20" d="M19,262.8c-4.7,1.1-4.8,3.3-0.2,4.9L297.6,363c4.6,1.6,12.1,1.6,16.7,0l278.8-95.3
            c4.6-1.6,4.5-3.8-0.2-4.9l-278.4-66c-4.7-1.1-12.5-1.1-17.2,0L19,262.8z"/>
          <path fill="#231F20" d="M306,290.5c-93.9,0-180.3-12.7-249.1-33.9L298,199.4c2.1-0.5,5-0.8,8-0.8c3,0,5.9,0.3,8,0.8l241.1,57.2
            C486.3,277.8,399.9,290.5,306,290.5z"/>
          <path fill="#231F20" d="M105.8,297.4l14.6,5c28.3-7,71-11.6,109-15.8c67.7-7.4,91.4-10.8,91.4-20.2c0-1.3-0.6-2.6-1.7-3.5
            c-2.7-2.2-9-4.1-50.5,2.4c-26.3,4.1-60,10.5-95.7,17.2c-19.1,3.6-38.8,7.3-57.5,10.7C111.6,293.9,108.5,295.3,105.8,297.4z
             M200.2,283.6c25.3-4.7,48.8-9,68.3-12.1c29.5-4.6,40.5-4.9,44.6-4.4c-2.6,1.3-9,3.5-25.1,6c-15.9,2.5-36.9,4.8-59.2,7.2
            C219.4,281.5,209.8,282.5,200.2,283.6z"/>
          <path fill="#231F20" d="M282.4,267.9c0,4.5,10.7,8.1,23.8,8.1c13.2,0,23.9-3.6,23.9-8.1c0-4.5-10.7-8.1-23.9-8.1
            C293.1,259.8,282.4,263.5,282.4,267.9z"/>
        </g>
        <path fill="#FFFFFF" d="M103,365.3l-6.2,0c0-0.2,0-0.4,0-0.6l-2.9,0.2c-1.9-36.3-1.6-69.2,21.5-73.4c18.6-3.4,38.4-7.1,57.5-10.7
          c35.7-6.7,69.4-13.1,95.7-17.2c41.4-6.5,47.8-4.6,50.5-2.4c1.1,0.9,1.7,2.1,1.7,3.5c0,9.4-23.7,12.9-91.4,20.2
          c-41.5,4.5-88.5,9.6-116.3,17.7c-11.8,3.4-11,30.1-10.4,49.6C102.9,356.9,103,361.4,103,365.3L103,365.3z M313.1,265.4
          c-4.1-0.5-15.1-0.2-44.6,4.4c-19.5,3-43,7.3-68.3,12c9.6-1.1,19.2-2.1,28.5-3.2c22.3-2.4,43.3-4.7,59.2-7.2
          C304.1,268.9,310.5,266.7,313.1,265.4L313.1,265.4z"/>
        <g>
          <path fill="#FFFFFF" d="M93.9,363l2.9-0.1c0,0.2,0,0.4,0,0.6l6.1,0c0,0.6,0,1.2,0,1.8l-6.2,0c0-0.2,0-0.4,0-0.6l-2.9,0.2
            c-0.4-8.2-0.7-16.2-0.7-23.7C93.2,348.1,93.5,355.5,93.9,363z"/>
          <path fill="#FFFFFF" d="M268.5,268.1c29.5-4.6,40.5-4.9,44.6-4.4c-0.9,0.4-2.1,1-4.1,1.6c-6.1,0-17.8,1-40.5,4.6
            c-13.2,2.1-60.2,11.1-68.3,12C225.5,277.1,249,271.1,268.5,268.1z"/>
          <path fill="#FFFFFF" d="M113.1,300.8c27.8-8.1,74.8-13.2,116.3-17.7c65.4-7.1,89.7-10.6,91.3-19.3c0,0.3,0.1,0.5,0.1,0.8
            c0,9.4-23.7,12.9-91.4,20.2c-41.5,4.5-88.5,9.6-116.3,17.7c-8.9,2.6-10.6,18.6-10.7,34.7C102.4,320.7,103.9,303.5,113.1,300.8z"/>
        </g>
        <path fill="#231F20" d="M77.5,595.6c0.2,0.3,0.4,0.4,0.6,0.4c0.1,0,0.3-0.1,0.4-0.2c0.1,0.2,0.3,0.2,0.4,0.2c0.3,0,0.5-0.2,0.7-0.6
          c0.1,0.2,0.2,0.3,0.3,0.4c0.1,0.1,0.2,0.2,0.4,0.2c0.1,0,0.3-0.1,0.4-0.2c0.2,0.1,0.3,0.2,0.4,0.2c0,0,0,0,0,0l0,0
          c0.2,0,0.3-0.1,0.4-0.2c0.1,0.1,0.3,0.2,0.4,0.2c0.3,0,0.7-0.4,0.9-1c0.1-0.3,0.2-0.6,0.3-0.9c0,0.8,0.3,1.4,0.6,1.8
          c0.1,0.1,0.3,0.2,0.4,0.2c0,0,0.1,0,0.1,0c0,0,0.1,0,0.1,0c0.1,0,0.2,0,0.4-0.1c0.1,0.1,0.2,0.1,0.4,0.1l0,0c0,0,0.1,0,0.1,0
          c0.2,0,0.5-0.2,0.6-0.5c0.1,0.2,0.3,0.3,0.4,0.4c0.1,0,0.2,0.1,0.2,0.1c0.2,0,0.3-0.1,0.4-0.2c0.1,0.1,0.1,0.1,0.2,0.2
          c0.1,0,0.2,0.1,0.3,0.1c0.3,0,0.5-0.2,0.7-0.6c0.1,0.2,0.3,0.4,0.4,0.5c0.1,0.1,0.2,0.1,0.3,0.1c0.2,0,0.3-0.1,0.5-0.2
          c0,0.1,0,0.1,0.1,0.1c0.1,0.1,0.2,0.1,0.3,0.1l0,0c0,0,0,0,0,0c0.1,0,0.3-0.1,0.4-0.2c0,0.1,0,0.1,0.1,0.1c0.1,0.1,0.2,0.1,0.4,0.1
          c0.4,0,0.8-0.6,1-1.5c0.1-0.3,0.1-0.5,0.1-0.8c0,1.2,0.4,2.1,1,2.2c0,0,0.1,0,0.1,0c0.1,0,0.3-0.1,0.4-0.2c0.1,0.1,0.2,0.2,0.4,0.2
          c0,0,0,0,0.1,0c0.1,0,0.2,0,0.3-0.1c0,0,0,0,0.1,0c0.1,0,0.2,0.1,0.2,0.1c0.2,0,0.3-0.1,0.4-0.2c0.1,0.1,0.1,0.1,0.2,0.2
          c0.1,0,0.2,0.1,0.2,0.1c0.3,0,0.6-0.3,0.8-0.8c0.2,0.4,0.4,0.7,0.7,0.7c0,0,0.1,0,0.1,0c0.2,0,0.3-0.1,0.4-0.2
          c0.1,0.1,0.2,0.2,0.4,0.2c0,0,0.1,0,0.1,0c0.3,0,0.5-0.2,0.7-0.6c0.2,0.4,0.4,0.6,0.7,0.6c0.1,0,0.1,0,0.1,0c0.1,0,0.2-0.1,0.3-0.2
          c0.1,0.2,0.3,0.2,0.4,0.2c0,0,0.1,0,0.1,0c0.1,0,0.1,0,0.2-0.1c0,0,0.1,0,0.1,0.1c0,0,0.1,0,0.1,0c0.2,0,0.3-0.1,0.5-0.2
          c0.1,0.1,0.2,0.2,0.3,0.2c0,0,0.1,0,0.1,0c0.5,0,1-0.8,1-2c0.3-4.4,0.4-9.8,0.5-15.8c0.4,6.2,0.8,11.6,1.3,15.9
          c0,0.6,0.2,1,0.4,1.4l0,0c0,0,0.1,0.1,0.1,0.1c0,0,0,0,0,0c0,0,0.1,0,0.1,0.1l0,0c0,0,0.1,0.1,0.1,0.1l0,0l0,0c0,0,0,0,0.1,0
          c0,0,0,0,0,0l0.1,0v0c0,0,0.1,0,0.1,0c0,0,0.1,0,0.1,0l0,0c0,0,0.1,0,0.1,0c0,0,0,0,0,0c0,0,0,0,0,0c0.1,0,0.1-0.1,0.2-0.1
          c0,0,0,0.1,0.1,0.1l0,0c0,0,0,0,0,0c0,0,0.1,0,0.1,0s0,0,0,0c0.1,0,0.1,0,0.2,0c0,0,0.1,0,0.1,0l0,0c0,0,0.1,0,0.1,0l0,0
          c0,0,0,0,0.1,0c0.5-0.3,0.8-1.3,0.7-2.3c0-2.2,0-4.6,0-7.2c0.3,3,0.7,5.7,1.1,8.1c0.1,0.9,0.5,1.5,1,1.5c0.1,0,0.2,0,0.4-0.1
          c0,0,0.1-0.1,0.1-0.1c0.1,0.1,0.3,0.2,0.5,0.2c0.1,0,0.2,0,0.3-0.1c0,0,0.1-0.1,0.1-0.1c0.1,0.1,0.3,0.2,0.5,0.2c0,0,0.1,0,0.1,0
          c0,0,0.1,0,0.1,0c0,0,0.1,0,0.2,0c0.1,0,0.2,0,0.2-0.1c0.1,0,0.2,0.1,0.3,0.1c0,0,0.1,0,0.1,0c0.1,0,0.1,0,0.1,0c0.1,0,0.1,0,0.2,0
          c0.2,0,0.3-0.1,0.4-0.2c0.4-0.4,0.6-1.2,0.6-2c0,0.1,0,0.3,0,0.5c0.1,1,0.5,1.8,1,1.8c0.1,0,0.1,0,0.2,0c0.1,0,0.2-0.1,0.2-0.2
          c0.1,0.2,0.3,0.2,0.4,0.2c0.1,0,0.1,0,0.2,0c0.5-0.3,0.9-1.3,0.8-2.4c0.1,0.5,0.2,1,0.4,1.4c0.2,0.7,0.6,1,0.9,1
          c0.2,0,0.3-0.1,0.4-0.2c0.1,0.2,0.3,0.2,0.4,0.2c0.2,0,0.4-0.1,0.6-0.4c0.5-0.7,0.7-2,0.3-3.1c-5.2-17.6-6-56.1-6.8-93.4
          c-0.8-37.5-1.6-76.2-6.9-96c0.6-0.6,0.9-1.4,0.9-2.4c0-0.1,0-0.2,0-0.2c-0.1-1.6-1-2.8-2.2-2.8c1.2,0,2.3-1.4,2.3-3
          c0-0.1,0-0.2,0-0.2c-0.1-1.6-1-2.8-2.2-2.8c1.2,0,2.3-1.4,2.3-3c0-0.1,0-0.2,0-0.2c-0.1-1.6-1-2.8-2.2-2.8c1.2,0,2.3-1.4,2.3-3l0,0
          l0,0c0-0.1,0-0.2,0-0.3c-0.1-1.6-1-2.8-2.2-2.8c1.2,0,2.3-1.4,2.3-3c0-0.1,0-0.2,0-0.3c-0.1-1.5-1-2.8-2.2-2.8c1.2,0,2.3-1.4,2.3-3
          c0-0.1,0-0.2,0-0.2c-0.1-1.6-1-2.8-2.2-2.8c1.2,0,2.3-1.4,2.3-3c0-0.1,0-0.2,0-0.2c-0.1-1.6-1-2.8-2.2-2.8c1.2,0,2.3-1.3,2.3-3
          c0-0.1,0-0.2,0-0.2c-0.1-1.5-1-2.8-2.2-2.8c5.3-2.5,8.9-7.8,8.9-14c0-0.2,0-0.4,0-0.6c-0.3-8.2-7.1-14.8-15.5-14.8
          c-8.3,0-15.1,6.6-15.5,14.8c0,0.2,0,0.4,0,0.6c0,6.2,3.6,11.5,8.9,14c-1.2,0-2.1,1.3-2.2,2.8c0,0.1,0,0.2,0,0.2c0,1.7,1,3,2.3,3
          c-1.2,0-2.2,1.2-2.2,2.8c0,0.1,0,0.1,0,0.2c0,1.7,1,3,2.3,3c-1.2,0-2.2,1.2-2.2,2.8c0,0.1,0,0.1,0,0.2c0,1.7,1,3,2.3,3
          c-1.2,0-2.2,1.2-2.2,2.8c0,0.1,0,0.2,0,0.3c0,1.7,1,3,2.3,3c-1.2,0-2.2,1.2-2.2,2.8c0,0.1,0,0.2,0,0.3l0,0l0,0c0,1.7,1,3,2.3,3
          c-1.2,0-2.2,1.2-2.2,2.8c0,0.1,0,0.2,0,0.2c0,1.7,1,3,2.3,3c-1.2,0-2.2,1.2-2.2,2.8c0,0.1,0,0.2,0,0.2c0,1.7,1,3,2.3,3
          c-1.2,0-2.2,1.2-2.2,2.8c0,0.1,0,0.2,0,0.2c0,1.4,0.7,2.6,1.7,2.9c-5.2,19.9-6,58.3-6.8,95.5c-0.8,37.2-1.6,75.8-6.8,93.4
          C76.9,593.6,77,595,77.5,595.6z M107.3,434.4c0.4,5,0.7,10.2,1,15.7c-0.2-2.7-0.4-5.4-0.6-8c-0.1-2.4-0.2-4.8-0.3-7
          C107.3,434.8,107.3,434.6,107.3,434.4z M104.8,476.9c0-0.8,0-1.6-0.1-2.3c0-6.3,0-12.5-0.1-18.5c0,0.5,0.1,1.1,0.1,1.6
          C104.8,463.9,104.8,470.4,104.8,476.9z M113.4,592.8c-0.2-0.7-0.3-1.4-0.4-2.2c-0.1-1.9-0.2-3.9-0.3-6.1
          C113,587.5,113.2,590.3,113.4,592.8L113.4,592.8z"/>
        <g>
          <path fill="none" stroke="#FFFFFF" stroke-width="0.738" d="M306.3,257.2c11.8,0,21.4,3.2,21.8,7.2l0,0c0,0.1,0,0.2,0,0.2
            c0,4.1-9.8,7.4-21.8,7.4c-12,0-21.8-3.3-21.8-7.4S294.3,257.2,306.3,257.2z"/>
          <path fill="#231F20" d="M306.3,257.2c11.8,0,21.4,3.2,21.8,7.2l0,0c0,0.1,0,0.2,0,0.2c0,4.1-9.8,7.4-21.8,7.4
            c-12,0-21.8-3.3-21.8-7.4S294.3,257.2,306.3,257.2z"/>
        </g>
      </g>
      </svg>