<svg id="Layer_1" data-name="Layer 1" xmlns="http://www.w3.org/2000/svg" viewBox="0 0 262.69 28.2">
  <defs>
    <style>
      .cls-1 {
        fill: #231f20;
      }

      .cls-2 {
        fill: #981a31;
      }
    </style>
  </defs>
  <title>off-canvas-header-crean</title>
  <g>
    <g id="crean">
      <path class="cls-1" d="M43.13,10.59a20.42,20.42,0,0,1-.92,2.59,15.78,15.78,0,0,1-3.05.43c-4.25,0-6.07-2.84-6.07-5.43,0-3.41,2.61-5.72,6.45-5.72a12.45,12.45,0,0,1,3,.44c0.13,0.9.25,1.64,0.36,2.61l-0.57.11a2.94,2.94,0,0,0-3.1-2.49c-2.51,0-3.87,2.26-3.87,4.72,0,3,1.67,5.05,4,5.05,1.49,0,2.44-.89,3.28-2.53Z"/>
      <path class="cls-1" d="M54.32,13.51l-0.51,0C52,13.41,51.38,13,50.69,11.94c-0.48-.72-1-1.66-1.46-2.49A1.15,1.15,0,0,0,48,8.76H47.66v2.48c0,1.35.15,1.49,1.41,1.61v0.52H44.34V12.84c1.26-.11,1.44-0.25,1.44-1.61V4.82c0-1.35-.15-1.48-1.38-1.57V2.7h4.41a5,5,0,0,1,2.82.59,2.51,2.51,0,0,1,1.1,2.18,2.89,2.89,0,0,1-2.07,2.71c0.26,0.51.89,1.61,1.38,2.35a11.2,11.2,0,0,0,1.3,1.76,2.22,2.22,0,0,0,1.07.74ZM48.2,8.15a2.55,2.55,0,0,0,1.67-.44,2.4,2.4,0,0,0,.82-2c0-1.75-1-2.41-2.1-2.41a1.42,1.42,0,0,0-.79.16,0.84,0.84,0,0,0-.15.66v4H48.2Z"/>
      <path class="cls-1" d="M63.9,10.69c-0.1.66-.43,2.18-0.57,2.67h-8.2V12.84c1.43-.11,1.57-0.23,1.57-1.61V4.85c0-1.44-.15-1.51-1.35-1.61V2.7h7.56c0,0.33.1,1.48,0.16,2.43l-0.56.08a3.44,3.44,0,0,0-.61-1.41,2.11,2.11,0,0,0-1.72-.43h-1c-0.57,0-.62,0-0.62.56V7.49h1.26c1.41,0,1.57-.1,1.79-1.23h0.56V9.51H61.67c-0.21-1.18-.38-1.25-1.79-1.25H58.62v2.92A1.4,1.4,0,0,0,59,12.53a3.81,3.81,0,0,0,1.54.18,2.33,2.33,0,0,0,1.92-.54,5.48,5.48,0,0,0,.89-1.57Z"/>
      <path class="cls-1" d="M71.2,13.37V12.84c1-.15,1.08-0.33.85-1s-0.46-1.31-.75-2.1H68c-0.21.61-.44,1.23-0.64,1.89-0.28.89-.2,1.08,1,1.23v0.52H64.77V12.84c1.07-.15,1.28-0.3,1.84-1.71L70,2.65l0.72-.2c1,2.85,2.08,5.81,3.15,8.63,0.54,1.44.75,1.62,1.8,1.76v0.52H71.2ZM69.73,5.15h0c-0.48,1.26-.92,2.54-1.38,3.77H71Z"/>
      <path class="cls-1" d="M88.12,3.23c-0.89,0-1.25.28-1.33,1A20.62,20.62,0,0,0,86.66,7v6.54H86L79.08,5.2h0V9.05a24.92,24.92,0,0,0,.11,2.69c0.08,0.77.39,1,1.58,1.1v0.52h-4V12.84c0.92-.07,1.31-0.31,1.39-1a25.22,25.22,0,0,0,.13-2.74V5.56c0-1.12,0-1.34-.33-1.72a1.71,1.71,0,0,0-1.41-.61V2.7h2.82l6.48,7.56h0V7c0-1.48-.08-2.25-0.12-2.72-0.1-.71-0.44-1-1.62-1V2.7h4V3.23Z"/>
      <path class="cls-1" d="M103.45,10.59a20.42,20.42,0,0,1-.92,2.59,15.78,15.78,0,0,1-3.05.43c-4.25,0-6.07-2.84-6.07-5.43,0-3.41,2.61-5.72,6.45-5.72a12.45,12.45,0,0,1,3,.44c0.13,0.9.25,1.64,0.36,2.61l-0.57.11a2.94,2.94,0,0,0-3.1-2.49c-2.51,0-3.87,2.26-3.87,4.72,0,3,1.67,5.05,4,5.05,1.49,0,2.44-.89,3.28-2.53Z"/>
      <path class="cls-1" d="M116,7.92a5.43,5.43,0,0,1-5.59,5.69,5.35,5.35,0,0,1-5.46-5.53,5.48,5.48,0,0,1,5.66-5.63A5.31,5.31,0,0,1,116,7.92Zm-8.84-.2c0,2.9,1.39,5.23,3.58,5.23,1.66,0,3.05-1.53,3.05-4.59,0-3.33-1.49-5.25-3.49-5.25C108.57,3.11,107.14,4.8,107.14,7.72Z"/>
      <path class="cls-1" d="M125.68,10.66c-0.13.64-.46,2.25-0.61,2.71H117.3V12.84c1.39-.11,1.56-0.23,1.56-1.62V4.84c0-1.39-.15-1.49-1.43-1.59V2.7h4.74V3.24c-1.26.1-1.41,0.2-1.41,1.59v6.45c0,0.8.07,1.12,0.39,1.26a3.68,3.68,0,0,0,1.34.16,2.11,2.11,0,0,0,1.74-.54,4.62,4.62,0,0,0,.89-1.64Z"/>
      <path class="cls-1" d="M135,10.66c-0.13.64-.46,2.25-0.61,2.71h-7.78V12.84c1.39-.11,1.56-0.23,1.56-1.62V4.84c0-1.39-.15-1.49-1.43-1.59V2.7h4.74V3.24c-1.26.1-1.41,0.2-1.41,1.59v6.45c0,0.8.07,1.12,0.39,1.26a3.68,3.68,0,0,0,1.34.16,2.11,2.11,0,0,0,1.74-.54,4.62,4.62,0,0,0,.89-1.64Z"/>
      <path class="cls-1" d="M144.62,10.69c-0.1.66-.43,2.18-0.57,2.67h-8.2V12.84c1.43-.11,1.57-0.23,1.57-1.61V4.85c0-1.44-.15-1.51-1.35-1.61V2.7h7.56c0,0.33.1,1.48,0.16,2.43l-0.56.08a3.44,3.44,0,0,0-.61-1.41,2.11,2.11,0,0,0-1.72-.43h-1c-0.57,0-.62,0-0.62.56V7.49h1.26c1.41,0,1.57-.1,1.79-1.23h0.56V9.51h-0.56c-0.21-1.18-.38-1.25-1.79-1.25h-1.26v2.92a1.4,1.4,0,0,0,.39,1.35,3.81,3.81,0,0,0,1.54.18,2.33,2.33,0,0,0,1.92-.54,5.48,5.48,0,0,0,.89-1.57Z"/>
      <path class="cls-1" d="M156.64,8.85c-0.87.15-1,.23-1,1.26v1.35a7.22,7.22,0,0,0,.11,1.54,16.2,16.2,0,0,1-3.72.61c-3.74,0-6.17-2.2-6.17-5.46,0-3.77,3.05-5.69,6.41-5.69a15,15,0,0,1,3.18.46c0,0.57.13,1.44,0.26,2.67l-0.56.1A3,3,0,0,0,152,3.11c-2.17,0-3.92,1.8-3.92,4.77,0,2.43,1.28,5.08,4.13,5.08a2.49,2.49,0,0,0,1.12-.23,1,1,0,0,0,.43-1V10.27c0-1.15-.1-1.26-1.77-1.41V8.33h4.64V8.85Z"/>
      <path class="cls-1" d="M166.59,10.69c-0.1.66-.43,2.18-0.57,2.67h-8.2V12.84c1.43-.11,1.57-0.23,1.57-1.61V4.85c0-1.44-.15-1.51-1.35-1.61V2.7h7.56c0,0.33.1,1.48,0.16,2.43l-0.56.08a3.44,3.44,0,0,0-.61-1.41,2.11,2.11,0,0,0-1.72-.43h-1c-0.57,0-.62,0-0.62.56V7.49h1.26c1.41,0,1.57-.1,1.79-1.23h0.56V9.51h-0.56c-0.21-1.18-.38-1.25-1.79-1.25h-1.26v2.92a1.4,1.4,0,0,0,.39,1.35,3.81,3.81,0,0,0,1.54.18,2.33,2.33,0,0,0,1.92-.54,5.48,5.48,0,0,0,.89-1.57Z"/>
      <path class="cls-1" d="M182.86,7.92a5.43,5.43,0,0,1-5.59,5.69,5.35,5.35,0,0,1-5.46-5.53,5.48,5.48,0,0,1,5.66-5.63A5.31,5.31,0,0,1,182.86,7.92ZM174,7.72c0,2.9,1.39,5.23,3.58,5.23,1.66,0,3.05-1.53,3.05-4.59,0-3.33-1.49-5.25-3.49-5.25C175.45,3.11,174,4.8,174,7.72Z"/>
      <path class="cls-1" d="M191.58,5.26A3.48,3.48,0,0,0,191,3.88c-0.31-.39-0.72-0.51-1.77-0.51h-1c-0.54,0-.61,0-0.61.56V7.64h1.48c1.46,0,1.59-.15,1.79-1.2h0.54V9.67h-0.54c-0.18-1.12-.33-1.28-1.79-1.28h-1.48v2.74c0,1.49.15,1.59,1.59,1.71v0.52h-4.89V12.84c1.25-.11,1.39-0.21,1.39-1.71V4.9c0-1.46-.15-1.56-1.36-1.66V2.7h7.56c0,0.39.1,1.57,0.18,2.48Z"/>
      <path class="cls-1" d="M209.07,3.24c-1.3.11-1.41,0.2-1.41,1.59v6.41c0,1.38.13,1.48,1.41,1.59v0.52h-4.79V12.84c1.33-.11,1.46-0.21,1.46-1.59V8.12h-4.87v3.13c0,1.38.13,1.48,1.39,1.59v0.52h-4.69V12.84c1.25-.11,1.39-0.21,1.39-1.59V4.84c0-1.39-.15-1.49-1.44-1.59V2.7h4.69V3.24c-1.21.1-1.35,0.2-1.35,1.59V7.33h4.87V4.84c0-1.39-.12-1.48-1.36-1.59V2.7h4.69V3.24Z"/>
      <path class="cls-1" d="M219.23,10.69c-0.1.66-.43,2.18-0.57,2.67h-8.2V12.84c1.43-.11,1.57-0.23,1.57-1.61V4.85c0-1.44-.15-1.51-1.34-1.61V2.7h7.56c0,0.33.1,1.48,0.16,2.43l-0.56.08a3.43,3.43,0,0,0-.61-1.41,2.1,2.1,0,0,0-1.72-.43h-1c-0.57,0-.62,0-0.62.56V7.49h1.26c1.41,0,1.57-.1,1.79-1.23h0.56V9.51H217c-0.21-1.18-.38-1.25-1.79-1.25h-1.26v2.92a1.4,1.4,0,0,0,.39,1.35,3.82,3.82,0,0,0,1.54.18,2.33,2.33,0,0,0,1.92-.54,5.49,5.49,0,0,0,.89-1.57Z"/>
      <path class="cls-1" d="M226.53,13.37V12.84c1-.15,1.08-0.33.85-1s-0.46-1.31-.75-2.1h-3.26c-0.21.61-.44,1.23-0.64,1.89-0.28.89-.2,1.08,1,1.23v0.52H220.1V12.84c1.07-.15,1.28-0.3,1.84-1.71l3.36-8.48,0.72-.2c1,2.85,2.08,5.81,3.15,8.63,0.54,1.44.75,1.62,1.8,1.76v0.52h-4.44Zm-1.48-8.22h0c-0.48,1.26-.92,2.54-1.38,3.77h2.72Z"/>
      <path class="cls-1" d="M240.46,10.66c-0.13.64-.46,2.25-0.61,2.71h-7.78V12.84c1.39-.11,1.56-0.23,1.56-1.62V4.84c0-1.39-.15-1.49-1.43-1.59V2.7H237V3.24c-1.26.1-1.41,0.2-1.41,1.59v6.45c0,0.8.07,1.12,0.39,1.26a3.69,3.69,0,0,0,1.35.16,2.11,2.11,0,0,0,1.74-.54,4.62,4.62,0,0,0,.89-1.64Z"/>
      <path class="cls-1" d="M249.27,5.41a3.92,3.92,0,0,0-.64-1.61c-0.29-.33-0.66-0.43-1.72-0.43H246v7.86c0,1.36.15,1.49,1.64,1.61v0.52h-5.12V12.84c1.41-.11,1.57-0.25,1.57-1.61V3.38h-0.74c-1.34,0-1.66.15-1.89,0.46a4.09,4.09,0,0,0-.62,1.59h-0.56c0.07-1.12.16-2.28,0.2-3.13h0.38a0.86,0.86,0,0,0,.92.41h6.56a1,1,0,0,0,.9-0.41h0.38c0,0.71.08,2.07,0.16,3.08Z"/>
      <path class="cls-1" d="M262.69,3.24c-1.3.11-1.41,0.2-1.41,1.59v6.41c0,1.38.13,1.48,1.41,1.59v0.52H257.9V12.84c1.33-.11,1.46-0.21,1.46-1.59V8.12h-4.87v3.13c0,1.38.13,1.48,1.39,1.59v0.52H251.2V12.84c1.25-.11,1.39-0.21,1.39-1.59V4.84c0-1.39-.15-1.49-1.44-1.59V2.7h4.69V3.24c-1.21.1-1.35,0.2-1.35,1.59V7.33h4.87V4.84c0-1.39-.12-1.48-1.36-1.59V2.7h4.69V3.24Z"/>
      <path class="cls-1" d="M39.14,26.7V26.17c1-.15,1.08-0.33.85-1s-0.46-1.31-.75-2.1H36c-0.21.61-.44,1.23-0.64,1.89-0.28.89-.2,1.08,1,1.23V26.7H32.71V26.17c1.07-.15,1.28-0.29,1.84-1.71L37.91,16l0.72-.2c1,2.85,2.08,5.81,3.15,8.63,0.54,1.44.75,1.62,1.8,1.75V26.7H39.14Zm-1.48-8.22h0c-0.48,1.26-.92,2.54-1.38,3.77H39Z"/>
      <path class="cls-1" d="M56.06,16.56c-0.89,0-1.25.28-1.33,1a20.62,20.62,0,0,0-.13,2.74v6.54H53.91L47,18.53h0v3.85a24.75,24.75,0,0,0,.12,2.69c0.08,0.77.39,1,1.57,1.1V26.7h-4V26.17c0.92-.07,1.31-0.31,1.39-1a25.25,25.25,0,0,0,.13-2.74V18.89c0-1.12,0-1.35-.33-1.72a1.71,1.71,0,0,0-1.41-.61V16h2.82l6.48,7.56h0V20.32c0-1.48-.08-2.25-0.12-2.72-0.1-.71-0.44-1-1.62-1V16h4v0.53Z"/>
      <path class="cls-1" d="M62.2,16a6.57,6.57,0,0,1,4.67,1.41A4.7,4.7,0,0,1,68.3,21a5.24,5.24,0,0,1-2,4.38,8,8,0,0,1-4.94,1.36h-4.1V26.17c1.35-.11,1.49-0.21,1.49-1.61V18.18c0-1.41-.15-1.51-1.35-1.61V16H62.2Zm-1.56,8.42c0,1.2.36,1.57,1.51,1.57,2.51,0,4-2,4-4.77a4.57,4.57,0,0,0-1.49-3.69,4,4,0,0,0-2.71-.9,1.94,1.94,0,0,0-1.13.23,1.33,1.33,0,0,0-.18.92v6.64Z"/>
      <path class="cls-1" d="M79.7,21c1.8,0.23,3.07,1,3.07,2.58A2.72,2.72,0,0,1,81.23,26a7,7,0,0,1-3.38.69h-4V26.16c1.31-.1,1.44-0.21,1.44-1.59v-6.4c0-1.38-.11-1.49-1.33-1.59V16h4.58a4.58,4.58,0,0,1,2.62.57,2.16,2.16,0,0,1,1,1.85c0,1.57-1.35,2.21-2.44,2.44V21Zm-2-.23c1.66,0,2.38-.66,2.38-2a1.84,1.84,0,0,0-1.92-2.07,1.41,1.41,0,0,0-.8.2,0.93,0.93,0,0,0-.18.74v3.15h0.52Zm-0.52,3.79c0,1.2.33,1.54,1.26,1.53a2.13,2.13,0,0,0,2.17-2.35c0-1.58-1-2.35-2.94-2.35H77.21v3.17Z"/>
      <path class="cls-1" d="M93,24c-0.1.66-.43,2.18-0.57,2.67h-8.2V26.17c1.43-.11,1.57-0.23,1.57-1.61V18.18c0-1.44-.15-1.51-1.35-1.61V16H92c0,0.33.1,1.48,0.16,2.43l-0.56.08A3.45,3.45,0,0,0,91,17.13a2.11,2.11,0,0,0-1.72-.43h-1c-0.57,0-.62,0-0.62.56v3.56h1.26c1.41,0,1.57-.1,1.79-1.23h0.56v3.25H90.73c-0.21-1.18-.38-1.25-1.79-1.25H87.68v2.92a1.39,1.39,0,0,0,.39,1.34,3.81,3.81,0,0,0,1.54.18,2.33,2.33,0,0,0,1.92-.54,5.47,5.47,0,0,0,.89-1.58Z"/>
      <path class="cls-1" d="M105.66,16.58c-1.3.12-1.41,0.2-1.41,1.59v6.41c0,1.38.13,1.48,1.41,1.59V26.7h-4.79V26.17c1.33-.11,1.46-0.21,1.46-1.59V21.45H97.46v3.13c0,1.38.13,1.48,1.39,1.59V26.7H94.16V26.17c1.25-.11,1.39-0.21,1.39-1.59V18.17c0-1.39-.15-1.49-1.44-1.59V16H98.8v0.54c-1.21.1-1.34,0.2-1.34,1.59v2.49h4.87V18.17c0-1.39-.11-1.48-1.36-1.59V16h4.69v0.54Z"/>
      <path class="cls-1" d="M112.73,26.7V26.17c1-.15,1.08-0.33.85-1s-0.46-1.31-.75-2.1h-3.26c-0.21.61-.44,1.23-0.64,1.89-0.28.89-.2,1.08,1,1.23V26.7H106.3V26.17c1.07-.15,1.28-0.29,1.84-1.71L111.5,16l0.72-.2c1,2.85,2.08,5.81,3.15,8.63,0.54,1.44.75,1.62,1.8,1.75V26.7h-4.45Zm-1.48-8.22h0c-0.48,1.26-.92,2.54-1.38,3.77h2.72Z"/>
      <path class="cls-1" d="M127.7,16.58c-1.08.13-1.36,0.31-2,1.84-0.51,1.2-2.08,5.07-3.35,8.46h-0.71c-1.12-3-2.59-6.81-3.36-8.76-0.49-1.25-.75-1.44-1.76-1.54V16h4.58v0.54c-1.2.16-1.21,0.33-1,1,0.46,1.26,1.71,4.53,2.49,6.53h0c0.89-2.26,1.77-4.63,2.25-6.13,0.36-1.07.31-1.26-1-1.43V16h3.79v0.54Z"/>
      <path class="cls-1" d="M128.83,26.7V26.17c1.26-.11,1.41-0.21,1.41-1.61V18.18c0-1.39-.15-1.51-1.41-1.61V16h4.71v0.54c-1.26.1-1.39,0.21-1.39,1.61v6.38c0,1.38.13,1.49,1.39,1.61V26.7h-4.71Z"/>
      <path class="cls-1" d="M146.09,21.25a5.43,5.43,0,0,1-5.59,5.69A5.35,5.35,0,0,1,135,21.42a5.48,5.48,0,0,1,5.66-5.63A5.31,5.31,0,0,1,146.09,21.25Zm-8.84-.2c0,2.9,1.39,5.23,3.58,5.23,1.66,0,3.05-1.53,3.05-4.59,0-3.33-1.49-5.25-3.49-5.25C138.68,16.45,137.25,18.13,137.25,21.05Z"/>
      <path class="cls-1" d="M157.5,26.84l-0.51,0c-1.77-.08-2.43-0.51-3.12-1.56-0.48-.72-1-1.66-1.46-2.49a1.15,1.15,0,0,0-1.2-.69h-0.38v2.48c0,1.35.15,1.49,1.41,1.61V26.7h-4.72V26.17c1.26-.11,1.44-0.25,1.44-1.61V18.15c0-1.35-.15-1.48-1.38-1.58V16H152a5,5,0,0,1,2.82.59,2.5,2.5,0,0,1,1.1,2.18,2.89,2.89,0,0,1-2.07,2.71c0.26,0.51.89,1.61,1.38,2.35a11.16,11.16,0,0,0,1.3,1.75,2.21,2.21,0,0,0,1.07.74Zm-6.12-5.36a2.55,2.55,0,0,0,1.67-.44,2.4,2.4,0,0,0,.82-2c0-1.76-1-2.41-2.1-2.41a1.43,1.43,0,0,0-.79.16,0.84,0.84,0,0,0-.15.66v4h0.54Z"/>
      <path class="cls-1" d="M164.72,26.7V26.17c1-.15,1.08-0.33.85-1s-0.46-1.31-.75-2.1h-3.26c-0.21.61-.44,1.23-0.64,1.89-0.28.89-.2,1.08,1,1.23V26.7h-3.63V26.17c1.07-.15,1.28-0.29,1.84-1.71L163.49,16l0.72-.2c1,2.85,2.08,5.81,3.15,8.63,0.54,1.44.75,1.62,1.8,1.75V26.7h-4.45Zm-1.48-8.22h0c-0.48,1.26-.92,2.54-1.38,3.77h2.72Z"/>
      <path class="cls-1" d="M178.65,24c-0.13.64-.46,2.25-0.61,2.71h-7.78V26.17c1.39-.11,1.56-0.23,1.56-1.62V18.17c0-1.39-.15-1.49-1.43-1.59V16h4.74v0.54c-1.26.1-1.41,0.2-1.41,1.59v6.45c0,0.8.07,1.12,0.39,1.26a3.67,3.67,0,0,0,1.34.16,2.11,2.11,0,0,0,1.74-.54,4.62,4.62,0,0,0,.89-1.64Z"/>
      <path class="cls-1" d="M189.56,18.64c-0.33-1-.89-2.21-2.25-2.21a1.61,1.61,0,0,0-1.67,1.67c0,1,.67,1.56,2.07,2.25,1.56,0.79,2.87,1.64,2.87,3.35s-1.54,3.25-3.87,3.25a5.21,5.21,0,0,1-1.62-.25,5.83,5.83,0,0,1-.93-0.34,19.68,19.68,0,0,1-.48-2.69l0.56-.16c0.29,1,1.18,2.8,2.79,2.8a1.68,1.68,0,0,0,1.77-1.82c0-1-.79-1.66-2-2.3-1.46-.75-2.8-1.62-2.8-3.3s1.36-3.1,3.61-3.1a7.39,7.39,0,0,1,2.21.41c0.07,0.61.16,1.3,0.29,2.33Z"/>
      <path class="cls-1" d="M202.2,23.92a20.45,20.45,0,0,1-.92,2.59,15.79,15.79,0,0,1-3.05.43c-4.25,0-6.07-2.84-6.07-5.43,0-3.41,2.61-5.72,6.45-5.72a12.41,12.41,0,0,1,3,.44c0.13,0.9.25,1.64,0.36,2.61l-0.57.12a2.94,2.94,0,0,0-3.1-2.49c-2.51,0-3.87,2.26-3.87,4.72,0,3,1.67,5.05,4,5.05,1.49,0,2.44-.89,3.28-2.53Z"/>
      <path class="cls-1" d="M203.45,26.7V26.17c1.26-.11,1.41-0.21,1.41-1.61V18.18c0-1.39-.15-1.51-1.41-1.61V16h4.71v0.54c-1.26.1-1.39,0.21-1.39,1.61v6.38c0,1.38.13,1.49,1.39,1.61V26.7h-4.71Z"/>
      <path class="cls-1" d="M218.34,24c-0.1.66-.43,2.18-0.57,2.67h-8.2V26.17c1.43-.11,1.57-0.23,1.57-1.61V18.18c0-1.44-.15-1.51-1.34-1.61V16h7.56c0,0.33.1,1.48,0.16,2.43l-0.56.08a3.44,3.44,0,0,0-.61-1.41,2.11,2.11,0,0,0-1.72-.43h-1c-0.57,0-.62,0-0.62.56v3.56h1.26c1.41,0,1.57-.1,1.79-1.23h0.56v3.25h-0.56c-0.21-1.18-.38-1.25-1.79-1.25h-1.26v2.92a1.4,1.4,0,0,0,.39,1.34A3.81,3.81,0,0,0,215,26a2.33,2.33,0,0,0,1.92-.54,5.49,5.49,0,0,0,.89-1.58Z"/>
      <path class="cls-1" d="M230.75,16.56c-0.89,0-1.25.28-1.33,1a20.68,20.68,0,0,0-.13,2.74v6.54H228.6l-6.89-8.33h0v3.85a25,25,0,0,0,.11,2.69c0.08,0.77.39,1,1.58,1.1V26.7h-4V26.17c0.92-.07,1.31-0.31,1.39-1a25.43,25.43,0,0,0,.13-2.74V18.89c0-1.12,0-1.35-.33-1.72a1.71,1.71,0,0,0-1.41-.61V16H222l6.48,7.56h0V20.32c0-1.48-.08-2.25-0.12-2.72-0.1-.71-0.44-1-1.62-1V16h4v0.53Z"/>
      <path class="cls-1" d="M242,23.92a20.45,20.45,0,0,1-.92,2.59,15.79,15.79,0,0,1-3.05.43c-4.25,0-6.07-2.84-6.07-5.43,0-3.41,2.61-5.72,6.45-5.72a12.41,12.41,0,0,1,3,.44c0.13,0.9.25,1.64,0.36,2.61l-0.57.12a2.94,2.94,0,0,0-3.1-2.49c-2.51,0-3.87,2.26-3.87,4.72,0,3,1.67,5.05,4,5.05,1.49,0,2.44-.89,3.28-2.53Z"/>
      <path class="cls-1" d="M251.82,24c-0.1.66-.43,2.18-0.57,2.67H243V26.17c1.43-.11,1.57-0.23,1.57-1.61V18.18c0-1.44-.15-1.51-1.34-1.61V16h7.56c0,0.33.1,1.48,0.16,2.43l-0.56.08a3.44,3.44,0,0,0-.61-1.41,2.11,2.11,0,0,0-1.72-.43h-1c-0.57,0-.62,0-0.62.56v3.56h1.26c1.41,0,1.57-.1,1.79-1.23h0.56v3.25h-0.56c-0.21-1.18-.38-1.25-1.79-1.25h-1.26v2.92a1.4,1.4,0,0,0,.39,1.34,3.81,3.81,0,0,0,1.54.18,2.33,2.33,0,0,0,1.92-.54,5.49,5.49,0,0,0,.89-1.58Z"/>
      <path class="cls-1" d="M258.91,18.64c-0.33-1-.89-2.21-2.25-2.21A1.61,1.61,0,0,0,255,18.1c0,1,.67,1.56,2.07,2.25,1.56,0.79,2.87,1.64,2.87,3.35s-1.54,3.25-3.87,3.25a5.2,5.2,0,0,1-1.62-.25,5.85,5.85,0,0,1-.94-0.34,19.83,19.83,0,0,1-.48-2.69l0.56-.16c0.3,1,1.18,2.8,2.79,2.8a1.68,1.68,0,0,0,1.77-1.82c0-1-.79-1.66-2-2.3-1.46-.75-2.81-1.62-2.81-3.3s1.36-3.1,3.61-3.1a7.37,7.37,0,0,1,2.21.41c0.07,0.61.16,1.3,0.3,2.33Z"/>
    </g>
    <g>
      <polygon class="cls-2" points="13.09 14.52 0 27.61 0 14.52 13.09 14.52"/>
      <polygon class="cls-2" points="0 13.68 0 0.59 13.09 13.68 0 13.68"/>
      <polygon class="cls-2" points="27.61 0 14.52 13.09 14.52 0 27.61 0"/>
      <polygon class="cls-2" points="13.68 13.09 0.59 0 13.68 0 13.68 13.09"/>
      <polygon class="cls-2" points="15.11 13.68 28.2 0.59 28.2 13.68 15.11 13.68"/>
      <polygon class="cls-2" points="28.2 14.52 28.2 27.61 15.11 14.52 28.2 14.52"/>
      <polygon class="cls-2" points="13.68 15.11 0.59 28.2 13.68 28.2 13.68 15.11"/>
      <polygon class="cls-2" points="14.52 15.11 14.52 28.2 27.61 28.2 14.52 15.11"/>
    </g>
  </g>
</svg>
