<?xml version="1.0" encoding="utf-8"?>
<!-- Generator: Adobe Illustrator 19.2.1, SVG Export Plug-In . SVG Version: 6.00 Build 0)  -->
<svg version="1.1" id="Layer_1" xmlns="http://www.w3.org/2000/svg" xmlns:xlink="http://www.w3.org/1999/xlink" x="0px" y="0px"
	 viewBox="0 0 325.8 28.2" style="enable-background:new 0 0 325.8 28.2;" xml:space="preserve">
<style type="text/css">
	.st0{fill:#981A31;}
</style>
<g>
	<g id="donna_ford">
		<path d="M37.9,2.7c2.1,0,3.6,0.4,4.7,1.4c0.8,0.8,1.4,2,1.4,3.5c0,2-0.8,3.4-2,4.4c-1.2,0.9-2.9,1.4-4.9,1.4h-4.1v-0.5
			c1.3-0.1,1.5-0.2,1.5-1.6V4.9c0-1.4-0.1-1.5-1.3-1.6V2.7H37.9z M36.3,11.1c0,1.2,0.4,1.6,1.5,1.6c2.5,0,4-2,4-4.8
			c0-1.6-0.5-2.9-1.5-3.7c-0.7-0.6-1.6-0.9-2.7-0.9c-0.6,0-1,0.1-1.1,0.2c-0.1,0.1-0.2,0.4-0.2,0.9V11.1z"/>
		<path d="M56.5,7.9c0,3.5-2.5,5.7-5.6,5.7c-3.2,0-5.5-2.4-5.5-5.5c0-2.9,2-5.6,5.7-5.6C54,2.5,56.5,4.7,56.5,7.9z M47.6,7.7
			c0,2.9,1.4,5.2,3.6,5.2c1.7,0,3.1-1.5,3.1-4.6c0-3.3-1.5-5.2-3.5-5.2C49,3.1,47.6,4.8,47.6,7.7z"/>
		<path d="M68.5,3.2c-0.9,0-1.2,0.3-1.3,1C67.1,4.7,67,5.5,67,7v6.5h-0.7l-6.9-8.3h0v3.9c0,1.5,0.1,2.2,0.1,2.7
			c0.1,0.8,0.4,1,1.6,1.1v0.5h-4v-0.5c0.9-0.1,1.3-0.3,1.4-1c0-0.5,0.1-1.3,0.1-2.7V5.6c0-1.1,0-1.3-0.3-1.7
			c-0.3-0.4-0.7-0.5-1.4-0.6V2.7h2.8l6.5,7.6h0V7c0-1.5-0.1-2.2-0.1-2.7c-0.1-0.7-0.4-1-1.6-1V2.7h4V3.2z"/>
		<path d="M81,3.2c-0.9,0-1.2,0.3-1.3,1c-0.1,0.5-0.1,1.3-0.1,2.7v6.5h-0.7l-6.9-8.3h0v3.9c0,1.5,0.1,2.2,0.1,2.7
			c0.1,0.8,0.4,1,1.6,1.1v0.5h-4v-0.5c0.9-0.1,1.3-0.3,1.4-1c0-0.5,0.1-1.3,0.1-2.7V5.6c0-1.1,0-1.3-0.3-1.7
			c-0.3-0.4-0.7-0.5-1.4-0.6V2.7h2.8l6.5,7.6h0V7c0-1.5-0.1-2.2-0.1-2.7c-0.1-0.7-0.4-1-1.6-1V2.7h4V3.2z"/>
		<path d="M87.6,13.4v-0.5c1-0.1,1.1-0.3,0.9-1c-0.2-0.5-0.5-1.3-0.8-2.1h-3.3c-0.2,0.6-0.4,1.2-0.6,1.9c-0.3,0.9-0.2,1.1,1,1.2v0.5
			h-3.6v-0.5c1.1-0.1,1.3-0.3,1.8-1.7l3.4-8.5l0.7-0.2c1,2.9,2.1,5.8,3.1,8.6c0.5,1.4,0.8,1.6,1.8,1.8v0.5H87.6z M86.2,5.1L86.2,5.1
			c-0.5,1.3-1,2.5-1.4,3.8h2.7L86.2,5.1z"/>
		<path d="M104.5,5.3c-0.2-0.6-0.3-1-0.6-1.4c-0.3-0.4-0.7-0.5-1.8-0.5h-1c-0.5,0-0.6,0-0.6,0.6v3.7h1.5c1.5,0,1.6-0.1,1.8-1.2h0.5
			v3.2h-0.5c-0.2-1.1-0.3-1.3-1.8-1.3h-1.5v2.7c0,1.5,0.1,1.6,1.6,1.7v0.5h-4.9v-0.5c1.2-0.1,1.4-0.2,1.4-1.7V4.9
			c0-1.5-0.1-1.6-1.4-1.7V2.7h7.6c0,0.4,0.1,1.6,0.2,2.5L104.5,5.3z"/>
		<path d="M117.7,7.9c0,3.5-2.5,5.7-5.6,5.7c-3.2,0-5.5-2.4-5.5-5.5c0-2.9,2-5.6,5.7-5.6C115.2,2.5,117.7,4.7,117.7,7.9z M108.9,7.7
			c0,2.9,1.4,5.2,3.6,5.2c1.7,0,3.1-1.5,3.1-4.6c0-3.3-1.5-5.2-3.5-5.2C110.3,3.1,108.9,4.8,108.9,7.7z"/>
		<path d="M128.5,13.5c-0.1,0-0.3,0-0.5,0c-1.8-0.1-2.4-0.5-3.1-1.6c-0.5-0.7-1-1.7-1.5-2.5c-0.3-0.5-0.6-0.7-1.2-0.7h-0.4v2.5
			c0,1.3,0.1,1.5,1.4,1.6v0.5h-4.7v-0.5c1.3-0.1,1.4-0.2,1.4-1.6V4.8c0-1.3-0.1-1.5-1.4-1.6V2.7h4.4c1.3,0,2.2,0.2,2.8,0.6
			c0.7,0.4,1.1,1.2,1.1,2.2c0,1.4-0.9,2.2-2.1,2.7c0.3,0.5,0.9,1.6,1.4,2.3c0.6,0.9,0.9,1.4,1.3,1.8c0.4,0.4,0.7,0.6,1.1,0.7
			L128.5,13.5z M122.3,8.1c0.8,0,1.3-0.1,1.7-0.4c0.6-0.5,0.8-1.1,0.8-2c0-1.8-1-2.4-2.1-2.4c-0.4,0-0.7,0.1-0.8,0.2
			c-0.1,0.1-0.1,0.3-0.1,0.7v4H122.3z"/>
		<path d="M134.3,2.7c2.1,0,3.6,0.4,4.7,1.4c0.8,0.8,1.4,2,1.4,3.5c0,2-0.8,3.4-2,4.4c-1.2,0.9-2.9,1.4-4.9,1.4h-4.1v-0.5
			c1.3-0.1,1.5-0.2,1.5-1.6V4.9c0-1.4-0.1-1.5-1.3-1.6V2.7H134.3z M132.8,11.1c0,1.2,0.4,1.6,1.5,1.6c2.5,0,4-2,4-4.8
			c0-1.6-0.5-2.9-1.5-3.7c-0.7-0.6-1.6-0.9-2.7-0.9c-0.6,0-1,0.1-1.1,0.2c-0.1,0.1-0.2,0.4-0.2,0.9V11.1z"/>
		<path d="M152.2,13.4v-0.5c1-0.1,1.1-0.3,0.9-1c-0.2-0.5-0.5-1.3-0.8-2.1H149c-0.2,0.6-0.4,1.2-0.6,1.9c-0.3,0.9-0.2,1.1,1,1.2v0.5
			h-3.6v-0.5c1.1-0.1,1.3-0.3,1.8-1.7l3.4-8.5l0.7-0.2c1,2.9,2.1,5.8,3.1,8.6c0.5,1.4,0.8,1.6,1.8,1.8v0.5H152.2z M150.7,5.1
			L150.7,5.1c-0.5,1.3-1,2.5-1.4,3.8h2.7L150.7,5.1z"/>
		<path d="M165.5,5.4c-0.2-0.8-0.4-1.3-0.6-1.6c-0.3-0.3-0.7-0.4-1.7-0.4h-0.9v7.9c0,1.4,0.1,1.5,1.6,1.6v0.5h-5.1v-0.5
			c1.4-0.1,1.6-0.2,1.6-1.6V3.4h-0.7c-1.3,0-1.7,0.1-1.9,0.5c-0.2,0.3-0.4,0.8-0.6,1.6h-0.6c0.1-1.1,0.2-2.3,0.2-3.1h0.4
			c0.2,0.4,0.5,0.4,0.9,0.4h6.6c0.4,0,0.6-0.1,0.9-0.4h0.4c0,0.7,0.1,2.1,0.2,3.1L165.5,5.4z"/>
		<path d="M176.3,5.4c-0.2-0.8-0.4-1.3-0.6-1.6c-0.3-0.3-0.7-0.4-1.7-0.4H173v7.9c0,1.4,0.1,1.5,1.6,1.6v0.5h-5.1v-0.5
			c1.4-0.1,1.6-0.2,1.6-1.6V3.4h-0.7c-1.3,0-1.7,0.1-1.9,0.5c-0.2,0.3-0.4,0.8-0.6,1.6h-0.6c0.1-1.1,0.2-2.3,0.2-3.1h0.4
			c0.2,0.4,0.5,0.4,0.9,0.4h6.6c0.4,0,0.6-0.1,0.9-0.4h0.4c0,0.7,0.1,2.1,0.2,3.1L176.3,5.4z"/>
		<path d="M182.9,13.4v-0.5c1-0.1,1.1-0.3,0.9-1c-0.2-0.5-0.5-1.3-0.8-2.1h-3.3c-0.2,0.6-0.4,1.2-0.6,1.9c-0.3,0.9-0.2,1.1,1,1.2
			v0.5h-3.6v-0.5c1.1-0.1,1.3-0.3,1.8-1.7l3.4-8.5l0.7-0.2c1,2.9,2.1,5.8,3.1,8.6c0.5,1.4,0.8,1.6,1.8,1.8v0.5H182.9z M181.5,5.1
			L181.5,5.1c-0.5,1.3-1,2.5-1.4,3.8h2.7L181.5,5.1z"/>
		<path d="M196.9,10.7c-0.1,0.6-0.5,2.2-0.6,2.7h-7.8v-0.5c1.4-0.1,1.6-0.2,1.6-1.6V4.8c0-1.4-0.1-1.5-1.4-1.6V2.7h4.7v0.5
			c-1.3,0.1-1.4,0.2-1.4,1.6v6.4c0,0.8,0.1,1.1,0.4,1.3c0.3,0.1,0.8,0.2,1.3,0.2c0.8,0,1.4-0.1,1.7-0.5c0.3-0.3,0.6-0.9,0.9-1.6
			L196.9,10.7z"/>
		<path d="M206.2,10.7c-0.1,0.6-0.5,2.2-0.6,2.7h-7.8v-0.5c1.4-0.1,1.6-0.2,1.6-1.6V4.8c0-1.4-0.1-1.5-1.4-1.6V2.7h4.7v0.5
			c-1.3,0.1-1.4,0.2-1.4,1.6v6.4c0,0.8,0.1,1.1,0.4,1.3c0.3,0.1,0.8,0.2,1.3,0.2c0.8,0,1.4-0.1,1.7-0.5c0.3-0.3,0.6-0.9,0.9-1.6
			L206.2,10.7z"/>
		<path d="M213.3,13.4v-0.5c1-0.1,1.1-0.3,0.9-1c-0.2-0.5-0.5-1.3-0.8-2.1h-3.3c-0.2,0.6-0.4,1.2-0.6,1.9c-0.3,0.9-0.2,1.1,1,1.2
			v0.5h-3.6v-0.5c1.1-0.1,1.3-0.3,1.8-1.7l3.4-8.5l0.7-0.2c1,2.9,2.1,5.8,3.1,8.6c0.5,1.4,0.8,1.6,1.8,1.8v0.5H213.3z M211.8,5.1
			L211.8,5.1c-0.5,1.3-1,2.5-1.4,3.8h2.7L211.8,5.1z"/>
		<path d="M230.2,3.2c-1.3,0.1-1.4,0.2-1.4,1.6v6.4c0,1.4,0.1,1.5,1.4,1.6v0.5h-4.8v-0.5c1.3-0.1,1.5-0.2,1.5-1.6V8.1H222v3.1
			c0,1.4,0.1,1.5,1.4,1.6v0.5h-4.7v-0.5c1.2-0.1,1.4-0.2,1.4-1.6V4.8c0-1.4-0.1-1.5-1.4-1.6V2.7h4.7v0.5c-1.2,0.1-1.3,0.2-1.3,1.6
			v2.5h4.9V4.8c0-1.4-0.1-1.5-1.4-1.6V2.7h4.7V3.2z"/>
		<path d="M43.1,23.9c-0.2,0.8-0.6,2-0.9,2.6c-0.4,0.1-1.9,0.4-3.1,0.4c-4.2,0-6.1-2.8-6.1-5.4c0-3.4,2.6-5.7,6.4-5.7
			c1.3,0,2.5,0.3,3,0.4c0.1,0.9,0.2,1.6,0.4,2.6L42.3,19c-0.5-1.9-1.7-2.5-3.1-2.5c-2.5,0-3.9,2.3-3.9,4.7c0,3,1.7,5.1,4,5.1
			c1.5,0,2.4-0.9,3.3-2.5L43.1,23.9z"/>
		<path d="M55.3,21.3c0,3.5-2.5,5.7-5.6,5.7c-3.2,0-5.5-2.4-5.5-5.5c0-2.9,2-5.6,5.7-5.6C52.9,15.8,55.3,18,55.3,21.3z M46.5,21.1
			c0,2.9,1.4,5.2,3.6,5.2c1.7,0,3.1-1.5,3.1-4.6c0-3.3-1.5-5.2-3.5-5.2C47.9,16.4,46.5,18.1,46.5,21.1z"/>
		<path d="M64.7,24c-0.1,0.6-0.5,2.2-0.6,2.7h-7.8v-0.5c1.4-0.1,1.6-0.2,1.6-1.6v-6.4c0-1.4-0.1-1.5-1.4-1.6V16h4.7v0.5
			c-1.3,0.1-1.4,0.2-1.4,1.6v6.4c0,0.8,0.1,1.1,0.4,1.3c0.3,0.1,0.8,0.2,1.3,0.2c0.8,0,1.4-0.1,1.7-0.5c0.3-0.3,0.6-0.9,0.9-1.6
			L64.7,24z"/>
		<path d="M74,24c-0.1,0.6-0.5,2.2-0.6,2.7h-7.8v-0.5c1.4-0.1,1.6-0.2,1.6-1.6v-6.4c0-1.4-0.1-1.5-1.4-1.6V16h4.7v0.5
			c-1.3,0.1-1.4,0.2-1.4,1.6v6.4c0,0.8,0.1,1.1,0.4,1.3c0.3,0.1,0.8,0.2,1.3,0.2c0.8,0,1.4-0.1,1.7-0.5c0.3-0.3,0.6-0.9,0.9-1.6
			L74,24z"/>
		<path d="M83.6,24c-0.1,0.7-0.4,2.2-0.6,2.7h-8.2v-0.5c1.4-0.1,1.6-0.2,1.6-1.6v-6.4c0-1.4-0.1-1.5-1.3-1.6V16h7.6
			c0,0.3,0.1,1.5,0.2,2.4l-0.6,0.1c-0.1-0.6-0.3-1.1-0.6-1.4c-0.3-0.3-0.7-0.4-1.7-0.4h-1c-0.6,0-0.6,0-0.6,0.6v3.6h1.3
			c1.4,0,1.6-0.1,1.8-1.2H82v3.2h-0.6c-0.2-1.2-0.4-1.2-1.8-1.2h-1.3v2.9c0,0.8,0.1,1.2,0.4,1.3C79,26,79.6,26,80.3,26
			c1,0,1.5-0.1,1.9-0.5c0.3-0.3,0.6-0.9,0.9-1.6L83.6,24z"/>
		<path d="M95.7,22.2c-0.9,0.1-1,0.2-1,1.3v1.3c0,0.6,0,1.1,0.1,1.5c-1,0.2-2.4,0.6-3.7,0.6c-3.7,0-6.2-2.2-6.2-5.5
			c0-3.8,3.1-5.7,6.4-5.7c1.3,0,2.6,0.3,3.2,0.5c0,0.6,0.1,1.4,0.3,2.7L94.2,19c-0.4-1.9-1.6-2.6-3.2-2.6c-2.2,0-3.9,1.8-3.9,4.8
			c0,2.4,1.3,5.1,4.1,5.1c0.4,0,0.8-0.1,1.1-0.2c0.3-0.2,0.4-0.4,0.4-1v-1.5c0-1.1-0.1-1.3-1.8-1.4v-0.5h4.6V22.2z"/>
		<path d="M105.6,24c-0.1,0.7-0.4,2.2-0.6,2.7h-8.2v-0.5c1.4-0.1,1.6-0.2,1.6-1.6v-6.4c0-1.4-0.1-1.5-1.3-1.6V16h7.6
			c0,0.3,0.1,1.5,0.2,2.4l-0.6,0.1c-0.1-0.6-0.3-1.1-0.6-1.4c-0.3-0.3-0.7-0.4-1.7-0.4h-1c-0.6,0-0.6,0-0.6,0.6v3.6h1.3
			c1.4,0,1.6-0.1,1.8-1.2h0.6v3.2h-0.6c-0.2-1.2-0.4-1.2-1.8-1.2h-1.3v2.9c0,0.8,0.1,1.2,0.4,1.3c0.3,0.2,0.9,0.2,1.5,0.2
			c1,0,1.5-0.1,1.9-0.5c0.3-0.3,0.6-0.9,0.9-1.6L105.6,24z"/>
		<path d="M121.9,21.3c0,3.5-2.5,5.7-5.6,5.7c-3.2,0-5.5-2.4-5.5-5.5c0-2.9,2-5.6,5.7-5.6C119.4,15.8,121.9,18,121.9,21.3z
			 M113,21.1c0,2.9,1.4,5.2,3.6,5.2c1.7,0,3.1-1.5,3.1-4.6c0-3.3-1.5-5.2-3.5-5.2C114.5,16.4,113,18.1,113,21.1z"/>
		<path d="M130.6,18.6c-0.2-0.6-0.3-1-0.6-1.4c-0.3-0.4-0.7-0.5-1.8-0.5h-1c-0.5,0-0.6,0-0.6,0.6V21h1.5c1.5,0,1.6-0.1,1.8-1.2h0.5
			V23h-0.5c-0.2-1.1-0.3-1.3-1.8-1.3h-1.5v2.7c0,1.5,0.1,1.6,1.6,1.7v0.5h-4.9v-0.5c1.2-0.1,1.4-0.2,1.4-1.7v-6.2
			c0-1.5-0.1-1.6-1.4-1.7V16h7.6c0,0.4,0.1,1.6,0.2,2.5L130.6,18.6z"/>
		<path d="M145.2,24c-0.1,0.7-0.4,2.2-0.6,2.7h-8.2v-0.5c1.4-0.1,1.6-0.2,1.6-1.6v-6.4c0-1.4-0.1-1.5-1.3-1.6V16h7.6
			c0,0.3,0.1,1.5,0.2,2.4l-0.6,0.1c-0.1-0.6-0.3-1.1-0.6-1.4c-0.3-0.3-0.7-0.4-1.7-0.4h-1c-0.6,0-0.6,0-0.6,0.6v3.6h1.3
			c1.4,0,1.6-0.1,1.8-1.2h0.6v3.2h-0.6c-0.2-1.2-0.4-1.2-1.8-1.2h-1.3v2.9c0,0.8,0.1,1.2,0.4,1.3c0.3,0.2,0.9,0.2,1.5,0.2
			c1,0,1.5-0.1,1.9-0.5c0.3-0.3,0.6-0.9,0.9-1.6L145.2,24z"/>
		<path d="M151.6,16c2.1,0,3.6,0.4,4.7,1.4c0.8,0.8,1.4,2,1.4,3.5c0,2-0.8,3.4-2,4.4c-1.2,0.9-2.9,1.4-4.9,1.4h-4.1v-0.5
			c1.3-0.1,1.5-0.2,1.5-1.6v-6.4c0-1.4-0.1-1.5-1.3-1.6V16H151.6z M150,24.5c0,1.2,0.4,1.6,1.5,1.6c2.5,0,4-2,4-4.8
			c0-1.6-0.5-2.9-1.5-3.7c-0.7-0.6-1.6-0.9-2.7-0.9c-0.6,0-1,0.1-1.1,0.2c-0.1,0.1-0.2,0.4-0.2,0.9V24.5z"/>
		<path d="M170,16.6c-0.9,0-1.3,0.3-1.4,1c-0.1,0.5-0.1,1.1-0.1,2.4v1.6c0,1.8-0.3,3.2-1.2,4.2c-0.8,0.8-1.9,1.2-3,1.2
			c-1,0-2-0.2-2.8-0.8c-0.9-0.7-1.4-2-1.4-3.9v-4c0-1.5-0.1-1.6-1.4-1.7V16h4.7v0.5c-1.2,0.1-1.4,0.2-1.4,1.7v3.6c0,2.5,0.9,4,2.8,4
			c2.1,0,2.9-1.7,2.9-4.4V20c0-1.3-0.1-1.9-0.1-2.4c-0.1-0.6-0.5-0.9-1.6-0.9V16h4V16.6z"/>
		<path d="M180.9,23.9c-0.2,0.8-0.6,2-0.9,2.6c-0.4,0.1-1.9,0.4-3.1,0.4c-4.2,0-6.1-2.8-6.1-5.4c0-3.4,2.6-5.7,6.4-5.7
			c1.3,0,2.5,0.3,3,0.4c0.1,0.9,0.2,1.6,0.4,2.6l-0.6,0.1c-0.5-1.9-1.7-2.5-3.1-2.5c-2.5,0-3.9,2.3-3.9,4.7c0,3,1.7,5.1,4,5.1
			c1.5,0,2.4-0.9,3.3-2.5L180.9,23.9z"/>
		<path d="M188.3,26.7v-0.5c1-0.1,1.1-0.3,0.9-1c-0.2-0.5-0.5-1.3-0.8-2.1h-3.3c-0.2,0.6-0.4,1.2-0.6,1.9c-0.3,0.9-0.2,1.1,1,1.2
			v0.5h-3.6v-0.5c1.1-0.1,1.3-0.3,1.8-1.7l3.4-8.5l0.7-0.2c1,2.9,2.1,5.8,3.1,8.6c0.5,1.4,0.8,1.6,1.8,1.8v0.5H188.3z M186.8,18.5
			L186.8,18.5c-0.5,1.3-1,2.5-1.4,3.8h2.7L186.8,18.5z"/>
		<path d="M201.7,18.7c-0.2-0.8-0.4-1.3-0.6-1.6c-0.3-0.3-0.7-0.4-1.7-0.4h-0.9v7.9c0,1.4,0.1,1.5,1.6,1.6v0.5h-5.1v-0.5
			c1.4-0.1,1.6-0.2,1.6-1.6v-7.9h-0.7c-1.3,0-1.7,0.1-1.9,0.5c-0.2,0.3-0.4,0.8-0.6,1.6h-0.6c0.1-1.1,0.2-2.3,0.2-3.1h0.4
			c0.2,0.4,0.5,0.4,0.9,0.4h6.6c0.4,0,0.6-0.1,0.9-0.4h0.4c0,0.7,0.1,2.1,0.2,3.1L201.7,18.7z"/>
		<path d="M203.6,26.7v-0.5c1.3-0.1,1.4-0.2,1.4-1.6v-6.4c0-1.4-0.1-1.5-1.4-1.6V16h4.7v0.5c-1.3,0.1-1.4,0.2-1.4,1.6v6.4
			c0,1.4,0.1,1.5,1.4,1.6v0.5H203.6z"/>
		<path d="M220.8,21.3c0,3.5-2.5,5.7-5.6,5.7c-3.2,0-5.5-2.4-5.5-5.5c0-2.9,2-5.6,5.7-5.6C218.3,15.8,220.8,18,220.8,21.3z
			 M212,21.1c0,2.9,1.4,5.2,3.6,5.2c1.7,0,3.1-1.5,3.1-4.6c0-3.3-1.5-5.2-3.5-5.2C213.4,16.4,212,18.1,212,21.1z"/>
		<path d="M233.2,16.6c-0.9,0-1.2,0.3-1.3,1c-0.1,0.5-0.1,1.3-0.1,2.7v6.5H231l-6.9-8.3h0v3.9c0,1.5,0.1,2.2,0.1,2.7
			c0.1,0.8,0.4,1,1.6,1.1v0.5h-4v-0.5c0.9-0.1,1.3-0.3,1.4-1c0-0.5,0.1-1.3,0.1-2.7v-3.5c0-1.1,0-1.3-0.3-1.7
			c-0.3-0.4-0.7-0.5-1.4-0.6V16h2.8l6.5,7.6h0v-3.3c0-1.5-0.1-2.2-0.1-2.7c-0.1-0.7-0.4-1-1.6-1V16h4V16.6z"/>
		<path d="M239.9,26.7v-0.5c1-0.1,1.1-0.3,0.9-1c-0.2-0.5-0.5-1.3-0.8-2.1h-3.3c-0.2,0.6-0.4,1.2-0.6,1.9c-0.3,0.9-0.2,1.1,1,1.2
			v0.5h-3.6v-0.5c1.1-0.1,1.3-0.3,1.8-1.7l3.4-8.5l0.7-0.2c1,2.9,2.1,5.8,3.1,8.6c0.5,1.4,0.8,1.6,1.8,1.8v0.5H239.9z M238.4,18.5
			L238.4,18.5c-0.5,1.3-1,2.5-1.4,3.8h2.7L238.4,18.5z"/>
		<path d="M253.8,24c-0.1,0.6-0.5,2.2-0.6,2.7h-7.8v-0.5c1.4-0.1,1.6-0.2,1.6-1.6v-6.4c0-1.4-0.1-1.5-1.4-1.6V16h4.7v0.5
			c-1.3,0.1-1.4,0.2-1.4,1.6v6.4c0,0.8,0.1,1.1,0.4,1.3c0.3,0.1,0.8,0.2,1.3,0.2c0.8,0,1.4-0.1,1.7-0.5c0.3-0.3,0.6-0.9,0.9-1.6
			L253.8,24z"/>
		<path d="M264.7,18.6c-0.3-1-0.9-2.2-2.2-2.2c-1,0-1.7,0.8-1.7,1.7c0,1,0.7,1.6,2.1,2.2c1.6,0.8,2.9,1.6,2.9,3.3
			c0,1.8-1.5,3.2-3.9,3.2c-0.6,0-1.2-0.1-1.6-0.2c-0.4-0.1-0.7-0.2-0.9-0.3c-0.1-0.4-0.4-1.8-0.5-2.7l0.6-0.2c0.3,1,1.2,2.8,2.8,2.8
			c1.1,0,1.8-0.7,1.8-1.8c0-1-0.8-1.7-2-2.3c-1.5-0.8-2.8-1.6-2.8-3.3c0-1.7,1.4-3.1,3.6-3.1c1,0,1.8,0.3,2.2,0.4
			c0.1,0.6,0.2,1.3,0.3,2.3L264.7,18.6z"/>
		<path d="M276.1,18.7c-0.2-0.8-0.4-1.3-0.6-1.6c-0.3-0.3-0.7-0.4-1.7-0.4h-0.9v7.9c0,1.4,0.1,1.5,1.6,1.6v0.5h-5.1v-0.5
			c1.4-0.1,1.6-0.2,1.6-1.6v-7.9h-0.7c-1.3,0-1.7,0.1-1.9,0.5c-0.2,0.3-0.4,0.8-0.6,1.6h-0.6c0.1-1.1,0.2-2.3,0.2-3.1h0.4
			c0.2,0.4,0.5,0.4,0.9,0.4h6.6c0.4,0,0.6-0.1,0.9-0.4h0.4c0,0.7,0.1,2.1,0.2,3.1L276.1,18.7z"/>
		<path d="M289.2,16.6c-0.9,0-1.3,0.3-1.4,1c-0.1,0.5-0.1,1.1-0.1,2.4v1.6c0,1.8-0.3,3.2-1.2,4.2c-0.8,0.8-1.9,1.2-3,1.2
			c-1,0-2-0.2-2.8-0.8c-0.9-0.7-1.4-2-1.4-3.9v-4c0-1.5-0.1-1.6-1.4-1.7V16h4.7v0.5c-1.2,0.1-1.4,0.2-1.4,1.7v3.6c0,2.5,0.9,4,2.8,4
			c2.1,0,2.9-1.7,2.9-4.4V20c0-1.3-0.1-1.9-0.1-2.4c-0.1-0.6-0.5-0.9-1.6-0.9V16h4V16.6z"/>
		<path d="M295.2,16c2.1,0,3.6,0.4,4.7,1.4c0.8,0.8,1.4,2,1.4,3.5c0,2-0.8,3.4-2,4.4c-1.2,0.9-2.9,1.4-4.9,1.4h-4.1v-0.5
			c1.3-0.1,1.5-0.2,1.5-1.6v-6.4c0-1.4-0.1-1.5-1.3-1.6V16H295.2z M293.7,24.5c0,1.2,0.4,1.6,1.5,1.6c2.5,0,4-2,4-4.8
			c0-1.6-0.5-2.9-1.5-3.7c-0.7-0.6-1.6-0.9-2.7-0.9c-0.6,0-1,0.1-1.1,0.2c-0.1,0.1-0.2,0.4-0.2,0.9V24.5z"/>
		<path d="M302.8,26.7v-0.5c1.3-0.1,1.4-0.2,1.4-1.6v-6.4c0-1.4-0.1-1.5-1.4-1.6V16h4.7v0.5c-1.3,0.1-1.4,0.2-1.4,1.6v6.4
			c0,1.4,0.1,1.5,1.4,1.6v0.5H302.8z"/>
		<path d="M317.7,24c-0.1,0.7-0.4,2.2-0.6,2.7H309v-0.5c1.4-0.1,1.6-0.2,1.6-1.6v-6.4c0-1.4-0.1-1.5-1.3-1.6V16h7.6
			c0,0.3,0.1,1.5,0.2,2.4l-0.6,0.1c-0.1-0.6-0.3-1.1-0.6-1.4c-0.3-0.3-0.7-0.4-1.7-0.4h-1c-0.6,0-0.6,0-0.6,0.6v3.6h1.3
			c1.4,0,1.6-0.1,1.8-1.2h0.6v3.2h-0.6c-0.2-1.2-0.4-1.2-1.8-1.2h-1.3v2.9c0,0.8,0.1,1.2,0.4,1.3c0.3,0.2,0.9,0.2,1.5,0.2
			c1,0,1.5-0.1,1.9-0.5c0.3-0.3,0.6-0.9,0.9-1.6L317.7,24z"/>
		<path d="M324.8,18.6c-0.3-1-0.9-2.2-2.2-2.2c-1,0-1.7,0.8-1.7,1.7c0,1,0.7,1.6,2.1,2.2c1.6,0.8,2.9,1.6,2.9,3.3
			c0,1.8-1.5,3.2-3.9,3.2c-0.6,0-1.2-0.1-1.6-0.2c-0.4-0.1-0.7-0.2-0.9-0.3c-0.1-0.4-0.4-1.8-0.5-2.7l0.6-0.2c0.3,1,1.2,2.8,2.8,2.8
			c1.1,0,1.8-0.7,1.8-1.8c0-1-0.8-1.7-2-2.3c-1.5-0.8-2.8-1.6-2.8-3.3c0-1.7,1.4-3.1,3.6-3.1c1,0,1.8,0.3,2.2,0.4
			c0.1,0.6,0.2,1.3,0.3,2.3L324.8,18.6z"/>
	</g>
	<g>
		<polygon class="st0" points="13.1,14.5 0,27.6 0,14.5 		"/>
		<polygon class="st0" points="0,13.7 0,0.6 13.1,13.7 		"/>
		<polygon class="st0" points="27.6,0 14.5,13.1 14.5,0 		"/>
		<polygon class="st0" points="13.7,13.1 0.6,0 13.7,0 		"/>
		<polygon class="st0" points="15.1,13.7 28.2,0.6 28.2,13.7 		"/>
		<polygon class="st0" points="28.2,14.5 28.2,27.6 15.1,14.5 		"/>
		<polygon class="st0" points="13.7,15.1 0.6,28.2 13.7,28.2 		"/>
		<polygon class="st0" points="14.5,15.1 14.5,28.2 27.6,28.2 		"/>
	</g>
</g>
</svg>
