<svg id="Layer_1" data-name="Layer 1" xmlns="http://www.w3.org/2000/svg" viewBox="0 0 222.97 28.2">
  <defs>
    <style>
      .cls-1 {
        fill: #231f20;
      }

      .cls-2 {
        fill: #981a31;
      }
    </style>
  </defs>
  <title>off-canvas-header-cusp</title>
  <g>
    <g id="cusp">
      <path class="cls-1" d="M38.93,11.35c-0.33-1-.89-2.21-2.25-2.21A1.61,1.61,0,0,0,35,10.81c0,1,.67,1.56,2.07,2.25,1.56,0.79,2.87,1.64,2.87,3.35s-1.54,3.25-3.87,3.25a5.21,5.21,0,0,1-1.62-.25,6,6,0,0,1-.94-0.34A19.8,19.8,0,0,1,33,16.37l0.56-.16c0.3,1,1.18,2.8,2.79,2.8a1.68,1.68,0,0,0,1.77-1.82c0-1-.79-1.66-2-2.3-1.46-.75-2.8-1.62-2.8-3.3s1.36-3.1,3.61-3.1a7.37,7.37,0,0,1,2.21.41c0.07,0.61.16,1.3,0.29,2.33Z"/>
      <path class="cls-1" d="M51.56,16.63a20.41,20.41,0,0,1-.92,2.59,15.78,15.78,0,0,1-3.05.43c-4.25,0-6.07-2.84-6.07-5.43,0-3.41,2.61-5.72,6.45-5.72a12.45,12.45,0,0,1,3,.44c0.13,0.9.25,1.64,0.36,2.61l-0.57.11a2.94,2.94,0,0,0-3.1-2.49c-2.51,0-3.87,2.26-3.87,4.72,0,3,1.67,5.05,4,5.05,1.49,0,2.44-.89,3.28-2.53Z"/>
      <path class="cls-1" d="M64.33,9.28c-1.3.11-1.41,0.2-1.41,1.59v6.41c0,1.38.13,1.48,1.41,1.59V19.4H59.54V18.88c1.33-.12,1.46-0.21,1.46-1.59V14.15H56.13v3.13c0,1.38.13,1.48,1.39,1.59V19.4H52.83V18.88c1.25-.12,1.39-0.21,1.39-1.59V10.87c0-1.39-.15-1.49-1.44-1.59V8.74h4.69V9.28c-1.21.1-1.34,0.2-1.34,1.59v2.49H61V10.87c0-1.39-.11-1.48-1.36-1.59V8.74h4.69V9.28Z"/>
      <path class="cls-1" d="M76.85,14a5.43,5.43,0,0,1-5.59,5.69,5.34,5.34,0,0,1-5.46-5.53,5.48,5.48,0,0,1,5.66-5.63A5.31,5.31,0,0,1,76.85,14ZM68,13.76C68,16.66,69.4,19,71.58,19c1.66,0,3.05-1.53,3.05-4.59,0-3.33-1.49-5.25-3.49-5.25C69.43,9.15,68,10.84,68,13.76Z"/>
      <path class="cls-1" d="M89.92,14a5.43,5.43,0,0,1-5.59,5.69,5.34,5.34,0,0,1-5.46-5.53,5.48,5.48,0,0,1,5.66-5.63A5.31,5.31,0,0,1,89.92,14Zm-8.84-.2c0,2.9,1.39,5.23,3.58,5.23,1.66,0,3.05-1.53,3.05-4.59,0-3.33-1.49-5.25-3.49-5.25C82.51,9.15,81.08,10.84,81.08,13.76Z"/>
      <path class="cls-1" d="M99.62,16.7c-0.13.64-.46,2.25-0.61,2.71H91.24V18.88c1.39-.12,1.56-0.23,1.56-1.62V10.87c0-1.39-.15-1.49-1.43-1.59V8.74h4.74V9.28c-1.26.1-1.41,0.2-1.41,1.59v6.45c0,0.8.07,1.12,0.39,1.26a3.67,3.67,0,0,0,1.34.16,2.11,2.11,0,0,0,1.74-.54,4.61,4.61,0,0,0,.89-1.64Z"/>
      <path class="cls-1" d="M115.77,14a5.43,5.43,0,0,1-5.59,5.69,5.34,5.34,0,0,1-5.46-5.53,5.48,5.48,0,0,1,5.66-5.63A5.31,5.31,0,0,1,115.77,14Zm-8.84-.2c0,2.9,1.39,5.23,3.58,5.23,1.66,0,3.05-1.53,3.05-4.59,0-3.33-1.49-5.25-3.49-5.25C108.35,9.15,106.93,10.84,106.93,13.76Z"/>
      <path class="cls-1" d="M124.48,11.3a3.51,3.51,0,0,0-.59-1.38c-0.31-.39-0.72-0.51-1.77-0.51h-1c-0.54,0-.61,0-0.61.56v3.71H122c1.46,0,1.59-.15,1.79-1.2h0.54v3.23h-0.54c-0.18-1.12-.33-1.28-1.79-1.28h-1.48v2.74c0,1.49.15,1.59,1.59,1.71V19.4h-4.89V18.88c1.25-.12,1.39-0.21,1.39-1.71V10.94c0-1.46-.15-1.56-1.36-1.66V8.74h7.56c0,0.39.1,1.57,0.18,2.48Z"/>
      <path class="cls-1" d="M134.9,8.74a4.79,4.79,0,0,1,2.84.66,2.77,2.77,0,0,1,1.15,2.38c0,2.18-1.61,3.18-3.3,3.4a3.31,3.31,0,0,1-.69,0l-1.16-.28v2.38c0,1.38.15,1.48,1.57,1.59V19.4h-4.85V18.88c1.26-.12,1.41-0.23,1.41-1.61V10.89c0-1.41-.15-1.51-1.31-1.61V8.74h4.35Zm-1.16,5.56a3,3,0,0,0,1,.16c0.77,0,2.08-.48,2.08-2.64,0-1.82-1.08-2.48-2.2-2.48a1.27,1.27,0,0,0-.72.16,0.77,0.77,0,0,0-.16.61V14.3Z"/>
      <path class="cls-1" d="M151.84,9.28c-1.3.11-1.41,0.2-1.41,1.59v6.41c0,1.38.13,1.48,1.41,1.59V19.4H147V18.88c1.33-.12,1.46-0.21,1.46-1.59V14.15h-4.87v3.13c0,1.38.13,1.48,1.39,1.59V19.4h-4.69V18.88c1.25-.12,1.39-0.21,1.39-1.59V10.87c0-1.39-.15-1.49-1.44-1.59V8.74H145V9.28c-1.21.1-1.35,0.2-1.35,1.59v2.49h4.87V10.87c0-1.39-.11-1.48-1.36-1.59V8.74h4.69V9.28Z"/>
      <path class="cls-1" d="M158.91,19.4V18.88c1-.15,1.08-0.33.85-1s-0.46-1.31-.75-2.1h-3.26c-0.21.61-.44,1.23-0.64,1.89-0.28.89-.2,1.08,1,1.23V19.4h-3.63V18.88c1.07-.15,1.28-0.3,1.84-1.71l3.36-8.48,0.72-.2c1,2.85,2.08,5.81,3.15,8.63,0.54,1.44.75,1.62,1.8,1.76V19.4h-4.45Zm-1.48-8.22h0c-0.48,1.26-.92,2.54-1.38,3.77h2.72Z"/>
      <path class="cls-1" d="M174.55,19.55l-0.51,0c-1.77-.08-2.43-0.51-3.12-1.56-0.48-.72-1-1.66-1.46-2.49a1.15,1.15,0,0,0-1.2-.69h-0.38v2.48c0,1.34.15,1.49,1.41,1.61V19.4h-4.72V18.88c1.26-.12,1.44-0.25,1.44-1.61V10.86c0-1.35-.15-1.48-1.38-1.57V8.74h4.41a5,5,0,0,1,2.82.59,2.51,2.51,0,0,1,1.1,2.18,2.89,2.89,0,0,1-2.07,2.71c0.26,0.51.89,1.61,1.38,2.35a11.23,11.23,0,0,0,1.3,1.76,2.22,2.22,0,0,0,1.07.74Zm-6.12-5.36a2.55,2.55,0,0,0,1.67-.44,2.4,2.4,0,0,0,.82-2c0-1.75-1-2.41-2.1-2.41a1.42,1.42,0,0,0-.79.16,0.84,0.84,0,0,0-.15.66v4h0.54Z"/>
      <path class="cls-1" d="M184.36,19.4V18.88c1.28-.13,1.34-0.25,1.34-1.84l0-6.45h-0.07l-3.76,8.69h-0.43l-3.46-8.51h0l-0.21,4.43a20.62,20.62,0,0,0,0,2.67c0,0.75.39,0.89,1.49,1V19.4h-3.9V18.86c0.94-.08,1.25-0.34,1.35-1a29.41,29.41,0,0,0,.34-3.07l0.25-3.3c0.15-2,0-2.13-1.41-2.26V8.74h3.15l3.36,7.55,3.43-7.55h3.12V9.28c-1.36.13-1.44,0.21-1.41,1.71L187.59,17c0,1.59.1,1.71,1.44,1.84V19.4h-4.67Z"/>
      <path class="cls-1" d="M196.57,19.4V18.88c1-.15,1.08-0.33.85-1s-0.46-1.31-.75-2.1H193.4c-0.21.61-.44,1.23-0.64,1.89-0.28.89-.2,1.08,1,1.23V19.4h-3.62V18.88c1.07-.15,1.28-0.3,1.84-1.71l3.36-8.48,0.72-.2c1,2.85,2.08,5.81,3.15,8.63,0.54,1.44.75,1.62,1.8,1.76V19.4h-4.44Zm-1.48-8.22h0c-0.48,1.26-.92,2.54-1.38,3.77h2.72Z"/>
      <path class="cls-1" d="M211.89,16.63a20.49,20.49,0,0,1-.92,2.59,15.79,15.79,0,0,1-3.05.43c-4.25,0-6.07-2.84-6.07-5.43,0-3.41,2.61-5.72,6.45-5.72a12.44,12.44,0,0,1,3,.44c0.13,0.9.25,1.64,0.36,2.61l-0.57.11a2.94,2.94,0,0,0-3.1-2.49c-2.51,0-3.87,2.26-3.87,4.72,0,3,1.67,5.05,4,5.05,1.49,0,2.44-.89,3.28-2.53Z"/>
      <path class="cls-1" d="M223,9.28a2.1,2.1,0,0,0-2,1.34c-0.66,1-1.13,1.84-1.92,3.35a1.89,1.89,0,0,0-.3,1.1v2.15c0,1.44.13,1.54,1.61,1.66V19.4h-5.07V18.88c1.41-.1,1.56-0.21,1.56-1.66v-2a1.72,1.72,0,0,0-.26-0.93c-0.49-.94-1.1-2-2-3.67-0.64-1.1-.87-1.26-1.8-1.38V8.74h4.4V9.28c-1.1.15-1.08,0.34-.79,0.92,0.62,1.2,1.33,2.46,2,3.67,0.53-1,1.38-2.54,1.79-3.54,0.31-.72.28-0.92-1-1V8.74H223V9.28Z"/>
    </g>
    <g>
      <polygon class="cls-2" points="13.09 14.52 0 27.61 0 14.52 13.09 14.52"/>
      <polygon class="cls-2" points="0 13.68 0 0.59 13.09 13.68 0 13.68"/>
      <polygon class="cls-2" points="27.61 0 14.52 13.09 14.52 0 27.61 0"/>
      <polygon class="cls-2" points="13.68 13.09 0.59 0 13.68 0 13.68 13.09"/>
      <polygon class="cls-2" points="15.11 13.68 28.2 0.59 28.2 13.68 15.11 13.68"/>
      <polygon class="cls-2" points="28.2 14.52 28.2 27.61 15.11 14.52 28.2 14.52"/>
      <polygon class="cls-2" points="13.68 15.11 0.59 28.2 13.68 28.2 13.68 15.11"/>
      <polygon class="cls-2" points="14.52 15.11 14.52 28.2 27.61 28.2 14.52 15.11"/>
    </g>
  </g>
</svg>
