<svg id="Layer_1" data-name="Layer 1" xmlns="http://www.w3.org/2000/svg" viewBox="0 0 277.91 28.2">
  <defs>
    <style>
      .cls-1 {
        fill: #231f20;
      }

      .cls-2 {
        fill: #981a31;
      }
    </style>
  </defs>
  <title>off-canvas-header-soc</title>
  <g>
    <g>
      <path class="cls-1" d="M38.93,11.35c-0.33-1-.89-2.21-2.25-2.21A1.61,1.61,0,0,0,35,10.81c0,1,.67,1.56,2.07,2.25,1.56,0.79,2.87,1.64,2.87,3.35s-1.54,3.25-3.87,3.25a5.21,5.21,0,0,1-1.62-.25,6,6,0,0,1-.94-0.34A19.8,19.8,0,0,1,33,16.37l0.56-.16c0.3,1,1.18,2.8,2.79,2.8a1.68,1.68,0,0,0,1.77-1.82c0-1-.79-1.66-2-2.3-1.46-.75-2.8-1.62-2.8-3.3s1.36-3.1,3.61-3.1a7.37,7.37,0,0,1,2.21.41c0.07,0.61.16,1.3,0.29,2.33Z"/>
      <path class="cls-1" d="M51.56,16.63a20.41,20.41,0,0,1-.92,2.59,15.78,15.78,0,0,1-3.05.43c-4.25,0-6.07-2.84-6.07-5.43,0-3.41,2.61-5.72,6.45-5.72a12.45,12.45,0,0,1,3,.44c0.13,0.9.25,1.64,0.36,2.61l-0.57.11a2.94,2.94,0,0,0-3.1-2.49c-2.51,0-3.87,2.26-3.87,4.72,0,3,1.67,5.05,4,5.05,1.49,0,2.44-.89,3.28-2.53Z"/>
      <path class="cls-1" d="M64.33,9.28c-1.3.11-1.41,0.2-1.41,1.59v6.41c0,1.38.13,1.48,1.41,1.59V19.4H59.54V18.88c1.33-.12,1.46-0.21,1.46-1.59V14.15H56.13v3.13c0,1.38.13,1.48,1.39,1.59V19.4H52.83V18.88c1.25-.12,1.39-0.21,1.39-1.59V10.87c0-1.39-.15-1.49-1.44-1.59V8.74h4.69V9.28c-1.21.1-1.34,0.2-1.34,1.59v2.49H61V10.87c0-1.39-.11-1.48-1.36-1.59V8.74h4.69V9.28Z"/>
      <path class="cls-1" d="M76.85,14a5.43,5.43,0,0,1-5.59,5.69,5.34,5.34,0,0,1-5.46-5.53,5.48,5.48,0,0,1,5.66-5.63A5.31,5.31,0,0,1,76.85,14ZM68,13.76C68,16.66,69.4,19,71.58,19c1.66,0,3.05-1.53,3.05-4.59,0-3.33-1.49-5.25-3.49-5.25C69.43,9.15,68,10.84,68,13.76Z"/>
      <path class="cls-1" d="M89.92,14a5.43,5.43,0,0,1-5.59,5.69,5.34,5.34,0,0,1-5.46-5.53,5.48,5.48,0,0,1,5.66-5.63A5.31,5.31,0,0,1,89.92,14Zm-8.84-.2c0,2.9,1.39,5.23,3.58,5.23,1.66,0,3.05-1.53,3.05-4.59,0-3.33-1.49-5.25-3.49-5.25C82.51,9.15,81.08,10.84,81.08,13.76Z"/>
      <path class="cls-1" d="M99.62,16.7c-0.13.64-.46,2.25-0.61,2.71H91.24V18.88c1.39-.12,1.56-0.23,1.56-1.62V10.87c0-1.39-.15-1.49-1.43-1.59V8.74h4.74V9.28c-1.26.1-1.41,0.2-1.41,1.59v6.45c0,0.8.07,1.12,0.39,1.26a3.67,3.67,0,0,0,1.34.16,2.11,2.11,0,0,0,1.74-.54,4.61,4.61,0,0,0,.89-1.64Z"/>
      <path class="cls-1" d="M115.77,14a5.43,5.43,0,0,1-5.59,5.69,5.34,5.34,0,0,1-5.46-5.53,5.48,5.48,0,0,1,5.66-5.63A5.31,5.31,0,0,1,115.77,14Zm-8.84-.2c0,2.9,1.39,5.23,3.58,5.23,1.66,0,3.05-1.53,3.05-4.59,0-3.33-1.49-5.25-3.49-5.25C108.35,9.15,106.93,10.84,106.93,13.76Z"/>
      <path class="cls-1" d="M124.48,11.3a3.51,3.51,0,0,0-.59-1.38c-0.31-.39-0.72-0.51-1.77-0.51h-1c-0.54,0-.61,0-0.61.56v3.71H122c1.46,0,1.59-.15,1.79-1.2h0.54v3.23h-0.54c-0.18-1.12-.33-1.28-1.79-1.28h-1.48v2.74c0,1.49.15,1.59,1.59,1.71V19.4h-4.89V18.88c1.25-.12,1.39-0.21,1.39-1.71V10.94c0-1.46-.15-1.56-1.36-1.66V8.74h7.56c0,0.39.1,1.57,0.18,2.48Z"/>
      <path class="cls-1" d="M140.56,16.63a20.41,20.41,0,0,1-.92,2.59,15.78,15.78,0,0,1-3.05.43c-4.25,0-6.07-2.84-6.07-5.43,0-3.41,2.61-5.72,6.45-5.72a12.45,12.45,0,0,1,3,.44c0.13,0.9.25,1.64,0.36,2.61l-0.57.11a2.94,2.94,0,0,0-3.1-2.49c-2.51,0-3.87,2.26-3.87,4.72,0,3,1.67,5.05,4,5.05,1.49,0,2.44-.89,3.28-2.53Z"/>
      <path class="cls-1" d="M153.1,14a5.43,5.43,0,0,1-5.59,5.69A5.34,5.34,0,0,1,142,14.12a5.48,5.48,0,0,1,5.66-5.63A5.31,5.31,0,0,1,153.1,14Zm-8.84-.2c0,2.9,1.39,5.23,3.58,5.23,1.66,0,3.05-1.53,3.05-4.59,0-3.33-1.49-5.25-3.49-5.25C145.68,9.15,144.26,10.84,144.26,13.76Z"/>
      <path class="cls-1" d="M163.31,19.4V18.88c1.28-.13,1.35-0.25,1.35-1.84l0-6.45h-0.07l-3.76,8.69h-0.43l-3.46-8.51h0l-0.21,4.43a20.62,20.62,0,0,0,0,2.67c0,0.75.39,0.89,1.49,1V19.4h-3.9V18.86c0.94-.08,1.25-0.34,1.35-1a29.41,29.41,0,0,0,.34-3.07l0.25-3.3c0.15-2,0-2.13-1.41-2.26V8.74h3.15l3.36,7.55,3.43-7.55h3.12V9.28c-1.36.13-1.44,0.21-1.41,1.71L166.54,17c0,1.59.1,1.71,1.44,1.84V19.4h-4.67Z"/>
      <path class="cls-1" d="M178.22,19.4V18.88c1.28-.13,1.35-0.25,1.35-1.84l0-6.45h-0.07l-3.76,8.69h-0.43l-3.46-8.51h0l-0.21,4.43a20.62,20.62,0,0,0,0,2.67c0,0.75.39,0.89,1.49,1V19.4h-3.9V18.86c0.94-.08,1.25-0.34,1.35-1a29.41,29.41,0,0,0,.34-3.07l0.25-3.3c0.15-2,0-2.13-1.41-2.26V8.74h3.15l3.36,7.55,3.43-7.55h3.12V9.28c-1.36.13-1.44,0.21-1.41,1.71L181.45,17c0,1.59.1,1.71,1.44,1.84V19.4h-4.67Z"/>
      <path class="cls-1" d="M195.52,9.28c-0.94,0-1.33.34-1.41,1a17.41,17.41,0,0,0-.12,2.41v1.62c0,1.8-.28,3.2-1.21,4.18a4.14,4.14,0,0,1-3,1.18,4.56,4.56,0,0,1-2.81-.82c-0.93-.74-1.39-2-1.39-3.87V11c0-1.53-.15-1.61-1.39-1.72V8.74h4.69V9.28c-1.23.1-1.38,0.2-1.38,1.72v3.63c0,2.53.93,4,2.8,4,2.1,0,2.92-1.66,2.92-4.4V12.66a16.92,16.92,0,0,0-.15-2.44c-0.1-.59-0.46-0.87-1.59-0.94V8.74h4V9.28Z"/>
      <path class="cls-1" d="M207.86,9.26c-0.89,0-1.25.28-1.33,1A20.68,20.68,0,0,0,206.4,13v6.54h-0.69l-6.89-8.33h0v3.85a25,25,0,0,0,.11,2.69c0.08,0.77.39,1,1.58,1.1V19.4h-4V18.88c0.92-.07,1.31-0.31,1.39-1a25.4,25.4,0,0,0,.13-2.74V11.59c0-1.12,0-1.34-.33-1.72a1.71,1.71,0,0,0-1.41-.61V8.74h2.82l6.48,7.56h0V13c0-1.48-.08-2.25-0.12-2.72-0.1-.71-0.44-1-1.62-1V8.74h4V9.26Z"/>
      <path class="cls-1" d="M209.12,19.4V18.88c1.26-.12,1.41-0.21,1.41-1.61V10.89c0-1.39-.15-1.51-1.41-1.61V8.74h4.71V9.28c-1.26.1-1.39,0.21-1.39,1.61v6.38c0,1.38.13,1.49,1.39,1.61V19.4h-4.71Z"/>
      <path class="cls-1" d="M225.35,16.63a20.49,20.49,0,0,1-.92,2.59,15.79,15.79,0,0,1-3.05.43c-4.25,0-6.07-2.84-6.07-5.43,0-3.41,2.61-5.72,6.45-5.72a12.44,12.44,0,0,1,3,.44c0.13,0.9.25,1.64,0.36,2.61l-0.57.11a2.94,2.94,0,0,0-3.1-2.49c-2.51,0-3.87,2.26-3.87,4.72,0,3,1.67,5.05,4,5.05,1.49,0,2.44-.89,3.28-2.53Z"/>
      <path class="cls-1" d="M232.72,19.4V18.88c1-.15,1.08-0.33.85-1s-0.46-1.31-.75-2.1h-3.26c-0.21.61-.44,1.23-0.64,1.89-0.28.89-.2,1.08,1,1.23V19.4h-3.62V18.88c1.07-.15,1.28-0.3,1.84-1.71l3.36-8.48,0.72-.2c1,2.85,2.08,5.81,3.15,8.63,0.54,1.44.75,1.62,1.8,1.76V19.4h-4.44Zm-1.48-8.22h0c-0.48,1.26-.92,2.54-1.38,3.77h2.72Z"/>
      <path class="cls-1" d="M246.06,11.45a3.92,3.92,0,0,0-.64-1.61c-0.29-.33-0.66-0.43-1.72-0.43h-0.89v7.86c0,1.36.15,1.49,1.64,1.61V19.4h-5.12V18.88c1.41-.12,1.57-0.25,1.57-1.61V9.41h-0.74c-1.34,0-1.66.15-1.89,0.46a4.09,4.09,0,0,0-.62,1.59H237.1c0.07-1.12.16-2.28,0.2-3.13h0.38a0.86,0.86,0,0,0,.92.41h6.56a1,1,0,0,0,.9-0.41h0.38c0,0.71.08,2.07,0.16,3.08Z"/>
      <path class="cls-1" d="M248,19.4V18.88c1.26-.12,1.41-0.21,1.41-1.61V10.89c0-1.39-.15-1.51-1.41-1.61V8.74h4.71V9.28c-1.26.1-1.39,0.21-1.39,1.61v6.38c0,1.38.13,1.49,1.39,1.61V19.4H248Z"/>
      <path class="cls-1" d="M265.22,14a5.42,5.42,0,0,1-5.59,5.69,5.35,5.35,0,0,1-5.46-5.53,5.49,5.49,0,0,1,5.66-5.63A5.31,5.31,0,0,1,265.22,14Zm-8.84-.2c0,2.9,1.39,5.23,3.58,5.23,1.66,0,3.05-1.53,3.05-4.59,0-3.33-1.49-5.25-3.49-5.25C257.81,9.15,256.38,10.84,256.38,13.76Z"/>
      <path class="cls-1" d="M277.91,9.26c-0.89,0-1.25.28-1.33,1a20.68,20.68,0,0,0-.13,2.74v6.54h-0.69l-6.89-8.33h0v3.85a25,25,0,0,0,.11,2.69c0.08,0.77.39,1,1.58,1.1V19.4h-4V18.88c0.92-.07,1.31-0.31,1.39-1a25.4,25.4,0,0,0,.13-2.74V11.59c0-1.12,0-1.34-.33-1.72a1.71,1.71,0,0,0-1.41-.61V8.74h2.82l6.48,7.56h0V13c0-1.48-.08-2.25-0.12-2.72-0.1-.71-0.44-1-1.62-1V8.74h4V9.26Z"/>
    </g>
    <g>
      <polygon class="cls-2" points="13.09 14.52 0 27.61 0 14.52 13.09 14.52"/>
      <polygon class="cls-2" points="0 13.68 0 0.59 13.09 13.68 0 13.68"/>
      <polygon class="cls-2" points="27.61 0 14.52 13.09 14.52 0 27.61 0"/>
      <polygon class="cls-2" points="13.68 13.09 0.59 0 13.68 0 13.68 13.09"/>
      <polygon class="cls-2" points="15.11 13.68 28.2 0.59 28.2 13.68 15.11 13.68"/>
      <polygon class="cls-2" points="28.2 14.52 28.2 27.61 15.11 14.52 28.2 14.52"/>
      <polygon class="cls-2" points="13.68 15.11 0.59 28.2 13.68 28.2 13.68 15.11"/>
      <polygon class="cls-2" points="14.52 15.11 14.52 28.2 27.61 28.2 14.52 15.11"/>
    </g>
  </g>
</svg>
