<svg id="Layer_1" data-name="Layer 1" xmlns="http://www.w3.org/2000/svg" viewBox="0 0 252.11 28.2">
  <defs>
    <style>
      .cls-1 {
        fill: #231f20;
      }

      .cls-2 {
        fill: #981a31;
      }
    </style>
  </defs>
  <title>off-canvas-header-asbe</title>
  <g>
    <g id="argyros">
      <path class="cls-1" d="M39.14,13.37V12.84c1-.15,1.08-0.33.85-1s-0.46-1.31-.75-2.1H36c-0.21.61-.44,1.23-0.64,1.89-0.28.89-.2,1.08,1,1.23v0.52H32.71V12.84c1.07-.15,1.28-0.3,1.84-1.71l3.36-8.48,0.72-.2c1,2.85,2.08,5.81,3.15,8.63,0.54,1.44.75,1.62,1.8,1.76v0.52H39.14ZM37.66,5.15h0c-0.48,1.26-.92,2.54-1.38,3.77H39Z"/>
      <path class="cls-1" d="M54.78,13.51l-0.51,0c-1.77-.08-2.43-0.51-3.12-1.56-0.48-.72-1-1.66-1.46-2.49a1.15,1.15,0,0,0-1.2-.69H48.12v2.48c0,1.35.15,1.49,1.41,1.61v0.52H44.8V12.84c1.26-.11,1.44-0.25,1.44-1.61V4.82c0-1.35-.15-1.48-1.38-1.57V2.7h4.41a5,5,0,0,1,2.82.59,2.51,2.51,0,0,1,1.1,2.18,2.89,2.89,0,0,1-2.07,2.71c0.26,0.51.89,1.61,1.38,2.35a11.2,11.2,0,0,0,1.3,1.76,2.22,2.22,0,0,0,1.07.74ZM48.66,8.15a2.55,2.55,0,0,0,1.67-.44,2.4,2.4,0,0,0,.82-2c0-1.75-1-2.41-2.1-2.41a1.42,1.42,0,0,0-.79.16,0.84,0.84,0,0,0-.15.66v4h0.54Z"/>
      <path class="cls-1" d="M66.41,8.85c-0.87.15-1,.23-1,1.26v1.35A7.22,7.22,0,0,0,65.56,13a16.2,16.2,0,0,1-3.72.61c-3.74,0-6.17-2.2-6.17-5.46,0-3.77,3.05-5.69,6.41-5.69a15,15,0,0,1,3.18.46c0,0.57.13,1.44,0.26,2.67L65,5.69a3,3,0,0,0-3.18-2.58c-2.17,0-3.92,1.8-3.92,4.77C57.86,10.31,59.14,13,62,13a2.49,2.49,0,0,0,1.12-.23,1,1,0,0,0,.43-1V10.27c0-1.15-.1-1.26-1.77-1.41V8.33h4.64V8.85Z"/>
      <path class="cls-1" d="M77.59,3.24a2.1,2.1,0,0,0-2,1.34c-0.66,1-1.13,1.84-1.92,3.35A1.88,1.88,0,0,0,73.4,9v2.15c0,1.44.13,1.54,1.61,1.66v0.52H69.94V12.84c1.41-.1,1.56-0.21,1.56-1.66v-2a1.72,1.72,0,0,0-.26-0.93c-0.49-.94-1.1-2-2-3.67-0.64-1.1-.87-1.26-1.8-1.38V2.7h4.4V3.24c-1.1.15-1.08,0.34-.79,0.92,0.62,1.2,1.33,2.46,2,3.67,0.52-1,1.38-2.54,1.79-3.54,0.31-.72.28-0.92-1-1V2.7h3.74V3.24Z"/>
      <path class="cls-1" d="M88.66,13.51l-0.51,0C86.38,13.41,85.73,13,85,11.94c-0.48-.72-1-1.66-1.46-2.49a1.15,1.15,0,0,0-1.2-.69H82v2.48c0,1.35.15,1.49,1.41,1.61v0.52H78.69V12.84c1.26-.11,1.44-0.25,1.44-1.61V4.82c0-1.35-.15-1.48-1.38-1.57V2.7h4.41A5,5,0,0,1,86,3.29a2.51,2.51,0,0,1,1.1,2.18A2.89,2.89,0,0,1,85,8.18c0.26,0.51.89,1.61,1.38,2.35a11.2,11.2,0,0,0,1.3,1.76,2.22,2.22,0,0,0,1.07.74ZM82.54,8.15a2.55,2.55,0,0,0,1.67-.44,2.4,2.4,0,0,0,.82-2c0-1.75-1-2.41-2.1-2.41a1.42,1.42,0,0,0-.79.16,0.84,0.84,0,0,0-.15.66v4h0.54Z"/>
      <path class="cls-1" d="M100.59,7.92A5.43,5.43,0,0,1,95,13.61a5.35,5.35,0,0,1-5.46-5.53,5.48,5.48,0,0,1,5.66-5.63A5.31,5.31,0,0,1,100.59,7.92Zm-8.84-.2c0,2.9,1.39,5.23,3.58,5.23,1.66,0,3.05-1.53,3.05-4.59,0-3.33-1.49-5.25-3.49-5.25C93.18,3.11,91.75,4.8,91.75,7.72Z"/>
      <path class="cls-1" d="M108.14,5.31c-0.33-1-.89-2.21-2.25-2.21a1.61,1.61,0,0,0-1.67,1.67c0,1,.67,1.56,2.07,2.25,1.56,0.79,2.87,1.64,2.87,3.35s-1.54,3.25-3.87,3.25a5.21,5.21,0,0,1-1.62-.25,6,6,0,0,1-.94-0.34,19.78,19.78,0,0,1-.48-2.69l0.56-.16c0.3,1,1.18,2.81,2.79,2.81a1.68,1.68,0,0,0,1.77-1.82c0-1-.79-1.66-2-2.3-1.46-.75-2.8-1.62-2.8-3.3s1.36-3.1,3.61-3.1a7.37,7.37,0,0,1,2.21.41c0.07,0.61.16,1.3,0.29,2.33Z"/>
      <path class="cls-1" d="M120.53,5.31c-0.33-1-.89-2.21-2.25-2.21a1.61,1.61,0,0,0-1.67,1.67c0,1,.67,1.56,2.07,2.25,1.56,0.79,2.87,1.64,2.87,3.35s-1.54,3.25-3.87,3.25a5.21,5.21,0,0,1-1.62-.25,6,6,0,0,1-.94-0.34,19.78,19.78,0,0,1-.48-2.69l0.56-.16c0.3,1,1.18,2.81,2.79,2.81a1.68,1.68,0,0,0,1.77-1.82c0-1-.79-1.66-2-2.3-1.46-.75-2.8-1.62-2.8-3.3s1.36-3.1,3.61-3.1a7.37,7.37,0,0,1,2.21.41c0.07,0.61.16,1.3,0.29,2.33Z"/>
      <path class="cls-1" d="M133.16,10.59a20.42,20.42,0,0,1-.92,2.59,15.78,15.78,0,0,1-3.05.43c-4.25,0-6.07-2.84-6.07-5.43,0-3.41,2.61-5.72,6.45-5.72a12.45,12.45,0,0,1,3,.44c0.13,0.9.25,1.64,0.36,2.61l-0.57.11a2.94,2.94,0,0,0-3.1-2.49c-2.51,0-3.87,2.26-3.87,4.72,0,3,1.67,5.05,4,5.05,1.49,0,2.44-.89,3.28-2.53Z"/>
      <path class="cls-1" d="M145.93,3.24c-1.3.11-1.41,0.2-1.41,1.59v6.41c0,1.38.13,1.48,1.41,1.59v0.52h-4.79V12.84c1.33-.11,1.46-0.21,1.46-1.59V8.12h-4.87v3.13c0,1.38.13,1.48,1.39,1.59v0.52h-4.69V12.84c1.25-.11,1.39-0.21,1.39-1.59V4.84c0-1.39-.15-1.49-1.44-1.59V2.7h4.69V3.24c-1.21.1-1.34,0.2-1.34,1.59V7.33h4.87V4.84c0-1.39-.11-1.48-1.36-1.59V2.7h4.69V3.24Z"/>
      <path class="cls-1" d="M158.45,7.92a5.43,5.43,0,0,1-5.59,5.69,5.35,5.35,0,0,1-5.46-5.53,5.48,5.48,0,0,1,5.66-5.63A5.31,5.31,0,0,1,158.45,7.92Zm-8.84-.2c0,2.9,1.39,5.23,3.58,5.23,1.66,0,3.05-1.53,3.05-4.59,0-3.33-1.49-5.25-3.49-5.25C151,3.11,149.61,4.8,149.61,7.72Z"/>
      <path class="cls-1" d="M171.53,7.92a5.43,5.43,0,0,1-5.59,5.69,5.35,5.35,0,0,1-5.46-5.53,5.48,5.48,0,0,1,5.66-5.63A5.31,5.31,0,0,1,171.53,7.92Zm-8.84-.2c0,2.9,1.39,5.23,3.58,5.23,1.66,0,3.05-1.53,3.05-4.59,0-3.33-1.49-5.25-3.49-5.25C164.11,3.11,162.69,4.8,162.69,7.72Z"/>
      <path class="cls-1" d="M181.23,10.66c-0.13.64-.46,2.25-0.61,2.71h-7.78V12.84c1.39-.11,1.56-0.23,1.56-1.62V4.84c0-1.39-.15-1.49-1.43-1.59V2.7h4.74V3.24c-1.26.1-1.41,0.2-1.41,1.59v6.45c0,0.8.07,1.12,0.39,1.26a3.68,3.68,0,0,0,1.34.16,2.11,2.11,0,0,0,1.74-.54,4.62,4.62,0,0,0,.89-1.64Z"/>
      <path class="cls-1" d="M197.37,7.92a5.43,5.43,0,0,1-5.59,5.69,5.35,5.35,0,0,1-5.46-5.53A5.49,5.49,0,0,1,192,2.46,5.31,5.31,0,0,1,197.37,7.92Zm-8.84-.2c0,2.9,1.39,5.23,3.58,5.23,1.66,0,3.05-1.53,3.05-4.59,0-3.33-1.49-5.25-3.49-5.25C190,3.11,188.53,4.8,188.53,7.72Z"/>
      <path class="cls-1" d="M206.08,5.26a3.48,3.48,0,0,0-.59-1.38c-0.31-.39-0.72-0.51-1.77-0.51h-1c-0.54,0-.61,0-0.61.56V7.64h1.48c1.46,0,1.59-.15,1.79-1.2H206V9.67h-0.54c-0.18-1.12-.33-1.28-1.79-1.28h-1.48v2.74c0,1.49.15,1.59,1.59,1.71v0.52h-4.89V12.84c1.25-.11,1.39-0.21,1.39-1.71V4.9c0-1.46-.15-1.56-1.36-1.66V2.7h7.56c0,0.39.1,1.57,0.18,2.48Z"/>
      <path class="cls-1" d="M38.8,21c1.8,0.23,3.07,1,3.07,2.58A2.72,2.72,0,0,1,40.32,26a7,7,0,0,1-3.38.69H33V26.16c1.31-.1,1.44-0.21,1.44-1.59v-6.4c0-1.38-.11-1.49-1.33-1.59V16h4.58a4.58,4.58,0,0,1,2.62.57,2.16,2.16,0,0,1,1,1.85c0,1.57-1.35,2.21-2.44,2.44V21Zm-2-.23c1.66,0,2.38-.66,2.38-2a1.84,1.84,0,0,0-1.92-2.07,1.41,1.41,0,0,0-.8.2,0.93,0.93,0,0,0-.18.74v3.15h0.52ZM36.3,24.53c0,1.2.33,1.54,1.26,1.53a2.13,2.13,0,0,0,2.17-2.35c0-1.58-1-2.35-2.94-2.35H36.3v3.17Z"/>
      <path class="cls-1" d="M54.42,16.58c-0.94,0-1.33.34-1.41,1A17.45,17.45,0,0,0,52.89,20v1.62c0,1.8-.28,3.2-1.21,4.18a4.15,4.15,0,0,1-3,1.18,4.56,4.56,0,0,1-2.8-.82c-0.94-.74-1.39-2-1.39-3.87v-4c0-1.53-.15-1.61-1.39-1.72V16h4.69v0.54c-1.23.1-1.38,0.2-1.38,1.72v3.63c0,2.53.94,4,2.8,4,2.1,0,2.92-1.66,2.92-4.4V20A16.91,16.91,0,0,0,52,17.51c-0.1-.59-0.46-0.87-1.59-0.94V16h4v0.54Z"/>
      <path class="cls-1" d="M61.44,18.64c-0.33-1-.89-2.21-2.25-2.21a1.61,1.61,0,0,0-1.67,1.67c0,1,.67,1.56,2.07,2.25,1.56,0.79,2.87,1.64,2.87,3.35s-1.54,3.25-3.87,3.25A5.21,5.21,0,0,1,57,26.7,5.86,5.86,0,0,1,56,26.35a19.76,19.76,0,0,1-.48-2.69l0.56-.16c0.3,1,1.18,2.8,2.79,2.8a1.68,1.68,0,0,0,1.77-1.82c0-1-.79-1.66-2-2.3-1.46-.75-2.8-1.62-2.8-3.3s1.36-3.1,3.61-3.1a7.38,7.38,0,0,1,2.21.41c0.07,0.61.16,1.3,0.29,2.33Z"/>
      <path class="cls-1" d="M63.76,26.7V26.17c1.26-.11,1.41-0.21,1.41-1.61V18.18c0-1.39-.15-1.51-1.41-1.61V16h4.71v0.54c-1.26.1-1.39,0.21-1.39,1.61v6.38c0,1.38.13,1.49,1.39,1.61V26.7H63.76Z"/>
      <path class="cls-1" d="M81.28,16.56c-0.89,0-1.25.28-1.33,1a20.62,20.62,0,0,0-.13,2.74v6.54H79.13l-6.89-8.33h0v3.85a24.75,24.75,0,0,0,.12,2.69c0.08,0.77.39,1,1.57,1.1V26.7h-4V26.17c0.92-.07,1.31-0.31,1.39-1a25.25,25.25,0,0,0,.13-2.74V18.89c0-1.12,0-1.35-.33-1.72a1.71,1.71,0,0,0-1.41-.61V16h2.82L79,23.6h0V20.32c0-1.48-.08-2.25-0.12-2.72-0.1-.71-0.44-1-1.62-1V16h4v0.53Z"/>
      <path class="cls-1" d="M91.14,24c-0.1.66-.43,2.18-0.57,2.67h-8.2V26.17c1.43-.11,1.57-0.23,1.57-1.61V18.18c0-1.44-.15-1.51-1.35-1.61V16h7.56c0,0.33.1,1.48,0.16,2.43l-0.56.08a3.45,3.45,0,0,0-.61-1.41,2.11,2.11,0,0,0-1.72-.43h-1c-0.57,0-.62,0-0.62.56v3.56h1.26c1.41,0,1.57-.1,1.79-1.23h0.56v3.25H88.91c-0.21-1.18-.38-1.25-1.79-1.25H85.86v2.92a1.39,1.39,0,0,0,.39,1.34,3.81,3.81,0,0,0,1.54.18,2.33,2.33,0,0,0,1.92-.54,5.47,5.47,0,0,0,.89-1.58Z"/>
      <path class="cls-1" d="M98.23,18.64c-0.33-1-.89-2.21-2.25-2.21a1.61,1.61,0,0,0-1.67,1.67c0,1,.67,1.56,2.07,2.25,1.56,0.79,2.87,1.64,2.87,3.35s-1.54,3.25-3.87,3.25a5.21,5.21,0,0,1-1.62-.25,5.86,5.86,0,0,1-.94-0.34,19.76,19.76,0,0,1-.48-2.69l0.56-.16c0.3,1,1.18,2.8,2.79,2.8a1.68,1.68,0,0,0,1.77-1.82c0-1-.79-1.66-2-2.3-1.46-.75-2.8-1.62-2.8-3.3s1.36-3.1,3.61-3.1a7.38,7.38,0,0,1,2.21.41c0.07,0.61.16,1.3,0.29,2.33Z"/>
      <path class="cls-1" d="M106.66,18.64c-0.33-1-.89-2.21-2.25-2.21a1.61,1.61,0,0,0-1.67,1.67c0,1,.67,1.56,2.07,2.25,1.56,0.79,2.87,1.64,2.87,3.35s-1.54,3.25-3.87,3.25a5.21,5.21,0,0,1-1.62-.25,5.86,5.86,0,0,1-.94-0.34,19.76,19.76,0,0,1-.48-2.69l0.56-.16c0.3,1,1.18,2.8,2.79,2.8a1.68,1.68,0,0,0,1.77-1.82c0-1-.79-1.66-2-2.3-1.46-.75-2.8-1.62-2.8-3.3s1.36-3.1,3.61-3.1a7.38,7.38,0,0,1,2.21.41c0.07,0.61.16,1.3,0.29,2.33Z"/>
      <path class="cls-1" d="M119.27,26.7V26.17c1-.15,1.08-0.33.85-1s-0.46-1.31-.75-2.1H116.1c-0.21.61-.44,1.23-0.64,1.89-0.28.89-.2,1.08,1,1.23V26.7h-3.62V26.17c1.07-.15,1.28-0.29,1.84-1.71L118,16l0.72-.2c1,2.85,2.08,5.81,3.15,8.63,0.54,1.44.75,1.62,1.8,1.75V26.7h-4.45Zm-1.48-8.22h0c-0.48,1.26-.92,2.54-1.38,3.77h2.72Z"/>
      <path class="cls-1" d="M136.18,16.56c-0.89,0-1.25.28-1.33,1a20.62,20.62,0,0,0-.13,2.74v6.54H134l-6.89-8.33h0v3.85a24.93,24.93,0,0,0,.11,2.69c0.08,0.77.39,1,1.58,1.1V26.7h-4V26.17c0.92-.07,1.31-0.31,1.39-1a25.25,25.25,0,0,0,.13-2.74V18.89c0-1.12,0-1.35-.33-1.72a1.71,1.71,0,0,0-1.41-.61V16h2.82l6.48,7.56h0V20.32c0-1.48-.08-2.25-0.12-2.72-0.1-.71-0.44-1-1.62-1V16h4v0.53Z"/>
      <path class="cls-1" d="M142.32,16A6.57,6.57,0,0,1,147,17.45,4.7,4.7,0,0,1,148.42,21a5.24,5.24,0,0,1-2,4.38,8,8,0,0,1-4.94,1.36h-4.1V26.17c1.35-.11,1.49-0.21,1.49-1.61V18.18c0-1.41-.15-1.51-1.35-1.61V16h4.82Zm-1.56,8.42c0,1.2.36,1.57,1.51,1.57,2.51,0,4-2,4-4.77a4.57,4.57,0,0,0-1.49-3.69,4,4,0,0,0-2.71-.9,1.94,1.94,0,0,0-1.13.23,1.33,1.33,0,0,0-.18.92v6.64Z"/>
      <path class="cls-1" d="M162.65,24c-0.1.66-.43,2.18-0.57,2.67h-8.2V26.17c1.43-.11,1.57-0.23,1.57-1.61V18.18c0-1.44-.15-1.51-1.35-1.61V16h7.56c0,0.33.1,1.48,0.16,2.43l-0.56.08a3.45,3.45,0,0,0-.61-1.41,2.11,2.11,0,0,0-1.72-.43h-1c-0.57,0-.62,0-0.62.56v3.56h1.26c1.41,0,1.57-.1,1.79-1.23H161v3.25h-0.56c-0.21-1.18-.38-1.25-1.79-1.25h-1.26v2.92a1.39,1.39,0,0,0,.39,1.34,3.81,3.81,0,0,0,1.54.18,2.33,2.33,0,0,0,1.92-.54,5.47,5.47,0,0,0,.89-1.58Z"/>
      <path class="cls-1" d="M173.94,23.92a20.38,20.38,0,0,1-.92,2.59,15.78,15.78,0,0,1-3.05.43c-4.25,0-6.07-2.84-6.07-5.43,0-3.41,2.61-5.72,6.45-5.72a12.41,12.41,0,0,1,3,.44c0.13,0.9.25,1.64,0.36,2.61l-0.57.12a2.94,2.94,0,0,0-3.1-2.49c-2.51,0-3.87,2.26-3.87,4.72,0,3,1.67,5.05,4,5.05,1.49,0,2.44-.89,3.28-2.53Z"/>
      <path class="cls-1" d="M186.47,21.25a5.43,5.43,0,0,1-5.59,5.69,5.35,5.35,0,0,1-5.46-5.53,5.48,5.48,0,0,1,5.66-5.63A5.31,5.31,0,0,1,186.47,21.25Zm-8.84-.2c0,2.9,1.39,5.23,3.58,5.23,1.66,0,3.05-1.53,3.05-4.59,0-3.33-1.49-5.25-3.49-5.25C179.06,16.45,177.63,18.13,177.63,21.05Z"/>
      <path class="cls-1" d="M199.16,16.56c-0.89,0-1.25.28-1.33,1a20.68,20.68,0,0,0-.13,2.74v6.54H197l-6.89-8.33h0v3.85a25,25,0,0,0,.11,2.69c0.08,0.77.39,1,1.58,1.1V26.7h-4V26.17c0.92-.07,1.31-0.31,1.39-1a25.43,25.43,0,0,0,.13-2.74V18.89c0-1.12,0-1.35-.33-1.72a1.71,1.71,0,0,0-1.41-.61V16h2.82l6.48,7.56h0V20.32c0-1.48-.08-2.25-0.12-2.72-0.1-.71-0.44-1-1.62-1V16h4v0.53Z"/>
      <path class="cls-1" d="M211.42,21.25a5.43,5.43,0,0,1-5.59,5.69,5.35,5.35,0,0,1-5.46-5.53A5.48,5.48,0,0,1,206,15.79,5.31,5.31,0,0,1,211.42,21.25Zm-8.84-.2c0,2.9,1.39,5.23,3.58,5.23,1.66,0,3.05-1.53,3.05-4.59,0-3.33-1.49-5.25-3.49-5.25C204,16.45,202.58,18.13,202.58,21.05Z"/>
      <path class="cls-1" d="M221.62,26.7V26.17C222.9,26,223,25.93,223,24.33l0-6.45h-0.07l-3.76,8.69h-0.43l-3.46-8.51h0l-0.21,4.43a20.39,20.39,0,0,0,0,2.67c0,0.75.39,0.89,1.49,1V26.7h-3.9V26.16c0.93-.08,1.25-0.34,1.34-1a29.48,29.48,0,0,0,.34-3.07l0.25-3.3c0.15-2,0-2.13-1.41-2.26V16h3.15l3.36,7.55L223,16h3.12v0.54c-1.36.13-1.44,0.21-1.41,1.71l0.16,6.05c0,1.59.1,1.71,1.44,1.84V26.7h-4.67Z"/>
      <path class="cls-1" d="M227.71,26.7V26.17c1.26-.11,1.41-0.21,1.41-1.61V18.18c0-1.39-.15-1.51-1.41-1.61V16h4.71v0.54c-1.26.1-1.39,0.21-1.39,1.61v6.38c0,1.38.13,1.49,1.39,1.61V26.7h-4.71Z"/>
      <path class="cls-1" d="M243.94,23.92a20.45,20.45,0,0,1-.92,2.59,15.79,15.79,0,0,1-3.05.43c-4.25,0-6.07-2.84-6.07-5.43,0-3.41,2.61-5.72,6.45-5.72a12.41,12.41,0,0,1,3,.44c0.13,0.9.25,1.64,0.36,2.61l-0.57.12a2.94,2.94,0,0,0-3.1-2.49c-2.51,0-3.87,2.26-3.87,4.72,0,3,1.67,5.05,4,5.05,1.49,0,2.44-.89,3.28-2.53Z"/>
      <path class="cls-1" d="M251.1,18.64c-0.33-1-.89-2.21-2.25-2.21a1.61,1.61,0,0,0-1.67,1.67c0,1,.67,1.56,2.07,2.25,1.56,0.79,2.87,1.64,2.87,3.35s-1.54,3.25-3.87,3.25a5.2,5.2,0,0,1-1.62-.25,5.85,5.85,0,0,1-.94-0.34,19.83,19.83,0,0,1-.48-2.69l0.56-.16c0.3,1,1.18,2.8,2.79,2.8a1.68,1.68,0,0,0,1.77-1.82c0-1-.79-1.66-2-2.3-1.46-.75-2.81-1.62-2.81-3.3s1.36-3.1,3.61-3.1a7.37,7.37,0,0,1,2.21.41c0.07,0.61.16,1.3,0.3,2.33Z"/>
    </g>
    <g>
      <polygon class="cls-2" points="13.09 14.52 0 27.61 0 14.52 13.09 14.52"/>
      <polygon class="cls-2" points="0 13.68 0 0.59 13.09 13.68 0 13.68"/>
      <polygon class="cls-2" points="27.61 0 14.52 13.09 14.52 0 27.61 0"/>
      <polygon class="cls-2" points="13.68 13.09 0.59 0 13.68 0 13.68 13.09"/>
      <polygon class="cls-2" points="15.11 13.68 28.2 0.59 28.2 13.68 15.11 13.68"/>
      <polygon class="cls-2" points="28.2 14.52 28.2 27.61 15.11 14.52 28.2 14.52"/>
      <polygon class="cls-2" points="13.68 15.11 0.59 28.2 13.68 28.2 13.68 15.11"/>
      <polygon class="cls-2" points="14.52 15.11 14.52 28.2 27.61 28.2 14.52 15.11"/>
    </g>
  </g>
</svg>
