<svg id="Layer_1" data-name="Layer 1" xmlns="http://www.w3.org/2000/svg" viewBox="0 0 222.66 28.2">
  <defs>
    <style>
      .cls-1 {
        fill: #231f20;
      }

      .cls-2 {
        fill: #981a31;
      }
    </style>
  </defs>
  <title>off-canvas-header-ces</title>
  <g>
    <g id="ces">
      <path class="cls-1" d="M43.13,10.59a20.42,20.42,0,0,1-.92,2.59,15.78,15.78,0,0,1-3.05.43c-4.25,0-6.07-2.84-6.07-5.43,0-3.41,2.61-5.72,6.45-5.72a12.45,12.45,0,0,1,3,.44c0.13,0.9.25,1.64,0.36,2.61l-0.57.11a2.94,2.94,0,0,0-3.1-2.49c-2.51,0-3.87,2.26-3.87,4.72,0,3,1.67,5.05,4,5.05,1.49,0,2.44-.89,3.28-2.53Z"/>
      <path class="cls-1" d="M55.66,7.92a5.43,5.43,0,0,1-5.59,5.69,5.35,5.35,0,0,1-5.46-5.53,5.48,5.48,0,0,1,5.66-5.63A5.31,5.31,0,0,1,55.66,7.92Zm-8.84-.2c0,2.9,1.39,5.23,3.58,5.23,1.66,0,3.05-1.53,3.05-4.59C53.45,5,52,3.11,50,3.11,48.25,3.11,46.82,4.8,46.82,7.72Z"/>
      <path class="cls-1" d="M65.36,10.66c-0.13.64-.46,2.25-0.61,2.71H57V12.84c1.39-.11,1.56-0.23,1.56-1.62V4.84c0-1.39-.15-1.49-1.43-1.59V2.7h4.74V3.24c-1.26.1-1.41,0.2-1.41,1.59v6.45c0,0.8.07,1.12,0.39,1.26a3.68,3.68,0,0,0,1.34.16,2.11,2.11,0,0,0,1.74-.54,4.62,4.62,0,0,0,.89-1.64Z"/>
      <path class="cls-1" d="M74.65,10.66c-0.13.64-.46,2.25-0.61,2.71H66.27V12.84c1.39-.11,1.56-0.23,1.56-1.62V4.84c0-1.39-.15-1.49-1.43-1.59V2.7h4.74V3.24c-1.26.1-1.41,0.2-1.41,1.59v6.45c0,0.8.07,1.12,0.39,1.26a3.68,3.68,0,0,0,1.34.16,2.11,2.11,0,0,0,1.74-.54,4.62,4.62,0,0,0,.89-1.64Z"/>
      <path class="cls-1" d="M84.3,10.69c-0.1.66-.43,2.18-0.57,2.67h-8.2V12.84c1.43-.11,1.57-0.23,1.57-1.61V4.85c0-1.44-.15-1.51-1.35-1.61V2.7h7.56c0,0.33.1,1.48,0.16,2.43l-0.56.08a3.44,3.44,0,0,0-.61-1.41,2.11,2.11,0,0,0-1.72-.43h-1c-0.57,0-.62,0-0.62.56V7.49h1.26c1.41,0,1.57-.1,1.79-1.23h0.56V9.51H82.07c-0.21-1.18-.38-1.25-1.79-1.25H79v2.92a1.4,1.4,0,0,0,.39,1.35,3.81,3.81,0,0,0,1.54.18,2.33,2.33,0,0,0,1.92-.54,5.48,5.48,0,0,0,.89-1.57Z"/>
      <path class="cls-1" d="M96.32,8.85c-0.87.15-1,.23-1,1.26v1.35A7.22,7.22,0,0,0,95.47,13a16.2,16.2,0,0,1-3.72.61c-3.74,0-6.17-2.2-6.17-5.46,0-3.77,3.05-5.69,6.41-5.69a15,15,0,0,1,3.18.46c0,0.57.13,1.44,0.26,2.67l-0.56.1A3,3,0,0,0,91.7,3.11c-2.17,0-3.92,1.8-3.92,4.77,0,2.43,1.28,5.08,4.13,5.08A2.49,2.49,0,0,0,93,12.74a1,1,0,0,0,.43-1V10.27c0-1.15-.1-1.26-1.77-1.41V8.33h4.64V8.85Z"/>
      <path class="cls-1" d="M106.27,10.69c-0.1.66-.43,2.18-0.57,2.67h-8.2V12.84c1.43-.11,1.57-0.23,1.57-1.61V4.85c0-1.44-.15-1.51-1.35-1.61V2.7h7.56c0,0.33.1,1.48,0.16,2.43l-0.56.08a3.44,3.44,0,0,0-.61-1.41,2.11,2.11,0,0,0-1.72-.43h-1c-0.57,0-.62,0-0.62.56V7.49h1.26c1.41,0,1.57-.1,1.79-1.23h0.56V9.51H104c-0.21-1.18-.38-1.25-1.79-1.25H101v2.92a1.4,1.4,0,0,0,.39,1.35,3.81,3.81,0,0,0,1.54.18,2.33,2.33,0,0,0,1.92-.54,5.48,5.48,0,0,0,.89-1.57Z"/>
      <path class="cls-1" d="M122.55,7.92A5.43,5.43,0,0,1,117,13.61a5.35,5.35,0,0,1-5.46-5.53,5.48,5.48,0,0,1,5.66-5.63A5.31,5.31,0,0,1,122.55,7.92Zm-8.84-.2c0,2.9,1.39,5.23,3.58,5.23,1.66,0,3.05-1.53,3.05-4.59,0-3.33-1.49-5.25-3.49-5.25C115.13,3.11,113.7,4.8,113.7,7.72Z"/>
      <path class="cls-1" d="M131.26,5.26a3.51,3.51,0,0,0-.59-1.38c-0.31-.39-0.72-0.51-1.77-0.51h-1c-0.54,0-.61,0-0.61.56V7.64h1.48c1.46,0,1.59-.15,1.79-1.2h0.54V9.67h-0.54c-0.18-1.12-.33-1.28-1.79-1.28h-1.48v2.74c0,1.49.15,1.59,1.59,1.71v0.52H124V12.84c1.25-.11,1.39-0.21,1.39-1.71V4.9c0-1.46-.15-1.56-1.36-1.66V2.7h7.56c0,0.39.1,1.57,0.18,2.48Z"/>
      <path class="cls-1" d="M41.62,24c-0.1.66-.43,2.18-0.57,2.67h-8.2V26.17c1.43-.11,1.57-0.23,1.57-1.61V18.18c0-1.44-.15-1.51-1.35-1.61V16h7.56c0,0.33.1,1.48,0.16,2.43l-0.56.08a3.45,3.45,0,0,0-.61-1.41,2.11,2.11,0,0,0-1.72-.43H37c-0.57,0-.62,0-0.62.56v3.56H37.6c1.41,0,1.57-.1,1.79-1.23h0.56v3.25H39.39C39.17,21.66,39,21.6,37.6,21.6H36.34v2.92a1.39,1.39,0,0,0,.39,1.34,3.81,3.81,0,0,0,1.54.18,2.33,2.33,0,0,0,1.92-.54,5.47,5.47,0,0,0,.89-1.58Z"/>
      <path class="cls-1" d="M47.67,16a6.57,6.57,0,0,1,4.67,1.41A4.7,4.7,0,0,1,53.78,21a5.24,5.24,0,0,1-2,4.38A8,8,0,0,1,46.8,26.7H42.7V26.17C44,26.06,44.2,26,44.2,24.56V18.18c0-1.41-.15-1.51-1.35-1.61V16h4.82Zm-1.56,8.42c0,1.2.36,1.57,1.51,1.57,2.51,0,4-2,4-4.77a4.57,4.57,0,0,0-1.49-3.69,4,4,0,0,0-2.71-.9,1.94,1.94,0,0,0-1.13.23,1.33,1.33,0,0,0-.18.92v6.64Z"/>
      <path class="cls-1" d="M66.49,16.58c-0.94,0-1.33.34-1.41,1A17.45,17.45,0,0,0,65,20v1.62c0,1.8-.28,3.2-1.21,4.18a4.15,4.15,0,0,1-3,1.18,4.56,4.56,0,0,1-2.8-.82c-0.94-.74-1.39-2-1.39-3.87v-4c0-1.53-.15-1.61-1.39-1.72V16h4.69v0.54c-1.23.1-1.38,0.2-1.38,1.72v3.63c0,2.53.94,4,2.8,4,2.1,0,2.92-1.66,2.92-4.4V20A16.91,16.91,0,0,0,64,17.51c-0.1-.59-0.46-0.87-1.59-0.94V16h4v0.54Z"/>
      <path class="cls-1" d="M77.72,23.92a20.38,20.38,0,0,1-.92,2.59,15.78,15.78,0,0,1-3.05.43c-4.25,0-6.07-2.84-6.07-5.43,0-3.41,2.61-5.72,6.45-5.72a12.41,12.41,0,0,1,3,.44c0.13,0.9.25,1.64,0.36,2.61L76.86,19a2.94,2.94,0,0,0-3.1-2.49c-2.51,0-3.87,2.26-3.87,4.72,0,3,1.67,5.05,4,5.05,1.49,0,2.44-.89,3.28-2.53Z"/>
      <path class="cls-1" d="M85.09,26.7V26.17c1-.15,1.08-0.33.85-1s-0.46-1.31-.75-2.1H81.92c-0.21.61-.44,1.23-0.64,1.89-0.28.89-.2,1.08,1,1.23V26.7H78.66V26.17c1.07-.15,1.28-0.29,1.84-1.71L83.86,16l0.72-.2c1,2.85,2.08,5.81,3.15,8.63,0.54,1.44.75,1.62,1.8,1.75V26.7H85.09Zm-1.48-8.22h0c-0.48,1.26-.92,2.54-1.38,3.77h2.72Z"/>
      <path class="cls-1" d="M98.43,18.74a3.94,3.94,0,0,0-.64-1.61c-0.3-.33-0.66-0.43-1.72-0.43H95.18v7.86c0,1.36.15,1.49,1.64,1.61V26.7H91.7V26.17c1.41-.11,1.57-0.25,1.57-1.61V16.71H92.54c-1.35,0-1.66.15-1.89,0.46A4.09,4.09,0,0,0,90,18.76H89.47c0.07-1.12.16-2.28,0.2-3.13H90A0.86,0.86,0,0,0,91,16h6.56a1,1,0,0,0,.9-0.41H98.8c0,0.71.08,2.07,0.16,3.08Z"/>
      <path class="cls-1" d="M100.33,26.7V26.17c1.26-.11,1.41-0.21,1.41-1.61V18.18c0-1.39-.15-1.51-1.41-1.61V16H105v0.54c-1.26.1-1.39,0.21-1.39,1.61v6.38c0,1.38.13,1.49,1.39,1.61V26.7h-4.71Z"/>
      <path class="cls-1" d="M117.59,21.25A5.43,5.43,0,0,1,112,26.94a5.35,5.35,0,0,1-5.46-5.53,5.48,5.48,0,0,1,5.66-5.63A5.31,5.31,0,0,1,117.59,21.25Zm-8.84-.2c0,2.9,1.39,5.23,3.58,5.23,1.66,0,3.05-1.53,3.05-4.59,0-3.33-1.49-5.25-3.49-5.25C110.18,16.45,108.75,18.13,108.75,21.05Z"/>
      <path class="cls-1" d="M130.27,16.56c-0.89,0-1.25.28-1.33,1a20.62,20.62,0,0,0-.13,2.74v6.54h-0.69l-6.89-8.33h0v3.85a24.93,24.93,0,0,0,.11,2.69c0.08,0.77.39,1,1.58,1.1V26.7h-4V26.17c0.92-.07,1.31-0.31,1.39-1a25.25,25.25,0,0,0,.13-2.74V18.89c0-1.12,0-1.35-.33-1.72a1.71,1.71,0,0,0-1.41-.61V16h2.82L128,23.6h0V20.32c0-1.48-.08-2.25-0.12-2.72-0.1-.71-0.44-1-1.62-1V16h4v0.53Z"/>
      <path class="cls-1" d="M137,26.7V26.17c1-.15,1.08-0.33.85-1s-0.46-1.31-.75-2.1h-3.26c-0.21.61-.44,1.23-0.64,1.89-0.28.89-.2,1.08,1,1.23V26.7h-3.63V26.17c1.07-.15,1.28-0.29,1.84-1.71L135.72,16l0.72-.2c1,2.85,2.08,5.81,3.15,8.63,0.54,1.44.75,1.62,1.8,1.75V26.7H137Zm-1.48-8.22h0c-0.48,1.26-.92,2.54-1.38,3.77h2.72Z"/>
      <path class="cls-1" d="M150.89,24c-0.13.64-.46,2.25-0.61,2.71H142.5V26.17c1.39-.11,1.56-0.23,1.56-1.62V18.17c0-1.39-.15-1.49-1.43-1.59V16h4.74v0.54c-1.26.1-1.41,0.2-1.41,1.59v6.45c0,0.8.07,1.12,0.39,1.26a3.67,3.67,0,0,0,1.34.16,2.11,2.11,0,0,0,1.74-.54,4.62,4.62,0,0,0,.89-1.64Z"/>
      <path class="cls-1" d="M161.8,18.64c-0.33-1-.89-2.21-2.25-2.21a1.61,1.61,0,0,0-1.67,1.67c0,1,.67,1.56,2.07,2.25,1.56,0.79,2.87,1.64,2.87,3.35s-1.54,3.25-3.87,3.25a5.21,5.21,0,0,1-1.62-.25,5.86,5.86,0,0,1-.94-0.34,19.76,19.76,0,0,1-.48-2.69l0.56-.16c0.3,1,1.18,2.8,2.79,2.8A1.68,1.68,0,0,0,161,24.48c0-1-.79-1.66-2-2.3-1.46-.75-2.8-1.62-2.8-3.3s1.36-3.1,3.61-3.1a7.38,7.38,0,0,1,2.21.41c0.07,0.61.16,1.3,0.29,2.33Z"/>
      <path class="cls-1" d="M173,18.74a3.94,3.94,0,0,0-.64-1.61c-0.3-.33-0.66-0.43-1.72-0.43h-0.89v7.86c0,1.36.15,1.49,1.64,1.61V26.7h-5.12V26.17c1.41-.11,1.57-0.25,1.57-1.61V16.71h-0.74c-1.35,0-1.66.15-1.89,0.46a4.09,4.09,0,0,0-.62,1.59H164c0.07-1.12.16-2.28,0.2-3.13h0.38a0.86,0.86,0,0,0,.92.41h6.56a1,1,0,0,0,.9-0.41h0.38c0,0.71.08,2.07,0.16,3.08Z"/>
      <path class="cls-1" d="M186.07,16.58c-0.94,0-1.33.34-1.41,1a17.42,17.42,0,0,0-.12,2.41v1.62c0,1.8-.28,3.2-1.21,4.18a4.14,4.14,0,0,1-3,1.18,4.56,4.56,0,0,1-2.8-.82c-0.94-.74-1.39-2-1.39-3.87v-4c0-1.53-.15-1.61-1.39-1.72V16h4.69v0.54c-1.23.1-1.38,0.2-1.38,1.72v3.63c0,2.53.94,4,2.8,4,2.1,0,2.92-1.66,2.92-4.4V20a16.91,16.91,0,0,0-.15-2.44c-0.1-.59-0.46-0.87-1.59-0.94V16h4v0.54Z"/>
      <path class="cls-1" d="M192.06,16a6.57,6.57,0,0,1,4.67,1.41A4.7,4.7,0,0,1,198.16,21a5.24,5.24,0,0,1-2,4.38,8,8,0,0,1-4.94,1.36h-4.1V26.17c1.35-.11,1.49-0.21,1.49-1.61V18.18c0-1.41-.15-1.51-1.34-1.61V16h4.82Zm-1.56,8.42c0,1.2.36,1.57,1.51,1.57,2.51,0,4-2,4-4.77a4.57,4.57,0,0,0-1.49-3.69,4,4,0,0,0-2.71-.9,1.94,1.94,0,0,0-1.13.23,1.33,1.33,0,0,0-.18.92v6.64Z"/>
      <path class="cls-1" d="M199.66,26.7V26.17c1.26-.11,1.41-0.21,1.41-1.61V18.18c0-1.39-.15-1.51-1.41-1.61V16h4.71v0.54c-1.26.1-1.39,0.21-1.39,1.61v6.38c0,1.38.13,1.49,1.39,1.61V26.7h-4.71Z"/>
      <path class="cls-1" d="M214.55,24c-0.1.66-.43,2.18-0.57,2.67h-8.2V26.17c1.43-.11,1.57-0.23,1.57-1.61V18.18c0-1.44-.15-1.51-1.34-1.61V16h7.56c0,0.33.1,1.48,0.16,2.43l-0.56.08a3.44,3.44,0,0,0-.61-1.41,2.11,2.11,0,0,0-1.72-.43h-1c-0.57,0-.62,0-0.62.56v3.56h1.26c1.41,0,1.57-.1,1.79-1.23h0.56v3.25h-0.56c-0.21-1.18-.38-1.25-1.79-1.25h-1.26v2.92a1.4,1.4,0,0,0,.39,1.34,3.81,3.81,0,0,0,1.54.18,2.33,2.33,0,0,0,1.92-.54,5.49,5.49,0,0,0,.89-1.58Z"/>
      <path class="cls-1" d="M221.64,18.64c-0.33-1-.89-2.21-2.25-2.21a1.61,1.61,0,0,0-1.67,1.67c0,1,.67,1.56,2.07,2.25,1.56,0.79,2.87,1.64,2.87,3.35s-1.54,3.25-3.87,3.25a5.2,5.2,0,0,1-1.62-.25,5.85,5.85,0,0,1-.94-0.34,19.83,19.83,0,0,1-.48-2.69l0.56-.16c0.3,1,1.18,2.8,2.79,2.8a1.68,1.68,0,0,0,1.77-1.82c0-1-.79-1.66-2-2.3-1.46-.75-2.81-1.62-2.81-3.3s1.36-3.1,3.61-3.1a7.37,7.37,0,0,1,2.21.41c0.07,0.61.16,1.3,0.3,2.33Z"/>
    </g>
    <g>
      <polygon class="cls-2" points="13.09 14.52 0 27.61 0 14.52 13.09 14.52"/>
      <polygon class="cls-2" points="0 13.68 0 0.59 13.09 13.68 0 13.68"/>
      <polygon class="cls-2" points="27.61 0 14.52 13.09 14.52 0 27.61 0"/>
      <polygon class="cls-2" points="13.68 13.09 0.59 0 13.68 0 13.68 13.09"/>
      <polygon class="cls-2" points="15.11 13.68 28.2 0.59 28.2 13.68 15.11 13.68"/>
      <polygon class="cls-2" points="28.2 14.52 28.2 27.61 15.11 14.52 28.2 14.52"/>
      <polygon class="cls-2" points="13.68 15.11 0.59 28.2 13.68 28.2 13.68 15.11"/>
      <polygon class="cls-2" points="14.52 15.11 14.52 28.2 27.61 28.2 14.52 15.11"/>
    </g>
  </g>
</svg>
