<svg id="Layer_1" data-name="Layer 1" xmlns="http://www.w3.org/2000/svg" viewBox="0 0 328.05 28.78">
  <defs>
    <style>
      .cls-1 {
        fill: #231f20;
      }

      .cls-2 {
        fill: #981a31;
      }
    </style>
  </defs>
  <title>off-canvas-header-wilkinson</title>
  <g>
    <g id="wilkinson">
      <path class="cls-1" d="M48.21,3.24c-1.1.16-1.33,0.34-1.79,1.71C46,6,45.08,9,43.72,13.55H43C42.08,11,41.13,8.4,40.22,5.93h0c-0.87,2.62-1.72,5.13-2.53,7.61H36.93c-0.89-3-1.74-5.76-2.64-8.68-0.41-1.3-.67-1.49-1.66-1.62V2.7h4.54V3.24c-1.23.15-1.25,0.33-1,1.18,0.57,2,1.16,4,1.79,6h0C38.8,8,39.65,5.41,40.44,2.82h0.69q1.38,3.86,2.79,7.68h0c0.66-2.07,1.41-4.86,1.66-5.89s0.16-1.23-1.15-1.36V2.7h3.76V3.24Z"/>
      <path class="cls-1" d="M49.37,13.37V12.84c1.26-.11,1.41-0.21,1.41-1.61V4.85c0-1.39-.15-1.51-1.41-1.61V2.7h4.71V3.24c-1.26.1-1.39,0.21-1.39,1.61v6.38c0,1.38.13,1.49,1.39,1.61v0.52H49.37Z"/>
      <path class="cls-1" d="M63.9,10.66c-0.13.64-.46,2.25-0.61,2.71H55.52V12.84c1.39-.11,1.56-0.23,1.56-1.62V4.84c0-1.39-.15-1.49-1.43-1.59V2.7h4.74V3.24C59.13,3.34,59,3.44,59,4.84v6.45c0,0.8.07,1.12,0.39,1.26a3.68,3.68,0,0,0,1.34.16,2.11,2.11,0,0,0,1.74-.54,4.62,4.62,0,0,0,.89-1.64Z"/>
      <path class="cls-1" d="M72.6,13.37c-0.92-1.13-2.26-2.94-3.54-4.66a0.88,0.88,0,0,0-.84-0.52v3c0,1.41.16,1.53,1.44,1.64v0.52H65V12.84c1.2-.11,1.36-0.23,1.36-1.64V4.88c0-1.44-.15-1.54-1.41-1.64V2.7h4.61V3.24c-1.2.1-1.34,0.21-1.34,1.64V7.69a2.86,2.86,0,0,0,1.21-.82,27.44,27.44,0,0,0,2.46-2.74c0.43-.54.41-0.75-0.36-0.85l-0.31,0V2.7h4.13V3.24a3.72,3.72,0,0,0-2.62,1.16C71.89,5.2,71,6.12,70.17,7c1.1,1.57,2.54,3.36,3.58,4.63a2.67,2.67,0,0,0,1.87,1.21v0.52h-3Z"/>
      <path class="cls-1" d="M76.64,13.37V12.84C77.9,12.73,78,12.63,78,11.23V4.85c0-1.39-.15-1.51-1.41-1.61V2.7h4.71V3.24C80.08,3.34,80,3.46,80,4.85v6.38c0,1.38.13,1.49,1.39,1.61v0.52H76.64Z"/>
      <path class="cls-1" d="M94.16,3.23c-0.89,0-1.25.28-1.33,1A20.62,20.62,0,0,0,92.7,7v6.54H92L85.12,5.2h0V9.05a24.74,24.74,0,0,0,.12,2.69c0.08,0.77.39,1,1.57,1.1v0.52h-4V12.84c0.92-.07,1.31-0.31,1.39-1a25.22,25.22,0,0,0,.13-2.74V5.56c0-1.12,0-1.34-.33-1.72a1.71,1.71,0,0,0-1.41-.61V2.7h2.82l6.48,7.56h0V7c0-1.48-.08-2.25-0.12-2.72-0.1-.71-0.44-1-1.62-1V2.7h4V3.23Z"/>
      <path class="cls-1" d="M101.33,5.31c-0.33-1-.89-2.21-2.25-2.21a1.61,1.61,0,0,0-1.67,1.67c0,1,.67,1.56,2.07,2.25,1.56,0.79,2.87,1.64,2.87,3.35s-1.54,3.25-3.87,3.25a5.21,5.21,0,0,1-1.62-.25A6,6,0,0,1,95.92,13a19.78,19.78,0,0,1-.48-2.69L96,10.17c0.3,1,1.18,2.81,2.79,2.81a1.68,1.68,0,0,0,1.77-1.82c0-1-.79-1.66-2-2.3-1.46-.75-2.8-1.62-2.8-3.3s1.36-3.1,3.61-3.1a7.37,7.37,0,0,1,2.21.41c0.07,0.61.16,1.3,0.29,2.33Z"/>
      <path class="cls-1" d="M115,7.92a5.43,5.43,0,0,1-5.59,5.69,5.35,5.35,0,0,1-5.46-5.53,5.48,5.48,0,0,1,5.66-5.63A5.31,5.31,0,0,1,115,7.92Zm-8.84-.2c0,2.9,1.39,5.23,3.58,5.23,1.66,0,3.05-1.53,3.05-4.59,0-3.33-1.49-5.25-3.49-5.25C107.58,3.11,106.16,4.8,106.16,7.72Z"/>
      <path class="cls-1" d="M127.68,3.23c-0.89,0-1.25.28-1.33,1A20.62,20.62,0,0,0,126.22,7v6.54h-0.69L118.64,5.2h0V9.05a24.74,24.74,0,0,0,.12,2.69c0.08,0.77.39,1,1.57,1.1v0.52h-4V12.84c0.92-.07,1.31-0.31,1.39-1a25.22,25.22,0,0,0,.13-2.74V5.56c0-1.12,0-1.34-.33-1.72a1.71,1.71,0,0,0-1.41-.61V2.7h2.82l6.48,7.56h0V7c0-1.48-.08-2.25-0.12-2.72-0.1-.71-0.44-1-1.62-1V2.7h4V3.23Z"/>
      <path class="cls-1" d="M143,10.59a20.42,20.42,0,0,1-.92,2.59,15.78,15.78,0,0,1-3.05.43c-4.25,0-6.07-2.84-6.07-5.43,0-3.41,2.61-5.72,6.45-5.72a12.45,12.45,0,0,1,3,.44c0.13,0.9.25,1.64,0.36,2.61l-0.57.11a2.94,2.94,0,0,0-3.1-2.49c-2.51,0-3.87,2.26-3.87,4.72,0,3,1.67,5.05,4,5.05,1.49,0,2.44-.89,3.28-2.53Z"/>
      <path class="cls-1" d="M155.54,7.92A5.43,5.43,0,0,1,150,13.61a5.35,5.35,0,0,1-5.46-5.53,5.48,5.48,0,0,1,5.66-5.63A5.31,5.31,0,0,1,155.54,7.92Zm-8.84-.2c0,2.9,1.39,5.23,3.58,5.23,1.66,0,3.05-1.53,3.05-4.59,0-3.33-1.49-5.25-3.49-5.25C148.13,3.11,146.7,4.8,146.7,7.72Z"/>
      <path class="cls-1" d="M165.24,10.66c-0.13.64-.46,2.25-0.61,2.71h-7.78V12.84c1.39-.11,1.56-0.23,1.56-1.62V4.84c0-1.39-.15-1.49-1.43-1.59V2.7h4.74V3.24c-1.26.1-1.41,0.2-1.41,1.59v6.45c0,0.8.07,1.12,0.39,1.26a3.68,3.68,0,0,0,1.34.16,2.11,2.11,0,0,0,1.74-.54,4.62,4.62,0,0,0,.89-1.64Z"/>
      <path class="cls-1" d="M174.53,10.66c-0.13.64-.46,2.25-0.61,2.71h-7.78V12.84c1.39-.11,1.56-0.23,1.56-1.62V4.84c0-1.39-.15-1.49-1.43-1.59V2.7H171V3.24c-1.26.1-1.41,0.2-1.41,1.59v6.45c0,0.8.07,1.12,0.39,1.26a3.68,3.68,0,0,0,1.34.16,2.11,2.11,0,0,0,1.74-.54,4.62,4.62,0,0,0,.89-1.64Z"/>
      <path class="cls-1" d="M184.18,10.69c-0.1.66-.43,2.18-0.57,2.67h-8.2V12.84c1.43-.11,1.57-0.23,1.57-1.61V4.85c0-1.44-.15-1.51-1.35-1.61V2.7h7.56c0,0.33.1,1.48,0.16,2.43l-0.56.08a3.44,3.44,0,0,0-.61-1.41,2.11,2.11,0,0,0-1.72-.43h-1c-0.57,0-.62,0-0.62.56V7.49h1.26c1.41,0,1.57-.1,1.79-1.23h0.56V9.51h-0.56c-0.21-1.18-.38-1.25-1.79-1.25H178.9v2.92a1.4,1.4,0,0,0,.39,1.35,3.81,3.81,0,0,0,1.54.18,2.33,2.33,0,0,0,1.92-.54,5.49,5.49,0,0,0,.89-1.57Z"/>
      <path class="cls-1" d="M196.21,8.85c-0.87.15-1,.23-1,1.26v1.35a7.19,7.19,0,0,0,.12,1.54,16.21,16.21,0,0,1-3.72.61c-3.74,0-6.17-2.2-6.17-5.46,0-3.77,3.05-5.69,6.41-5.69a15,15,0,0,1,3.18.46c0,0.57.13,1.44,0.26,2.67l-0.56.1a3,3,0,0,0-3.18-2.58c-2.17,0-3.92,1.8-3.92,4.77,0,2.43,1.28,5.08,4.13,5.08a2.5,2.5,0,0,0,1.12-.23,1,1,0,0,0,.43-1V10.27c0-1.15-.1-1.26-1.77-1.41V8.33h4.64V8.85Z"/>
      <path class="cls-1" d="M206.15,10.69c-0.1.66-.43,2.18-0.57,2.67h-8.2V12.84c1.43-.11,1.57-0.23,1.57-1.61V4.85c0-1.44-.15-1.51-1.34-1.61V2.7h7.56c0,0.33.1,1.48,0.16,2.43l-0.56.08a3.43,3.43,0,0,0-.61-1.41,2.1,2.1,0,0,0-1.72-.43h-1c-0.57,0-.62,0-0.62.56V7.49h1.26c1.41,0,1.57-.1,1.79-1.23h0.56V9.51h-0.56c-0.21-1.18-.38-1.25-1.79-1.25h-1.26v2.92a1.4,1.4,0,0,0,.39,1.35,3.82,3.82,0,0,0,1.54.18,2.33,2.33,0,0,0,1.92-.54,5.49,5.49,0,0,0,.89-1.57Z"/>
      <path class="cls-1" d="M222.43,7.92a5.43,5.43,0,0,1-5.59,5.69,5.35,5.35,0,0,1-5.46-5.53A5.49,5.49,0,0,1,217,2.46,5.31,5.31,0,0,1,222.43,7.92Zm-8.84-.2c0,2.9,1.39,5.23,3.58,5.23,1.66,0,3.05-1.53,3.05-4.59,0-3.33-1.49-5.25-3.49-5.25C215,3.11,213.58,4.8,213.58,7.72Z"/>
      <path class="cls-1" d="M231.14,5.26a3.48,3.48,0,0,0-.59-1.38c-0.31-.39-0.72-0.51-1.77-0.51h-1c-0.54,0-.61,0-0.61.56V7.64h1.48c1.46,0,1.59-.15,1.79-1.2H231V9.67h-0.54c-0.18-1.12-.33-1.28-1.79-1.28H227.2v2.74c0,1.49.15,1.59,1.59,1.71v0.52h-4.89V12.84c1.25-.11,1.39-0.21,1.39-1.71V4.9c0-1.46-.15-1.56-1.36-1.66V2.7h7.56c0,0.39.1,1.57,0.18,2.48Z"/>
      <path class="cls-1" d="M243.24,13.37V12.84c1-.15,1.08-0.33.85-1s-0.46-1.31-.75-2.1h-3.26c-0.21.61-.44,1.23-0.64,1.89-0.28.89-.2,1.08,1,1.23v0.52H236.8V12.84c1.07-.15,1.28-0.3,1.84-1.71L242,2.65l0.72-.2c1,2.85,2.08,5.81,3.15,8.63,0.54,1.44.75,1.62,1.8,1.76v0.52h-4.44Zm-1.48-8.22h0c-0.48,1.26-.92,2.54-1.38,3.77h2.72Z"/>
      <path class="cls-1" d="M258.87,13.51l-0.51,0c-1.77-.08-2.43-0.51-3.12-1.56-0.48-.72-1-1.66-1.46-2.49a1.15,1.15,0,0,0-1.2-.69h-0.38v2.48c0,1.35.15,1.49,1.41,1.61v0.52H248.9V12.84c1.26-.11,1.44-0.25,1.44-1.61V4.82c0-1.35-.15-1.48-1.38-1.57V2.7h4.41a5,5,0,0,1,2.82.59,2.51,2.51,0,0,1,1.1,2.18,2.89,2.89,0,0,1-2.07,2.71c0.26,0.51.89,1.61,1.38,2.35a11.23,11.23,0,0,0,1.3,1.76A2.22,2.22,0,0,0,259,13Zm-6.12-5.36a2.55,2.55,0,0,0,1.67-.44,2.4,2.4,0,0,0,.82-2c0-1.75-1-2.41-2.1-2.41a1.42,1.42,0,0,0-.79.16,0.84,0.84,0,0,0-.15.66v4h0.54Z"/>
      <path class="cls-1" d="M268.13,5.41a3.92,3.92,0,0,0-.64-1.61c-0.29-.33-0.66-0.43-1.72-0.43h-0.89v7.86c0,1.36.15,1.49,1.64,1.61v0.52H261.4V12.84c1.41-.11,1.57-0.25,1.57-1.61V3.38h-0.74c-1.34,0-1.66.15-1.89,0.46a4.09,4.09,0,0,0-.62,1.59h-0.56c0.07-1.12.16-2.28,0.2-3.13h0.38a0.86,0.86,0,0,0,.92.41h6.56a1,1,0,0,0,.9-0.41h0.38c0,0.71.08,2.07,0.16,3.08Z"/>
      <path class="cls-1" d="M276.08,5.31c-0.33-1-.89-2.21-2.25-2.21a1.61,1.61,0,0,0-1.67,1.67c0,1,.67,1.56,2.07,2.25,1.56,0.79,2.87,1.64,2.87,3.35s-1.54,3.25-3.87,3.25a5.2,5.2,0,0,1-1.62-.25,6,6,0,0,1-.94-0.34,19.85,19.85,0,0,1-.48-2.69l0.56-.16c0.3,1,1.18,2.81,2.79,2.81a1.68,1.68,0,0,0,1.77-1.82c0-1-.79-1.66-2-2.3-1.46-.75-2.81-1.62-2.81-3.3s1.36-3.1,3.61-3.1a7.36,7.36,0,0,1,2.21.41c0.07,0.61.16,1.3,0.3,2.33Z"/>
      <path class="cls-1" d="M281.37,12.87c0,1.44-1.33,2.26-2.56,2.58l-0.2-.52c0.94-.39,1.41-0.85,1.41-1.53a1.25,1.25,0,0,0-1.13-1.16,0.55,0.55,0,0,1-.23-0.52,0.88,0.88,0,0,1,.93-0.8A2,2,0,0,1,281.37,12.87Z"/>
      <path class="cls-1" d="M44.54,16.58c-1.3.12-1.41,0.2-1.41,1.59v6.41c0,1.38.13,1.48,1.41,1.59V26.7H39.75V26.17c1.33-.11,1.46-0.21,1.46-1.59V21.45H36.34v3.13c0,1.38.13,1.48,1.39,1.59V26.7H33V26.17c1.25-.11,1.39-0.21,1.39-1.59V18.17c0-1.39-.15-1.49-1.44-1.59V16h4.69v0.54c-1.21.1-1.34,0.2-1.34,1.59v2.49h4.87V18.17c0-1.39-.11-1.48-1.36-1.59V16h4.69v0.54Z"/>
      <path class="cls-1" d="M57.3,16.58c-0.94,0-1.33.34-1.41,1A17.45,17.45,0,0,0,55.78,20v1.62c0,1.8-.28,3.2-1.21,4.18a4.15,4.15,0,0,1-3,1.18,4.56,4.56,0,0,1-2.8-.82c-0.94-.74-1.39-2-1.39-3.87v-4c0-1.53-.15-1.61-1.39-1.72V16h4.69v0.54c-1.23.1-1.38,0.2-1.38,1.72v3.63c0,2.53.94,4,2.8,4,2.1,0,2.92-1.66,2.92-4.4V20a16.91,16.91,0,0,0-.15-2.44c-0.1-.59-0.46-0.87-1.59-0.94V16h4v0.54Z"/>
      <path class="cls-1" d="M67.05,26.7V26.17c1.28-.13,1.35-0.25,1.35-1.84l0-6.45H68.28l-3.76,8.69H64.1l-3.46-8.51h0L60.38,22.5a20.63,20.63,0,0,0,0,2.67c0,0.75.39,0.89,1.49,1V26.7h-3.9V26.16c0.94-.08,1.25-0.34,1.35-1a29.34,29.34,0,0,0,.34-3.07l0.25-3.3c0.15-2,0-2.13-1.41-2.26V16h3.15L65,23.58,68.41,16h3.12v0.54c-1.36.13-1.44,0.21-1.41,1.71l0.16,6.05c0,1.59.1,1.71,1.44,1.84V26.7H67.05Z"/>
      <path class="cls-1" d="M79.26,26.7V26.17c1-.15,1.08-0.33.85-1s-0.46-1.31-.75-2.1H76.09c-0.21.61-.44,1.23-0.64,1.89-0.28.89-.2,1.08,1,1.23V26.7H72.83V26.17c1.07-.15,1.28-0.29,1.84-1.71L78,16l0.72-.2c1,2.85,2.08,5.81,3.15,8.63,0.54,1.44.75,1.62,1.8,1.75V26.7H79.26Zm-1.48-8.22h0c-0.48,1.26-.92,2.54-1.38,3.77h2.72Z"/>
      <path class="cls-1" d="M96.18,16.56c-0.89,0-1.25.28-1.33,1a20.62,20.62,0,0,0-.13,2.74v6.54H94l-6.89-8.33h0v3.85a24.75,24.75,0,0,0,.12,2.69c0.08,0.77.39,1,1.57,1.1V26.7h-4V26.17c0.92-.07,1.31-0.31,1.39-1a25.25,25.25,0,0,0,.13-2.74V18.89c0-1.12,0-1.35-.33-1.72a1.71,1.71,0,0,0-1.41-.61V16h2.82l6.48,7.56h0V20.32c0-1.48-.08-2.25-0.12-2.72-0.1-.71-0.44-1-1.62-1V16h4v0.53Z"/>
      <path class="cls-1" d="M97.44,26.7V26.17c1.26-.11,1.41-0.21,1.41-1.61V18.18c0-1.39-.15-1.51-1.41-1.61V16h4.71v0.54c-1.26.1-1.39,0.21-1.39,1.61v6.38c0,1.38.13,1.49,1.39,1.61V26.7H97.44Z"/>
      <path class="cls-1" d="M112.54,18.74a3.94,3.94,0,0,0-.64-1.61c-0.3-.33-0.66-0.43-1.72-0.43h-0.89v7.86c0,1.36.15,1.49,1.64,1.61V26.7h-5.12V26.17c1.41-.11,1.57-0.25,1.57-1.61V16.71h-0.74c-1.35,0-1.66.15-1.89,0.46a4.09,4.09,0,0,0-.62,1.59h-0.56c0.07-1.12.16-2.28,0.2-3.13h0.38a0.86,0.86,0,0,0,.92.41h6.56a1,1,0,0,0,.9-0.41h0.38c0,0.71.08,2.07,0.16,3.08Z"/>
      <path class="cls-1" d="M114.44,26.7V26.17c1.26-.11,1.41-0.21,1.41-1.61V18.18c0-1.39-.15-1.51-1.41-1.61V16h4.71v0.54c-1.26.1-1.39,0.21-1.39,1.61v6.38c0,1.38.13,1.49,1.39,1.61V26.7h-4.71Z"/>
      <path class="cls-1" d="M129.34,24c-0.1.66-.43,2.18-0.57,2.67h-8.2V26.17c1.43-.11,1.57-0.23,1.57-1.61V18.18c0-1.44-.15-1.51-1.35-1.61V16h7.56c0,0.33.1,1.48,0.16,2.43l-0.56.08a3.45,3.45,0,0,0-.61-1.41,2.11,2.11,0,0,0-1.72-.43h-1c-0.57,0-.62,0-0.62.56v3.56h1.26c1.41,0,1.57-.1,1.79-1.23h0.56v3.25h-0.56c-0.21-1.18-.38-1.25-1.79-1.25h-1.26v2.92a1.39,1.39,0,0,0,.39,1.34A3.81,3.81,0,0,0,126,26a2.33,2.33,0,0,0,1.92-.54,5.47,5.47,0,0,0,.89-1.58Z"/>
      <path class="cls-1" d="M136.43,18.64c-0.33-1-.89-2.21-2.25-2.21a1.61,1.61,0,0,0-1.67,1.67c0,1,.67,1.56,2.07,2.25,1.56,0.79,2.87,1.64,2.87,3.35s-1.54,3.25-3.87,3.25A5.21,5.21,0,0,1,132,26.7a5.84,5.84,0,0,1-.94-0.34,19.76,19.76,0,0,1-.48-2.69l0.56-.16c0.3,1,1.18,2.8,2.79,2.8a1.68,1.68,0,0,0,1.77-1.82c0-1-.79-1.66-2-2.3-1.46-.75-2.8-1.62-2.8-3.3s1.36-3.1,3.61-3.1a7.38,7.38,0,0,1,2.21.41c0.07,0.61.16,1.3,0.29,2.33Z"/>
      <path class="cls-1" d="M141.71,26.21c0,1.44-1.33,2.26-2.56,2.58l-0.2-.52c0.93-.39,1.41-0.85,1.41-1.53a1.25,1.25,0,0,0-1.13-1.17A0.55,0.55,0,0,1,139,25a0.88,0.88,0,0,1,.94-0.8A2,2,0,0,1,141.71,26.21Z"/>
      <path class="cls-1" d="M153.38,26.7V26.17c1-.15,1.08-0.33.85-1s-0.46-1.31-.75-2.1h-3.26c-0.21.61-.44,1.23-0.64,1.89-0.28.89-.2,1.08,1,1.23V26.7h-3.62V26.17c1.07-.15,1.28-0.29,1.84-1.71L152.15,16l0.72-.2c1,2.85,2.08,5.81,3.15,8.63,0.54,1.44.75,1.62,1.8,1.75V26.7h-4.45Zm-1.48-8.22h0c-0.48,1.26-.92,2.54-1.38,3.77h2.72Z"/>
      <path class="cls-1" d="M170.3,16.56c-0.89,0-1.25.28-1.33,1a20.62,20.62,0,0,0-.13,2.74v6.54h-0.69l-6.89-8.33h0v3.85a24.93,24.93,0,0,0,.11,2.69c0.08,0.77.39,1,1.58,1.1V26.7h-4V26.17c0.92-.07,1.31-0.31,1.39-1a25.25,25.25,0,0,0,.13-2.74V18.89c0-1.12,0-1.35-.33-1.72a1.71,1.71,0,0,0-1.41-.61V16h2.82L168,23.6h0V20.32c0-1.48-.08-2.25-0.12-2.72-0.1-.71-0.44-1-1.62-1V16h4v0.53Z"/>
      <path class="cls-1" d="M176.43,16a6.57,6.57,0,0,1,4.67,1.41A4.7,4.7,0,0,1,182.54,21a5.24,5.24,0,0,1-2,4.38,8,8,0,0,1-4.94,1.36h-4.1V26.17c1.35-.11,1.49-0.21,1.49-1.61V18.18c0-1.41-.15-1.51-1.35-1.61V16h4.82Zm-1.56,8.42c0,1.2.36,1.57,1.51,1.57,2.51,0,4-2,4-4.77a4.57,4.57,0,0,0-1.49-3.69,4,4,0,0,0-2.71-.9,1.94,1.94,0,0,0-1.13.23,1.33,1.33,0,0,0-.18.92v6.64Z"/>
      <path class="cls-1" d="M194.07,18.64c-0.33-1-.89-2.21-2.25-2.21a1.61,1.61,0,0,0-1.67,1.67c0,1,.67,1.56,2.07,2.25,1.56,0.79,2.87,1.64,2.87,3.35s-1.54,3.25-3.87,3.25a5.2,5.2,0,0,1-1.62-.25,5.85,5.85,0,0,1-.94-0.34,19.83,19.83,0,0,1-.48-2.69l0.56-.16c0.3,1,1.18,2.8,2.79,2.8a1.68,1.68,0,0,0,1.77-1.82c0-1-.79-1.66-2-2.3-1.46-.75-2.81-1.62-2.81-3.3s1.36-3.1,3.61-3.1a7.37,7.37,0,0,1,2.21.41c0.07,0.61.16,1.3,0.3,2.33Z"/>
      <path class="cls-1" d="M207.74,21.25a5.43,5.43,0,0,1-5.59,5.69,5.35,5.35,0,0,1-5.46-5.53,5.48,5.48,0,0,1,5.66-5.63A5.31,5.31,0,0,1,207.74,21.25Zm-8.84-.2c0,2.9,1.39,5.23,3.58,5.23,1.66,0,3.05-1.53,3.05-4.59,0-3.33-1.49-5.25-3.49-5.25C200.33,16.45,198.9,18.13,198.9,21.05Z"/>
      <path class="cls-1" d="M219.78,23.92a20.45,20.45,0,0,1-.92,2.59,15.79,15.79,0,0,1-3.05.43c-4.25,0-6.07-2.84-6.07-5.43,0-3.41,2.61-5.72,6.45-5.72a12.41,12.41,0,0,1,3,.44c0.13,0.9.25,1.64,0.36,2.61l-0.57.12a2.94,2.94,0,0,0-3.1-2.49c-2.51,0-3.87,2.26-3.87,4.72,0,3,1.67,5.05,4,5.05,1.49,0,2.44-.89,3.28-2.53Z"/>
      <path class="cls-1" d="M221,26.7V26.17c1.26-.11,1.41-0.21,1.41-1.61V18.18c0-1.39-.15-1.51-1.41-1.61V16h4.71v0.54c-1.26.1-1.39,0.21-1.39,1.61v6.38c0,1.38.13,1.49,1.39,1.61V26.7H221Z"/>
      <path class="cls-1" d="M232.85,26.7V26.17c1-.15,1.08-0.33.85-1s-0.46-1.31-.75-2.1h-3.26c-0.21.61-.44,1.23-0.64,1.89-0.28.89-.2,1.08,1,1.23V26.7h-3.62V26.17c1.07-.15,1.28-0.29,1.84-1.71L231.62,16l0.72-.2c1,2.85,2.08,5.81,3.15,8.63,0.54,1.44.75,1.62,1.8,1.75V26.7h-4.44Zm-1.48-8.22h0c-0.48,1.26-.92,2.54-1.38,3.77h2.72Z"/>
      <path class="cls-1" d="M246.78,24c-0.13.64-.46,2.25-0.61,2.71H238.4V26.17c1.39-.11,1.56-0.23,1.56-1.62V18.17c0-1.39-.15-1.49-1.43-1.59V16h4.74v0.54c-1.26.1-1.41,0.2-1.41,1.59v6.45c0,0.8.07,1.12,0.39,1.26a3.68,3.68,0,0,0,1.35.16,2.11,2.11,0,0,0,1.74-.54,4.62,4.62,0,0,0,.89-1.64Z"/>
      <path class="cls-1" d="M257.69,18.64c-0.33-1-.89-2.21-2.25-2.21a1.61,1.61,0,0,0-1.67,1.67c0,1,.67,1.56,2.07,2.25,1.56,0.79,2.87,1.64,2.87,3.35s-1.54,3.25-3.87,3.25a5.2,5.2,0,0,1-1.62-.25,5.85,5.85,0,0,1-.94-0.34,19.83,19.83,0,0,1-.48-2.69l0.56-.16c0.3,1,1.18,2.8,2.79,2.8a1.68,1.68,0,0,0,1.77-1.82c0-1-.79-1.66-2-2.3-1.46-.75-2.81-1.62-2.81-3.3s1.36-3.1,3.61-3.1a7.37,7.37,0,0,1,2.21.41c0.07,0.61.16,1.3,0.3,2.33Z"/>
      <path class="cls-1" d="M270.32,23.92a20.45,20.45,0,0,1-.92,2.59,15.79,15.79,0,0,1-3.05.43c-4.25,0-6.07-2.84-6.07-5.43,0-3.41,2.61-5.72,6.45-5.72a12.41,12.41,0,0,1,3,.44c0.13,0.9.25,1.64,0.36,2.61l-0.57.12a2.94,2.94,0,0,0-3.1-2.49c-2.51,0-3.87,2.26-3.87,4.72,0,3,1.67,5.05,4,5.05,1.49,0,2.44-.89,3.28-2.53Z"/>
      <path class="cls-1" d="M271.58,26.7V26.17c1.26-.11,1.41-0.21,1.41-1.61V18.18c0-1.39-.15-1.51-1.41-1.61V16h4.71v0.54c-1.26.1-1.39,0.21-1.39,1.61v6.38c0,1.38.13,1.49,1.39,1.61V26.7h-4.71Z"/>
      <path class="cls-1" d="M286.47,24c-0.1.66-.43,2.18-0.57,2.67h-8.2V26.17c1.43-.11,1.57-0.23,1.57-1.61V18.18c0-1.44-.15-1.51-1.34-1.61V16h7.56c0,0.33.1,1.48,0.16,2.43l-0.56.08a3.44,3.44,0,0,0-.61-1.41,2.11,2.11,0,0,0-1.72-.43h-1c-0.57,0-.62,0-0.62.56v3.56h1.26c1.41,0,1.57-.1,1.79-1.23h0.56v3.25h-0.56c-0.21-1.18-.38-1.25-1.79-1.25h-1.26v2.92a1.4,1.4,0,0,0,.39,1.34,3.81,3.81,0,0,0,1.54.18A2.33,2.33,0,0,0,285,25.5a5.49,5.49,0,0,0,.89-1.58Z"/>
      <path class="cls-1" d="M298.88,16.56c-0.89,0-1.25.28-1.33,1a20.68,20.68,0,0,0-.13,2.74v6.54h-0.69l-6.89-8.33h0v3.85a25,25,0,0,0,.11,2.69c0.08,0.77.39,1,1.58,1.1V26.7h-4V26.17c0.92-.07,1.31-0.31,1.39-1a25.43,25.43,0,0,0,.13-2.74V18.89c0-1.12,0-1.35-.33-1.72a1.71,1.71,0,0,0-1.41-.61V16h2.82l6.48,7.56h0V20.32c0-1.48-.08-2.25-0.12-2.72-0.1-.71-0.44-1-1.62-1V16h4v0.53Z"/>
      <path class="cls-1" d="M310.1,23.92a20.45,20.45,0,0,1-.92,2.59,15.79,15.79,0,0,1-3.05.43c-4.25,0-6.07-2.84-6.07-5.43,0-3.41,2.61-5.72,6.45-5.72a12.41,12.41,0,0,1,3,.44c0.13,0.9.25,1.64,0.36,2.61l-0.57.12a2.94,2.94,0,0,0-3.1-2.49c-2.51,0-3.87,2.26-3.87,4.72,0,3,1.67,5.05,4,5.05,1.49,0,2.44-.89,3.28-2.53Z"/>
      <path class="cls-1" d="M319.95,24c-0.1.66-.43,2.18-0.57,2.67h-8.2V26.17c1.43-.11,1.57-0.23,1.57-1.61V18.18c0-1.44-.15-1.51-1.34-1.61V16H319c0,0.33.1,1.48,0.16,2.43l-0.56.08a3.44,3.44,0,0,0-.61-1.41,2.11,2.11,0,0,0-1.72-.43h-1c-0.57,0-.62,0-0.62.56v3.56h1.26c1.41,0,1.57-.1,1.79-1.23h0.56v3.25h-0.56c-0.21-1.18-.38-1.25-1.79-1.25h-1.26v2.92a1.4,1.4,0,0,0,.39,1.34,3.81,3.81,0,0,0,1.54.18,2.33,2.33,0,0,0,1.92-.54,5.49,5.49,0,0,0,.89-1.58Z"/>
      <path class="cls-1" d="M327,18.64c-0.33-1-.89-2.21-2.25-2.21a1.61,1.61,0,0,0-1.67,1.67c0,1,.67,1.56,2.07,2.25,1.56,0.79,2.87,1.64,2.87,3.35s-1.54,3.25-3.87,3.25a5.2,5.2,0,0,1-1.62-.25,5.85,5.85,0,0,1-.94-0.34,19.83,19.83,0,0,1-.48-2.69l0.56-.16c0.3,1,1.18,2.8,2.79,2.8a1.68,1.68,0,0,0,1.77-1.82c0-1-.79-1.66-2-2.3-1.46-.75-2.81-1.62-2.81-3.3s1.36-3.1,3.61-3.1a7.37,7.37,0,0,1,2.21.41c0.07,0.61.16,1.3,0.3,2.33Z"/>
    </g>
    <g>
      <polygon class="cls-2" points="13.09 14.52 0 27.61 0 14.52 13.09 14.52"/>
      <polygon class="cls-2" points="0 13.68 0 0.59 13.09 13.68 0 13.68"/>
      <polygon class="cls-2" points="27.61 0 14.52 13.09 14.52 0 27.61 0"/>
      <polygon class="cls-2" points="13.68 13.09 0.59 0 13.68 0 13.68 13.09"/>
      <polygon class="cls-2" points="15.11 13.68 28.2 0.59 28.2 13.68 15.11 13.68"/>
      <polygon class="cls-2" points="28.2 14.52 28.2 27.61 15.11 14.52 28.2 14.52"/>
      <polygon class="cls-2" points="13.68 15.11 0.59 28.2 13.68 28.2 13.68 15.11"/>
      <polygon class="cls-2" points="14.52 15.11 14.52 28.2 27.61 28.2 14.52 15.11"/>
    </g>
  </g>
</svg>
