<svg id="Layer_1" data-name="Layer 1" xmlns="http://www.w3.org/2000/svg" viewBox="0 0 237.59 28.2">
  <defs>
    <style>
      .cls-1 {
        fill: #231f20;
      }

      .cls-2 {
        fill: #981a31;
      }
    </style>
  </defs>
  <title>off-canvas-header-fowler</title>
  <g>
    <g id="fowler">
      <path class="cls-1" d="M40.27,11.3a3.51,3.51,0,0,0-.59-1.38C39.37,9.53,39,9.41,37.91,9.41h-1c-0.54,0-.61,0-0.61.56v3.71h1.48c1.46,0,1.59-.15,1.79-1.2h0.54v3.23H39.6c-0.18-1.12-.33-1.28-1.79-1.28H36.34v2.74c0,1.49.15,1.59,1.59,1.71V19.4H33V18.88c1.25-.12,1.39-0.21,1.39-1.71V10.94c0-1.46-.15-1.56-1.36-1.66V8.74h7.56c0,0.39.1,1.57,0.18,2.48Z"/>
      <path class="cls-1" d="M53.43,14a5.43,5.43,0,0,1-5.59,5.69,5.34,5.34,0,0,1-5.46-5.53A5.48,5.48,0,0,1,48,8.49,5.31,5.31,0,0,1,53.43,14Zm-8.84-.2c0,2.9,1.39,5.23,3.58,5.23,1.66,0,3.05-1.53,3.05-4.59,0-3.33-1.49-5.25-3.49-5.25C46,9.15,44.59,10.84,44.59,13.76Z"/>
      <path class="cls-1" d="M70,9.28c-1.1.16-1.33,0.34-1.79,1.71-0.38,1.07-1.35,4-2.71,8.6H64.77C63.87,17.06,62.92,14.43,62,12h0c-0.87,2.62-1.72,5.13-2.53,7.61H58.72c-0.89-3-1.74-5.76-2.64-8.68-0.41-1.3-.67-1.49-1.66-1.62V8.74H59V9.28c-1.23.15-1.25,0.33-1,1.18,0.57,2,1.16,4,1.79,6h0c0.82-2.49,1.67-5.05,2.46-7.64h0.69q1.38,3.86,2.79,7.68h0c0.66-2.07,1.41-4.86,1.66-5.89s0.16-1.23-1.15-1.36V8.74H70V9.28Z"/>
      <path class="cls-1" d="M79.39,16.7c-0.13.64-.46,2.25-0.61,2.71H71V18.88c1.39-.12,1.56-0.23,1.56-1.62V10.87c0-1.39-.15-1.49-1.43-1.59V8.74h4.74V9.28c-1.26.1-1.41,0.2-1.41,1.59v6.45c0,0.8.07,1.12,0.39,1.26a3.67,3.67,0,0,0,1.34.16,2.11,2.11,0,0,0,1.74-.54,4.61,4.61,0,0,0,.89-1.64Z"/>
      <path class="cls-1" d="M89,16.73c-0.1.66-.43,2.18-0.57,2.67h-8.2V18.88c1.43-.12,1.57-0.23,1.57-1.61V10.89c0-1.44-.15-1.51-1.35-1.61V8.74h7.56c0,0.33.1,1.48,0.16,2.43l-0.56.08a3.44,3.44,0,0,0-.61-1.41,2.11,2.11,0,0,0-1.72-.43h-1c-0.57,0-.62,0-0.62.56v3.56H85c1.41,0,1.57-.1,1.79-1.23h0.56v3.25H86.81C86.6,14.37,86.43,14.3,85,14.3H83.76v2.92a1.4,1.4,0,0,0,.39,1.35,3.81,3.81,0,0,0,1.54.18,2.33,2.33,0,0,0,1.92-.54,5.48,5.48,0,0,0,.89-1.57Z"/>
      <path class="cls-1" d="M100.16,19.55l-0.51,0C97.88,19.45,97.23,19,96.54,18c-0.48-.72-1-1.66-1.46-2.49a1.15,1.15,0,0,0-1.2-.69H93.5v2.48c0,1.34.15,1.49,1.41,1.61V19.4H90.19V18.88c1.26-.12,1.44-0.25,1.44-1.61V10.86c0-1.35-.15-1.48-1.38-1.57V8.74h4.41a5,5,0,0,1,2.82.59,2.51,2.51,0,0,1,1.1,2.18,2.89,2.89,0,0,1-2.07,2.71c0.26,0.51.89,1.61,1.38,2.35a11.23,11.23,0,0,0,1.3,1.76,2.22,2.22,0,0,0,1.07.74ZM94,14.19a2.55,2.55,0,0,0,1.67-.44,2.4,2.4,0,0,0,.82-2c0-1.75-1-2.41-2.1-2.41a1.42,1.42,0,0,0-.79.16,0.84,0.84,0,0,0-.15.66v4H94Z"/>
      <path class="cls-1" d="M111,11.35c-0.33-1-.89-2.21-2.25-2.21a1.61,1.61,0,0,0-1.67,1.67c0,1,.67,1.56,2.07,2.25,1.56,0.79,2.87,1.64,2.87,3.35s-1.54,3.25-3.87,3.25a5.21,5.21,0,0,1-1.62-.25,6,6,0,0,1-.94-0.34,19.8,19.8,0,0,1-.48-2.69l0.56-.16c0.3,1,1.18,2.8,2.79,2.8a1.68,1.68,0,0,0,1.77-1.82c0-1-.79-1.66-2-2.3-1.46-.75-2.8-1.62-2.8-3.3s1.36-3.1,3.61-3.1a7.37,7.37,0,0,1,2.21.41c0.07,0.61.16,1.3,0.29,2.33Z"/>
      <path class="cls-1" d="M123.65,16.63a20.41,20.41,0,0,1-.92,2.59,15.78,15.78,0,0,1-3.05.43c-4.25,0-6.07-2.84-6.07-5.43,0-3.41,2.61-5.72,6.45-5.72a12.45,12.45,0,0,1,3,.44c0.13,0.9.25,1.64,0.36,2.61l-0.57.11a2.94,2.94,0,0,0-3.1-2.49c-2.51,0-3.87,2.26-3.87,4.72,0,3,1.67,5.05,4,5.05,1.49,0,2.44-.89,3.28-2.53Z"/>
      <path class="cls-1" d="M136.41,9.28c-1.3.11-1.41,0.2-1.41,1.59v6.41c0,1.38.13,1.48,1.41,1.59V19.4h-4.79V18.88c1.33-.12,1.46-0.21,1.46-1.59V14.15h-4.87v3.13c0,1.38.13,1.48,1.39,1.59V19.4h-4.69V18.88c1.25-.12,1.39-0.21,1.39-1.59V10.87c0-1.39-.15-1.49-1.44-1.59V8.74h4.69V9.28c-1.21.1-1.35,0.2-1.35,1.59v2.49h4.87V10.87c0-1.39-.11-1.48-1.36-1.59V8.74h4.69V9.28Z"/>
      <path class="cls-1" d="M148.93,14a5.43,5.43,0,0,1-5.59,5.69,5.34,5.34,0,0,1-5.46-5.53,5.48,5.48,0,0,1,5.66-5.63A5.31,5.31,0,0,1,148.93,14Zm-8.84-.2c0,2.9,1.39,5.23,3.58,5.23,1.66,0,3.05-1.53,3.05-4.59,0-3.33-1.49-5.25-3.49-5.25C141.52,9.15,140.09,10.84,140.09,13.76Z"/>
      <path class="cls-1" d="M162,14a5.43,5.43,0,0,1-5.59,5.69A5.34,5.34,0,0,1,151,14.12a5.48,5.48,0,0,1,5.66-5.63A5.31,5.31,0,0,1,162,14Zm-8.84-.2c0,2.9,1.39,5.23,3.58,5.23,1.66,0,3.05-1.53,3.05-4.59,0-3.33-1.49-5.25-3.49-5.25C154.59,9.15,153.17,10.84,153.17,13.76Z"/>
      <path class="cls-1" d="M171.71,16.7c-0.13.64-.46,2.25-0.61,2.71h-7.78V18.88c1.39-.12,1.56-0.23,1.56-1.62V10.87c0-1.39-.15-1.49-1.43-1.59V8.74h4.74V9.28c-1.26.1-1.41,0.2-1.41,1.59v6.45c0,0.8.07,1.12,0.39,1.26a3.67,3.67,0,0,0,1.34.16,2.11,2.11,0,0,0,1.74-.54,4.61,4.61,0,0,0,.89-1.64Z"/>
      <path class="cls-1" d="M187.85,14a5.43,5.43,0,0,1-5.59,5.69,5.34,5.34,0,0,1-5.46-5.53,5.48,5.48,0,0,1,5.66-5.63A5.31,5.31,0,0,1,187.85,14Zm-8.84-.2c0,2.9,1.39,5.23,3.58,5.23,1.66,0,3.05-1.53,3.05-4.59,0-3.33-1.49-5.25-3.49-5.25C180.44,9.15,179,10.84,179,13.76Z"/>
      <path class="cls-1" d="M196.57,11.3A3.5,3.5,0,0,0,196,9.92c-0.31-.39-0.72-0.51-1.77-0.51h-1c-0.54,0-.61,0-0.61.56v3.71h1.48c1.46,0,1.59-.15,1.79-1.2h0.54v3.23H195.9c-0.18-1.12-.33-1.28-1.79-1.28h-1.48v2.74c0,1.49.15,1.59,1.59,1.71V19.4h-4.89V18.88c1.25-.12,1.39-0.21,1.39-1.71V10.94c0-1.46-.15-1.56-1.36-1.66V8.74h7.56c0,0.39.1,1.57,0.18,2.48Z"/>
      <path class="cls-1" d="M210.78,16.7c-0.13.64-.46,2.25-0.61,2.71H202.4V18.88c1.39-.12,1.56-0.23,1.56-1.62V10.87c0-1.39-.15-1.49-1.43-1.59V8.74h4.74V9.28c-1.26.1-1.41,0.2-1.41,1.59v6.45c0,0.8.07,1.12,0.39,1.26a3.68,3.68,0,0,0,1.35.16,2.11,2.11,0,0,0,1.74-.54,4.61,4.61,0,0,0,.89-1.64Z"/>
      <path class="cls-1" d="M218.24,19.4V18.88c1-.15,1.08-0.33.85-1s-0.46-1.31-.75-2.1h-3.26c-0.21.61-.44,1.23-0.64,1.89-0.28.89-.2,1.08,1,1.23V19.4h-3.62V18.88c1.07-.15,1.28-0.3,1.84-1.71L217,8.69l0.72-.2c1,2.85,2.08,5.81,3.15,8.63,0.54,1.44.75,1.62,1.8,1.76V19.4h-4.44Zm-1.48-8.22h0c-0.48,1.26-.92,2.54-1.38,3.77h2.72Z"/>
      <path class="cls-1" d="M237.59,9.28c-1.1.16-1.33,0.34-1.79,1.71-0.38,1.07-1.34,4-2.71,8.6h-0.74c-0.9-2.53-1.85-5.15-2.76-7.61h0c-0.87,2.62-1.72,5.13-2.53,7.61H226.3c-0.89-3-1.74-5.76-2.64-8.68-0.41-1.3-.67-1.49-1.66-1.62V8.74h4.54V9.28c-1.23.15-1.25,0.33-1,1.18,0.57,2,1.17,4,1.79,6h0c0.82-2.49,1.67-5.05,2.46-7.64h0.69q1.38,3.86,2.79,7.68h0c0.66-2.07,1.41-4.86,1.66-5.89s0.16-1.23-1.15-1.36V8.74h3.76V9.28Z"/>
    </g>
    <g>
      <polygon class="cls-2" points="13.09 14.52 0 27.61 0 14.52 13.09 14.52"/>
      <polygon class="cls-2" points="0 13.68 0 0.59 13.09 13.68 0 13.68"/>
      <polygon class="cls-2" points="27.61 0 14.52 13.09 14.52 0 27.61 0"/>
      <polygon class="cls-2" points="13.68 13.09 0.59 0 13.68 0 13.68 13.09"/>
      <polygon class="cls-2" points="15.11 13.68 28.2 0.59 28.2 13.68 15.11 13.68"/>
      <polygon class="cls-2" points="28.2 14.52 28.2 27.61 15.11 14.52 28.2 14.52"/>
      <polygon class="cls-2" points="13.68 15.11 0.59 28.2 13.68 28.2 13.68 15.11"/>
      <polygon class="cls-2" points="14.52 15.11 14.52 28.2 27.61 28.2 14.52 15.11"/>
    </g>
  </g>
</svg>
