<svg id="Layer_1" data-name="Layer 1" xmlns="http://www.w3.org/2000/svg" viewBox="0 0 186.08 28.2">
  <defs>
    <style>
      .cls-1 {
        fill: #231f20;
      }

      .cls-2 {
        fill: #981a31;
      }
    </style>
  </defs>
  <title>off-canvas-header-copa</title>
  <g>
    <g>
      <path class="cls-1" d="M43.13,10.59a20.42,20.42,0,0,1-.92,2.59,15.78,15.78,0,0,1-3.05.43c-4.25,0-6.07-2.84-6.07-5.43,0-3.41,2.61-5.72,6.45-5.72a12.45,12.45,0,0,1,3,.44c0.13,0.9.25,1.64,0.36,2.61l-0.57.11a2.94,2.94,0,0,0-3.1-2.49c-2.51,0-3.87,2.26-3.87,4.72,0,3,1.67,5.05,4,5.05,1.49,0,2.44-.89,3.28-2.53Z"/>
      <path class="cls-1" d="M55.66,7.92a5.43,5.43,0,0,1-5.59,5.69,5.35,5.35,0,0,1-5.46-5.53,5.48,5.48,0,0,1,5.66-5.63A5.31,5.31,0,0,1,55.66,7.92Zm-8.84-.2c0,2.9,1.39,5.23,3.58,5.23,1.66,0,3.05-1.53,3.05-4.59C53.45,5,52,3.11,50,3.11,48.25,3.11,46.82,4.8,46.82,7.72Z"/>
      <path class="cls-1" d="M65.36,10.66c-0.13.64-.46,2.25-0.61,2.71H57V12.84c1.39-.11,1.56-0.23,1.56-1.62V4.84c0-1.39-.15-1.49-1.43-1.59V2.7h4.74V3.24c-1.26.1-1.41,0.2-1.41,1.59v6.45c0,0.8.07,1.12,0.39,1.26a3.68,3.68,0,0,0,1.34.16,2.11,2.11,0,0,0,1.74-.54,4.62,4.62,0,0,0,.89-1.64Z"/>
      <path class="cls-1" d="M74.65,10.66c-0.13.64-.46,2.25-0.61,2.71H66.27V12.84c1.39-.11,1.56-0.23,1.56-1.62V4.84c0-1.39-.15-1.49-1.43-1.59V2.7h4.74V3.24c-1.26.1-1.41,0.2-1.41,1.59v6.45c0,0.8.07,1.12,0.39,1.26a3.68,3.68,0,0,0,1.34.16,2.11,2.11,0,0,0,1.74-.54,4.62,4.62,0,0,0,.89-1.64Z"/>
      <path class="cls-1" d="M84.3,10.69c-0.1.66-.43,2.18-0.57,2.67h-8.2V12.84c1.43-.11,1.57-0.23,1.57-1.61V4.85c0-1.44-.15-1.51-1.35-1.61V2.7h7.56c0,0.33.1,1.48,0.16,2.43l-0.56.08a3.44,3.44,0,0,0-.61-1.41,2.11,2.11,0,0,0-1.72-.43h-1c-0.57,0-.62,0-0.62.56V7.49h1.26c1.41,0,1.57-.1,1.79-1.23h0.56V9.51H82.07c-0.21-1.18-.38-1.25-1.79-1.25H79v2.92a1.4,1.4,0,0,0,.39,1.35,3.81,3.81,0,0,0,1.54.18,2.33,2.33,0,0,0,1.92-.54,5.48,5.48,0,0,0,.89-1.57Z"/>
      <path class="cls-1" d="M96.32,8.85c-0.87.15-1,.23-1,1.26v1.35A7.22,7.22,0,0,0,95.47,13a16.2,16.2,0,0,1-3.72.61c-3.74,0-6.17-2.2-6.17-5.46,0-3.77,3.05-5.69,6.41-5.69a15,15,0,0,1,3.18.46c0,0.57.13,1.44,0.26,2.67l-0.56.1A3,3,0,0,0,91.7,3.11c-2.17,0-3.92,1.8-3.92,4.77,0,2.43,1.28,5.08,4.13,5.08A2.49,2.49,0,0,0,93,12.74a1,1,0,0,0,.43-1V10.27c0-1.15-.1-1.26-1.77-1.41V8.33h4.64V8.85Z"/>
      <path class="cls-1" d="M106.27,10.69c-0.1.66-.43,2.18-0.57,2.67h-8.2V12.84c1.43-.11,1.57-0.23,1.57-1.61V4.85c0-1.44-.15-1.51-1.35-1.61V2.7h7.56c0,0.33.1,1.48,0.16,2.43l-0.56.08a3.44,3.44,0,0,0-.61-1.41,2.11,2.11,0,0,0-1.72-.43h-1c-0.57,0-.62,0-0.62.56V7.49h1.26c1.41,0,1.57-.1,1.79-1.23h0.56V9.51H104c-0.21-1.18-.38-1.25-1.79-1.25H101v2.92a1.4,1.4,0,0,0,.39,1.35,3.81,3.81,0,0,0,1.54.18,2.33,2.33,0,0,0,1.92-.54,5.48,5.48,0,0,0,.89-1.57Z"/>
      <path class="cls-1" d="M122.55,7.92A5.43,5.43,0,0,1,117,13.61a5.35,5.35,0,0,1-5.46-5.53,5.48,5.48,0,0,1,5.66-5.63A5.31,5.31,0,0,1,122.55,7.92Zm-8.84-.2c0,2.9,1.39,5.23,3.58,5.23,1.66,0,3.05-1.53,3.05-4.59,0-3.33-1.49-5.25-3.49-5.25C115.13,3.11,113.7,4.8,113.7,7.72Z"/>
      <path class="cls-1" d="M131.26,5.26a3.51,3.51,0,0,0-.59-1.38c-0.31-.39-0.72-0.51-1.77-0.51h-1c-0.54,0-.61,0-0.61.56V7.64h1.48c1.46,0,1.59-.15,1.79-1.2h0.54V9.67h-0.54c-0.18-1.12-.33-1.28-1.79-1.28h-1.48v2.74c0,1.49.15,1.59,1.59,1.71v0.52H124V12.84c1.25-.11,1.39-0.21,1.39-1.71V4.9c0-1.46-.15-1.56-1.36-1.66V2.7h7.56c0,0.39.1,1.57,0.18,2.48Z"/>
      <path class="cls-1" d="M37.47,16a4.79,4.79,0,0,1,2.84.66,2.77,2.77,0,0,1,1.15,2.38c0,2.18-1.61,3.18-3.3,3.4a3.28,3.28,0,0,1-.69,0L36.3,22.2v2.38c0,1.38.15,1.48,1.57,1.59V26.7H33V26.17c1.26-.11,1.41-0.23,1.41-1.61V18.18c0-1.41-.15-1.51-1.31-1.61V16h4.35ZM36.3,21.6a3,3,0,0,0,1,.16c0.77,0,2.08-.48,2.08-2.64,0-1.82-1.08-2.48-2.2-2.48a1.28,1.28,0,0,0-.72.16,0.77,0.77,0,0,0-.16.61V21.6Z"/>
      <path class="cls-1" d="M51.48,24c-0.1.66-.43,2.18-0.57,2.67H42.7V26.17c1.43-.11,1.57-0.23,1.57-1.61V18.18c0-1.44-.15-1.51-1.35-1.61V16H50.5c0,0.33.1,1.48,0.16,2.43l-0.56.08a3.45,3.45,0,0,0-.61-1.41,2.11,2.11,0,0,0-1.72-.43h-1c-0.57,0-.62,0-0.62.56v3.56h1.26c1.41,0,1.57-.1,1.79-1.23h0.56v3.25H49.25c-0.21-1.18-.38-1.25-1.79-1.25H46.2v2.92a1.39,1.39,0,0,0,.39,1.34,3.81,3.81,0,0,0,1.54.18,2.33,2.33,0,0,0,1.92-.54,5.47,5.47,0,0,0,.89-1.58Z"/>
      <path class="cls-1" d="M62.6,26.84l-0.51,0c-1.77-.08-2.43-0.51-3.12-1.56-0.48-.72-1-1.66-1.46-2.49a1.15,1.15,0,0,0-1.2-.69H55.94v2.48c0,1.35.15,1.49,1.41,1.61V26.7H52.63V26.17c1.26-.11,1.44-0.25,1.44-1.61V18.15c0-1.35-.15-1.48-1.38-1.58V16h4.41a5,5,0,0,1,2.82.59A2.5,2.5,0,0,1,61,18.81,2.89,2.89,0,0,1,59,21.51c0.26,0.51.89,1.61,1.38,2.35a11.16,11.16,0,0,0,1.3,1.75,2.21,2.21,0,0,0,1.07.74Zm-6.12-5.36A2.55,2.55,0,0,0,58.16,21a2.4,2.4,0,0,0,.82-2c0-1.76-1-2.41-2.1-2.41a1.43,1.43,0,0,0-.79.16,0.84,0.84,0,0,0-.15.66v4h0.54Z"/>
      <path class="cls-1" d="M70.84,18.59a3.51,3.51,0,0,0-.59-1.38c-0.31-.39-0.72-0.51-1.77-0.51h-1c-0.54,0-.61,0-0.61.56V21h1.48c1.46,0,1.59-.15,1.79-1.2h0.54V23H70.17c-0.18-1.12-.33-1.28-1.79-1.28H66.91v2.74c0,1.49.15,1.59,1.59,1.71V26.7H63.61V26.17C64.86,26.06,65,26,65,24.47V18.23c0-1.46-.15-1.56-1.36-1.66V16H71.2c0,0.39.1,1.58,0.18,2.48Z"/>
      <path class="cls-1" d="M84,21.25a5.43,5.43,0,0,1-5.59,5.69,5.35,5.35,0,0,1-5.46-5.53,5.48,5.48,0,0,1,5.66-5.63A5.31,5.31,0,0,1,84,21.25Zm-8.84-.2c0,2.9,1.39,5.23,3.58,5.23,1.66,0,3.05-1.53,3.05-4.59,0-3.33-1.49-5.25-3.49-5.25C76.59,16.45,75.16,18.13,75.16,21.05Z"/>
      <path class="cls-1" d="M95.41,26.84l-0.51,0c-1.77-.08-2.43-0.51-3.12-1.56-0.48-.72-1-1.66-1.46-2.49a1.15,1.15,0,0,0-1.2-.69H88.75v2.48c0,1.35.15,1.49,1.41,1.61V26.7H85.43V26.17c1.26-.11,1.44-0.25,1.44-1.61V18.15c0-1.35-.15-1.48-1.38-1.58V16h4.41a5,5,0,0,1,2.82.59,2.5,2.5,0,0,1,1.1,2.18,2.89,2.89,0,0,1-2.07,2.71c0.26,0.51.89,1.61,1.38,2.35a11.16,11.16,0,0,0,1.3,1.75,2.21,2.21,0,0,0,1.07.74Zm-6.12-5.36A2.55,2.55,0,0,0,91,21a2.4,2.4,0,0,0,.82-2c0-1.76-1-2.41-2.1-2.41a1.43,1.43,0,0,0-.79.16,0.84,0.84,0,0,0-.15.66v4h0.54Z"/>
      <path class="cls-1" d="M105.22,26.7V26.17c1.28-.13,1.35-0.25,1.35-1.84l0-6.45h-0.07l-3.76,8.69h-0.43l-3.46-8.51h0L98.54,22.5a20.63,20.63,0,0,0,0,2.67c0,0.75.39,0.89,1.49,1V26.7h-3.9V26.16c0.94-.08,1.25-0.34,1.35-1a29.34,29.34,0,0,0,.34-3.07l0.25-3.3c0.15-2,0-2.13-1.41-2.26V16h3.15l3.36,7.55L106.58,16h3.12v0.54c-1.36.13-1.44,0.21-1.41,1.71l0.16,6.05c0,1.59.1,1.71,1.44,1.84V26.7h-4.67Z"/>
      <path class="cls-1" d="M111.31,26.7V26.17c1.26-.11,1.41-0.21,1.41-1.61V18.18c0-1.39-.15-1.51-1.41-1.61V16H116v0.54c-1.26.1-1.39,0.21-1.39,1.61v6.38c0,1.38.13,1.49,1.39,1.61V26.7h-4.71Z"/>
      <path class="cls-1" d="M128.83,16.56c-0.89,0-1.25.28-1.33,1a20.62,20.62,0,0,0-.13,2.74v6.54h-0.69l-6.89-8.33h0v3.85a24.93,24.93,0,0,0,.11,2.69c0.08,0.77.39,1,1.58,1.1V26.7h-4V26.17c0.92-.07,1.31-0.31,1.39-1a25.25,25.25,0,0,0,.13-2.74V18.89c0-1.12,0-1.35-.33-1.72a1.71,1.71,0,0,0-1.41-.61V16h2.82l6.48,7.56h0V20.32c0-1.48-.08-2.25-0.12-2.72-0.1-.71-0.44-1-1.62-1V16h4v0.53Z"/>
      <path class="cls-1" d="M140.79,22.19c-0.87.15-1,.23-1,1.26v1.35a7.21,7.21,0,0,0,.11,1.54,16.2,16.2,0,0,1-3.72.61c-3.74,0-6.17-2.2-6.17-5.46,0-3.77,3.05-5.69,6.41-5.69a15,15,0,0,1,3.18.46c0,0.57.13,1.44,0.26,2.67l-0.56.1a3,3,0,0,0-3.18-2.58c-2.17,0-3.92,1.8-3.92,4.77,0,2.43,1.28,5.08,4.13,5.08a2.5,2.5,0,0,0,1.12-.23,1,1,0,0,0,.43-1V23.6c0-1.15-.1-1.26-1.77-1.41V21.66h4.64v0.53Z"/>
      <path class="cls-1" d="M152.22,26.7V26.17c1-.15,1.08-0.33.85-1s-0.46-1.31-.75-2.1H149c-0.21.61-.44,1.23-0.64,1.89-0.28.89-.2,1.08,1,1.23V26.7h-3.62V26.17c1.07-.15,1.28-0.29,1.84-1.71L151,16l0.72-.2c1,2.85,2.08,5.81,3.15,8.63,0.54,1.44.75,1.62,1.8,1.75V26.7h-4.45Zm-1.48-8.22h0c-0.48,1.26-.92,2.54-1.38,3.77H152Z"/>
      <path class="cls-1" d="M167.85,26.84l-0.51,0c-1.77-.08-2.43-0.51-3.12-1.56-0.48-.72-1-1.66-1.46-2.49a1.15,1.15,0,0,0-1.2-.69h-0.38v2.48c0,1.35.15,1.49,1.41,1.61V26.7h-4.72V26.17c1.26-.11,1.44-0.25,1.44-1.61V18.15c0-1.35-.15-1.48-1.38-1.58V16h4.41a5,5,0,0,1,2.82.59,2.5,2.5,0,0,1,1.1,2.18,2.89,2.89,0,0,1-2.07,2.71c0.26,0.51.89,1.61,1.38,2.35a11.16,11.16,0,0,0,1.3,1.75,2.21,2.21,0,0,0,1.07.74Zm-6.12-5.36a2.55,2.55,0,0,0,1.67-.44,2.4,2.4,0,0,0,.82-2c0-1.76-1-2.41-2.1-2.41a1.43,1.43,0,0,0-.79.16,0.84,0.84,0,0,0-.15.66v4h0.54Z"/>
      <path class="cls-1" d="M177.11,18.74a3.94,3.94,0,0,0-.64-1.61c-0.3-.33-0.66-0.43-1.72-0.43h-0.89v7.86c0,1.36.15,1.49,1.64,1.61V26.7h-5.12V26.17c1.41-.11,1.57-0.25,1.57-1.61V16.71h-0.74c-1.35,0-1.66.15-1.89,0.46a4.09,4.09,0,0,0-.62,1.59h-0.56c0.07-1.12.16-2.28,0.2-3.13h0.38a0.86,0.86,0,0,0,.92.41h6.56a1,1,0,0,0,.9-0.41h0.38c0,0.71.08,2.07,0.16,3.08Z"/>
      <path class="cls-1" d="M185.07,18.64c-0.33-1-.89-2.21-2.25-2.21a1.61,1.61,0,0,0-1.67,1.67c0,1,.67,1.56,2.07,2.25,1.56,0.79,2.87,1.64,2.87,3.35s-1.54,3.25-3.87,3.25a5.21,5.21,0,0,1-1.62-.25,5.84,5.84,0,0,1-.94-0.34,19.76,19.76,0,0,1-.48-2.69l0.56-.16c0.3,1,1.18,2.8,2.79,2.8a1.68,1.68,0,0,0,1.77-1.82c0-1-.79-1.66-2-2.3-1.46-.75-2.8-1.62-2.8-3.3s1.36-3.1,3.61-3.1a7.39,7.39,0,0,1,2.21.41c0.07,0.61.16,1.3,0.29,2.33Z"/>
    </g>
    <g>
      <polygon class="cls-2" points="13.09 14.52 0 27.61 0 14.52 13.09 14.52"/>
      <polygon class="cls-2" points="0 13.68 0 0.59 13.09 13.68 0 13.68"/>
      <polygon class="cls-2" points="27.61 0 14.52 13.09 14.52 0 27.61 0"/>
      <polygon class="cls-2" points="13.68 13.09 0.59 0 13.68 0 13.68 13.09"/>
      <polygon class="cls-2" points="15.11 13.68 28.2 0.59 28.2 13.68 15.11 13.68"/>
      <polygon class="cls-2" points="28.2 14.52 28.2 27.61 15.11 14.52 28.2 14.52"/>
      <polygon class="cls-2" points="13.68 15.11 0.59 28.2 13.68 28.2 13.68 15.11"/>
      <polygon class="cls-2" points="14.52 15.11 14.52 28.2 27.61 28.2 14.52 15.11"/>
    </g>
  </g>
</svg>
