<?xml version="1.0" encoding="utf-8"?>
<!-- Generator: Adobe Illustrator 22.0.1, SVG Export Plug-In . SVG Version: 6.00 Build 0)  -->
<svg version="1.1" id="chapman-university-horizontal"
	 xmlns="http://www.w3.org/2000/svg" xmlns:xlink="http://www.w3.org/1999/xlink" x="0px" y="0px" viewBox="0 0 273.7 28.1"
	 style="enable-background:new 0 0 273.7 28.1;" xml:space="preserve">
<style type="text/css">
	.st0{fill:#A50034;}
	.st1{fill:#231F20;}
</style>
<title>Chapman University</title>
<path id="window" class="st0" d="M13,14.5l-13,13v-13H13z M0,13.6v-13l13,13H0z M27.5,0l-13,13V0H27.5z M13.6,13L0.6,0h13V13z
	 M15.1,13.6l13-13v13H15.1z M28.1,14.5v13l-13-13H28.1z M13.6,15.1l-13,13h13V15.1z M14.5,15.1v13h13L14.5,15.1z"/>
<g id="chapman-university">
	<path class="st1" d="M48,10.3c-0.7-2.5-2.1-3.2-4.2-3.2c-3.9,0-5.7,3-5.7,6.4c0,4.2,2.2,7,5.7,7c2.5,0,3.6-1.2,4.7-3.5l0.5,0.1
		c-0.3,0.9-0.8,2.7-1.1,3.5c-1.3,0.4-2.7,0.6-4.1,0.6c-5.5,0-7.9-3.8-7.9-7.2c0-4.5,3.5-7.7,8.3-7.7c1.4,0,2.7,0.2,4,0.6
		c0.2,1.2,0.3,2.2,0.4,3.3L48,10.3z M61.7,13V9.9c0-2.4-0.2-2.5-1.9-2.7V6.7h5.8v0.5c-1.8,0.1-2,0.3-2,2.7v7.9c0,2.4,0.2,2.5,2,2.7
		V21h-6v-0.5c1.9-0.1,2.1-0.3,2.1-2.7v-3.9h-7.6v3.9c0,2.4,0.2,2.5,2,2.7V21h-5.8v-0.5c1.8-0.1,2-0.3,2-2.7V9.9
		c0-2.4-0.2-2.5-2.1-2.7V6.7H56v0.5c-1.7,0.1-1.9,0.3-1.9,2.7V13H61.7z M75.3,20.5l0.7-0.1c0.8-0.1,0.9-0.3,0.7-1
		c-0.2-0.5-0.8-2.2-1.4-3.8h-4.4c-0.2,0.6-0.8,2.3-1.1,3.2c-0.4,1.3-0.2,1.6,0.8,1.6l0.7,0.1V21h-4.7v-0.5c1.4-0.1,1.6-0.3,2.4-2.2
		l4.5-11.7L74,6.4l1.6,4.2c1,2.8,2,5.6,2.8,7.8c0.7,1.8,1,2,2.3,2.1V21h-5.3L75.3,20.5z M71.1,14.7H75l-2-5.4L71.1,14.7z M85.2,17.8
		c0,2.4,0.2,2.5,2.3,2.7V21h-6.1v-0.5c1.8-0.1,2-0.3,2-2.7V9.9c0-2.4-0.2-2.5-1.9-2.7V6.7H87c1.3-0.1,2.5,0.2,3.6,0.9
		c0.9,0.7,1.5,1.8,1.4,3c0,2.4-1.9,4.3-4.3,4.4h-1l-1.6-0.4v3.2L85.2,17.8z M85.2,14c0.5,0.2,1.1,0.3,1.6,0.3c1.4,0,3.2-0.7,3.2-3.6
		c0-2.4-1.2-3.3-3.5-3.3c-0.4,0-0.7,0-1.1,0.1c-0.1,0-0.2,0.2-0.2,0.6C85.2,8.1,85.2,14,85.2,14z M97.5,6.7l5.3,11.3L108,6.7h3.6
		v0.5c-1.9,0.2-2,0.2-2,2.7l0.2,7.9c0.1,2.5,0.1,2.5,2.1,2.7V21h-5.8v-0.5c1.9-0.2,1.9-0.2,1.9-2.7L107.9,9h-0.1l-5.4,11.8h-0.6
		L96.9,9.3l-0.2,6.1c-0.1,1.3-0.1,2.6,0,3.9c0.1,0.8,0.6,1,2.1,1.1V21h-5.2v-0.5c1.2-0.1,1.7-0.3,1.8-1.1c0.2-1.4,0.3-2.8,0.4-4.2
		l0.3-4.6c0.2-2.9,0-3.2-2.1-3.3V6.7H97.5z M121.6,20.5l0.7-0.1c0.8-0.1,0.9-0.3,0.7-1c-0.2-0.5-0.8-2.2-1.4-3.8h-4.4
		c-0.2,0.6-0.8,2.3-1.1,3.2c-0.4,1.3-0.2,1.6,0.8,1.6l0.7,0.1V21h-4.7v-0.5c1.4-0.1,1.6-0.3,2.4-2.2l4.5-11.7l0.5-0.2l1.6,4.2
		c1,2.8,2,5.6,2.8,7.8c0.7,1.8,1,2,2.3,2.1V21h-5.3L121.6,20.5z M117.4,14.7h3.9l-1.9-5.4L117.4,14.7z M140.7,21.1h-0.6l-9.5-11.6
		v5.6c0,1.4,0,2.8,0.2,4.2c0.1,0.8,0.7,1.1,2.1,1.1V21h-5.3v-0.5c1.2,0,1.8-0.4,1.9-1.1c0.1-1.4,0.2-2.8,0.2-4.2v-4.8
		c0-1.6,0-1.9-0.4-2.4c-0.5-0.5-1.2-0.8-1.9-0.8V6.7h3.2l9.2,11v-5.2c0-1.4,0-2.8-0.2-4.2c-0.1-0.8-0.7-1.1-2.1-1.1V6.7h5.3v0.5
		c-1.2,0-1.8,0.4-1.9,1.1c-0.1,1.4-0.2,2.8-0.2,4.2L140.7,21.1L140.7,21.1z M154.8,6.7v0.5c-1.8,0.1-1.9,0.3-1.9,2.7v4.6
		c-0.1,1.5,0.2,2.9,0.9,4.2c0.7,1,1.9,1.6,3.2,1.5c1.3,0,2.5-0.6,3.2-1.6c0.8-1.5,1.1-3.2,1-4.9v-1.2c0-1.4-0.1-2.8-0.2-4.2
		c-0.1-0.8-0.7-1.1-2.1-1.1V6.7h5.3v0.5c-1.2,0-1.8,0.4-1.9,1.1c-0.1,1.4-0.2,2.8-0.2,4.2V14c0,2.5-0.4,4.3-1.7,5.7
		c-2.1,1.9-5.3,2.1-7.6,0.5c-1.2-0.9-1.7-2.4-1.7-4.9V9.9c0-2.4-0.2-2.5-2-2.7V6.7H154.8z M178.3,21.1h-0.6l-9.5-11.6v5.6
		c0,1.4,0,2.8,0.2,4.2c0.1,0.8,0.7,1.1,2.1,1.1V21h-5.3v-0.5c1.2,0,1.8-0.4,1.9-1.1c0.1-1.4,0.2-2.8,0.2-4.2v-4.8
		c0-1.6,0-1.9-0.4-2.4c-0.5-0.5-1.2-0.8-1.9-0.7V6.7h3.2l9.2,11v-5.2c0-1.4,0-2.8-0.2-4.2c-0.1-0.8-0.7-1.1-2.1-1.1V6.7h5.3v0.5
		c-1.2,0-1.8,0.4-1.9,1.1c-0.1,1.4-0.2,2.8-0.2,4.2C178.3,12.5,178.3,21.1,178.3,21.1z M185.5,17.8c0,2.4,0.2,2.5,2,2.7V21h-5.8
		v-0.5c1.8-0.1,2-0.3,2-2.7V9.9c0-2.4-0.2-2.5-2-2.7V6.7h5.8v0.5c-1.8,0.1-2,0.3-2,2.7V17.8z M195.2,21.1c-1.5-3.9-3.6-9.3-4.5-11.8
		c-0.7-1.8-1-2-2.3-2.1V6.7h5.3v0.5L193,7.3c-0.8,0.1-0.9,0.3-0.7,1c0.6,1.6,2.3,5.9,3.9,10c1.1-3,3-8,3.5-9.4
		c0.4-1.2,0.2-1.5-0.8-1.6l-0.7-0.1V6.7h4.8v0.5c-1.5,0.2-1.7,0.3-2.5,2.2c-0.3,0.7-3,7.2-4.6,11.6C195.9,21,195.2,21.1,195.2,21.1z
		 M205.9,9.9c0-2.4-0.2-2.5-1.9-2.7V6.7h9.6c0,0.4,0.1,2,0.2,3.2l-0.6,0.1c-0.1-0.7-0.3-1.4-0.8-2c-0.4-0.4-1.1-0.5-2.4-0.5h-1.7
		c-0.6,0-0.7,0-0.7,0.7v5h2.3c1.9,0,2-0.1,2.2-1.8h0.6v4.3h-0.6c0-0.5-0.1-1.1-0.5-1.5c-0.5-0.3-1.1-0.4-1.7-0.3h-2.2v3.9
		c0,1.2,0.1,1.9,0.6,2.2c0.7,0.2,1.5,0.3,2.2,0.3c1,0.1,2-0.1,2.8-0.6c0.5-0.6,0.8-1.4,1.1-2.1l0.6,0.1c-0.2,1.1-0.5,2.3-0.8,3.4
		h-10.4v-0.5c2-0.1,2.1-0.3,2.1-2.7L205.9,9.9L205.9,9.9z M220,17.8c0,2.4,0.2,2.5,2,2.7V21h-5.8v-0.5c1.8-0.1,2-0.3,2-2.7V9.9
		c0-2.4-0.2-2.5-1.9-2.7V6.7h5.6c1.2-0.1,2.4,0.2,3.5,0.8c0.9,0.6,1.5,1.7,1.4,2.8c0,1.8-1.2,3.3-2.9,3.8c0.6,1.1,1.3,2.1,2,3.1
		c0.6,0.8,1.2,1.7,1.8,2.4c0.4,0.5,1,0.9,1.6,1.1v0.4H229c-2.5-0.1-3.3-0.8-4.1-2c-0.7-1-1.6-2.6-2.2-3.6c-0.3-0.5-0.8-0.8-1.4-0.8
		H220V17.8z M220,14.1h1.3c0.8,0.1,1.6-0.1,2.2-0.6c0.9-0.7,1.3-1.8,1.3-2.9c0.1-1.7-1.1-3.1-2.8-3.2c0,0-0.1,0-0.1,0h-0.4
		c-0.4,0-0.8,0-1.2,0.1c-0.1,0-0.2,0.2-0.2,0.6L220,14.1L220,14.1z M230.6,17.1c0.4,1,1.5,3.5,3.8,3.5c1.4,0.1,2.6-1,2.7-2.4v-0.4
		c0-1.9-1.4-2.6-2.8-3.3c-0.7-0.4-3.7-1.4-3.7-4c0-2.2,1.6-4,4.5-4c0.6,0,1.2,0.1,1.8,0.3c0.3,0.1,0.5,0.2,0.8,0.2
		c0.1,0.8,0.2,1.6,0.4,3l-0.6,0.1c-0.4-1.3-1-2.8-3-2.8c-1.2-0.1-2.3,0.9-2.4,2.1c0,0,0,0.1,0,0.1v0.2c0,1.6,1.2,2.3,2.8,3.1
		c1.4,0.6,3.8,1.5,3.8,4.3c0,2.5-2.1,4.4-4.9,4.4c-0.7,0-1.4-0.1-2.1-0.3c-0.6-0.2-0.9-0.4-1.2-0.5c-0.2-0.6-0.4-2.1-0.6-3.3
		L230.6,17.1z M244.3,17.8c0,2.4,0.2,2.5,2,2.7V21h-5.8v-0.5c1.8-0.1,2-0.3,2-2.7V9.9c0-2.4-0.2-2.5-2-2.7V6.7h5.8v0.5
		c-1.8,0.1-2,0.3-2,2.7V17.8z M254.7,17.8c0,2.4,0.2,2.5,2.3,2.7V21h-6.4v-0.5c2.1-0.1,2.2-0.3,2.2-2.7V7.5h-1c-2,0-2.5,0.3-2.9,0.7
		c-0.4,0.6-0.6,1.2-0.8,1.9h-0.6c0.1-1.3,0.2-2.7,0.3-3.9h0.3c0.2,0.4,0.6,0.7,1.1,0.6h9c0.4,0,0.8-0.2,1-0.6h0.3
		c0,0.9,0.1,2.5,0.2,3.8h-0.6c-0.1-0.7-0.4-1.4-0.8-2c-0.4-0.4-1-0.6-2.4-0.6h-1.5L254.7,17.8L254.7,17.8z M268,17.8
		c0,2.4,0.2,2.5,2.3,2.7V21H264v-0.5c2-0.1,2.2-0.3,2.2-2.7v-2.5c0-0.5-0.2-0.9-0.5-1.3c-1-1.7-1.8-3.3-2.8-4.9s-1-1.7-2.3-1.8V6.7
		h5.3v0.5l-1,0.1c-0.5,0.1-0.7,0.3-0.3,1c1,1.8,2,3.7,3.1,5.5c0.9-1.8,1.9-3.6,2.7-5.4c0.4-0.8,0.2-1-0.6-1.1l-0.9-0.1V6.7h4.8v0.5
		c-1.5,0.1-1.6,0.4-2.5,1.9s-1.8,3-2.8,4.8c-0.3,0.3-0.4,0.8-0.4,1.2L268,17.8L268,17.8z"/>
</g>
</svg>
