<svg version="1.1" id="Layer_1" xmlns="http://www.w3.org/2000/svg" xmlns:xlink="http://www.w3.org/1999/xlink" x="0px" y="0px" viewBox="-40 25 200 250" enable-background="new 0 0 200 250" xml:space="preserve">
    <g>
        <g>
            <g>
                <g>
                    <linearGradient id="SVGID_1_" gradientUnits="userSpaceOnUse" x1="-193.0579" y1="-318.2992" x2="-311.0899" y2="-432.4989" gradientTransform="matrix(0.6746 0 0 0.6746 348.6781 406.2362)">
                        <stop offset="0" style="stop-color:#BFD62F" />
                        <stop offset="1" style="stop-color:#80B341" />
                    </linearGradient>
                    <path fill="url(#SVGID_1_)" d="M107.3,85l1.1-0.8C108,84.3,107.7,84.6,107.3,85z" />
                    <path fill="#333333" d="M113.7,99.9c-2-1.2-3.9-3.2-5.2-5.3c-1.3-2.1-2.2-4.5-2.2-6.5c0-1.4,0.4-2.4,1-3.1l-92.8,69.1
                c-1.3,0.5-2.2,1.9-2.2,3.9c0,2,0.8,4.4,2.2,6.5c1.3,2.1,3.2,4.1,5.2,5.3l78.4,46.9l93.9-70L113.7,99.9z" />
                </g>
                <polygon fill="#020202" points="98.2,219.8 98.2,216.7 192.1,146.8 192.1,149.9       " />
                <path fill="#020202" d="M19.3,151.6c-5.8-3.5-10.5-1.6-10.5,4.2l0,0c0,5.8,4.7,13.3,10.5,16.8l0,0l79,47.2l0,0v-3.1l0,0
              l-78.4-46.9l0,0c-4.1-2.5-7.4-7.7-7.4-11.8l0,0c0-4.1,3.3-5.4,7.4-3l0,0L98.2,202l0,0v-3.1l0,0L19.3,151.6z" />
                <linearGradient id="SVGID_2_" gradientUnits="userSpaceOnUse" x1="-434.3729" y1="-438.7595" x2="-533.462" y2="-521.5918" gradientTransform="matrix(0.6746 0 0 0.6746 348.6781 406.2362)">
                    <stop offset="0" style="stop-color:#BFD62F" />
                    <stop offset="1" style="stop-color:#80B341" />
                </linearGradient>
                <path fill="url(#SVGID_2_)" d="M11.8,150.3c1.9-0.8,4.5-0.4,7.4,1.4l93.9-69.9c-2.9-1.7-5.5-2.1-7.4-1.4L11.8,150.3z" />
                <linearGradient id="SVGID_3_" gradientUnits="userSpaceOnUse" x1="-372.2744" y1="-403.0123" x2="-602.1708" y2="-569.4358" gradientTransform="matrix(0.6746 0 0 0.6746 348.6781 406.2362)">
                    <stop offset="0" style="stop-color:#BFD62F" />
                    <stop offset="1" style="stop-color:#80B341" />
                </linearGradient>
                <polygon fill="url(#SVGID_3_)" points="98.2,198.9 19.3,151.6 113.2,81.7 192.1,128.9       " />
                <linearGradient id="SVGID_4_" gradientUnits="userSpaceOnUse" x1="-238.0341" y1="-267.4232" x2="-279.8557" y2="-326.2834" gradientTransform="matrix(0.6746 0 0 0.6746 348.6781 406.2362)">
                    <stop offset="0" style="stop-color:#BFD62F" />
                    <stop offset="1" style="stop-color:#80B341" />
                </linearGradient>
                <polygon fill="url(#SVGID_4_)" points="98.2,202 98.2,198.9 192.1,128.9 192.1,132      " />
            </g>
            <g>
                <linearGradient id="SVGID_5_" gradientUnits="userSpaceOnUse" x1="-550.3096" y1="-141.4566" x2="-354.4768" y2="-432.4967" gradientTransform="matrix(0.6475 0 0 0.6475 369.8683 375.2506)">
                    <stop offset="0" style="stop-color:#F5F5F5" />
                    <stop offset="1" style="stop-color:#CCCCCC" />
                </linearGradient>
                <polygon fill="url(#SVGID_5_)" points="98.7,210.4 14.9,161.6 105,94.4 188.8,143.2       " />
                <linearGradient id="SVGID_6_" gradientUnits="userSpaceOnUse" x1="-477.2347" y1="-408.4043" x2="-610.3627" y2="-536.8883" gradientTransform="matrix(0.6475 0 0 0.6475 369.8683 375.2506)">
                    <stop offset="0" style="stop-color:#F5F5F5" />
                    <stop offset="1" style="stop-color:#CCCCCC" />
                </linearGradient>
                <polygon fill="url(#SVGID_6_)" points="98.7,208.4 14.9,159.5 105,92.4 188.8,141.2       " />
                <linearGradient id="SVGID_7_" gradientUnits="userSpaceOnUse" x1="-550.3088" y1="-146.6423" x2="-354.4717" y2="-437.6889" gradientTransform="matrix(0.6475 0 0 0.6475 369.8683 374.6032)">
                    <stop offset="0" style="stop-color:#F5F5F5" />
                    <stop offset="1" style="stop-color:#CCCCCC" />
                </linearGradient>
                <polygon fill="url(#SVGID_7_)" points="98.7,206.4 14.9,157.5 105,90.4 188.8,139.2       " />
                <linearGradient id="SVGID_8_" gradientUnits="userSpaceOnUse" x1="-477.2356" y1="-413.5947" x2="-610.3657" y2="-542.0805" gradientTransform="matrix(0.6475 0 0 0.6475 369.8683 374.6032)">
                    <stop offset="0" style="stop-color:#F5F5F5" />
                    <stop offset="1" style="stop-color:#CCCCCC" />
                </linearGradient>
                <polygon fill="url(#SVGID_8_)" points="98.7,204.4 14.9,155.5 105,88.4 188.8,137.2       " />
                <linearGradient id="SVGID_9_" gradientUnits="userSpaceOnUse" x1="-550.3011" y1="-151.8451" x2="-354.4654" y2="-442.8898" gradientTransform="matrix(0.6475 0 0 0.6475 369.8683 373.9545)">
                    <stop offset="0" style="stop-color:#F5F5F5" />
                    <stop offset="1" style="stop-color:#CCCCCC" />
                </linearGradient>
                <polygon fill="url(#SVGID_9_)" points="98.7,202.3 14.9,153.5 105,86.4 188.8,135.2       " />
                <linearGradient id="SVGID_10_" gradientUnits="userSpaceOnUse" x1="-477.2431" y1="-418.7943" x2="-610.3876" y2="-547.2942" gradientTransform="matrix(0.6475 0 0 0.6475 369.8683 373.9545)">
                    <stop offset="0" style="stop-color:#F5F5F5" />
                    <stop offset="1" style="stop-color:#CCCCCC" />
                </linearGradient>
                <polygon fill="url(#SVGID_10_)" points="98.7,200.3 14.9,151.5 105,84.4 188.8,133.2      " />
            </g>
            <g>
                <path fill="#333333" d="M11.8,150.3c1.9-0.8,4.5-0.4,7.4,1.4l93.9-69.9c-2.9-1.7-5.5-2.1-7.4-1.4L11.8,150.3z" />
                <polygon fill="#333333" points="98.2,198.9 19.3,151.6 113.2,81.7 192.1,128.9      " />
                <polygon fill="#020202" points="98.2,202 98.2,198.9 192.1,128.9 192.1,132       " />
                <g>
                    <path fill="#020202" d="M12.4,158c0-4.1,3.3-5.4,7.4-3L98.2,202v-3.1l-79-47.2c-5.8-3.5-10.5-1.6-10.5,4.2
                c0,1.8,0.5,3.7,1.3,5.7l4.3,2.6C13.1,162.1,12.4,159.9,12.4,158z" />
                </g>
            </g>
        </g>
    </g>
    <g>
        <g>
            <g>
                <g>
                    <linearGradient id="SVGID_11_" gradientUnits="userSpaceOnUse" x1="-195.5877" y1="-358.3781" x2="-313.6197" y2="-472.5778" gradientTransform="matrix(0.6746 0 0 0.6746 348.6781 406.2362)">
                        <stop offset="0" style="stop-color:#BFD62F" />
                        <stop offset="1" style="stop-color:#80B341" />
                    </linearGradient>
                    <path fill="url(#SVGID_11_)" d="M105.6,57.9l1.1-0.8C106.3,57.3,106,57.6,105.6,57.9z" />
                    <path fill="#333333" d="M112,72.8c-2-1.2-3.9-3.2-5.2-5.3c-1.3-2.1-2.2-4.5-2.2-6.5c0-1.4,0.4-2.4,1-3.1l-92.8,69.1
                c-1.3,0.5-2.2,1.9-2.2,3.9c0,2,0.8,4.4,2.2,6.5c1.3,2.1,3.2,4.1,5.2,5.3l78.4,46.9l93.9-70L112,72.8z" />
                </g>
                <polygon fill="#020202" points="96.5,192.8 96.5,189.7 190.4,119.7 190.4,122.8       " />
                <path fill="#020202" d="M17.6,124.6c-5.8-3.5-10.5-1.6-10.5,4.2l0,0c0,5.8,4.7,13.3,10.5,16.8l0,0l79,47.2l0,0v-3.1l0,0
              l-78.4-46.9l0,0c-4.1-2.5-7.4-7.7-7.4-11.8l0,0c0-4.1,3.3-5.4,7.4-3l0,0l78.4,46.9l0,0v-3.1l0,0L17.6,124.6z" />
                <linearGradient id="SVGID_12_" gradientUnits="userSpaceOnUse" x1="-436.9027" y1="-478.8384" x2="-535.9919" y2="-561.6707" gradientTransform="matrix(0.6746 0 0 0.6746 348.6781 406.2362)">
                    <stop offset="0" style="stop-color:#BFD62F" />
                    <stop offset="1" style="stop-color:#80B341" />
                </linearGradient>
                <path fill="url(#SVGID_12_)" d="M10.1,123.2c1.9-0.8,4.5-0.4,7.4,1.4l93.9-69.9c-2.9-1.7-5.5-2.1-7.4-1.4L10.1,123.2z" />
                <linearGradient id="SVGID_13_" gradientUnits="userSpaceOnUse" x1="-374.8042" y1="-443.0912" x2="-604.7007" y2="-609.5146" gradientTransform="matrix(0.6746 0 0 0.6746 348.6781 406.2362)">
                    <stop offset="0" style="stop-color:#BFD62F" />
                    <stop offset="1" style="stop-color:#80B341" />
                </linearGradient>
                <polygon fill="url(#SVGID_13_)" points="96.5,171.8 17.6,124.6 111.5,54.7 190.4,101.9      " />
                <linearGradient id="SVGID_14_" gradientUnits="userSpaceOnUse" x1="-240.5639" y1="-307.5021" x2="-282.3856" y2="-366.3622" gradientTransform="matrix(0.6746 0 0 0.6746 348.6781 406.2362)">
                    <stop offset="0" style="stop-color:#BFD62F" />
                    <stop offset="1" style="stop-color:#80B341" />
                </linearGradient>
                <polygon fill="url(#SVGID_14_)" points="96.5,174.9 96.5,171.8 190.4,101.9 190.4,105       " />
            </g>
            <g>
                <linearGradient id="SVGID_15_" gradientUnits="userSpaceOnUse" x1="-552.9453" y1="-183.2129" x2="-357.1125" y2="-474.253" gradientTransform="matrix(0.6475 0 0 0.6475 369.8683 375.2506)">
                    <stop offset="0" style="stop-color:#F5F5F5" />
                    <stop offset="1" style="stop-color:#CCCCCC" />
                </linearGradient>
                <polygon fill="url(#SVGID_15_)" points="97,183.3 13.2,134.5 103.3,67.4 187.1,116.2      " />
                <linearGradient id="SVGID_16_" gradientUnits="userSpaceOnUse" x1="-479.8704" y1="-450.1606" x2="-612.9985" y2="-578.6446" gradientTransform="matrix(0.6475 0 0 0.6475 369.8683 375.2506)">
                    <stop offset="0" style="stop-color:#F5F5F5" />
                    <stop offset="1" style="stop-color:#CCCCCC" />
                </linearGradient>
                <polygon fill="url(#SVGID_16_)" points="97,181.3 13.2,132.5 103.3,65.4 187.1,114.2      " />
                <linearGradient id="SVGID_17_" gradientUnits="userSpaceOnUse" x1="-552.9445" y1="-188.3986" x2="-357.1074" y2="-479.4452" gradientTransform="matrix(0.6475 0 0 0.6475 369.8683 374.6032)">
                    <stop offset="0" style="stop-color:#F5F5F5" />
                    <stop offset="1" style="stop-color:#CCCCCC" />
                </linearGradient>
                <polygon fill="url(#SVGID_17_)" points="97,179.3 13.2,130.5 103.3,63.4 187.1,112.2      " />
                <linearGradient id="SVGID_18_" gradientUnits="userSpaceOnUse" x1="-479.8713" y1="-455.351" x2="-613.0013" y2="-583.8369" gradientTransform="matrix(0.6475 0 0 0.6475 369.8683 374.6032)">
                    <stop offset="0" style="stop-color:#F5F5F5" />
                    <stop offset="1" style="stop-color:#CCCCCC" />
                </linearGradient>
                <polygon fill="url(#SVGID_18_)" points="97,177.3 13.2,128.5 103.3,61.4 187.1,110.2      " />
                <linearGradient id="SVGID_19_" gradientUnits="userSpaceOnUse" x1="-552.9368" y1="-193.6014" x2="-357.101" y2="-484.6461" gradientTransform="matrix(0.6475 0 0 0.6475 369.8683 373.9545)">
                    <stop offset="0" style="stop-color:#F5F5F5" />
                    <stop offset="1" style="stop-color:#CCCCCC" />
                </linearGradient>
                <polygon fill="url(#SVGID_19_)" points="97,175.3 13.2,126.5 103.3,59.4 187.1,108.2      " />
                <linearGradient id="SVGID_20_" gradientUnits="userSpaceOnUse" x1="-479.8788" y1="-460.5506" x2="-613.0233" y2="-589.0505" gradientTransform="matrix(0.6475 0 0 0.6475 369.8683 373.9545)">
                    <stop offset="0" style="stop-color:#F5F5F5" />
                    <stop offset="1" style="stop-color:#CCCCCC" />
                </linearGradient>
                <polygon fill="url(#SVGID_20_)" points="97,173.3 13.2,124.5 103.3,57.4 187.1,106.2      " />
            </g>
            <g>
                <path fill="#333333" d="M10.1,123.2c1.9-0.8,4.5-0.4,7.4,1.4l93.9-69.9c-2.9-1.7-5.5-2.1-7.4-1.4L10.1,123.2z" />
                <polygon fill="#333333" points="96.5,171.8 17.6,124.6 111.5,54.7 190.4,101.9      " />
                <polygon fill="#020202" points="96.5,174.9 96.5,171.8 190.4,101.9 190.4,105       " />
                <g>
                    <path fill="#020202" d="M10.7,131c0-4.1,3.3-5.4,7.4-3l78.4,46.9v-3.1l-79-47.2c-5.8-3.5-10.5-1.6-10.5,4.2
                c0,1.8,0.5,3.7,1.3,5.7l4.3,2.6C11.4,135,10.7,132.9,10.7,131z" />
                </g>
            </g>
        </g>
    </g>
    <g>
        <g>
            <g>
                <g>
                    <linearGradient id="SVGID_21_" gradientUnits="userSpaceOnUse" x1="-191.9236" y1="-397.5025" x2="-309.9556" y2="-511.7022" gradientTransform="matrix(0.6746 0 0 0.6746 348.6781 406.2362)">
                        <stop offset="0" style="stop-color:#BFD62F" />
                        <stop offset="1" style="stop-color:#80B341" />
                    </linearGradient>
                    <path fill="url(#SVGID_21_)" d="M108.1,31.5l1.1-0.8C108.8,30.9,108.4,31.2,108.1,31.5z" />
                    <path fill="#333333" d="M114.5,46.4c-2-1.2-3.9-3.2-5.2-5.3c-1.3-2.1-2.2-4.5-2.2-6.5c0-1.4,0.4-2.4,1-3.1l-92.8,69.1
                c-1.3,0.5-2.2,1.9-2.2,3.9c0,2,0.8,4.4,2.2,6.5c1.3,2.1,3.2,4.1,5.2,5.3L99,163.3l93.9-70L114.5,46.4z" />
                </g>
                <polygon fill="#020202" points="99,166.4 99,163.3 192.9,93.3 192.9,96.4       " />
                <path fill="#020202" d="M20,98.2c-5.8-3.5-10.5-1.6-10.5,4.2l0,0c0,5.8,4.7,13.3,10.5,16.8l0,0l79,47.2l0,0v-3.1l0,0l-78.4-46.9
              l0,0c-4.1-2.5-7.4-7.7-7.4-11.8l0,0c0-4.1,3.3-5.4,7.4-3l0,0L99,148.5l0,0v-3.1l0,0L20,98.2z" />
                <linearGradient id="SVGID_22_" gradientUnits="userSpaceOnUse" x1="-433.2386" y1="-517.9628" x2="-532.3278" y2="-600.7951" gradientTransform="matrix(0.6746 0 0 0.6746 348.6781 406.2362)">
                    <stop offset="0" style="stop-color:#BFD62F" />
                    <stop offset="1" style="stop-color:#80B341" />
                </linearGradient>
                <path fill="url(#SVGID_22_)" d="M12.6,96.8c1.9-0.8,4.5-0.4,7.4,1.4l93.9-69.9c-2.9-1.7-5.5-2.1-7.4-1.4L12.6,96.8z" />
                <linearGradient id="SVGID_23_" gradientUnits="userSpaceOnUse" x1="-371.1401" y1="-482.2156" x2="-601.0366" y2="-648.6391" gradientTransform="matrix(0.6746 0 0 0.6746 348.6781 406.2362)">
                    <stop offset="0" style="stop-color:#BFD62F" />
                    <stop offset="1" style="stop-color:#80B341" />
                </linearGradient>
                <polygon fill="url(#SVGID_23_)" points="99,145.4 20,98.2 113.9,28.3 192.9,75.5      " />
                <linearGradient id="SVGID_24_" gradientUnits="userSpaceOnUse" x1="-236.8998" y1="-346.6266" x2="-278.7215" y2="-405.4867" gradientTransform="matrix(0.6746 0 0 0.6746 348.6781 406.2362)">
                    <stop offset="0" style="stop-color:#BFD62F" />
                    <stop offset="1" style="stop-color:#80B341" />
                </linearGradient>
                <polygon fill="url(#SVGID_24_)" points="99,148.5 99,145.4 192.9,75.5 192.9,78.6       " />
            </g>
            <g>
                <linearGradient id="SVGID_25_" gradientUnits="userSpaceOnUse" x1="-549.1278" y1="-223.9748" x2="-353.2951" y2="-515.015" gradientTransform="matrix(0.6475 0 0 0.6475 369.8683 375.2506)">
                    <stop offset="0" style="stop-color:#F5F5F5" />
                    <stop offset="1" style="stop-color:#CCCCCC" />
                </linearGradient>
                <polygon fill="url(#SVGID_25_)" points="99.5,156.9 15.7,108.1 105.8,41 189.6,89.8       " />
                <linearGradient id="SVGID_26_" gradientUnits="userSpaceOnUse" x1="-476.0529" y1="-490.9225" x2="-609.181" y2="-619.4065" gradientTransform="matrix(0.6475 0 0 0.6475 369.8683 375.2506)">
                    <stop offset="0" style="stop-color:#F5F5F5" />
                    <stop offset="1" style="stop-color:#CCCCCC" />
                </linearGradient>
                <polygon fill="url(#SVGID_26_)" points="99.5,154.9 15.7,106.1 105.8,39 189.6,87.8       " />
                <linearGradient id="SVGID_27_" gradientUnits="userSpaceOnUse" x1="-549.127" y1="-229.1605" x2="-353.2899" y2="-520.2072" gradientTransform="matrix(0.6475 0 0 0.6475 369.8683 374.6032)">
                    <stop offset="0" style="stop-color:#F5F5F5" />
                    <stop offset="1" style="stop-color:#CCCCCC" />
                </linearGradient>
                <polygon fill="url(#SVGID_27_)" points="99.5,152.9 15.7,104.1 105.8,37 189.6,85.8       " />
                <linearGradient id="SVGID_28_" gradientUnits="userSpaceOnUse" x1="-476.0539" y1="-496.1129" x2="-609.1839" y2="-624.5988" gradientTransform="matrix(0.6475 0 0 0.6475 369.8683 374.6032)">
                    <stop offset="0" style="stop-color:#F5F5F5" />
                    <stop offset="1" style="stop-color:#CCCCCC" />
                </linearGradient>
                <polygon fill="url(#SVGID_28_)" points="99.5,150.9 15.7,102.1 105.8,35 189.6,83.8       " />
                <linearGradient id="SVGID_29_" gradientUnits="userSpaceOnUse" x1="-549.1194" y1="-234.3633" x2="-353.2836" y2="-525.408" gradientTransform="matrix(0.6475 0 0 0.6475 369.8683 373.9545)">
                    <stop offset="0" style="stop-color:#F5F5F5" />
                    <stop offset="1" style="stop-color:#CCCCCC" />
                </linearGradient>
                <polygon fill="url(#SVGID_29_)" points="99.5,148.9 15.7,100.1 105.8,33 189.6,81.8       " />
                <linearGradient id="SVGID_30_" gradientUnits="userSpaceOnUse" x1="-476.0614" y1="-501.3126" x2="-609.2059" y2="-629.8124" gradientTransform="matrix(0.6475 0 0 0.6475 369.8683 373.9545)">
                    <stop offset="0" style="stop-color:#F5F5F5" />
                    <stop offset="1" style="stop-color:#CCCCCC" />
                </linearGradient>
                <polygon fill="url(#SVGID_30_)" points="99.5,146.9 15.7,98.1 105.8,31 189.6,79.8      " />
            </g>
            <g>
                <path fill="#333333" d="M12.6,96.8c1.9-0.8,4.5-0.4,7.4,1.4l93.9-69.9c-2.9-1.7-5.5-2.1-7.4-1.4L12.6,96.8z" />
                <polygon fill="#333333" points="99,145.4 20,98.2 113.9,28.3 192.9,75.5      " />
                <polygon fill="#020202" points="99,148.5 99,145.4 192.9,75.5 192.9,78.6       " />
                <g>
                    <path fill="#020202" d="M13.2,104.6c0-4.1,3.3-5.4,7.4-3L99,148.5v-3.1L20,98.2c-5.8-3.5-10.5-1.6-10.5,4.2
                c0,1.8,0.5,3.7,1.3,5.7l4.3,2.6C13.9,108.6,13.2,106.5,13.2,104.6z" />
                </g>
            </g>
        </g>
    </g>
</svg>
