<svg version="1.1" id="Layer_1" xmlns="http://www.w3.org/2000/svg" xmlns:xlink="http://www.w3.org/1999/xlink" x="0px" y="0px"
         viewBox="40 0 200 250" enable-background="new 0 0 200 250" xml:space="preserve">
      <g>
        <path d="M122.3,118.5c-1.4,0.7,2,2.3,2.4,4c0.4,1.7,1.2,4.1,1.2,4.1l1.3,1.9c0,0,1.2,2.4,0.5,3l3.4,6c0,0,2.5,1.4,3.2,4.6
          c0.6,3.2,2.4,12.6,2.4,12.6s3.9,16.7,4.2,17.4c0.4,0.7,1.1,7.9,0.9,9.8c-0.2,1.9-0.3,2.3,0.3,5.2c0.6,2.9-0.4,8.9,0.1,10.6
          c0.6,1.7,2.3,13.9,2.4,15.7c0.1,1.8,2.2,11.3,2.2,12.2c0.1,0.9-0.3,2.8-1.2,3.1c-0.9,0.4-0.9,0.7-0.1,1.2c0.8,0.6,1.7,2.5,1.4,3.1
          c-0.3,0.6,0.8,0.9,1.2,1.5c0.3,0.6,0.7,1.7,0.7,1.7s0.6,0.4,1.1,0.7c0.5,0.3,2.7,0.9,3.8,1.2c1.1,0.2,5.4,0.8,6.5,0.7
          c1.1-0.1,3.9,1.8,3.7,2.9c-0.2,1.1-4.3,3.6-7.1,4.9c-2.9,1.2-11.9,1.1-13.5,0.6c-1.6-0.5-2.2-0.3-4-0.1c-1.8,0.3-8.1,0.5-9.1-0.1
          c-1-0.6-2-0.8-2-0.8l-2.6,0.3c0,0,0.7-1-0.1-1.7c-0.8-0.7-1.3-2.1-1.4-3.3c-0.1-1.2,0.8-4.2-0.1-5.2c-1-1-1.3-3.3-1.1-5.5
          c0.2-2.2,0.7-9.9,0-11.5c-0.7-1.7-0.1-9.7-0.2-11.7c-0.1-2-0.2-6.9-0.5-8.3c-0.2-1.4-2.2-6.8-1.1-10.7c0,0-0.6-1.8-1.3-3.3
          c-0.7-1.5-3.2-4.4-3.9-6.5c-0.7-2.1-0.9-3-2-5.6c-1.1-2.6-2.9-4.5-3.1-5.8c-0.2-1.4-1.7-3.1-1.7-3.1s-5.8,12.3-6.3,13.4
          c-0.6,1.1-5.2,11.7-9.2,14.5c-4,2.8-19,12.1-22.8,13.3c-3.8,1.1-7.9,4.6-8.3,5.1c-0.4,0.5-2.7,4.3-3.2,5.1c-0.6,0.8-5.5,6-6.3,5.7
          c0,0,0,2-1.3,4.8c-1.2,2.8-3.2,6.3-3.2,6.3l-0.2,1.1c0,0,0.3,0.3,0.4,1.5c0.1,1.2-0.9,1.1,0.4,2c1.3,0.9,1.9,1.6,2,2
          c0,0.5,0.2,0.9,0.7,1.8c0.5,0.9,1.6,3.8,0.1,4.5c-1.5,0.7-10.3,2.7-14.4-4.1c-4.1-6.8-3.7-8.7-6.6-12.8c-2.8-4.1-5-6.5-4.2-8.4
          c0.8-1.9,0.8-1.9,0.8-1.9s-2.5-1.2-0.9-2.9c1.6-1.6,4.9-3.2,4.9-3.2s6.5-2.1,7.3-4.1c0.8-2,7.8-8.3,9-9.6
          c1.2-1.3,14.5-13.4,15-14.2c0.6-0.8,5.9-5.2,8.6-6c2.7-0.8,7-1.2,7.4-2.3c0.4-1.1,1.1-5.9,0.9-9.1c-0.2-3.2,0.7-6.6,1-9.1
          c0.3-2.5,0.7-5.9-0.1-9.8c-0.8-3.9-3.2-12.3-3-14.9c0.2-2.6,2.8-6.8,2.8-6.8l-1.5-2.5c0,0-2.2-7.1-2.1-13.4
          c0.1-6.3-0.6-15.8-0.5-17.3c0.1-1.5,0.7-7,0.9-14.2c0.2-7.2,3-15.4,4.9-19.2c1.9-3.8,5.7-10.6,6.4-11.1c0.7-0.5,7.2-6.1,9.2-6.2
          c2-0.1,3-0.3,3-0.3c1.1-1.4-0.3-8.3-0.3-8.3s-1-0.4-0.5-1c0.5-0.6-3.8-8.3-3.5-14.9c0.3-6.5,8.5-12.2,12.5-13.8
          c4-1.6,8.2,0.7,11.9,2.3c3.7,1.6,4.5,3.2,4.5,3.2c5.4,5.1,1.2,8.5,1.2,8.5s1.7,4.1,0.9,5.3c-0.8,1.2-1.1,1.8-1.1,1.8s3.3,4.4,2.8,5
          c-0.5,0.6-2.5,1-2.5,1l-0.3,1.2c0,0,0.6,1.1,0.2,1.4c-0.4,0.3-0.4,0.3-0.4,0.3s0.5,0.4,0.2,1c-0.3,0.6-0.8,0.8-1,1.3
          c-0.2,0.5,0,1.3,0.1,1.9c0,0.6-0.6,2.8-2.5,2.8c-1.9,0.1-4.4,0.3-5,1.3c-0.6,1-0.8,6.1-0.7,6.7c0,0-0.5,3.2-0.2,3.8
          c0.3,0.6,5.1,8.3,5.6,9.8c0.5,1.5,2,10.8,1.9,15.3c-0.1,4.4-1,8.2-1.2,9.1c-0.9,5.6-0.4,12.8,0,18.5c0.2,3.4-0.1,8.6,0.3,10.1
          C124.1,117,124.1,117.6,122.3,118.5z"/>
        <path d="M98,45.9l3.7-1.7c0,0-6.3-5-12.7,1.3c-6.4,6.4-5.2,9.4-5.2,9.4l-1.1,0.4c0,0-2.9,0.2-3.2,2.6c-0.3,2.5,0.3,2.3,0.3,2.3
          s-3,3.6-4.4,4.4c-1.3,0.8-2.6,0.8-2.5,1.4c0,0.6-0.3,0.9-1.6,1.8c-1.3,0.8-3.7,3.3-4.3,5.9c-0.6,2.6-0.9,3.9-1.9,5
          c-1,1.1-2.1,3.8-2.1,3.8L63,85.2l-1.5,0.2l0.3,1.8l0.1,0.9c0,0,0.1,1.2-1.4,1.9c-1.5,0.7-3.1,2.2-3.2,3.3c-0.1,1.1,0.8,5.5,1,7.2
          c0.2,1.7-1,3.7-1,4.2c0,0.5-0.7,1.7-0.6,3.9c0.1,2.1,0.3,4.6,2.1,6.6c1.8,2.1,3,1.8,3.8,1.8c0.8,0,0.6,3.2,0.6,3.2s2.8,1.4,3.9,0.7
          c1-0.7,4.1-0.4,4.1-0.4l0.8,4.1c0,0-0.6,0-0.6,3.6c0,3.5,0.5,6.4,0.5,6.4l0.6,2.9l2.6,2.2c0,0-1.1-1-1.8-4.8
          c-0.7-3.8-1.6-4.4-0.9-7.2c0.8-2.8,0.6-5,0.6-5l5.1,5.2c0,0,4,3,4.3,2.4c0.3-0.6,7.1-7.6,6.5-13c-0.6-5.3,3.9-40.6,6.2-47.8
          C97.5,62.4,98,45.9,98,45.9z"/>
      </g>
      </svg>