<?xml version="1.0" encoding="utf-8"?>
<!-- Generator: Adobe Illustrator 16.0.0, SVG Export Plug-In . SVG Version: 6.00 Build 0)  -->
<!DOCTYPE svg PUBLIC "-//W3C//DTD SVG 1.1//EN" "http://www.w3.org/Graphics/SVG/1.1/DTD/svg11.dtd">
<svg version="1.1" id="Layer_1" xmlns="http://www.w3.org/2000/svg" xmlns:xlink="http://www.w3.org/1999/xlink" x="0px" y="0px"
	 width="100px" height="100px" viewBox="0 0 100 100" enable-background="new 0 0 100 100" xml:space="preserve">
<path d="M74.528,41.815c0-13.807-11.194-25-25-25c-13.806,0-25,11.193-25,25c0,9.253,5.027,17.332,12.5,21.655v11.678l8.333,8.333
	h8.332l8.334-8.333V63.471C69.503,59.147,74.528,51.068,74.528,41.815z M55.778,75.148h-12.5c-1.145,0-2.083-0.938-2.083-2.083
	s0.938-2.084,2.083-2.084h12.5c1.147,0,2.083,0.938,2.083,2.084S56.926,75.148,55.778,75.148z M57.861,60.921V41.815
	c2.303,0,4.167-1.864,4.167-4.167c0-2.303-1.864-4.167-4.167-4.167s-4.167,1.864-4.167,4.167v24.585
	c-1.354,0.276-2.75,0.415-4.166,0.415s-2.81-0.143-4.167-0.415V37.648c0-2.303-1.864-4.167-4.167-4.167
	c-2.303,0-4.167,1.864-4.167,4.167c0,2.303,1.864,4.167,4.167,4.167v19.105c-2.356-1.029-4.525-2.5-6.398-4.372
	c-3.935-3.938-6.102-9.169-6.102-14.733c0-5.564,2.167-10.795,6.102-14.732c3.937-3.935,9.167-6.102,14.731-6.102
	c5.566,0,10.794,2.167,14.733,6.102c3.935,3.937,6.1,9.167,6.1,14.732c0,5.564-2.165,10.795-6.1,14.731
	C62.386,58.419,60.217,59.892,57.861,60.921z"/>
</svg>
