<?xml version="1.0" encoding="utf-8"?>
<!-- Generator: Adobe Illustrator 16.0.0, SVG Export Plug-In . SVG Version: 6.00 Build 0)  -->
<!DOCTYPE svg PUBLIC "-//W3C//DTD SVG 1.1//EN" "http://www.w3.org/Graphics/SVG/1.1/DTD/svg11.dtd">
<svg version="1.1" id="Layer_1" xmlns="http://www.w3.org/2000/svg" xmlns:xlink="http://www.w3.org/1999/xlink" x="0px" y="0px"
	 width="100px" height="100px" viewBox="0 0 100 100" enable-background="new 0 0 100 100" xml:space="preserve">
<g>
	<path fill="#FFFFFF" d="M43.302,93.209c1.489-30.99,7.601-68.391-7.896-75.245c1.492-0.297,8.047,1.491,12.964,10.878
		c5.662-12.667,15.343-15.051,22.048-13.708C47.178,16.771,51.2,23.726,55.072,93.16L43.302,93.209z"/>
	<path fill="#FFFFFF" d="M44.601,74.333c0.191-2.714-3.829-7.797-11.877-11.223c-8.044-3.431-14.807-7.386-14.032-11.845
		c0.72-4.134,3.9-6.181,3.9-6.181s-2.804,3.337-2.682,6.405c0.159,4.105,6.555,7.003,12.368,8.789
		c5.812,1.79,14.001,7.268,14.001,7.268S44.405,77.047,44.601,74.333z"/>
	<path fill="#FFFFFF" d="M27.995,48.23c0,0-0.258-0.903-1.099-0.903c-0.838,0-1.872,1.485-3.038,1.16
		c-1.164-0.321-1.164-1.481-1.548-1.611c-0.389-0.13-1.487,0.256-1.487,0.256s0.973-2.531,3.748-3.422
		c2.002-0.647,3.265,0.085,3.682,0.578C29.289,45.516,27.995,48.23,27.995,48.23z"/>
	<path fill="#FFFFFF" d="M26.123,53.202c0,0,3.939,3.3,6.136,1.489c2.384-1.965,1.485-3.877,2.844-5.428
		c1.357-1.55,2.454-2.132,5.554,0.065c3.101,2.197-1.032-2.067-1.032-2.067l-2.264-1.616c0,0,0.712,1.485-0.128,1.42
		c-0.836-0.061-2.777-1.872-4.974-0.383c-2.197,1.481-2.132,3.744-3.618,5.294C27.975,52.673,26.123,53.202,26.123,53.202z"/>
	<path fill="#FFFFFF" d="M45.292,63.306c1.494-10.53-7.483-17.635-12.72-21.326c-5.237-3.687-9.937-6.681-12.557-7.052
		c1.924-0.053,3.312,0.533,3.312,0.212c0-0.322-2.885-2.727-2.885-2.727s1.017,0.432,1.334,0.378c0.321-0.057,0.48-2.14,0.48-2.14
		s2.138,4.435,3.688,4.435c0.751,0,0.161-2.567,1.445-3.422c1.284-0.851,1.711-0.533,2.403-0.37
		c-0.747,0.321-1.656,0.745-1.815,1.762s0.696,3.634,1.123,4.114c0.425,0.48,9.457,5.668,11.542,6.946
		c2.085,1.286,3.579,3.638,3.9,3.475c0.321-0.159,1.121-5.237,1.121-5.237l0.747,12.023C46.411,54.378,50.635,61.007,45.292,63.306z
		"/>
	<path fill="#FFFFFF" d="M25.037,58.87c0,0-0.427,0.533-0.907,0.798c-0.48,0.269-3.418,1.127-3.687,3.906
		c-0.269,2.775,0.801,4.969,1.711,6.034c0-1.054,0.124-1.721,0.486-2.507c0.466-1,2.238-1.818,2.771-3.315
		c0.535-1.498-0.529-1.733-0.427-2.353c0.215-1.281,2.246-1.123,2.246-1.123L25.037,58.87z"/>
	<path fill="#FFFFFF" d="M39.626,66.618c0,0-7.75-2.727-10.524,2.14c-2.779,4.863,1.44,9.192,4.755,9.831
		c-1.123-1.282-2.549-2.507-1.98-4.488c0.912-3.157,2.673-1.017,3.744-3.157c0.907-1.814-1.017-1.705-0.641-2.775
		c0.156-0.451,1.548-2.779,7.534,1.604C48.499,74.153,39.626,66.618,39.626,66.618z"/>
	<path fill="#FFFFFF" d="M64.314,71.537c0,0,8.498-4.761,11.225,0.903c2.725,5.668-6.038,10.795-10.368,7.324
		c4.865,1.656,5.239-1.229,5.13-1.762c-0.106-0.537-0.64-1.339-1.335-1.66c-0.694-0.317-2.137-0.639-1.978-1.925
		c0.162-1.281,1.978-2.511,2.941-2.295c0.961,0.212,1.081-0.455,0.961-0.695C69.873,69.396,64.314,71.537,64.314,71.537z"/>
	<path fill="#FFFFFF" d="M53.044,74.316c0,0,2.136,1.814,2.669,1.44s1.923-1.709,1.281-4.171c-0.639-2.457-0.479-4.81-0.479-4.81
		s1.656,3.638,2.457,4.118c0.802,0.48,0.859,0.691,1.339,0.321c0.48-0.378,2.991-2.352,3.898-2.889
		c0.907-0.533,5.347-2.938,7.161-4.753c1.819-1.819,2.232-2.601,1.767-4.334c-0.379-1.387-1.726-0.549-2.088-1.924
		c-0.321-1.226,0.269-2.349,0.321-3.097c0.054-0.749-0.051-2.348-1.334-3.418c2.35-0.375,5.983,0.053,7.319,2.242
		c1.483,2.433,0.802,5.505-2.938,9.619c-1.298,1.428-4.675,3.125-6.682,5.236c-4.061,4.276-9.191,5.644-12.235,10.421
		C53.078,82.117,53.044,74.316,53.044,74.316z"/>
	<path fill="#FFFFFF" d="M52.024,51.335c0.321,2.299,0.749,3.312,1.121,3.364c0.374,0.058,1.807-2.286,3.475-3.897
		c1.551-1.498,4.293-1.896,9.672-5.4c2.302-1.493,6.466-3.739,10.742-8.228c-1.176,2.083-3.094,5.615-5.291,6.893
		c-2.937,1.709-10.742,6.677-13.786,10.046c-3.046,3.369-5.397,7.642-5.129,12.988c0.231,4.696-1.605-9.09-1.605-9.09
		S51.703,49.036,52.024,51.335z"/>
	<path fill="#FFFFFF" d="M52.077,50.96c-0.107-6.039,5.435-14.787,6.468-16.463c1.55-2.511,9.139-10.739,14.962-8.333
		c-5.182-3.261-11.809,1.656-15.39,4.915c-2.632,2.396-4.65,7.162-5.396,6.844c-0.752-0.322-0.431-1.233-0.431-1.233l-3.257,8.394
		C49.034,45.084,52.185,56.999,52.077,50.96z"/>
	<path fill="#FFFFFF" d="M57.764,20.922c2.043-2.502,6.842-4.24,8.068-2.372c-1.709-0.515-2.607,0.997-3.116,1.811
		c-1.273,2.042-0.509,2.651-0.509,4.11c0,1.841-1.941,1.379-2.507,2.376c-0.352,0.629-0.203,2.988,0.438,2.503
		c0.637-0.487,0.484,0.537,0.484,0.537l-1.735,1.762l-1.302-0.053c0,0,1.223-1.636,0.996-2.246
		c-0.231-0.611-1.843-0.843-2.095-0.868c-0.257-0.026-0.794-0.384-0.818-1.483"/>
	<path fill="#FFFFFF" d="M60.754,51.538c0,0,1.868-0.696,2.627-0.032c0.759,0.663,0.845,1.2,0.824,1.518
		c-0.037,0.509-1.459,1.298-1.174,2.47c0.164,0.671,0.854,0.729,1.518,0.883c0.665,0.154,0.982,0.635,0.824,1.396
		c-0.176,0.843-1.107,1.645-2.434,1.737c-1.331,0.094-2.691,0.249-3.703-1.807c0.157,1.299,1.233,3.036,3.857,3.134
		c5.062,0.191,6.995-4.334,6.93-5.692c-0.057-1.233-0.854-2.751-2.372-3.545c-1.51-0.785-3.892-0.317-4.24-0.476
		c-0.346-0.159-0.6-1.168,0-1.705c0.601-0.537-1.707,0.033-1.707,0.033L60.754,51.538z"/>
	<path fill="#FFFFFF" d="M72.233,43.75c0,0,0.569-0.423,0.919-0.423c0.349,0,0.651,0.151,1.097-0.098
		c0.448-0.248,1.119-0.749,1.817-0.472c0.695,0.272,0.671,0.895,0.496,1.216c-0.175,0.326-0.396,0.973-0.049,1.294
		c0.35,0.326,1.546,0.126,1.941,0.851c0.398,0.72,0.923,2.563-0.969,4.358c3.809-1.025,5.45-7.072,2.639-8.915
		c-2.813-1.843-4.682,0.671-5.129,0.521c-0.45-0.146-0.398-0.968-0.398-0.968l-1.594,0.472L72.233,43.75z"/>
	<path fill="#FFFFFF" d="M53.865,41.406c0,0-0.457,2.958-0.073,2.116c0.387-0.842,1.083-0.862,1.301-0.529
		c0.213,0.338,0.966,2.206,2.406,2.792c2.958,1.204,5.821-1.778,7.17-1.562c-1.373-1.518-0.334-2.617-1.566-3.585
		c-3.174-2.502-7.023,1.298-7.553,1.107c-0.53-0.195-0.195-1.733-0.195-1.733L53.865,41.406z"/>
	<path fill="#FFFFFF" d="M58.459,32.89c0,0-2.333,4.98-0.386,2.336c1.953-2.649,4.862-4.118,5.488-4.094
		c0.627,0.024,1.254-0.264,1.396,0.24c0.142,0.504-0.766,0.96-0.749,1.974c0.024,1.322,1.078,1.453,1.615,1.733
		c0.599,0.313,1.298,1.322,1.298,2.669c0,1.253-0.142,2.141-1.827,2.718c5.243,0.269,7.121-6.974,4.234-9.574
		c-3.086-2.778-6.256,0.264-6.521-0.456c-0.265-0.724,0.695-1.395,0.695-1.395l-1.467,0.479L58.459,32.89z"/>
	<path fill="#FFFFFF" d="M74.772,36.597c1.807-1.038,3.914-6.966,1.253-9.891c-2.913-3.2-7.942-1.731-8.688-1.298
		c3.416-0.675,6.169,0.757,6.169,0.757s-1.412,1.431-1.187,2.706c0.238,1.35,1.78,1.757,2.501,2.457
		C75.496,31.979,76.481,33.826,74.772,36.597z"/>
	<path fill="#FFFFFF" d="M68.127,15.164c0,0,0.884,0.525,1.008,0.989s0.368,1.53,0.262,2.008c-0.105,0.48-0.472,1.756-0.077,2.645
		c0.558,1.251,3.198,1.237,4.546,1.174c1.364-0.065,3.446,0.356,4.311,2.271c0,0-0.092-5.579-3.587-7.664
		C71.096,14.499,68.127,15.164,68.127,15.164z"/>
	<path fill="#FFFFFF" d="M42.603,21.589c0,0-1.298-4.324,2.584-6.527c2.734-1.55,6.018-0.305,7.291,0.914
		c1.677,1.599,0.366,4.848-0.864,5.786c0.299-0.865,0.173-2.167-0.317-2.537c-0.755-0.565-1.406-0.495-1.798-0.022
		c-0.393,0.466-0.739,1.548-1.723,1.648c-0.985,0.098-1.774-0.714-2.34-0.863c-0.565-0.146-2.094-0.517-1.872,2.415
		C43.762,25.032,42.603,21.589,42.603,21.589z"/>
	<path fill="#FFFFFF" d="M41.235,21.595c0,0-2.661-1.876-1.945-0.975c0.71,0.901,0.183,1.65-0.041,1.726
		c-0.224,0.075-2.061,3.638-2.061,3.638s-2.852,0.795-2.852,3.076c0,1.445,0.714,1.681,1.503,2.137
		c0.448,0.26,0.936,1.237,0.936,2.1c0,1.953-0.997,2.783-1.99,2.812c-1.235,0.041-3.674-1.685-1.384-5.363
		c-1.39,0.712-2.366,4.838,0.297,5.924c2.661,1.09,5.509-0.309,7.051-2.246c3.188-4.016-1.912-8.29-1.912-8.29
		s0.073-3.526,1.048-3.487c0.977,0.037,1.314,0.6,1.577,0.977C41.726,23.998,41.235,21.595,41.235,21.595z"/>
	<path fill="#FFFFFF" d="M28.674,29.81c-1.2-1.051-3.758-5.441,1.764-9.938c4.238-3.451,7.652-1.424,7.652-1.424
		s2.436,3.524,1.461,2.549c-0.977-0.975-2.354-1.253-3.076-1.164c-0.598,0.075-1.318,0.828-1.273,1.164
		c0.15,1.123,0.248,2.071-0.415,3.001c-1.009,1.424-2.246,0.897-3.674,0.936c-1.424,0.039-2.063,0.415-2.547,1.237
		C28.101,26.958,28.001,28.083,28.674,29.81z"/>
	<path fill="#FFFFFF" d="M21.7,31.873c0,0-5.27-1.208-2.775-7.651c2.063-5.324,6.226-5.737,9.336-6.224
		c-1.498,0.712-2.734,1.874-3.373,2.924c-0.637,1.048-0.602,2.024-0.49,2.962c0.114,0.938-0.035,3.487-1.384,4.575
		c-1.351,1.085-1.652,1.688-1.615,2.14C21.439,31.046,21.7,31.873,21.7,31.873z"/>
	<path fill="#FFFFFF" d="M19.002,34.721c0,0-1.127,0.676-0.452,1.689c0.675,1.013,1.8,0.562,1.912,2.213
		c0.112,1.648-0.639,1.949-1.086,2.584c-0.452,0.643-1.166,1.875-0.716,2.702c0.452,0.826,0.903,0.977,1.426,0.749
		c-0.039,0.753-6.224,1.127-6.413-4.048C13.489,35.437,19.002,34.721,19.002,34.721z"/>
</g>
</svg>
