<?xml version="1.0" encoding="utf-8"?>
<!-- Generator: Adobe Illustrator 16.0.0, SVG Export Plug-In . SVG Version: 6.00 Build 0)  -->
<!DOCTYPE svg PUBLIC "-//W3C//DTD SVG 1.1//EN" "http://www.w3.org/Graphics/SVG/1.1/DTD/svg11.dtd">
<svg version="1.1" id="Layer_1" xmlns="http://www.w3.org/2000/svg" xmlns:xlink="http://www.w3.org/1999/xlink" x="0px" y="0px"
	 width="100px" height="100px" viewBox="0 0 100 100" enable-background="new 0 0 100 100" xml:space="preserve">
<path d="M51.042,13.56c-21.43,0-38.802,17.371-38.802,38.802s17.373,38.802,38.802,38.802c21.431,0,38.802-17.37,38.802-38.802
	S72.473,13.56,51.042,13.56z M51.042,22.17c4.577,0,8.284,3.709,8.284,8.285c0,4.578-3.711,8.285-8.284,8.285
	c-4.574,0-8.285-3.707-8.285-8.285C42.757,25.879,46.468,22.17,51.042,22.17z M20.998,44.989c0-4.574,3.707-8.285,8.285-8.285
	c4.576,0,8.285,3.711,8.285,8.285c0,4.577-3.709,8.284-8.285,8.284S20.998,49.566,20.998,44.989z M37.887,77.618
	c-4.576,0-8.285-3.704-8.285-8.282c0-4.58,3.711-8.284,8.285-8.284c4.575,0,8.284,3.711,8.284,8.284S42.462,77.618,37.887,77.618z
	 M51.042,57.212c-2.682,0-4.851-2.168-4.851-4.85s2.169-4.851,4.851-4.851c2.681,0,4.85,2.169,4.85,4.851
	S53.723,57.212,51.042,57.212z M64.197,77.669c-4.574,0-8.281-3.706-8.281-8.282c0-4.577,3.707-8.286,8.281-8.286
	c4.577,0,8.288,3.713,8.288,8.286C72.485,73.963,68.778,77.669,64.197,77.669z M72.803,53.322c-4.573,0-8.284-3.707-8.284-8.282
	c0-4.576,3.711-8.285,8.284-8.285c4.578,0,8.284,3.709,8.284,8.285C81.087,49.615,77.376,53.322,72.803,53.322z"/>
</svg>
