<?xml version="1.0" encoding="utf-8"?>
<!-- Generator: Adobe Illustrator 18.1.0, SVG Export Plug-In . SVG Version: 6.00 Build 0)  -->
<svg version="1.1" xmlns="http://www.w3.org/2000/svg" xmlns:xlink="http://www.w3.org/1999/xlink" x="0px" y="0px"
	 viewBox="0 0 612 792" enable-background="new 0 0 612 792" xml:space="preserve">
<g id="Layer_1">
	<path d="M597.1,339c12.3-7.8,15.9-24.3,7.9-36.6l-90.2-140.3c-3.8-6-9.8-10.1-16.6-11.6c-6.8-1.5-14-0.2-19.9,3.5l-63,40.6v-74.7
		c0-14.6-11.9-26.4-26.5-26.4H222.8c-14.6,0-26.5,11.9-26.5,26.4v74.7l-63-40.6c-12.3-7.8-28.7-4.3-36.6,7.9L6.5,302.5
		c-3.8,5.9-5.1,13.1-3.6,19.9c1.4,6.8,5.6,12.9,11.5,16.7l88.2,56.7l-88.2,56.7c-5.9,3.7-10,9.7-11.5,16.6c-1.5,6.8-0.3,14,3.6,19.9
		l90.3,140.4c3.7,5.9,9.7,10,16.7,11.5c6.8,1.5,14,0.3,19.9-3.5l63-40.6v74.7c0,14.7,11.9,26.6,26.5,26.6h166.1
		c14.6,0,26.5-11.9,26.5-26.6v-74.7l63,40.6c5.9,3.8,13.1,5,19.9,3.5c6.8-1.5,12.8-5.6,16.6-11.5L605,489
		c7.9-12.2,4.4-28.6-7.9-36.5l-88.1-56.7L597.1,339z M267.1,578.7c-9.2,0-17.9-4.7-23.1-12.5c-1-1.7-2-3.5-2.6-5.3
		c-5.3-14.2,2-30,16.2-35.3c7.6-2.8,14.5-5.5,20.9-8.1V414.7c-35.5-20.8-66.4-42.1-73.3-73.1c-10.8-48.4,5-76.5,20.2-91.5
		c8.1-8.1,17.8-14.1,28.2-18.6c7.9-3.4,16.4-5.8,24.9-7.6v-20.5c0-15.2,12.2-27.5,27.4-27.5c15.1,0,27.3,12.3,27.3,27.5v17.3
		c14.4,0.9,26.7,2.7,35,4.2c5,0.9,8.6,1.7,10.3,2.1c14.7,3.5,23.9,18.2,20.5,33c-2.8,12.2-13.3,20.5-25.1,21.2
		c-9.5-2-24.5-4.6-40.6-5.6c-19.3-1.3-40-0.4-54.7,6.6c0,0-11.5,6.1-15.1,9.7c-7.8,7.7-12.5,20.8-4.5,37.8
		c2.3,4.9,9.1,12.4,19.6,19.9v-56.8l54.7,10.9v187.1c22.1-13.7,23.6-21.1,23.6-21.2c-0.3-1.8-20.2-84.7-20.2-84.7
		c40.7,23.8,78.2,49.7,74.9,89.2c-2.2,26.8-22.8,50-66.6,73.2l-11.8,5.1l-54.7,24.1v-0.2c-0.6,0.2-1.2,0.4-1.8,0.6
		C273.4,578.3,270.2,578.7,267.1,578.7L267.1,578.7z M333.1,588.1c0,15.1-12.2,27.5-27.3,27.5c-15.2,0-27.5-12.3-27.5-27.5v-11.5
		l54.8-10.6V588.1z M333.1,588.1"/>
</g>
<g id="Layer_2">
</g>
</svg>
